G04 #@! TF.GenerationSoftware,KiCad,Pcbnew,5.0.2-bee76a0~70~ubuntu18.04.1*
G04 #@! TF.CreationDate,2019-01-29T21:20:29+01:00*
G04 #@! TF.ProjectId,Robot Propulsion layer 2 V2,526f626f-7420-4507-926f-70756c73696f,rev?*
G04 #@! TF.SameCoordinates,Original*
G04 #@! TF.FileFunction,Copper,L2,Bot*
G04 #@! TF.FilePolarity,Positive*
%FSLAX46Y46*%
G04 Gerber Fmt 4.6, Leading zero omitted, Abs format (unit mm)*
G04 Created by KiCad (PCBNEW 5.0.2-bee76a0~70~ubuntu18.04.1) date mar. 29 janv. 2019 21:20:29 CET*
%MOMM*%
%LPD*%
G01*
G04 APERTURE LIST*
G04 #@! TA.AperFunction,ComponentPad*
%ADD10C,1.600000*%
G04 #@! TD*
G04 #@! TA.AperFunction,ComponentPad*
%ADD11R,1.600000X1.600000*%
G04 #@! TD*
G04 #@! TA.AperFunction,ComponentPad*
%ADD12R,1.500000X1.050000*%
G04 #@! TD*
G04 #@! TA.AperFunction,ComponentPad*
%ADD13O,1.500000X1.050000*%
G04 #@! TD*
G04 #@! TA.AperFunction,ComponentPad*
%ADD14C,1.524000*%
G04 #@! TD*
G04 #@! TA.AperFunction,ComponentPad*
%ADD15O,1.700000X1.700000*%
G04 #@! TD*
G04 #@! TA.AperFunction,ComponentPad*
%ADD16R,1.700000X1.700000*%
G04 #@! TD*
G04 #@! TA.AperFunction,ComponentPad*
%ADD17C,1.700000*%
G04 #@! TD*
G04 #@! TA.AperFunction,Conductor*
%ADD18C,1.700000*%
G04 #@! TD*
G04 #@! TA.AperFunction,Conductor*
%ADD19C,0.100000*%
G04 #@! TD*
G04 #@! TA.AperFunction,Conductor*
%ADD20C,1.600000*%
G04 #@! TD*
G04 #@! TA.AperFunction,ComponentPad*
%ADD21O,1.600000X1.600000*%
G04 #@! TD*
G04 #@! TA.AperFunction,ComponentPad*
%ADD22C,1.905000*%
G04 #@! TD*
G04 #@! TA.AperFunction,Conductor*
%ADD23C,1.905000*%
G04 #@! TD*
G04 #@! TA.AperFunction,ComponentPad*
%ADD24R,2.000000X1.905000*%
G04 #@! TD*
G04 #@! TA.AperFunction,ComponentPad*
%ADD25O,2.000000X1.905000*%
G04 #@! TD*
G04 #@! TA.AperFunction,ViaPad*
%ADD26C,1.000000*%
G04 #@! TD*
G04 #@! TA.AperFunction,ViaPad*
%ADD27C,1.600000*%
G04 #@! TD*
G04 #@! TA.AperFunction,Conductor*
%ADD28C,0.500000*%
G04 #@! TD*
G04 #@! TA.AperFunction,Conductor*
%ADD29C,2.000000*%
G04 #@! TD*
G04 APERTURE END LIST*
D10*
G04 #@! TO.P,U3,17*
G04 #@! TO.N,Net-(U3-Pad17)*
X119000000Y-78514000D03*
G04 #@! TO.P,U3,18*
G04 #@! TO.N,Net-(SW1-Pad1)*
X116460000Y-78514000D03*
G04 #@! TO.P,U3,16*
G04 #@! TO.N,+3V3*
X121540000Y-78514000D03*
G04 #@! TO.P,U3,14*
G04 #@! TO.N,/EN_BAT_6V*
X126620000Y-78514000D03*
G04 #@! TO.P,U3,22*
G04 #@! TO.N,/CUR_12V*
X111380000Y-83594000D03*
G04 #@! TO.P,U3,23*
G04 #@! TO.N,/ALERT_6V*
X111380000Y-86134000D03*
G04 #@! TO.P,U3,24*
G04 #@! TO.N,/CUR_6V*
X111380000Y-88674000D03*
G04 #@! TO.P,U3,25*
G04 #@! TO.N,/T_6V*
X111380000Y-91214000D03*
G04 #@! TO.P,U3,26*
G04 #@! TO.N,/T_12V*
X111380000Y-93754000D03*
G04 #@! TO.P,U3,27*
G04 #@! TO.N,Net-(U3-Pad27)*
X111380000Y-96294000D03*
G04 #@! TO.P,U3,28*
G04 #@! TO.N,Net-(U3-Pad28)*
X111380000Y-98834000D03*
G04 #@! TO.P,U3,30*
G04 #@! TO.N,/EN_5V*
X111380000Y-103914000D03*
G04 #@! TO.P,U3,33*
G04 #@! TO.N,Net-(U3-Pad33)*
X111380000Y-111534000D03*
G04 #@! TO.P,U3,13*
G04 #@! TO.N,/LED_1*
X126620000Y-81054000D03*
G04 #@! TO.P,U3,12*
G04 #@! TO.N,/STOP_BAT_POWER*
X126620000Y-83594000D03*
G04 #@! TO.P,U3,11*
G04 #@! TO.N,/LED_2*
X126620000Y-86134000D03*
G04 #@! TO.P,U3,10*
G04 #@! TO.N,/EN_BAT_12V*
X126620000Y-88674000D03*
G04 #@! TO.P,U3,9*
G04 #@! TO.N,/EN_3_3V*
X126620000Y-91214000D03*
G04 #@! TO.P,U3,7*
G04 #@! TO.N,/ALERT_12V*
X126620000Y-96294000D03*
G04 #@! TO.P,U3,6*
G04 #@! TO.N,/EN_9V*
X126620000Y-98834000D03*
G04 #@! TO.P,U3,4*
G04 #@! TO.N,/EN_6V*
X126620000Y-103914000D03*
G04 #@! TO.P,U3,3*
G04 #@! TO.N,/TX*
X126620000Y-106454000D03*
G04 #@! TO.P,U3,2*
G04 #@! TO.N,/RX*
X126620000Y-108994000D03*
D11*
G04 #@! TO.P,U3,1*
G04 #@! TO.N,GND*
X126620000Y-111534000D03*
G04 #@! TD*
D12*
G04 #@! TO.P,Q1,1*
G04 #@! TO.N,GND*
X103760000Y-69370000D03*
D13*
G04 #@! TO.P,Q1,3*
G04 #@! TO.N,Net-(Q1-Pad3)*
X103760000Y-66830000D03*
G04 #@! TO.P,Q1,2*
G04 #@! TO.N,Net-(Q1-Pad2)*
X103760000Y-68100000D03*
G04 #@! TD*
D12*
G04 #@! TO.P,Q3,1*
G04 #@! TO.N,GND*
X142495000Y-71910000D03*
D13*
G04 #@! TO.P,Q3,3*
G04 #@! TO.N,Net-(Q3-Pad3)*
X142495000Y-69370000D03*
G04 #@! TO.P,Q3,2*
G04 #@! TO.N,Net-(Q3-Pad2)*
X142495000Y-70640000D03*
G04 #@! TD*
D14*
G04 #@! TO.P,J3,3*
G04 #@! TO.N,GND*
X115340000Y-59210000D03*
G04 #@! TO.P,J3,2*
G04 #@! TO.N,+6V*
X111380000Y-59210000D03*
G04 #@! TO.P,J3,1*
G04 #@! TO.N,Net-(J3-Pad1)*
X107420000Y-59210000D03*
G04 #@! TD*
G04 #@! TO.P,J5,3*
G04 #@! TO.N,GND*
X130580000Y-59210000D03*
G04 #@! TO.P,J5,2*
G04 #@! TO.N,+12V*
X126620000Y-59210000D03*
G04 #@! TO.P,J5,1*
G04 #@! TO.N,Net-(J5-Pad1)*
X122660000Y-59210000D03*
G04 #@! TD*
D15*
G04 #@! TO.P,J2,2*
G04 #@! TO.N,Net-(J2-Pad2)*
X103760000Y-63655000D03*
D16*
G04 #@! TO.P,J2,1*
G04 #@! TO.N,GND*
X103760000Y-61115000D03*
G04 #@! TD*
D15*
G04 #@! TO.P,J4,2*
G04 #@! TO.N,Net-(J4-Pad2)*
X134240000Y-61750000D03*
D16*
G04 #@! TO.P,J4,1*
G04 #@! TO.N,GND*
X134240000Y-59210000D03*
G04 #@! TD*
D17*
G04 #@! TO.P,J7,2*
G04 #@! TO.N,+12V*
X86959705Y-73180000D03*
D18*
G04 #@! TD*
G04 #@! TO.N,+12V*
G04 #@! TO.C,J7*
X86959705Y-73180000D02*
X86959705Y-73180000D01*
D17*
G04 #@! TO.P,J7,1*
G04 #@! TO.N,GND*
X84760000Y-74450000D03*
D19*
G04 #@! TD*
G04 #@! TO.N,GND*
G04 #@! TO.C,J7*
G36*
X85921122Y-74761122D02*
X84448878Y-75611122D01*
X83598878Y-74138878D01*
X85071122Y-73288878D01*
X85921122Y-74761122D01*
X85921122Y-74761122D01*
G37*
D15*
G04 #@! TO.P,J8,2*
G04 #@! TO.N,+12V*
X140005000Y-54130000D03*
D16*
G04 #@! TO.P,J8,1*
G04 #@! TO.N,GND*
X140005000Y-51590000D03*
G04 #@! TD*
D15*
G04 #@! TO.P,J9,2*
G04 #@! TO.N,+12V*
X129845000Y-111280000D03*
D16*
G04 #@! TO.P,J9,1*
G04 #@! TO.N,GND*
X132385000Y-111280000D03*
G04 #@! TD*
D15*
G04 #@! TO.P,J10,2*
G04 #@! TO.N,+6V*
X98095000Y-54130000D03*
D16*
G04 #@! TO.P,J10,1*
G04 #@! TO.N,GND*
X98095000Y-51590000D03*
G04 #@! TD*
D17*
G04 #@! TO.P,Switch_Power1,2*
G04 #@! TO.N,Net-(J1-Pad6)*
X94285000Y-69370000D03*
D18*
G04 #@! TD*
G04 #@! TO.N,Net-(J1-Pad6)*
G04 #@! TO.C,Switch_Power1*
X94285000Y-69370000D02*
X94285000Y-69370000D01*
D17*
G04 #@! TO.P,Switch_Power1,1*
G04 #@! TO.N,GND*
X95555000Y-67170295D03*
D19*
G04 #@! TD*
G04 #@! TO.N,GND*
G04 #@! TO.C,Switch_Power1*
G36*
X94393878Y-67481417D02*
X95243878Y-66009173D01*
X96716122Y-66859173D01*
X95866122Y-68331417D01*
X94393878Y-67481417D01*
X94393878Y-67481417D01*
G37*
D14*
G04 #@! TO.P,U4,1*
G04 #@! TO.N,Net-(U4-Pad1)*
X93092000Y-89690000D03*
G04 #@! TO.P,U4,2*
G04 #@! TO.N,/EN_3_3V*
X93092000Y-87150000D03*
G04 #@! TO.P,U4,3*
G04 #@! TO.N,+6V*
X93092000Y-84610000D03*
G04 #@! TO.P,U4,4*
G04 #@! TO.N,GND*
X93092000Y-82070000D03*
G04 #@! TO.P,U4,5*
G04 #@! TO.N,/3_3V*
X93092000Y-79530000D03*
G04 #@! TO.P,U4,6*
G04 #@! TO.N,GND*
X103887000Y-89690000D03*
G04 #@! TD*
G04 #@! TO.P,U5,1*
G04 #@! TO.N,Net-(U5-Pad1)*
X93092000Y-108105000D03*
G04 #@! TO.P,U5,2*
G04 #@! TO.N,/EN_5V*
X93092000Y-105565000D03*
G04 #@! TO.P,U5,3*
G04 #@! TO.N,+6V*
X93092000Y-103025000D03*
G04 #@! TO.P,U5,4*
G04 #@! TO.N,GND*
X93092000Y-100485000D03*
G04 #@! TO.P,U5,5*
G04 #@! TO.N,/5V*
X93092000Y-97945000D03*
G04 #@! TO.P,U5,6*
G04 #@! TO.N,GND*
X103887000Y-108105000D03*
G04 #@! TD*
G04 #@! TO.P,U6,1*
G04 #@! TO.N,Net-(U6-Pad1)*
X145035000Y-92865000D03*
G04 #@! TO.P,U6,2*
G04 #@! TO.N,/EN_6V*
X145035000Y-95405000D03*
G04 #@! TO.P,U6,3*
G04 #@! TO.N,+12V*
X145035000Y-97945000D03*
G04 #@! TO.P,U6,4*
G04 #@! TO.N,GND*
X145035000Y-100485000D03*
G04 #@! TO.P,U6,5*
G04 #@! TO.N,/6V*
X145035000Y-103025000D03*
G04 #@! TO.P,U6,6*
G04 #@! TO.N,GND*
X134240000Y-92865000D03*
G04 #@! TD*
G04 #@! TO.P,U7,1*
G04 #@! TO.N,Net-(U7-Pad1)*
X145035000Y-74450000D03*
G04 #@! TO.P,U7,2*
G04 #@! TO.N,/EN_9V*
X145035000Y-76990000D03*
G04 #@! TO.P,U7,3*
G04 #@! TO.N,+12V*
X145035000Y-79530000D03*
G04 #@! TO.P,U7,4*
G04 #@! TO.N,GND*
X145035000Y-82070000D03*
G04 #@! TO.P,U7,5*
G04 #@! TO.N,/9V*
X145035000Y-84610000D03*
G04 #@! TO.P,U7,6*
G04 #@! TO.N,GND*
X134240000Y-74450000D03*
G04 #@! TD*
G04 #@! TO.P,U1,5*
G04 #@! TO.N,GND*
X104776000Y-49050000D03*
G04 #@! TO.P,U1,4*
X107316000Y-49050000D03*
G04 #@! TO.P,U1,3*
G04 #@! TO.N,+3V3*
X109856000Y-49050000D03*
G04 #@! TO.P,U1,2*
G04 #@! TO.N,/CUR_6V*
X112396000Y-49050000D03*
G04 #@! TO.P,U1,1*
G04 #@! TO.N,/ALERT_6V*
X114936000Y-49050000D03*
G04 #@! TD*
G04 #@! TO.P,U2,5*
G04 #@! TO.N,GND*
X123064000Y-49050000D03*
G04 #@! TO.P,U2,4*
X125604000Y-49050000D03*
G04 #@! TO.P,U2,3*
G04 #@! TO.N,+3V3*
X128144000Y-49050000D03*
G04 #@! TO.P,U2,2*
G04 #@! TO.N,/CUR_12V*
X130684000Y-49050000D03*
G04 #@! TO.P,U2,1*
G04 #@! TO.N,/ALERT_12V*
X133224000Y-49050000D03*
G04 #@! TD*
D15*
G04 #@! TO.P,J1,16*
G04 #@! TO.N,GND*
X127890000Y-66830000D03*
G04 #@! TO.P,J1,15*
G04 #@! TO.N,/9V*
X127890000Y-69370000D03*
G04 #@! TO.P,J1,14*
G04 #@! TO.N,GND*
X125350000Y-66830000D03*
G04 #@! TO.P,J1,13*
G04 #@! TO.N,/6V*
X125350000Y-69370000D03*
G04 #@! TO.P,J1,12*
G04 #@! TO.N,GND*
X122810000Y-66830000D03*
G04 #@! TO.P,J1,11*
G04 #@! TO.N,/5V*
X122810000Y-69370000D03*
G04 #@! TO.P,J1,10*
G04 #@! TO.N,GND*
X120270000Y-66830000D03*
G04 #@! TO.P,J1,9*
G04 #@! TO.N,/3_3V*
X120270000Y-69370000D03*
G04 #@! TO.P,J1,8*
G04 #@! TO.N,/USB_V+*
X117730000Y-66830000D03*
G04 #@! TO.P,J1,7*
G04 #@! TO.N,/USB_V-*
X117730000Y-69370000D03*
G04 #@! TO.P,J1,6*
G04 #@! TO.N,Net-(J1-Pad6)*
X115190000Y-66830000D03*
G04 #@! TO.P,J1,5*
G04 #@! TO.N,/STOP_BAT_POWER*
X115190000Y-69370000D03*
G04 #@! TO.P,J1,4*
G04 #@! TO.N,/LED_1*
X112650000Y-66830000D03*
G04 #@! TO.P,J1,3*
G04 #@! TO.N,/LED_2*
X112650000Y-69370000D03*
G04 #@! TO.P,J1,2*
G04 #@! TO.N,/TX*
X110110000Y-66830000D03*
D16*
G04 #@! TO.P,J1,1*
G04 #@! TO.N,/RX*
X110110000Y-69370000D03*
G04 #@! TD*
D10*
G04 #@! TO.P,R1,1*
G04 #@! TO.N,Net-(Q1-Pad2)*
X103760000Y-76355000D03*
G04 #@! TO.P,R1,2*
G04 #@! TO.N,/EN_BAT_6V*
X109148154Y-81743154D03*
D20*
G04 #@! TD*
G04 #@! TO.N,/EN_BAT_6V*
G04 #@! TO.C,R1*
X109148154Y-81743154D02*
X109148154Y-81743154D01*
D21*
G04 #@! TO.P,R2,2*
G04 #@! TO.N,GND*
X103760000Y-71910000D03*
D10*
G04 #@! TO.P,R2,1*
G04 #@! TO.N,Net-(Q1-Pad2)*
X96140000Y-71910000D03*
G04 #@! TD*
G04 #@! TO.P,R3,1*
G04 #@! TO.N,Net-(J2-Pad2)*
X99950000Y-69370000D03*
D21*
G04 #@! TO.P,R3,2*
G04 #@! TO.N,Net-(Q1-Pad3)*
X99950000Y-61750000D03*
G04 #@! TD*
G04 #@! TO.P,R4,2*
G04 #@! TO.N,/T_6V*
X86615000Y-89055000D03*
D10*
G04 #@! TO.P,R4,1*
G04 #@! TO.N,+6V*
X86615000Y-81435000D03*
G04 #@! TD*
G04 #@! TO.P,R5,1*
G04 #@! TO.N,/T_6V*
X86615000Y-92865000D03*
D21*
G04 #@! TO.P,R5,2*
G04 #@! TO.N,GND*
X86615000Y-100485000D03*
G04 #@! TD*
D10*
G04 #@! TO.P,R6,1*
G04 #@! TO.N,Net-(Q3-Pad2)*
X136780000Y-76990000D03*
G04 #@! TO.P,R6,2*
G04 #@! TO.N,/EN_BAT_12V*
X131391846Y-82378154D03*
D20*
G04 #@! TD*
G04 #@! TO.N,/EN_BAT_12V*
G04 #@! TO.C,R6*
X131391846Y-82378154D02*
X131391846Y-82378154D01*
D21*
G04 #@! TO.P,R7,2*
G04 #@! TO.N,GND*
X130684000Y-69624000D03*
D10*
G04 #@! TO.P,R7,1*
G04 #@! TO.N,Net-(Q3-Pad2)*
X138304000Y-69624000D03*
G04 #@! TD*
D21*
G04 #@! TO.P,R8,2*
G04 #@! TO.N,Net-(Q3-Pad3)*
X138050000Y-67084000D03*
D10*
G04 #@! TO.P,R8,1*
G04 #@! TO.N,Net-(J4-Pad2)*
X138050000Y-59464000D03*
G04 #@! TD*
D21*
G04 #@! TO.P,R9,2*
G04 #@! TO.N,/T_12V*
X150750000Y-85880000D03*
D10*
G04 #@! TO.P,R9,1*
G04 #@! TO.N,+12V*
X150750000Y-78260000D03*
G04 #@! TD*
G04 #@! TO.P,R10,1*
G04 #@! TO.N,/T_12V*
X150750000Y-90960000D03*
D21*
G04 #@! TO.P,R10,2*
G04 #@! TO.N,GND*
X150750000Y-98580000D03*
G04 #@! TD*
D14*
G04 #@! TO.P,SW1,1*
G04 #@! TO.N,Net-(SW1-Pad1)*
X121540000Y-107470000D03*
G04 #@! TO.P,SW1,2*
G04 #@! TO.N,GND*
X116460000Y-107470000D03*
G04 #@! TO.P,SW1,3*
G04 #@! TO.N,N/C*
X122810000Y-104930000D03*
G04 #@! TO.P,SW1,4*
X115190000Y-104930000D03*
G04 #@! TD*
D22*
G04 #@! TO.P,Q2,1*
G04 #@! TO.N,Net-(J2-Pad2)*
X93600000Y-63020000D03*
D19*
G04 #@! TD*
G04 #@! TO.N,Net-(J2-Pad2)*
G04 #@! TO.C,Q2*
G36*
X93989775Y-64344889D02*
X92257725Y-63344889D01*
X93210225Y-61695111D01*
X94942275Y-62695111D01*
X93989775Y-64344889D01*
X93989775Y-64344889D01*
G37*
D22*
G04 #@! TO.P,Q2,2*
G04 #@! TO.N,Net-(Q1-Pad3)*
X94870000Y-60820295D03*
D23*
G04 #@! TD*
G04 #@! TO.N,Net-(Q1-Pad3)*
G04 #@! TO.C,Q2*
X94828864Y-60796545D02*
X94911136Y-60844045D01*
D22*
G04 #@! TO.P,Q2,3*
G04 #@! TO.N,Net-(J3-Pad1)*
X96140000Y-58620591D03*
D23*
G04 #@! TD*
G04 #@! TO.N,Net-(J3-Pad1)*
G04 #@! TO.C,Q2*
X96098864Y-58596841D02*
X96181136Y-58644341D01*
D24*
G04 #@! TO.P,Q4,1*
G04 #@! TO.N,Net-(J4-Pad2)*
X141225000Y-59845000D03*
D25*
G04 #@! TO.P,Q4,2*
G04 #@! TO.N,Net-(Q3-Pad3)*
X141225000Y-62385000D03*
G04 #@! TO.P,Q4,3*
G04 #@! TO.N,Net-(J5-Pad1)*
X141225000Y-64925000D03*
G04 #@! TD*
D26*
G04 #@! TO.N,GND*
X91060000Y-100485000D03*
G04 #@! TO.N,/EN_3_3V*
X113920000Y-91214000D03*
D27*
G04 #@! TO.N,/5V*
X98045000Y-97945000D03*
G04 #@! TO.N,/6V*
X145035000Y-105565000D03*
G04 #@! TO.N,/9V*
X145035000Y-86515000D03*
D26*
G04 #@! TO.N,/CUR_12V*
X118365000Y-53495000D03*
G04 #@! TO.N,/RX*
X108840000Y-71275000D03*
G04 #@! TO.N,/LED_2*
X112650000Y-71275000D03*
G04 #@! TO.N,/STOP_BAT_POWER*
X115190000Y-71275000D03*
G04 #@! TO.N,/TX*
X110872000Y-71275000D03*
G04 #@! TD*
D28*
G04 #@! TO.N,Net-(Q1-Pad2)*
X102510000Y-68100000D02*
X101855000Y-68755000D01*
X103760000Y-68100000D02*
X102510000Y-68100000D01*
X101855000Y-68755000D02*
X101855000Y-70640000D01*
X101855000Y-70640000D02*
X100585000Y-71910000D01*
X100585000Y-71910000D02*
X96775000Y-71910000D01*
G04 #@! TO.N,Net-(Q1-Pad3)*
X94870000Y-60820295D02*
X95799705Y-61750000D01*
X95799705Y-61750000D02*
X99950000Y-61750000D01*
D29*
G04 #@! TO.N,GND*
X115340000Y-59210000D02*
X115340000Y-56820000D01*
X115340000Y-56820000D02*
X110110000Y-51590000D01*
X110110000Y-51590000D02*
X98095000Y-51590000D01*
X130580000Y-59210000D02*
X130580000Y-59360000D01*
X134240000Y-59210000D02*
X130580000Y-59210000D01*
X127890000Y-66830000D02*
X120270000Y-66830000D01*
X120270000Y-63020000D02*
X119150000Y-63020000D01*
X116460000Y-60330000D02*
X117880000Y-60330000D01*
X116460000Y-60330000D02*
X115340000Y-59210000D01*
X119150000Y-63020000D02*
X116460000Y-60330000D01*
X119000000Y-60480000D02*
X125350000Y-66830000D01*
X119000000Y-59210000D02*
X119000000Y-60480000D01*
X119000000Y-59210000D02*
X125985000Y-52225000D01*
X117880000Y-60330000D02*
X119000000Y-59210000D01*
X122107081Y-64925000D02*
X120270000Y-64925000D01*
X122810000Y-65627919D02*
X122107081Y-64925000D01*
X120270000Y-66830000D02*
X120270000Y-64925000D01*
X122810000Y-66830000D02*
X122810000Y-65627919D01*
X120270000Y-64925000D02*
X120270000Y-63020000D01*
X120270000Y-64140000D02*
X119150000Y-63020000D01*
X120270000Y-66830000D02*
X120270000Y-64140000D01*
X115340000Y-56820000D02*
X117730000Y-59210000D01*
X115340000Y-59210000D02*
X117730000Y-59210000D01*
X117730000Y-59210000D02*
X119000000Y-59210000D01*
D28*
X86615000Y-100485000D02*
X91060000Y-100485000D01*
D29*
X140005000Y-51590000D02*
X126620000Y-51590000D01*
X126620000Y-51590000D02*
X125985000Y-52225000D01*
D28*
X103760000Y-69370000D02*
X103760000Y-71275000D01*
X127890000Y-66830000D02*
X129795000Y-66830000D01*
X131700000Y-71910000D02*
X134240000Y-74450000D01*
X130684000Y-70894000D02*
X134240000Y-74450000D01*
X130684000Y-69624000D02*
X130684000Y-70894000D01*
X130684000Y-67719000D02*
X129795000Y-66830000D01*
X130684000Y-69624000D02*
X130684000Y-67719000D01*
D29*
G04 #@! TO.N,Net-(J3-Pad1)*
X106254409Y-58620591D02*
X96140000Y-58620591D01*
X106830591Y-58620591D02*
X96140000Y-58620591D01*
X107420000Y-59210000D02*
X106830591Y-58620591D01*
D28*
G04 #@! TO.N,Net-(Q3-Pad2)*
X140590000Y-70640000D02*
X142495000Y-70640000D01*
X139320000Y-73815000D02*
X139320000Y-71910000D01*
X136145000Y-76990000D02*
X139320000Y-73815000D01*
X139828000Y-71148000D02*
X139828000Y-71402000D01*
X138304000Y-69624000D02*
X139828000Y-71148000D01*
X139320000Y-71910000D02*
X139828000Y-71402000D01*
X139828000Y-71402000D02*
X140590000Y-70640000D01*
G04 #@! TO.N,Net-(Q3-Pad3)*
X142725000Y-62385000D02*
X141225000Y-62385000D01*
X143765000Y-63425000D02*
X142725000Y-62385000D01*
X143765000Y-66830000D02*
X143765000Y-63425000D01*
X142495000Y-68100000D02*
X143765000Y-66830000D01*
X142495000Y-69370000D02*
X142495000Y-68100000D01*
X142495000Y-68345000D02*
X142495000Y-69370000D01*
X142033999Y-67883999D02*
X142495000Y-68345000D01*
X138849999Y-67883999D02*
X142033999Y-67883999D01*
X138050000Y-67084000D02*
X138849999Y-67883999D01*
D29*
G04 #@! TO.N,Net-(J4-Pad2)*
X134240000Y-61750000D02*
X136145000Y-61750000D01*
X138050000Y-59845000D02*
X141225000Y-59845000D01*
X136145000Y-61750000D02*
X138050000Y-59845000D01*
G04 #@! TO.N,Net-(J5-Pad1)*
X125350000Y-63020000D02*
X130430000Y-63020000D01*
X122660000Y-59210000D02*
X122660000Y-60330000D01*
X122660000Y-60330000D02*
X125350000Y-63020000D01*
X130430000Y-63020000D02*
X132335000Y-64925000D01*
X132335000Y-64925000D02*
X141225000Y-64925000D01*
G04 #@! TO.N,+6V*
X98095000Y-55332081D02*
X98095000Y-54130000D01*
X108772081Y-55332081D02*
X98095000Y-55332081D01*
X111380000Y-57940000D02*
X108772081Y-55332081D01*
X87885000Y-81435000D02*
X86615000Y-81435000D01*
X90425000Y-78895000D02*
X87885000Y-81435000D01*
X90552000Y-62766000D02*
X90425000Y-78895000D01*
X98095000Y-54130000D02*
X95505000Y-54130000D01*
X95505000Y-54130000D02*
X90552000Y-62766000D01*
X111380000Y-59210000D02*
X111380000Y-57940000D01*
G04 #@! TO.N,+12V*
X129160000Y-54130000D02*
X140005000Y-54130000D01*
X126620000Y-59210000D02*
X126620000Y-56670000D01*
X126620000Y-56670000D02*
X129160000Y-54130000D01*
X140005000Y-54130000D02*
X141860000Y-54130000D01*
X141860000Y-54130000D02*
X153290000Y-73872728D01*
X153290000Y-104930000D02*
X148210000Y-110010000D01*
X148210000Y-110010000D02*
X136780000Y-110010000D01*
X129845000Y-106785000D02*
X131700000Y-104930000D01*
X129845000Y-111280000D02*
X129845000Y-106785000D01*
X136780000Y-110010000D02*
X131700000Y-104930000D01*
X87589990Y-76650010D02*
X87589990Y-73810285D01*
X87589990Y-73810285D02*
X86959705Y-73180000D01*
X149480000Y-78260000D02*
X153290000Y-78260000D01*
X153290000Y-78260000D02*
X153290000Y-104930000D01*
X89790000Y-112550000D02*
X82805000Y-105565000D01*
X95015622Y-112550000D02*
X89790000Y-112550000D01*
X106445622Y-101120000D02*
X95015622Y-112550000D01*
X131700000Y-104930000D02*
X127890000Y-101120000D01*
X127890000Y-101120000D02*
X106445622Y-101120000D01*
X82805000Y-81435000D02*
X87589990Y-76650010D01*
X82805000Y-105565000D02*
X82805000Y-81435000D01*
X153290000Y-73872728D02*
X153290000Y-78260000D01*
D28*
G04 #@! TO.N,/EN_3_3V*
X126620000Y-91214000D02*
X114301000Y-91214000D01*
X114301000Y-91214000D02*
X114301000Y-91214000D01*
X113920000Y-91214000D02*
X114301000Y-91214000D01*
D29*
G04 #@! TO.N,/3_3V*
X119635000Y-72545000D02*
X120270000Y-71910000D01*
X93092000Y-79530000D02*
X104395000Y-79530000D01*
X120270000Y-71910000D02*
X120270000Y-69370000D01*
X120270000Y-71910000D02*
X119000000Y-73180000D01*
X119000000Y-73180000D02*
X110745000Y-73180000D01*
X110745000Y-73180000D02*
X104395000Y-79530000D01*
G04 #@! TO.N,/5V*
X122810000Y-73180000D02*
X122810000Y-69370000D01*
X112015000Y-75720000D02*
X120270000Y-75720000D01*
X120270000Y-75720000D02*
X122810000Y-73180000D01*
X98045000Y-97945000D02*
X98045000Y-89690000D01*
X98045000Y-89690000D02*
X112015000Y-75720000D01*
G04 #@! TO.N,/6V*
X139955000Y-87785000D02*
X125350000Y-73180000D01*
X139955000Y-103025000D02*
X139955000Y-87785000D01*
X125350000Y-73180000D02*
X125350000Y-69370000D01*
X145035000Y-105565000D02*
X142495000Y-105565000D01*
X142495000Y-105565000D02*
X139955000Y-103025000D01*
G04 #@! TO.N,/9V*
X142495000Y-86515000D02*
X145035000Y-86515000D01*
X127890000Y-69370000D02*
X127890000Y-71910000D01*
X127890000Y-71910000D02*
X142495000Y-86515000D01*
D28*
G04 #@! TO.N,/CUR_12V*
X130684000Y-49050000D02*
X128779000Y-47145000D01*
X128779000Y-47145000D02*
X123175238Y-47145000D01*
X123175238Y-47145000D02*
X122175000Y-47145000D01*
X122175000Y-47145000D02*
X118365000Y-50955000D01*
X118365000Y-50955000D02*
X118365000Y-53495000D01*
X118365000Y-53495000D02*
X118365000Y-53495000D01*
G04 #@! TO.N,/RX*
X108840000Y-71275000D02*
X108840000Y-70005000D01*
X108840000Y-70005000D02*
X109475000Y-69370000D01*
X109475000Y-69370000D02*
X110110000Y-69370000D01*
G04 #@! TO.N,/LED_2*
X112650000Y-69370000D02*
X112650000Y-71275000D01*
X112650000Y-71275000D02*
X112650000Y-71275000D01*
G04 #@! TO.N,/STOP_BAT_POWER*
X115190000Y-71275000D02*
X115190000Y-69370000D01*
G04 #@! TO.N,/TX*
X110110000Y-66830000D02*
X108907919Y-66830000D01*
X108907919Y-66830000D02*
X108809999Y-66927920D01*
X110110000Y-71275000D02*
X110110000Y-71275000D01*
X106935000Y-71275000D02*
X106935000Y-68735000D01*
X108840000Y-66830000D02*
X108907919Y-66830000D01*
X108205000Y-72545000D02*
X106935000Y-71275000D01*
X106935000Y-68735000D02*
X108840000Y-66830000D01*
X110110000Y-71275000D02*
X108840000Y-72545000D01*
X108840000Y-72545000D02*
X108205000Y-72545000D01*
X110110000Y-71275000D02*
X110872000Y-71275000D01*
G04 #@! TO.N,/T_6V*
X86615000Y-92865000D02*
X86615000Y-89055000D01*
X107570000Y-92865000D02*
X109221000Y-91214000D01*
X107570000Y-96675000D02*
X107570000Y-92865000D01*
X86615000Y-92865000D02*
X85345000Y-92865000D01*
X84710000Y-93500000D02*
X84710000Y-104295000D01*
X109221000Y-91214000D02*
X111380000Y-91214000D01*
X85345000Y-92865000D02*
X84710000Y-93500000D01*
X84710000Y-104295000D02*
X91060000Y-110645000D01*
X91060000Y-110645000D02*
X93600000Y-110645000D01*
X93600000Y-110645000D02*
X107570000Y-96675000D01*
G04 #@! TO.N,/T_12V*
X150750000Y-90960000D02*
X150750000Y-85880000D01*
X150750000Y-90960000D02*
X148210000Y-93500000D01*
X148210000Y-93500000D02*
X148210000Y-106200000D01*
X111380000Y-93754000D02*
X111761000Y-93754000D01*
X111761000Y-93754000D02*
X112015000Y-93500000D01*
X112015000Y-93500000D02*
X127255000Y-93500000D01*
X127255000Y-93500000D02*
X141860000Y-108105000D01*
X141860000Y-108105000D02*
X146305000Y-108105000D01*
X148210000Y-106200000D02*
X146305000Y-108105000D01*
G04 #@! TO.N,Net-(J2-Pad2)*
X99950000Y-69370000D02*
X99950000Y-65560000D01*
D29*
X103125000Y-64290000D02*
X103760000Y-63655000D01*
X93600000Y-63020000D02*
X94870000Y-64290000D01*
D28*
X99950000Y-65560000D02*
X99950000Y-64290000D01*
D29*
X94870000Y-64290000D02*
X99950000Y-64290000D01*
X99950000Y-64290000D02*
X103125000Y-64290000D01*
D28*
G04 #@! TO.N,/EN_BAT_6V*
X123771846Y-81362154D02*
X126620000Y-78514000D01*
X123390846Y-81743154D02*
X123771846Y-81362154D01*
X109148154Y-81743154D02*
X123390846Y-81743154D01*
G04 #@! TO.N,/EN_BAT_12V*
X131391846Y-83509524D02*
X131391846Y-82378154D01*
X131391846Y-85033524D02*
X131391846Y-83509524D01*
X127751370Y-88674000D02*
X131391846Y-85033524D01*
X126620000Y-88674000D02*
X127751370Y-88674000D01*
G04 #@! TO.N,Net-(J1-Pad6)*
X115190000Y-65627919D02*
X115190000Y-66830000D01*
X108840000Y-64290000D02*
X113852081Y-64290000D01*
X94285000Y-73230000D02*
X95505000Y-74450000D01*
X94285000Y-69370000D02*
X94285000Y-73230000D01*
X113852081Y-64290000D02*
X115190000Y-65627919D01*
X95505000Y-74450000D02*
X103705002Y-74450000D01*
X103705002Y-74450000D02*
X105665000Y-72490002D01*
X105665000Y-72490002D02*
X105665000Y-67465000D01*
X105665000Y-67465000D02*
X108840000Y-64290000D01*
G04 #@! TD*
M02*
