G04 #@! TF.GenerationSoftware,KiCad,Pcbnew,5.0.2-bee76a0~70~ubuntu18.04.1*
G04 #@! TF.CreationDate,2019-01-29T21:20:30+01:00*
G04 #@! TF.ProjectId,Robot Propulsion layer 2 V2,526f626f-7420-4507-926f-70756c73696f,rev?*
G04 #@! TF.SameCoordinates,Original*
G04 #@! TF.FileFunction,Soldermask,Bot*
G04 #@! TF.FilePolarity,Negative*
%FSLAX46Y46*%
G04 Gerber Fmt 4.6, Leading zero omitted, Abs format (unit mm)*
G04 Created by KiCad (PCBNEW 5.0.2-bee76a0~70~ubuntu18.04.1) date mar. 29 janv. 2019 21:20:30 CET*
%MOMM*%
%LPD*%
G01*
G04 APERTURE LIST*
%ADD10C,0.100000*%
G04 APERTURE END LIST*
D10*
G36*
X127471000Y-112385000D02*
X125769000Y-112385000D01*
X125769000Y-110683000D01*
X127471000Y-110683000D01*
X127471000Y-112385000D01*
X127471000Y-112385000D01*
G37*
G36*
X111628228Y-110715703D02*
X111783100Y-110779853D01*
X111922481Y-110872985D01*
X112041015Y-110991519D01*
X112134147Y-111130900D01*
X112198297Y-111285772D01*
X112231000Y-111450184D01*
X112231000Y-111617816D01*
X112198297Y-111782228D01*
X112134147Y-111937100D01*
X112041015Y-112076481D01*
X111922481Y-112195015D01*
X111783100Y-112288147D01*
X111628228Y-112352297D01*
X111463816Y-112385000D01*
X111296184Y-112385000D01*
X111131772Y-112352297D01*
X110976900Y-112288147D01*
X110837519Y-112195015D01*
X110718985Y-112076481D01*
X110625853Y-111937100D01*
X110561703Y-111782228D01*
X110529000Y-111617816D01*
X110529000Y-111450184D01*
X110561703Y-111285772D01*
X110625853Y-111130900D01*
X110718985Y-110991519D01*
X110837519Y-110872985D01*
X110976900Y-110779853D01*
X111131772Y-110715703D01*
X111296184Y-110683000D01*
X111463816Y-110683000D01*
X111628228Y-110715703D01*
X111628228Y-110715703D01*
G37*
G36*
X133286000Y-112181000D02*
X131484000Y-112181000D01*
X131484000Y-110379000D01*
X133286000Y-110379000D01*
X133286000Y-112181000D01*
X133286000Y-112181000D01*
G37*
G36*
X129955442Y-110385518D02*
X130021627Y-110392037D01*
X130134853Y-110426384D01*
X130191467Y-110443557D01*
X130330087Y-110517652D01*
X130347991Y-110527222D01*
X130383729Y-110556552D01*
X130485186Y-110639814D01*
X130547466Y-110715704D01*
X130597778Y-110777009D01*
X130597779Y-110777011D01*
X130681443Y-110933533D01*
X130681443Y-110933534D01*
X130732963Y-111103373D01*
X130750359Y-111280000D01*
X130732963Y-111456627D01*
X130698616Y-111569853D01*
X130681443Y-111626467D01*
X130607348Y-111765087D01*
X130597778Y-111782991D01*
X130568448Y-111818729D01*
X130485186Y-111920186D01*
X130383729Y-112003448D01*
X130347991Y-112032778D01*
X130347989Y-112032779D01*
X130191467Y-112116443D01*
X130134853Y-112133616D01*
X130021627Y-112167963D01*
X129955442Y-112174482D01*
X129889260Y-112181000D01*
X129800740Y-112181000D01*
X129734558Y-112174482D01*
X129668373Y-112167963D01*
X129555147Y-112133616D01*
X129498533Y-112116443D01*
X129342011Y-112032779D01*
X129342009Y-112032778D01*
X129306271Y-112003448D01*
X129204814Y-111920186D01*
X129121552Y-111818729D01*
X129092222Y-111782991D01*
X129082652Y-111765087D01*
X129008557Y-111626467D01*
X128991384Y-111569853D01*
X128957037Y-111456627D01*
X128939641Y-111280000D01*
X128957037Y-111103373D01*
X129008557Y-110933534D01*
X129008557Y-110933533D01*
X129092221Y-110777011D01*
X129092222Y-110777009D01*
X129142534Y-110715704D01*
X129204814Y-110639814D01*
X129306271Y-110556552D01*
X129342009Y-110527222D01*
X129359913Y-110517652D01*
X129498533Y-110443557D01*
X129555147Y-110426384D01*
X129668373Y-110392037D01*
X129734558Y-110385518D01*
X129800740Y-110379000D01*
X129889260Y-110379000D01*
X129955442Y-110385518D01*
X129955442Y-110385518D01*
G37*
G36*
X126868228Y-108175703D02*
X127023100Y-108239853D01*
X127162481Y-108332985D01*
X127281015Y-108451519D01*
X127374147Y-108590900D01*
X127438297Y-108745772D01*
X127471000Y-108910184D01*
X127471000Y-109077816D01*
X127438297Y-109242228D01*
X127374147Y-109397100D01*
X127281015Y-109536481D01*
X127162481Y-109655015D01*
X127023100Y-109748147D01*
X126868228Y-109812297D01*
X126703816Y-109845000D01*
X126536184Y-109845000D01*
X126371772Y-109812297D01*
X126216900Y-109748147D01*
X126077519Y-109655015D01*
X125958985Y-109536481D01*
X125865853Y-109397100D01*
X125801703Y-109242228D01*
X125769000Y-109077816D01*
X125769000Y-108910184D01*
X125801703Y-108745772D01*
X125865853Y-108590900D01*
X125958985Y-108451519D01*
X126077519Y-108332985D01*
X126216900Y-108239853D01*
X126371772Y-108175703D01*
X126536184Y-108143000D01*
X126703816Y-108143000D01*
X126868228Y-108175703D01*
X126868228Y-108175703D01*
G37*
G36*
X104124142Y-107323242D02*
X104272102Y-107384530D01*
X104405258Y-107473502D01*
X104518498Y-107586742D01*
X104607470Y-107719898D01*
X104668758Y-107867858D01*
X104700000Y-108024925D01*
X104700000Y-108185075D01*
X104668758Y-108342142D01*
X104623452Y-108451519D01*
X104607471Y-108490100D01*
X104518499Y-108623257D01*
X104405257Y-108736499D01*
X104339130Y-108780683D01*
X104272102Y-108825470D01*
X104124142Y-108886758D01*
X103967075Y-108918000D01*
X103806925Y-108918000D01*
X103649858Y-108886758D01*
X103501898Y-108825470D01*
X103434870Y-108780683D01*
X103368743Y-108736499D01*
X103255501Y-108623257D01*
X103166529Y-108490100D01*
X103150548Y-108451519D01*
X103105242Y-108342142D01*
X103074000Y-108185075D01*
X103074000Y-108024925D01*
X103105242Y-107867858D01*
X103166530Y-107719898D01*
X103255502Y-107586742D01*
X103368742Y-107473502D01*
X103501898Y-107384530D01*
X103649858Y-107323242D01*
X103806925Y-107292000D01*
X103967075Y-107292000D01*
X104124142Y-107323242D01*
X104124142Y-107323242D01*
G37*
G36*
X93329142Y-107323242D02*
X93477102Y-107384530D01*
X93610258Y-107473502D01*
X93723498Y-107586742D01*
X93812470Y-107719898D01*
X93873758Y-107867858D01*
X93905000Y-108024925D01*
X93905000Y-108185075D01*
X93873758Y-108342142D01*
X93828452Y-108451519D01*
X93812471Y-108490100D01*
X93723499Y-108623257D01*
X93610257Y-108736499D01*
X93544130Y-108780683D01*
X93477102Y-108825470D01*
X93329142Y-108886758D01*
X93172075Y-108918000D01*
X93011925Y-108918000D01*
X92854858Y-108886758D01*
X92706898Y-108825470D01*
X92639870Y-108780683D01*
X92573743Y-108736499D01*
X92460501Y-108623257D01*
X92371529Y-108490100D01*
X92355548Y-108451519D01*
X92310242Y-108342142D01*
X92279000Y-108185075D01*
X92279000Y-108024925D01*
X92310242Y-107867858D01*
X92371530Y-107719898D01*
X92460502Y-107586742D01*
X92573742Y-107473502D01*
X92706898Y-107384530D01*
X92854858Y-107323242D01*
X93011925Y-107292000D01*
X93172075Y-107292000D01*
X93329142Y-107323242D01*
X93329142Y-107323242D01*
G37*
G36*
X121777142Y-106688242D02*
X121925102Y-106749530D01*
X122058258Y-106838502D01*
X122171498Y-106951742D01*
X122260470Y-107084898D01*
X122321758Y-107232858D01*
X122353000Y-107389925D01*
X122353000Y-107550075D01*
X122321758Y-107707142D01*
X122260470Y-107855102D01*
X122171498Y-107988258D01*
X122058258Y-108101498D01*
X121925102Y-108190470D01*
X121777142Y-108251758D01*
X121620075Y-108283000D01*
X121459925Y-108283000D01*
X121302858Y-108251758D01*
X121154898Y-108190470D01*
X121021742Y-108101498D01*
X120908502Y-107988258D01*
X120819530Y-107855102D01*
X120758242Y-107707142D01*
X120727000Y-107550075D01*
X120727000Y-107389925D01*
X120758242Y-107232858D01*
X120819530Y-107084898D01*
X120908502Y-106951742D01*
X121021742Y-106838502D01*
X121154898Y-106749530D01*
X121302858Y-106688242D01*
X121459925Y-106657000D01*
X121620075Y-106657000D01*
X121777142Y-106688242D01*
X121777142Y-106688242D01*
G37*
G36*
X116697142Y-106688242D02*
X116845102Y-106749530D01*
X116978258Y-106838502D01*
X117091498Y-106951742D01*
X117180470Y-107084898D01*
X117241758Y-107232858D01*
X117273000Y-107389925D01*
X117273000Y-107550075D01*
X117241758Y-107707142D01*
X117180470Y-107855102D01*
X117091498Y-107988258D01*
X116978258Y-108101498D01*
X116845102Y-108190470D01*
X116697142Y-108251758D01*
X116540075Y-108283000D01*
X116379925Y-108283000D01*
X116222858Y-108251758D01*
X116074898Y-108190470D01*
X115941742Y-108101498D01*
X115828502Y-107988258D01*
X115739530Y-107855102D01*
X115678242Y-107707142D01*
X115647000Y-107550075D01*
X115647000Y-107389925D01*
X115678242Y-107232858D01*
X115739530Y-107084898D01*
X115828502Y-106951742D01*
X115941742Y-106838502D01*
X116074898Y-106749530D01*
X116222858Y-106688242D01*
X116379925Y-106657000D01*
X116540075Y-106657000D01*
X116697142Y-106688242D01*
X116697142Y-106688242D01*
G37*
G36*
X126868228Y-105635703D02*
X127023100Y-105699853D01*
X127162481Y-105792985D01*
X127281015Y-105911519D01*
X127374147Y-106050900D01*
X127438297Y-106205772D01*
X127471000Y-106370184D01*
X127471000Y-106537816D01*
X127438297Y-106702228D01*
X127374147Y-106857100D01*
X127281015Y-106996481D01*
X127162481Y-107115015D01*
X127023100Y-107208147D01*
X126868228Y-107272297D01*
X126703816Y-107305000D01*
X126536184Y-107305000D01*
X126371772Y-107272297D01*
X126216900Y-107208147D01*
X126077519Y-107115015D01*
X125958985Y-106996481D01*
X125865853Y-106857100D01*
X125801703Y-106702228D01*
X125769000Y-106537816D01*
X125769000Y-106370184D01*
X125801703Y-106205772D01*
X125865853Y-106050900D01*
X125958985Y-105911519D01*
X126077519Y-105792985D01*
X126216900Y-105699853D01*
X126371772Y-105635703D01*
X126536184Y-105603000D01*
X126703816Y-105603000D01*
X126868228Y-105635703D01*
X126868228Y-105635703D01*
G37*
G36*
X145283228Y-104746703D02*
X145438100Y-104810853D01*
X145577481Y-104903985D01*
X145696015Y-105022519D01*
X145789147Y-105161900D01*
X145853297Y-105316772D01*
X145886000Y-105481184D01*
X145886000Y-105648816D01*
X145853297Y-105813228D01*
X145789147Y-105968100D01*
X145696015Y-106107481D01*
X145577481Y-106226015D01*
X145438100Y-106319147D01*
X145283228Y-106383297D01*
X145118816Y-106416000D01*
X144951184Y-106416000D01*
X144786772Y-106383297D01*
X144631900Y-106319147D01*
X144492519Y-106226015D01*
X144373985Y-106107481D01*
X144280853Y-105968100D01*
X144216703Y-105813228D01*
X144184000Y-105648816D01*
X144184000Y-105481184D01*
X144216703Y-105316772D01*
X144280853Y-105161900D01*
X144373985Y-105022519D01*
X144492519Y-104903985D01*
X144631900Y-104810853D01*
X144786772Y-104746703D01*
X144951184Y-104714000D01*
X145118816Y-104714000D01*
X145283228Y-104746703D01*
X145283228Y-104746703D01*
G37*
G36*
X93329142Y-104783242D02*
X93477102Y-104844530D01*
X93610258Y-104933502D01*
X93723498Y-105046742D01*
X93812470Y-105179898D01*
X93873758Y-105327858D01*
X93905000Y-105484925D01*
X93905000Y-105645075D01*
X93873758Y-105802142D01*
X93828452Y-105911519D01*
X93812471Y-105950100D01*
X93723499Y-106083257D01*
X93610257Y-106196499D01*
X93566084Y-106226014D01*
X93477102Y-106285470D01*
X93329142Y-106346758D01*
X93172075Y-106378000D01*
X93011925Y-106378000D01*
X92854858Y-106346758D01*
X92706898Y-106285470D01*
X92617916Y-106226014D01*
X92573743Y-106196499D01*
X92460501Y-106083257D01*
X92371529Y-105950100D01*
X92355548Y-105911519D01*
X92310242Y-105802142D01*
X92279000Y-105645075D01*
X92279000Y-105484925D01*
X92310242Y-105327858D01*
X92371530Y-105179898D01*
X92460502Y-105046742D01*
X92573742Y-104933502D01*
X92706898Y-104844530D01*
X92854858Y-104783242D01*
X93011925Y-104752000D01*
X93172075Y-104752000D01*
X93329142Y-104783242D01*
X93329142Y-104783242D01*
G37*
G36*
X115427142Y-104148242D02*
X115575102Y-104209530D01*
X115708258Y-104298502D01*
X115821498Y-104411742D01*
X115910470Y-104544898D01*
X115971758Y-104692858D01*
X116003000Y-104849925D01*
X116003000Y-105010075D01*
X115971758Y-105167142D01*
X115910470Y-105315102D01*
X115821498Y-105448258D01*
X115708258Y-105561498D01*
X115575102Y-105650470D01*
X115427142Y-105711758D01*
X115270075Y-105743000D01*
X115109925Y-105743000D01*
X114952858Y-105711758D01*
X114804898Y-105650470D01*
X114671742Y-105561498D01*
X114558502Y-105448258D01*
X114469530Y-105315102D01*
X114408242Y-105167142D01*
X114377000Y-105010075D01*
X114377000Y-104849925D01*
X114408242Y-104692858D01*
X114469530Y-104544898D01*
X114558502Y-104411742D01*
X114671742Y-104298502D01*
X114804898Y-104209530D01*
X114952858Y-104148242D01*
X115109925Y-104117000D01*
X115270075Y-104117000D01*
X115427142Y-104148242D01*
X115427142Y-104148242D01*
G37*
G36*
X123047142Y-104148242D02*
X123195102Y-104209530D01*
X123328258Y-104298502D01*
X123441498Y-104411742D01*
X123530470Y-104544898D01*
X123591758Y-104692858D01*
X123623000Y-104849925D01*
X123623000Y-105010075D01*
X123591758Y-105167142D01*
X123530470Y-105315102D01*
X123441498Y-105448258D01*
X123328258Y-105561498D01*
X123195102Y-105650470D01*
X123047142Y-105711758D01*
X122890075Y-105743000D01*
X122729925Y-105743000D01*
X122572858Y-105711758D01*
X122424898Y-105650470D01*
X122291742Y-105561498D01*
X122178502Y-105448258D01*
X122089530Y-105315102D01*
X122028242Y-105167142D01*
X121997000Y-105010075D01*
X121997000Y-104849925D01*
X122028242Y-104692858D01*
X122089530Y-104544898D01*
X122178502Y-104411742D01*
X122291742Y-104298502D01*
X122424898Y-104209530D01*
X122572858Y-104148242D01*
X122729925Y-104117000D01*
X122890075Y-104117000D01*
X123047142Y-104148242D01*
X123047142Y-104148242D01*
G37*
G36*
X126868228Y-103095703D02*
X127023100Y-103159853D01*
X127162481Y-103252985D01*
X127281015Y-103371519D01*
X127374147Y-103510900D01*
X127438297Y-103665772D01*
X127471000Y-103830184D01*
X127471000Y-103997816D01*
X127438297Y-104162228D01*
X127374147Y-104317100D01*
X127281015Y-104456481D01*
X127162481Y-104575015D01*
X127023100Y-104668147D01*
X126868228Y-104732297D01*
X126703816Y-104765000D01*
X126536184Y-104765000D01*
X126371772Y-104732297D01*
X126216900Y-104668147D01*
X126077519Y-104575015D01*
X125958985Y-104456481D01*
X125865853Y-104317100D01*
X125801703Y-104162228D01*
X125769000Y-103997816D01*
X125769000Y-103830184D01*
X125801703Y-103665772D01*
X125865853Y-103510900D01*
X125958985Y-103371519D01*
X126077519Y-103252985D01*
X126216900Y-103159853D01*
X126371772Y-103095703D01*
X126536184Y-103063000D01*
X126703816Y-103063000D01*
X126868228Y-103095703D01*
X126868228Y-103095703D01*
G37*
G36*
X111628228Y-103095703D02*
X111783100Y-103159853D01*
X111922481Y-103252985D01*
X112041015Y-103371519D01*
X112134147Y-103510900D01*
X112198297Y-103665772D01*
X112231000Y-103830184D01*
X112231000Y-103997816D01*
X112198297Y-104162228D01*
X112134147Y-104317100D01*
X112041015Y-104456481D01*
X111922481Y-104575015D01*
X111783100Y-104668147D01*
X111628228Y-104732297D01*
X111463816Y-104765000D01*
X111296184Y-104765000D01*
X111131772Y-104732297D01*
X110976900Y-104668147D01*
X110837519Y-104575015D01*
X110718985Y-104456481D01*
X110625853Y-104317100D01*
X110561703Y-104162228D01*
X110529000Y-103997816D01*
X110529000Y-103830184D01*
X110561703Y-103665772D01*
X110625853Y-103510900D01*
X110718985Y-103371519D01*
X110837519Y-103252985D01*
X110976900Y-103159853D01*
X111131772Y-103095703D01*
X111296184Y-103063000D01*
X111463816Y-103063000D01*
X111628228Y-103095703D01*
X111628228Y-103095703D01*
G37*
G36*
X93329142Y-102243242D02*
X93477102Y-102304530D01*
X93610258Y-102393502D01*
X93723498Y-102506742D01*
X93812470Y-102639898D01*
X93873758Y-102787858D01*
X93905000Y-102944925D01*
X93905000Y-103105075D01*
X93873758Y-103262142D01*
X93828452Y-103371519D01*
X93812471Y-103410100D01*
X93723499Y-103543257D01*
X93610257Y-103656499D01*
X93544130Y-103700683D01*
X93477102Y-103745470D01*
X93329142Y-103806758D01*
X93172075Y-103838000D01*
X93011925Y-103838000D01*
X92854858Y-103806758D01*
X92706898Y-103745470D01*
X92639870Y-103700683D01*
X92573743Y-103656499D01*
X92460501Y-103543257D01*
X92371529Y-103410100D01*
X92355548Y-103371519D01*
X92310242Y-103262142D01*
X92279000Y-103105075D01*
X92279000Y-102944925D01*
X92310242Y-102787858D01*
X92371530Y-102639898D01*
X92460502Y-102506742D01*
X92573742Y-102393502D01*
X92706898Y-102304530D01*
X92854858Y-102243242D01*
X93011925Y-102212000D01*
X93172075Y-102212000D01*
X93329142Y-102243242D01*
X93329142Y-102243242D01*
G37*
G36*
X145272142Y-102243242D02*
X145420102Y-102304530D01*
X145553258Y-102393502D01*
X145666498Y-102506742D01*
X145755470Y-102639898D01*
X145816758Y-102787858D01*
X145848000Y-102944925D01*
X145848000Y-103105075D01*
X145816758Y-103262142D01*
X145771452Y-103371519D01*
X145755471Y-103410100D01*
X145666499Y-103543257D01*
X145553257Y-103656499D01*
X145487130Y-103700683D01*
X145420102Y-103745470D01*
X145272142Y-103806758D01*
X145115075Y-103838000D01*
X144954925Y-103838000D01*
X144797858Y-103806758D01*
X144649898Y-103745470D01*
X144582870Y-103700683D01*
X144516743Y-103656499D01*
X144403501Y-103543257D01*
X144314529Y-103410100D01*
X144298548Y-103371519D01*
X144253242Y-103262142D01*
X144222000Y-103105075D01*
X144222000Y-102944925D01*
X144253242Y-102787858D01*
X144314530Y-102639898D01*
X144403502Y-102506742D01*
X144516742Y-102393502D01*
X144649898Y-102304530D01*
X144797858Y-102243242D01*
X144954925Y-102212000D01*
X145115075Y-102212000D01*
X145272142Y-102243242D01*
X145272142Y-102243242D01*
G37*
G36*
X86781821Y-99646313D02*
X86781824Y-99646314D01*
X86781825Y-99646314D01*
X86942239Y-99694975D01*
X86942241Y-99694976D01*
X86942244Y-99694977D01*
X87090078Y-99773995D01*
X87219659Y-99880341D01*
X87326005Y-100009922D01*
X87405023Y-100157756D01*
X87405024Y-100157759D01*
X87405025Y-100157761D01*
X87453686Y-100318175D01*
X87453687Y-100318179D01*
X87470117Y-100485000D01*
X87453687Y-100651821D01*
X87453686Y-100651824D01*
X87453686Y-100651825D01*
X87425120Y-100745996D01*
X87405023Y-100812244D01*
X87326005Y-100960078D01*
X87219659Y-101089659D01*
X87090078Y-101196005D01*
X86942244Y-101275023D01*
X86942241Y-101275024D01*
X86942239Y-101275025D01*
X86781825Y-101323686D01*
X86781824Y-101323686D01*
X86781821Y-101323687D01*
X86656804Y-101336000D01*
X86573196Y-101336000D01*
X86448179Y-101323687D01*
X86448176Y-101323686D01*
X86448175Y-101323686D01*
X86287761Y-101275025D01*
X86287759Y-101275024D01*
X86287756Y-101275023D01*
X86139922Y-101196005D01*
X86010341Y-101089659D01*
X85903995Y-100960078D01*
X85824977Y-100812244D01*
X85804881Y-100745996D01*
X85776314Y-100651825D01*
X85776314Y-100651824D01*
X85776313Y-100651821D01*
X85759883Y-100485000D01*
X85776313Y-100318179D01*
X85776314Y-100318175D01*
X85824975Y-100157761D01*
X85824976Y-100157759D01*
X85824977Y-100157756D01*
X85903995Y-100009922D01*
X86010341Y-99880341D01*
X86139922Y-99773995D01*
X86287756Y-99694977D01*
X86287759Y-99694976D01*
X86287761Y-99694975D01*
X86448175Y-99646314D01*
X86448176Y-99646314D01*
X86448179Y-99646313D01*
X86573196Y-99634000D01*
X86656804Y-99634000D01*
X86781821Y-99646313D01*
X86781821Y-99646313D01*
G37*
G36*
X93329142Y-99703242D02*
X93477102Y-99764530D01*
X93610258Y-99853502D01*
X93723498Y-99966742D01*
X93812470Y-100099898D01*
X93873758Y-100247858D01*
X93905000Y-100404925D01*
X93905000Y-100565075D01*
X93873758Y-100722142D01*
X93812470Y-100870102D01*
X93723498Y-101003258D01*
X93610258Y-101116498D01*
X93477102Y-101205470D01*
X93329142Y-101266758D01*
X93172075Y-101298000D01*
X93011925Y-101298000D01*
X92854858Y-101266758D01*
X92706898Y-101205470D01*
X92573742Y-101116498D01*
X92460502Y-101003258D01*
X92371530Y-100870102D01*
X92310242Y-100722142D01*
X92279000Y-100565075D01*
X92279000Y-100404925D01*
X92310242Y-100247858D01*
X92371530Y-100099898D01*
X92460502Y-99966742D01*
X92573742Y-99853502D01*
X92706898Y-99764530D01*
X92854858Y-99703242D01*
X93011925Y-99672000D01*
X93172075Y-99672000D01*
X93329142Y-99703242D01*
X93329142Y-99703242D01*
G37*
G36*
X145272142Y-99703242D02*
X145420102Y-99764530D01*
X145553258Y-99853502D01*
X145666498Y-99966742D01*
X145755470Y-100099898D01*
X145816758Y-100247858D01*
X145848000Y-100404925D01*
X145848000Y-100565075D01*
X145816758Y-100722142D01*
X145755470Y-100870102D01*
X145666498Y-101003258D01*
X145553258Y-101116498D01*
X145420102Y-101205470D01*
X145272142Y-101266758D01*
X145115075Y-101298000D01*
X144954925Y-101298000D01*
X144797858Y-101266758D01*
X144649898Y-101205470D01*
X144516742Y-101116498D01*
X144403502Y-101003258D01*
X144314530Y-100870102D01*
X144253242Y-100722142D01*
X144222000Y-100565075D01*
X144222000Y-100404925D01*
X144253242Y-100247858D01*
X144314530Y-100099898D01*
X144403502Y-99966742D01*
X144516742Y-99853502D01*
X144649898Y-99764530D01*
X144797858Y-99703242D01*
X144954925Y-99672000D01*
X145115075Y-99672000D01*
X145272142Y-99703242D01*
X145272142Y-99703242D01*
G37*
G36*
X91220721Y-99955174D02*
X91320995Y-99996709D01*
X91411245Y-100057012D01*
X91487988Y-100133755D01*
X91548291Y-100224005D01*
X91589826Y-100324279D01*
X91611000Y-100430730D01*
X91611000Y-100539270D01*
X91589826Y-100645721D01*
X91548291Y-100745995D01*
X91487988Y-100836245D01*
X91411245Y-100912988D01*
X91320995Y-100973291D01*
X91220721Y-101014826D01*
X91114270Y-101036000D01*
X91005730Y-101036000D01*
X90899279Y-101014826D01*
X90799005Y-100973291D01*
X90708755Y-100912988D01*
X90632012Y-100836245D01*
X90571709Y-100745995D01*
X90530174Y-100645721D01*
X90509000Y-100539270D01*
X90509000Y-100430730D01*
X90530174Y-100324279D01*
X90571709Y-100224005D01*
X90632012Y-100133755D01*
X90708755Y-100057012D01*
X90799005Y-99996709D01*
X90899279Y-99955174D01*
X91005730Y-99934000D01*
X91114270Y-99934000D01*
X91220721Y-99955174D01*
X91220721Y-99955174D01*
G37*
G36*
X126868228Y-98015703D02*
X127023100Y-98079853D01*
X127162481Y-98172985D01*
X127281015Y-98291519D01*
X127374147Y-98430900D01*
X127438297Y-98585772D01*
X127471000Y-98750184D01*
X127471000Y-98917816D01*
X127438297Y-99082228D01*
X127374147Y-99237100D01*
X127281015Y-99376481D01*
X127162481Y-99495015D01*
X127023100Y-99588147D01*
X126868228Y-99652297D01*
X126703816Y-99685000D01*
X126536184Y-99685000D01*
X126371772Y-99652297D01*
X126216900Y-99588147D01*
X126077519Y-99495015D01*
X125958985Y-99376481D01*
X125865853Y-99237100D01*
X125801703Y-99082228D01*
X125769000Y-98917816D01*
X125769000Y-98750184D01*
X125801703Y-98585772D01*
X125865853Y-98430900D01*
X125958985Y-98291519D01*
X126077519Y-98172985D01*
X126216900Y-98079853D01*
X126371772Y-98015703D01*
X126536184Y-97983000D01*
X126703816Y-97983000D01*
X126868228Y-98015703D01*
X126868228Y-98015703D01*
G37*
G36*
X111628228Y-98015703D02*
X111783100Y-98079853D01*
X111922481Y-98172985D01*
X112041015Y-98291519D01*
X112134147Y-98430900D01*
X112198297Y-98585772D01*
X112231000Y-98750184D01*
X112231000Y-98917816D01*
X112198297Y-99082228D01*
X112134147Y-99237100D01*
X112041015Y-99376481D01*
X111922481Y-99495015D01*
X111783100Y-99588147D01*
X111628228Y-99652297D01*
X111463816Y-99685000D01*
X111296184Y-99685000D01*
X111131772Y-99652297D01*
X110976900Y-99588147D01*
X110837519Y-99495015D01*
X110718985Y-99376481D01*
X110625853Y-99237100D01*
X110561703Y-99082228D01*
X110529000Y-98917816D01*
X110529000Y-98750184D01*
X110561703Y-98585772D01*
X110625853Y-98430900D01*
X110718985Y-98291519D01*
X110837519Y-98172985D01*
X110976900Y-98079853D01*
X111131772Y-98015703D01*
X111296184Y-97983000D01*
X111463816Y-97983000D01*
X111628228Y-98015703D01*
X111628228Y-98015703D01*
G37*
G36*
X150916821Y-97741313D02*
X150916824Y-97741314D01*
X150916825Y-97741314D01*
X151077239Y-97789975D01*
X151077241Y-97789976D01*
X151077244Y-97789977D01*
X151225078Y-97868995D01*
X151354659Y-97975341D01*
X151461005Y-98104922D01*
X151540023Y-98252756D01*
X151540024Y-98252759D01*
X151540025Y-98252761D01*
X151588686Y-98413175D01*
X151588687Y-98413179D01*
X151605117Y-98580000D01*
X151588687Y-98746821D01*
X151588686Y-98746824D01*
X151588686Y-98746825D01*
X151583690Y-98763296D01*
X151540023Y-98907244D01*
X151461005Y-99055078D01*
X151354659Y-99184659D01*
X151225078Y-99291005D01*
X151077244Y-99370023D01*
X151077241Y-99370024D01*
X151077239Y-99370025D01*
X150916825Y-99418686D01*
X150916824Y-99418686D01*
X150916821Y-99418687D01*
X150791804Y-99431000D01*
X150708196Y-99431000D01*
X150583179Y-99418687D01*
X150583176Y-99418686D01*
X150583175Y-99418686D01*
X150422761Y-99370025D01*
X150422759Y-99370024D01*
X150422756Y-99370023D01*
X150274922Y-99291005D01*
X150145341Y-99184659D01*
X150038995Y-99055078D01*
X149959977Y-98907244D01*
X149916311Y-98763296D01*
X149911314Y-98746825D01*
X149911314Y-98746824D01*
X149911313Y-98746821D01*
X149894883Y-98580000D01*
X149911313Y-98413179D01*
X149911314Y-98413175D01*
X149959975Y-98252761D01*
X149959976Y-98252759D01*
X149959977Y-98252756D01*
X150038995Y-98104922D01*
X150145341Y-97975341D01*
X150274922Y-97868995D01*
X150422756Y-97789977D01*
X150422759Y-97789976D01*
X150422761Y-97789975D01*
X150583175Y-97741314D01*
X150583176Y-97741314D01*
X150583179Y-97741313D01*
X150708196Y-97729000D01*
X150791804Y-97729000D01*
X150916821Y-97741313D01*
X150916821Y-97741313D01*
G37*
G36*
X98293228Y-97126703D02*
X98448100Y-97190853D01*
X98587481Y-97283985D01*
X98706015Y-97402519D01*
X98799147Y-97541900D01*
X98863297Y-97696772D01*
X98896000Y-97861184D01*
X98896000Y-98028816D01*
X98863297Y-98193228D01*
X98799147Y-98348100D01*
X98706015Y-98487481D01*
X98587481Y-98606015D01*
X98448100Y-98699147D01*
X98293228Y-98763297D01*
X98128816Y-98796000D01*
X97961184Y-98796000D01*
X97796772Y-98763297D01*
X97641900Y-98699147D01*
X97502519Y-98606015D01*
X97383985Y-98487481D01*
X97290853Y-98348100D01*
X97226703Y-98193228D01*
X97194000Y-98028816D01*
X97194000Y-97861184D01*
X97226703Y-97696772D01*
X97290853Y-97541900D01*
X97383985Y-97402519D01*
X97502519Y-97283985D01*
X97641900Y-97190853D01*
X97796772Y-97126703D01*
X97961184Y-97094000D01*
X98128816Y-97094000D01*
X98293228Y-97126703D01*
X98293228Y-97126703D01*
G37*
G36*
X93329142Y-97163242D02*
X93477102Y-97224530D01*
X93610258Y-97313502D01*
X93723498Y-97426742D01*
X93812470Y-97559898D01*
X93873758Y-97707858D01*
X93905000Y-97864925D01*
X93905000Y-98025075D01*
X93873758Y-98182142D01*
X93844508Y-98252756D01*
X93812471Y-98330100D01*
X93723499Y-98463257D01*
X93610257Y-98576499D01*
X93566084Y-98606014D01*
X93477102Y-98665470D01*
X93329142Y-98726758D01*
X93172075Y-98758000D01*
X93011925Y-98758000D01*
X92854858Y-98726758D01*
X92706898Y-98665470D01*
X92617916Y-98606014D01*
X92573743Y-98576499D01*
X92460501Y-98463257D01*
X92371529Y-98330100D01*
X92339492Y-98252756D01*
X92310242Y-98182142D01*
X92279000Y-98025075D01*
X92279000Y-97864925D01*
X92310242Y-97707858D01*
X92371530Y-97559898D01*
X92460502Y-97426742D01*
X92573742Y-97313502D01*
X92706898Y-97224530D01*
X92854858Y-97163242D01*
X93011925Y-97132000D01*
X93172075Y-97132000D01*
X93329142Y-97163242D01*
X93329142Y-97163242D01*
G37*
G36*
X145272142Y-97163242D02*
X145420102Y-97224530D01*
X145553258Y-97313502D01*
X145666498Y-97426742D01*
X145755470Y-97559898D01*
X145816758Y-97707858D01*
X145848000Y-97864925D01*
X145848000Y-98025075D01*
X145816758Y-98182142D01*
X145787508Y-98252756D01*
X145755471Y-98330100D01*
X145666499Y-98463257D01*
X145553257Y-98576499D01*
X145509084Y-98606014D01*
X145420102Y-98665470D01*
X145272142Y-98726758D01*
X145115075Y-98758000D01*
X144954925Y-98758000D01*
X144797858Y-98726758D01*
X144649898Y-98665470D01*
X144560916Y-98606014D01*
X144516743Y-98576499D01*
X144403501Y-98463257D01*
X144314529Y-98330100D01*
X144282492Y-98252756D01*
X144253242Y-98182142D01*
X144222000Y-98025075D01*
X144222000Y-97864925D01*
X144253242Y-97707858D01*
X144314530Y-97559898D01*
X144403502Y-97426742D01*
X144516742Y-97313502D01*
X144649898Y-97224530D01*
X144797858Y-97163242D01*
X144954925Y-97132000D01*
X145115075Y-97132000D01*
X145272142Y-97163242D01*
X145272142Y-97163242D01*
G37*
G36*
X111628228Y-95475703D02*
X111783100Y-95539853D01*
X111922481Y-95632985D01*
X112041015Y-95751519D01*
X112134147Y-95890900D01*
X112198297Y-96045772D01*
X112231000Y-96210184D01*
X112231000Y-96377816D01*
X112198297Y-96542228D01*
X112134147Y-96697100D01*
X112041015Y-96836481D01*
X111922481Y-96955015D01*
X111783100Y-97048147D01*
X111628228Y-97112297D01*
X111463816Y-97145000D01*
X111296184Y-97145000D01*
X111131772Y-97112297D01*
X110976900Y-97048147D01*
X110837519Y-96955015D01*
X110718985Y-96836481D01*
X110625853Y-96697100D01*
X110561703Y-96542228D01*
X110529000Y-96377816D01*
X110529000Y-96210184D01*
X110561703Y-96045772D01*
X110625853Y-95890900D01*
X110718985Y-95751519D01*
X110837519Y-95632985D01*
X110976900Y-95539853D01*
X111131772Y-95475703D01*
X111296184Y-95443000D01*
X111463816Y-95443000D01*
X111628228Y-95475703D01*
X111628228Y-95475703D01*
G37*
G36*
X126868228Y-95475703D02*
X127023100Y-95539853D01*
X127162481Y-95632985D01*
X127281015Y-95751519D01*
X127374147Y-95890900D01*
X127438297Y-96045772D01*
X127471000Y-96210184D01*
X127471000Y-96377816D01*
X127438297Y-96542228D01*
X127374147Y-96697100D01*
X127281015Y-96836481D01*
X127162481Y-96955015D01*
X127023100Y-97048147D01*
X126868228Y-97112297D01*
X126703816Y-97145000D01*
X126536184Y-97145000D01*
X126371772Y-97112297D01*
X126216900Y-97048147D01*
X126077519Y-96955015D01*
X125958985Y-96836481D01*
X125865853Y-96697100D01*
X125801703Y-96542228D01*
X125769000Y-96377816D01*
X125769000Y-96210184D01*
X125801703Y-96045772D01*
X125865853Y-95890900D01*
X125958985Y-95751519D01*
X126077519Y-95632985D01*
X126216900Y-95539853D01*
X126371772Y-95475703D01*
X126536184Y-95443000D01*
X126703816Y-95443000D01*
X126868228Y-95475703D01*
X126868228Y-95475703D01*
G37*
G36*
X145272142Y-94623242D02*
X145420102Y-94684530D01*
X145553258Y-94773502D01*
X145666498Y-94886742D01*
X145755470Y-95019898D01*
X145816758Y-95167858D01*
X145848000Y-95324925D01*
X145848000Y-95485075D01*
X145816758Y-95642142D01*
X145771452Y-95751519D01*
X145755471Y-95790100D01*
X145666499Y-95923257D01*
X145553257Y-96036499D01*
X145487130Y-96080683D01*
X145420102Y-96125470D01*
X145272142Y-96186758D01*
X145115075Y-96218000D01*
X144954925Y-96218000D01*
X144797858Y-96186758D01*
X144649898Y-96125470D01*
X144582870Y-96080683D01*
X144516743Y-96036499D01*
X144403501Y-95923257D01*
X144314529Y-95790100D01*
X144298548Y-95751519D01*
X144253242Y-95642142D01*
X144222000Y-95485075D01*
X144222000Y-95324925D01*
X144253242Y-95167858D01*
X144314530Y-95019898D01*
X144403502Y-94886742D01*
X144516742Y-94773502D01*
X144649898Y-94684530D01*
X144797858Y-94623242D01*
X144954925Y-94592000D01*
X145115075Y-94592000D01*
X145272142Y-94623242D01*
X145272142Y-94623242D01*
G37*
G36*
X111628228Y-92935703D02*
X111783100Y-92999853D01*
X111922481Y-93092985D01*
X112041015Y-93211519D01*
X112134147Y-93350900D01*
X112198297Y-93505772D01*
X112231000Y-93670184D01*
X112231000Y-93837816D01*
X112198297Y-94002228D01*
X112134147Y-94157100D01*
X112041015Y-94296481D01*
X111922481Y-94415015D01*
X111783100Y-94508147D01*
X111628228Y-94572297D01*
X111463816Y-94605000D01*
X111296184Y-94605000D01*
X111131772Y-94572297D01*
X110976900Y-94508147D01*
X110837519Y-94415015D01*
X110718985Y-94296481D01*
X110625853Y-94157100D01*
X110561703Y-94002228D01*
X110529000Y-93837816D01*
X110529000Y-93670184D01*
X110561703Y-93505772D01*
X110625853Y-93350900D01*
X110718985Y-93211519D01*
X110837519Y-93092985D01*
X110976900Y-92999853D01*
X111131772Y-92935703D01*
X111296184Y-92903000D01*
X111463816Y-92903000D01*
X111628228Y-92935703D01*
X111628228Y-92935703D01*
G37*
G36*
X86863228Y-92046703D02*
X87018100Y-92110853D01*
X87157481Y-92203985D01*
X87276015Y-92322519D01*
X87369147Y-92461900D01*
X87433297Y-92616772D01*
X87466000Y-92781184D01*
X87466000Y-92948816D01*
X87433297Y-93113228D01*
X87369147Y-93268100D01*
X87276015Y-93407481D01*
X87157481Y-93526015D01*
X87018100Y-93619147D01*
X86863228Y-93683297D01*
X86698816Y-93716000D01*
X86531184Y-93716000D01*
X86366772Y-93683297D01*
X86211900Y-93619147D01*
X86072519Y-93526015D01*
X85953985Y-93407481D01*
X85860853Y-93268100D01*
X85796703Y-93113228D01*
X85764000Y-92948816D01*
X85764000Y-92781184D01*
X85796703Y-92616772D01*
X85860853Y-92461900D01*
X85953985Y-92322519D01*
X86072519Y-92203985D01*
X86211900Y-92110853D01*
X86366772Y-92046703D01*
X86531184Y-92014000D01*
X86698816Y-92014000D01*
X86863228Y-92046703D01*
X86863228Y-92046703D01*
G37*
G36*
X134477142Y-92083242D02*
X134625102Y-92144530D01*
X134758258Y-92233502D01*
X134871498Y-92346742D01*
X134960470Y-92479898D01*
X135021758Y-92627858D01*
X135053000Y-92784925D01*
X135053000Y-92945075D01*
X135021758Y-93102142D01*
X134976452Y-93211519D01*
X134960471Y-93250100D01*
X134871499Y-93383257D01*
X134758257Y-93496499D01*
X134714084Y-93526014D01*
X134625102Y-93585470D01*
X134477142Y-93646758D01*
X134320075Y-93678000D01*
X134159925Y-93678000D01*
X134002858Y-93646758D01*
X133854898Y-93585470D01*
X133765916Y-93526014D01*
X133721743Y-93496499D01*
X133608501Y-93383257D01*
X133519529Y-93250100D01*
X133503548Y-93211519D01*
X133458242Y-93102142D01*
X133427000Y-92945075D01*
X133427000Y-92784925D01*
X133458242Y-92627858D01*
X133519530Y-92479898D01*
X133608502Y-92346742D01*
X133721742Y-92233502D01*
X133854898Y-92144530D01*
X134002858Y-92083242D01*
X134159925Y-92052000D01*
X134320075Y-92052000D01*
X134477142Y-92083242D01*
X134477142Y-92083242D01*
G37*
G36*
X145272142Y-92083242D02*
X145420102Y-92144530D01*
X145553258Y-92233502D01*
X145666498Y-92346742D01*
X145755470Y-92479898D01*
X145816758Y-92627858D01*
X145848000Y-92784925D01*
X145848000Y-92945075D01*
X145816758Y-93102142D01*
X145771452Y-93211519D01*
X145755471Y-93250100D01*
X145666499Y-93383257D01*
X145553257Y-93496499D01*
X145509084Y-93526014D01*
X145420102Y-93585470D01*
X145272142Y-93646758D01*
X145115075Y-93678000D01*
X144954925Y-93678000D01*
X144797858Y-93646758D01*
X144649898Y-93585470D01*
X144560916Y-93526014D01*
X144516743Y-93496499D01*
X144403501Y-93383257D01*
X144314529Y-93250100D01*
X144298548Y-93211519D01*
X144253242Y-93102142D01*
X144222000Y-92945075D01*
X144222000Y-92784925D01*
X144253242Y-92627858D01*
X144314530Y-92479898D01*
X144403502Y-92346742D01*
X144516742Y-92233502D01*
X144649898Y-92144530D01*
X144797858Y-92083242D01*
X144954925Y-92052000D01*
X145115075Y-92052000D01*
X145272142Y-92083242D01*
X145272142Y-92083242D01*
G37*
G36*
X126868228Y-90395703D02*
X127023100Y-90459853D01*
X127162481Y-90552985D01*
X127281015Y-90671519D01*
X127374147Y-90810900D01*
X127438297Y-90965772D01*
X127471000Y-91130184D01*
X127471000Y-91297816D01*
X127438297Y-91462228D01*
X127374147Y-91617100D01*
X127281015Y-91756481D01*
X127162481Y-91875015D01*
X127023100Y-91968147D01*
X126868228Y-92032297D01*
X126703816Y-92065000D01*
X126536184Y-92065000D01*
X126371772Y-92032297D01*
X126216900Y-91968147D01*
X126077519Y-91875015D01*
X125958985Y-91756481D01*
X125865853Y-91617100D01*
X125801703Y-91462228D01*
X125769000Y-91297816D01*
X125769000Y-91130184D01*
X125801703Y-90965772D01*
X125865853Y-90810900D01*
X125958985Y-90671519D01*
X126077519Y-90552985D01*
X126216900Y-90459853D01*
X126371772Y-90395703D01*
X126536184Y-90363000D01*
X126703816Y-90363000D01*
X126868228Y-90395703D01*
X126868228Y-90395703D01*
G37*
G36*
X111628228Y-90395703D02*
X111783100Y-90459853D01*
X111922481Y-90552985D01*
X112041015Y-90671519D01*
X112134147Y-90810900D01*
X112198297Y-90965772D01*
X112231000Y-91130184D01*
X112231000Y-91297816D01*
X112198297Y-91462228D01*
X112134147Y-91617100D01*
X112041015Y-91756481D01*
X111922481Y-91875015D01*
X111783100Y-91968147D01*
X111628228Y-92032297D01*
X111463816Y-92065000D01*
X111296184Y-92065000D01*
X111131772Y-92032297D01*
X110976900Y-91968147D01*
X110837519Y-91875015D01*
X110718985Y-91756481D01*
X110625853Y-91617100D01*
X110561703Y-91462228D01*
X110529000Y-91297816D01*
X110529000Y-91130184D01*
X110561703Y-90965772D01*
X110625853Y-90810900D01*
X110718985Y-90671519D01*
X110837519Y-90552985D01*
X110976900Y-90459853D01*
X111131772Y-90395703D01*
X111296184Y-90363000D01*
X111463816Y-90363000D01*
X111628228Y-90395703D01*
X111628228Y-90395703D01*
G37*
G36*
X150998228Y-90141703D02*
X151153100Y-90205853D01*
X151292481Y-90298985D01*
X151411015Y-90417519D01*
X151504147Y-90556900D01*
X151568297Y-90711772D01*
X151601000Y-90876184D01*
X151601000Y-91043816D01*
X151568297Y-91208228D01*
X151504147Y-91363100D01*
X151411015Y-91502481D01*
X151292481Y-91621015D01*
X151153100Y-91714147D01*
X150998228Y-91778297D01*
X150833816Y-91811000D01*
X150666184Y-91811000D01*
X150501772Y-91778297D01*
X150346900Y-91714147D01*
X150207519Y-91621015D01*
X150088985Y-91502481D01*
X149995853Y-91363100D01*
X149931703Y-91208228D01*
X149899000Y-91043816D01*
X149899000Y-90876184D01*
X149931703Y-90711772D01*
X149995853Y-90556900D01*
X150088985Y-90417519D01*
X150207519Y-90298985D01*
X150346900Y-90205853D01*
X150501772Y-90141703D01*
X150666184Y-90109000D01*
X150833816Y-90109000D01*
X150998228Y-90141703D01*
X150998228Y-90141703D01*
G37*
G36*
X114080721Y-90684174D02*
X114180995Y-90725709D01*
X114271245Y-90786012D01*
X114347988Y-90862755D01*
X114408291Y-90953005D01*
X114449826Y-91053279D01*
X114471000Y-91159730D01*
X114471000Y-91268270D01*
X114449826Y-91374721D01*
X114408291Y-91474995D01*
X114347988Y-91565245D01*
X114271245Y-91641988D01*
X114180995Y-91702291D01*
X114080721Y-91743826D01*
X113974270Y-91765000D01*
X113865730Y-91765000D01*
X113759279Y-91743826D01*
X113659005Y-91702291D01*
X113568755Y-91641988D01*
X113492012Y-91565245D01*
X113431709Y-91474995D01*
X113390174Y-91374721D01*
X113369000Y-91268270D01*
X113369000Y-91159730D01*
X113390174Y-91053279D01*
X113431709Y-90953005D01*
X113492012Y-90862755D01*
X113568755Y-90786012D01*
X113659005Y-90725709D01*
X113759279Y-90684174D01*
X113865730Y-90663000D01*
X113974270Y-90663000D01*
X114080721Y-90684174D01*
X114080721Y-90684174D01*
G37*
G36*
X104124142Y-88908242D02*
X104272102Y-88969530D01*
X104405258Y-89058502D01*
X104518498Y-89171742D01*
X104607470Y-89304898D01*
X104668758Y-89452858D01*
X104700000Y-89609925D01*
X104700000Y-89770075D01*
X104668758Y-89927142D01*
X104621354Y-90041583D01*
X104607471Y-90075100D01*
X104520105Y-90205854D01*
X104518498Y-90208258D01*
X104405258Y-90321498D01*
X104272102Y-90410470D01*
X104272101Y-90410471D01*
X104272100Y-90410471D01*
X104238583Y-90424354D01*
X104124142Y-90471758D01*
X103967075Y-90503000D01*
X103806925Y-90503000D01*
X103649858Y-90471758D01*
X103535417Y-90424354D01*
X103501900Y-90410471D01*
X103501899Y-90410471D01*
X103501898Y-90410470D01*
X103368742Y-90321498D01*
X103255502Y-90208258D01*
X103253896Y-90205854D01*
X103166529Y-90075100D01*
X103152646Y-90041583D01*
X103105242Y-89927142D01*
X103074000Y-89770075D01*
X103074000Y-89609925D01*
X103105242Y-89452858D01*
X103166530Y-89304898D01*
X103255502Y-89171742D01*
X103368742Y-89058502D01*
X103501898Y-88969530D01*
X103649858Y-88908242D01*
X103806925Y-88877000D01*
X103967075Y-88877000D01*
X104124142Y-88908242D01*
X104124142Y-88908242D01*
G37*
G36*
X93329142Y-88908242D02*
X93477102Y-88969530D01*
X93610258Y-89058502D01*
X93723498Y-89171742D01*
X93812470Y-89304898D01*
X93873758Y-89452858D01*
X93905000Y-89609925D01*
X93905000Y-89770075D01*
X93873758Y-89927142D01*
X93826354Y-90041583D01*
X93812471Y-90075100D01*
X93725105Y-90205854D01*
X93723498Y-90208258D01*
X93610258Y-90321498D01*
X93477102Y-90410470D01*
X93477101Y-90410471D01*
X93477100Y-90410471D01*
X93443583Y-90424354D01*
X93329142Y-90471758D01*
X93172075Y-90503000D01*
X93011925Y-90503000D01*
X92854858Y-90471758D01*
X92740417Y-90424354D01*
X92706900Y-90410471D01*
X92706899Y-90410471D01*
X92706898Y-90410470D01*
X92573742Y-90321498D01*
X92460502Y-90208258D01*
X92458896Y-90205854D01*
X92371529Y-90075100D01*
X92357646Y-90041583D01*
X92310242Y-89927142D01*
X92279000Y-89770075D01*
X92279000Y-89609925D01*
X92310242Y-89452858D01*
X92371530Y-89304898D01*
X92460502Y-89171742D01*
X92573742Y-89058502D01*
X92706898Y-88969530D01*
X92854858Y-88908242D01*
X93011925Y-88877000D01*
X93172075Y-88877000D01*
X93329142Y-88908242D01*
X93329142Y-88908242D01*
G37*
G36*
X86781821Y-88216313D02*
X86781824Y-88216314D01*
X86781825Y-88216314D01*
X86942239Y-88264975D01*
X86942241Y-88264976D01*
X86942244Y-88264977D01*
X87090078Y-88343995D01*
X87219659Y-88450341D01*
X87326005Y-88579922D01*
X87405023Y-88727756D01*
X87453687Y-88888179D01*
X87470117Y-89055000D01*
X87453687Y-89221821D01*
X87453686Y-89221824D01*
X87453686Y-89221825D01*
X87419351Y-89335014D01*
X87405023Y-89382244D01*
X87326005Y-89530078D01*
X87219659Y-89659659D01*
X87090078Y-89766005D01*
X86942244Y-89845023D01*
X86942241Y-89845024D01*
X86942239Y-89845025D01*
X86781825Y-89893686D01*
X86781824Y-89893686D01*
X86781821Y-89893687D01*
X86656804Y-89906000D01*
X86573196Y-89906000D01*
X86448179Y-89893687D01*
X86448176Y-89893686D01*
X86448175Y-89893686D01*
X86287761Y-89845025D01*
X86287759Y-89845024D01*
X86287756Y-89845023D01*
X86139922Y-89766005D01*
X86010341Y-89659659D01*
X85903995Y-89530078D01*
X85824977Y-89382244D01*
X85810650Y-89335014D01*
X85776314Y-89221825D01*
X85776314Y-89221824D01*
X85776313Y-89221821D01*
X85759883Y-89055000D01*
X85776313Y-88888179D01*
X85824977Y-88727756D01*
X85903995Y-88579922D01*
X86010341Y-88450341D01*
X86139922Y-88343995D01*
X86287756Y-88264977D01*
X86287759Y-88264976D01*
X86287761Y-88264975D01*
X86448175Y-88216314D01*
X86448176Y-88216314D01*
X86448179Y-88216313D01*
X86573196Y-88204000D01*
X86656804Y-88204000D01*
X86781821Y-88216313D01*
X86781821Y-88216313D01*
G37*
G36*
X126868228Y-87855703D02*
X127023100Y-87919853D01*
X127162481Y-88012985D01*
X127281015Y-88131519D01*
X127374147Y-88270900D01*
X127438297Y-88425772D01*
X127471000Y-88590184D01*
X127471000Y-88757816D01*
X127438297Y-88922228D01*
X127374147Y-89077100D01*
X127281015Y-89216481D01*
X127162481Y-89335015D01*
X127023100Y-89428147D01*
X126868228Y-89492297D01*
X126703816Y-89525000D01*
X126536184Y-89525000D01*
X126371772Y-89492297D01*
X126216900Y-89428147D01*
X126077519Y-89335015D01*
X125958985Y-89216481D01*
X125865853Y-89077100D01*
X125801703Y-88922228D01*
X125769000Y-88757816D01*
X125769000Y-88590184D01*
X125801703Y-88425772D01*
X125865853Y-88270900D01*
X125958985Y-88131519D01*
X126077519Y-88012985D01*
X126216900Y-87919853D01*
X126371772Y-87855703D01*
X126536184Y-87823000D01*
X126703816Y-87823000D01*
X126868228Y-87855703D01*
X126868228Y-87855703D01*
G37*
G36*
X111628228Y-87855703D02*
X111783100Y-87919853D01*
X111922481Y-88012985D01*
X112041015Y-88131519D01*
X112134147Y-88270900D01*
X112198297Y-88425772D01*
X112231000Y-88590184D01*
X112231000Y-88757816D01*
X112198297Y-88922228D01*
X112134147Y-89077100D01*
X112041015Y-89216481D01*
X111922481Y-89335015D01*
X111783100Y-89428147D01*
X111628228Y-89492297D01*
X111463816Y-89525000D01*
X111296184Y-89525000D01*
X111131772Y-89492297D01*
X110976900Y-89428147D01*
X110837519Y-89335015D01*
X110718985Y-89216481D01*
X110625853Y-89077100D01*
X110561703Y-88922228D01*
X110529000Y-88757816D01*
X110529000Y-88590184D01*
X110561703Y-88425772D01*
X110625853Y-88270900D01*
X110718985Y-88131519D01*
X110837519Y-88012985D01*
X110976900Y-87919853D01*
X111131772Y-87855703D01*
X111296184Y-87823000D01*
X111463816Y-87823000D01*
X111628228Y-87855703D01*
X111628228Y-87855703D01*
G37*
G36*
X93329142Y-86368242D02*
X93477102Y-86429530D01*
X93610258Y-86518502D01*
X93723498Y-86631742D01*
X93812470Y-86764898D01*
X93873758Y-86912858D01*
X93905000Y-87069925D01*
X93905000Y-87230075D01*
X93873758Y-87387142D01*
X93812470Y-87535102D01*
X93723498Y-87668258D01*
X93610258Y-87781498D01*
X93477102Y-87870470D01*
X93329142Y-87931758D01*
X93172075Y-87963000D01*
X93011925Y-87963000D01*
X92854858Y-87931758D01*
X92706898Y-87870470D01*
X92573742Y-87781498D01*
X92460502Y-87668258D01*
X92371530Y-87535102D01*
X92310242Y-87387142D01*
X92279000Y-87230075D01*
X92279000Y-87069925D01*
X92310242Y-86912858D01*
X92371530Y-86764898D01*
X92460502Y-86631742D01*
X92573742Y-86518502D01*
X92706898Y-86429530D01*
X92854858Y-86368242D01*
X93011925Y-86337000D01*
X93172075Y-86337000D01*
X93329142Y-86368242D01*
X93329142Y-86368242D01*
G37*
G36*
X145036395Y-85590963D02*
X145047946Y-85612574D01*
X145063491Y-85631516D01*
X145082433Y-85647061D01*
X145104044Y-85658613D01*
X145127492Y-85665726D01*
X145283228Y-85696703D01*
X145438100Y-85760853D01*
X145577481Y-85853985D01*
X145696015Y-85972519D01*
X145789147Y-86111900D01*
X145853297Y-86266772D01*
X145886000Y-86431184D01*
X145886000Y-86598816D01*
X145853297Y-86763228D01*
X145789147Y-86918100D01*
X145696015Y-87057481D01*
X145577481Y-87176015D01*
X145438100Y-87269147D01*
X145283228Y-87333297D01*
X145118816Y-87366000D01*
X144951184Y-87366000D01*
X144786772Y-87333297D01*
X144631900Y-87269147D01*
X144492519Y-87176015D01*
X144373985Y-87057481D01*
X144280853Y-86918100D01*
X144216703Y-86763228D01*
X144184000Y-86598816D01*
X144184000Y-86431184D01*
X144216703Y-86266772D01*
X144280853Y-86111900D01*
X144373985Y-85972519D01*
X144492519Y-85853985D01*
X144631900Y-85760853D01*
X144786772Y-85696703D01*
X144942508Y-85665726D01*
X144965956Y-85658613D01*
X144987567Y-85647061D01*
X145006509Y-85631516D01*
X145022054Y-85612574D01*
X145033605Y-85590963D01*
X145035000Y-85586364D01*
X145036395Y-85590963D01*
X145036395Y-85590963D01*
G37*
G36*
X126868228Y-85315703D02*
X127023100Y-85379853D01*
X127162481Y-85472985D01*
X127281015Y-85591519D01*
X127374147Y-85730900D01*
X127438297Y-85885772D01*
X127471000Y-86050184D01*
X127471000Y-86217816D01*
X127438297Y-86382228D01*
X127374147Y-86537100D01*
X127281015Y-86676481D01*
X127162481Y-86795015D01*
X127023100Y-86888147D01*
X126868228Y-86952297D01*
X126703816Y-86985000D01*
X126536184Y-86985000D01*
X126371772Y-86952297D01*
X126216900Y-86888147D01*
X126077519Y-86795015D01*
X125958985Y-86676481D01*
X125865853Y-86537100D01*
X125801703Y-86382228D01*
X125769000Y-86217816D01*
X125769000Y-86050184D01*
X125801703Y-85885772D01*
X125865853Y-85730900D01*
X125958985Y-85591519D01*
X126077519Y-85472985D01*
X126216900Y-85379853D01*
X126371772Y-85315703D01*
X126536184Y-85283000D01*
X126703816Y-85283000D01*
X126868228Y-85315703D01*
X126868228Y-85315703D01*
G37*
G36*
X111628228Y-85315703D02*
X111783100Y-85379853D01*
X111922481Y-85472985D01*
X112041015Y-85591519D01*
X112134147Y-85730900D01*
X112198297Y-85885772D01*
X112231000Y-86050184D01*
X112231000Y-86217816D01*
X112198297Y-86382228D01*
X112134147Y-86537100D01*
X112041015Y-86676481D01*
X111922481Y-86795015D01*
X111783100Y-86888147D01*
X111628228Y-86952297D01*
X111463816Y-86985000D01*
X111296184Y-86985000D01*
X111131772Y-86952297D01*
X110976900Y-86888147D01*
X110837519Y-86795015D01*
X110718985Y-86676481D01*
X110625853Y-86537100D01*
X110561703Y-86382228D01*
X110529000Y-86217816D01*
X110529000Y-86050184D01*
X110561703Y-85885772D01*
X110625853Y-85730900D01*
X110718985Y-85591519D01*
X110837519Y-85472985D01*
X110976900Y-85379853D01*
X111131772Y-85315703D01*
X111296184Y-85283000D01*
X111463816Y-85283000D01*
X111628228Y-85315703D01*
X111628228Y-85315703D01*
G37*
G36*
X150916821Y-85041313D02*
X150916824Y-85041314D01*
X150916825Y-85041314D01*
X151077239Y-85089975D01*
X151077241Y-85089976D01*
X151077244Y-85089977D01*
X151225078Y-85168995D01*
X151354659Y-85275341D01*
X151461005Y-85404922D01*
X151540023Y-85552756D01*
X151540024Y-85552759D01*
X151540025Y-85552761D01*
X151588686Y-85713175D01*
X151588687Y-85713179D01*
X151605117Y-85880000D01*
X151588687Y-86046821D01*
X151588686Y-86046824D01*
X151588686Y-86046825D01*
X151568946Y-86111900D01*
X151540023Y-86207244D01*
X151461005Y-86355078D01*
X151354659Y-86484659D01*
X151225078Y-86591005D01*
X151077244Y-86670023D01*
X151077241Y-86670024D01*
X151077239Y-86670025D01*
X150916825Y-86718686D01*
X150916824Y-86718686D01*
X150916821Y-86718687D01*
X150791804Y-86731000D01*
X150708196Y-86731000D01*
X150583179Y-86718687D01*
X150583176Y-86718686D01*
X150583175Y-86718686D01*
X150422761Y-86670025D01*
X150422759Y-86670024D01*
X150422756Y-86670023D01*
X150274922Y-86591005D01*
X150145341Y-86484659D01*
X150038995Y-86355078D01*
X149959977Y-86207244D01*
X149931055Y-86111900D01*
X149911314Y-86046825D01*
X149911314Y-86046824D01*
X149911313Y-86046821D01*
X149894883Y-85880000D01*
X149911313Y-85713179D01*
X149911314Y-85713175D01*
X149959975Y-85552761D01*
X149959976Y-85552759D01*
X149959977Y-85552756D01*
X150038995Y-85404922D01*
X150145341Y-85275341D01*
X150274922Y-85168995D01*
X150422756Y-85089977D01*
X150422759Y-85089976D01*
X150422761Y-85089975D01*
X150583175Y-85041314D01*
X150583176Y-85041314D01*
X150583179Y-85041313D01*
X150708196Y-85029000D01*
X150791804Y-85029000D01*
X150916821Y-85041313D01*
X150916821Y-85041313D01*
G37*
G36*
X145272142Y-83828242D02*
X145420102Y-83889530D01*
X145553258Y-83978502D01*
X145666498Y-84091742D01*
X145755470Y-84224898D01*
X145816758Y-84372858D01*
X145848000Y-84529925D01*
X145848000Y-84690075D01*
X145816758Y-84847142D01*
X145755470Y-84995102D01*
X145666498Y-85128258D01*
X145553258Y-85241498D01*
X145420102Y-85330470D01*
X145272141Y-85391758D01*
X145127494Y-85420530D01*
X145104045Y-85427643D01*
X145082434Y-85439194D01*
X145063492Y-85454739D01*
X145047947Y-85473681D01*
X145036395Y-85495292D01*
X145035000Y-85499891D01*
X145033605Y-85495292D01*
X145022053Y-85473681D01*
X145006508Y-85454739D01*
X144987566Y-85439194D01*
X144965955Y-85427643D01*
X144942506Y-85420530D01*
X144797859Y-85391758D01*
X144649898Y-85330470D01*
X144516742Y-85241498D01*
X144403502Y-85128258D01*
X144314530Y-84995102D01*
X144253242Y-84847142D01*
X144222000Y-84690075D01*
X144222000Y-84529925D01*
X144253242Y-84372858D01*
X144314530Y-84224898D01*
X144403502Y-84091742D01*
X144516742Y-83978502D01*
X144649898Y-83889530D01*
X144797858Y-83828242D01*
X144954925Y-83797000D01*
X145115075Y-83797000D01*
X145272142Y-83828242D01*
X145272142Y-83828242D01*
G37*
G36*
X93329142Y-83828242D02*
X93477102Y-83889530D01*
X93610258Y-83978502D01*
X93723498Y-84091742D01*
X93812470Y-84224898D01*
X93873758Y-84372858D01*
X93905000Y-84529925D01*
X93905000Y-84690075D01*
X93873758Y-84847142D01*
X93812470Y-84995102D01*
X93723498Y-85128258D01*
X93610258Y-85241498D01*
X93477102Y-85330470D01*
X93329142Y-85391758D01*
X93172075Y-85423000D01*
X93011925Y-85423000D01*
X92854858Y-85391758D01*
X92706898Y-85330470D01*
X92573742Y-85241498D01*
X92460502Y-85128258D01*
X92371530Y-84995102D01*
X92310242Y-84847142D01*
X92279000Y-84690075D01*
X92279000Y-84529925D01*
X92310242Y-84372858D01*
X92371530Y-84224898D01*
X92460502Y-84091742D01*
X92573742Y-83978502D01*
X92706898Y-83889530D01*
X92854858Y-83828242D01*
X93011925Y-83797000D01*
X93172075Y-83797000D01*
X93329142Y-83828242D01*
X93329142Y-83828242D01*
G37*
G36*
X126868228Y-82775703D02*
X127023100Y-82839853D01*
X127162481Y-82932985D01*
X127281015Y-83051519D01*
X127374147Y-83190900D01*
X127438297Y-83345772D01*
X127471000Y-83510184D01*
X127471000Y-83677816D01*
X127438297Y-83842228D01*
X127374147Y-83997100D01*
X127281015Y-84136481D01*
X127162481Y-84255015D01*
X127023100Y-84348147D01*
X126868228Y-84412297D01*
X126703816Y-84445000D01*
X126536184Y-84445000D01*
X126371772Y-84412297D01*
X126216900Y-84348147D01*
X126077519Y-84255015D01*
X125958985Y-84136481D01*
X125865853Y-83997100D01*
X125801703Y-83842228D01*
X125769000Y-83677816D01*
X125769000Y-83510184D01*
X125801703Y-83345772D01*
X125865853Y-83190900D01*
X125958985Y-83051519D01*
X126077519Y-82932985D01*
X126216900Y-82839853D01*
X126371772Y-82775703D01*
X126536184Y-82743000D01*
X126703816Y-82743000D01*
X126868228Y-82775703D01*
X126868228Y-82775703D01*
G37*
G36*
X111628228Y-82775703D02*
X111783100Y-82839853D01*
X111922481Y-82932985D01*
X112041015Y-83051519D01*
X112134147Y-83190900D01*
X112198297Y-83345772D01*
X112231000Y-83510184D01*
X112231000Y-83677816D01*
X112198297Y-83842228D01*
X112134147Y-83997100D01*
X112041015Y-84136481D01*
X111922481Y-84255015D01*
X111783100Y-84348147D01*
X111628228Y-84412297D01*
X111463816Y-84445000D01*
X111296184Y-84445000D01*
X111131772Y-84412297D01*
X110976900Y-84348147D01*
X110837519Y-84255015D01*
X110718985Y-84136481D01*
X110625853Y-83997100D01*
X110561703Y-83842228D01*
X110529000Y-83677816D01*
X110529000Y-83510184D01*
X110561703Y-83345772D01*
X110625853Y-83190900D01*
X110718985Y-83051519D01*
X110837519Y-82932985D01*
X110976900Y-82839853D01*
X111131772Y-82775703D01*
X111296184Y-82743000D01*
X111463816Y-82743000D01*
X111628228Y-82775703D01*
X111628228Y-82775703D01*
G37*
G36*
X131558667Y-81539467D02*
X131558670Y-81539468D01*
X131558671Y-81539468D01*
X131719085Y-81588129D01*
X131719087Y-81588130D01*
X131719090Y-81588131D01*
X131866924Y-81667149D01*
X131996505Y-81773495D01*
X132102851Y-81903076D01*
X132181869Y-82050910D01*
X132181870Y-82050913D01*
X132181871Y-82050915D01*
X132211951Y-82150075D01*
X132230533Y-82211333D01*
X132246963Y-82378154D01*
X132230533Y-82544975D01*
X132230532Y-82544978D01*
X132230532Y-82544979D01*
X132183053Y-82701498D01*
X132181869Y-82705398D01*
X132102851Y-82853232D01*
X131996505Y-82982813D01*
X131866924Y-83089159D01*
X131719090Y-83168177D01*
X131719087Y-83168178D01*
X131719085Y-83168179D01*
X131558671Y-83216840D01*
X131558670Y-83216840D01*
X131558667Y-83216841D01*
X131433650Y-83229154D01*
X131350042Y-83229154D01*
X131225025Y-83216841D01*
X131225022Y-83216840D01*
X131225021Y-83216840D01*
X131064607Y-83168179D01*
X131064605Y-83168178D01*
X131064602Y-83168177D01*
X130916768Y-83089159D01*
X130787187Y-82982813D01*
X130680841Y-82853232D01*
X130601823Y-82705398D01*
X130600640Y-82701498D01*
X130553160Y-82544979D01*
X130553160Y-82544978D01*
X130553159Y-82544975D01*
X130536729Y-82378154D01*
X130553159Y-82211333D01*
X130571741Y-82150075D01*
X130601821Y-82050915D01*
X130601822Y-82050913D01*
X130601823Y-82050910D01*
X130680841Y-81903076D01*
X130787187Y-81773495D01*
X130916768Y-81667149D01*
X131064602Y-81588131D01*
X131064605Y-81588130D01*
X131064607Y-81588129D01*
X131225021Y-81539468D01*
X131225022Y-81539468D01*
X131225025Y-81539467D01*
X131350042Y-81527154D01*
X131433650Y-81527154D01*
X131558667Y-81539467D01*
X131558667Y-81539467D01*
G37*
G36*
X93329142Y-81288242D02*
X93477102Y-81349530D01*
X93479577Y-81351184D01*
X93610257Y-81438501D01*
X93723499Y-81551743D01*
X93753392Y-81596481D01*
X93812470Y-81684898D01*
X93873758Y-81832858D01*
X93905000Y-81989925D01*
X93905000Y-82150075D01*
X93873758Y-82307142D01*
X93856911Y-82347813D01*
X93812471Y-82455100D01*
X93723499Y-82588257D01*
X93610257Y-82701499D01*
X93548146Y-82743000D01*
X93477102Y-82790470D01*
X93329142Y-82851758D01*
X93172075Y-82883000D01*
X93011925Y-82883000D01*
X92854858Y-82851758D01*
X92706898Y-82790470D01*
X92635854Y-82743000D01*
X92573743Y-82701499D01*
X92460501Y-82588257D01*
X92371529Y-82455100D01*
X92327089Y-82347813D01*
X92310242Y-82307142D01*
X92279000Y-82150075D01*
X92279000Y-81989925D01*
X92310242Y-81832858D01*
X92371530Y-81684898D01*
X92430608Y-81596481D01*
X92460501Y-81551743D01*
X92573743Y-81438501D01*
X92704423Y-81351184D01*
X92706898Y-81349530D01*
X92854858Y-81288242D01*
X93011925Y-81257000D01*
X93172075Y-81257000D01*
X93329142Y-81288242D01*
X93329142Y-81288242D01*
G37*
G36*
X145272142Y-81288242D02*
X145420102Y-81349530D01*
X145422577Y-81351184D01*
X145553257Y-81438501D01*
X145666499Y-81551743D01*
X145696392Y-81596481D01*
X145755470Y-81684898D01*
X145816758Y-81832858D01*
X145848000Y-81989925D01*
X145848000Y-82150075D01*
X145816758Y-82307142D01*
X145799911Y-82347813D01*
X145755471Y-82455100D01*
X145666499Y-82588257D01*
X145553257Y-82701499D01*
X145491146Y-82743000D01*
X145420102Y-82790470D01*
X145272142Y-82851758D01*
X145115075Y-82883000D01*
X144954925Y-82883000D01*
X144797858Y-82851758D01*
X144649898Y-82790470D01*
X144578854Y-82743000D01*
X144516743Y-82701499D01*
X144403501Y-82588257D01*
X144314529Y-82455100D01*
X144270089Y-82347813D01*
X144253242Y-82307142D01*
X144222000Y-82150075D01*
X144222000Y-81989925D01*
X144253242Y-81832858D01*
X144314530Y-81684898D01*
X144373608Y-81596481D01*
X144403501Y-81551743D01*
X144516743Y-81438501D01*
X144647423Y-81351184D01*
X144649898Y-81349530D01*
X144797858Y-81288242D01*
X144954925Y-81257000D01*
X145115075Y-81257000D01*
X145272142Y-81288242D01*
X145272142Y-81288242D01*
G37*
G36*
X109314975Y-80904467D02*
X109314978Y-80904468D01*
X109314979Y-80904468D01*
X109475393Y-80953129D01*
X109475395Y-80953130D01*
X109475398Y-80953131D01*
X109623232Y-81032149D01*
X109752813Y-81138495D01*
X109859159Y-81268076D01*
X109938177Y-81415910D01*
X109938178Y-81415913D01*
X109938179Y-81415915D01*
X109979382Y-81551743D01*
X109986841Y-81576333D01*
X110003271Y-81743154D01*
X109986841Y-81909975D01*
X109986840Y-81909978D01*
X109986840Y-81909979D01*
X109944088Y-82050915D01*
X109938177Y-82070398D01*
X109859159Y-82218232D01*
X109752813Y-82347813D01*
X109623232Y-82454159D01*
X109475398Y-82533177D01*
X109475395Y-82533178D01*
X109475393Y-82533179D01*
X109314979Y-82581840D01*
X109314978Y-82581840D01*
X109314975Y-82581841D01*
X109189958Y-82594154D01*
X109106350Y-82594154D01*
X108981333Y-82581841D01*
X108981330Y-82581840D01*
X108981329Y-82581840D01*
X108820915Y-82533179D01*
X108820913Y-82533178D01*
X108820910Y-82533177D01*
X108673076Y-82454159D01*
X108543495Y-82347813D01*
X108437149Y-82218232D01*
X108358131Y-82070398D01*
X108352221Y-82050915D01*
X108309468Y-81909979D01*
X108309468Y-81909978D01*
X108309467Y-81909975D01*
X108293037Y-81743154D01*
X108309467Y-81576333D01*
X108316926Y-81551743D01*
X108358129Y-81415915D01*
X108358130Y-81415913D01*
X108358131Y-81415910D01*
X108437149Y-81268076D01*
X108543495Y-81138495D01*
X108673076Y-81032149D01*
X108820910Y-80953131D01*
X108820913Y-80953130D01*
X108820915Y-80953129D01*
X108981329Y-80904468D01*
X108981330Y-80904468D01*
X108981333Y-80904467D01*
X109106350Y-80892154D01*
X109189958Y-80892154D01*
X109314975Y-80904467D01*
X109314975Y-80904467D01*
G37*
G36*
X86863228Y-80616703D02*
X87018100Y-80680853D01*
X87157481Y-80773985D01*
X87276015Y-80892519D01*
X87369147Y-81031900D01*
X87433297Y-81186772D01*
X87466000Y-81351184D01*
X87466000Y-81518816D01*
X87433297Y-81683228D01*
X87369147Y-81838100D01*
X87276015Y-81977481D01*
X87157481Y-82096015D01*
X87018100Y-82189147D01*
X86863228Y-82253297D01*
X86698816Y-82286000D01*
X86531184Y-82286000D01*
X86366772Y-82253297D01*
X86211900Y-82189147D01*
X86072519Y-82096015D01*
X85953985Y-81977481D01*
X85860853Y-81838100D01*
X85796703Y-81683228D01*
X85764000Y-81518816D01*
X85764000Y-81351184D01*
X85796703Y-81186772D01*
X85860853Y-81031900D01*
X85953985Y-80892519D01*
X86072519Y-80773985D01*
X86211900Y-80680853D01*
X86366772Y-80616703D01*
X86531184Y-80584000D01*
X86698816Y-80584000D01*
X86863228Y-80616703D01*
X86863228Y-80616703D01*
G37*
G36*
X126868228Y-80235703D02*
X127023100Y-80299853D01*
X127162481Y-80392985D01*
X127281015Y-80511519D01*
X127374147Y-80650900D01*
X127438297Y-80805772D01*
X127471000Y-80970184D01*
X127471000Y-81137816D01*
X127438297Y-81302228D01*
X127374147Y-81457100D01*
X127281015Y-81596481D01*
X127162481Y-81715015D01*
X127023100Y-81808147D01*
X126868228Y-81872297D01*
X126703816Y-81905000D01*
X126536184Y-81905000D01*
X126371772Y-81872297D01*
X126216900Y-81808147D01*
X126077519Y-81715015D01*
X125958985Y-81596481D01*
X125865853Y-81457100D01*
X125801703Y-81302228D01*
X125769000Y-81137816D01*
X125769000Y-80970184D01*
X125801703Y-80805772D01*
X125865853Y-80650900D01*
X125958985Y-80511519D01*
X126077519Y-80392985D01*
X126216900Y-80299853D01*
X126371772Y-80235703D01*
X126536184Y-80203000D01*
X126703816Y-80203000D01*
X126868228Y-80235703D01*
X126868228Y-80235703D01*
G37*
G36*
X145272142Y-78748242D02*
X145386583Y-78795646D01*
X145403085Y-78802481D01*
X145420102Y-78809530D01*
X145487130Y-78854317D01*
X145553257Y-78898501D01*
X145666499Y-79011743D01*
X145668105Y-79014147D01*
X145755470Y-79144898D01*
X145816758Y-79292858D01*
X145848000Y-79449925D01*
X145848000Y-79610075D01*
X145816758Y-79767142D01*
X145755470Y-79915102D01*
X145666498Y-80048258D01*
X145553258Y-80161498D01*
X145420102Y-80250470D01*
X145272142Y-80311758D01*
X145115075Y-80343000D01*
X144954925Y-80343000D01*
X144797858Y-80311758D01*
X144649898Y-80250470D01*
X144516742Y-80161498D01*
X144403502Y-80048258D01*
X144314530Y-79915102D01*
X144253242Y-79767142D01*
X144222000Y-79610075D01*
X144222000Y-79449925D01*
X144253242Y-79292858D01*
X144314530Y-79144898D01*
X144401895Y-79014147D01*
X144403501Y-79011743D01*
X144516743Y-78898501D01*
X144582870Y-78854317D01*
X144649898Y-78809530D01*
X144666916Y-78802481D01*
X144683417Y-78795646D01*
X144797858Y-78748242D01*
X144954925Y-78717000D01*
X145115075Y-78717000D01*
X145272142Y-78748242D01*
X145272142Y-78748242D01*
G37*
G36*
X93329142Y-78748242D02*
X93443583Y-78795646D01*
X93460085Y-78802481D01*
X93477102Y-78809530D01*
X93544130Y-78854317D01*
X93610257Y-78898501D01*
X93723499Y-79011743D01*
X93725105Y-79014147D01*
X93812470Y-79144898D01*
X93873758Y-79292858D01*
X93905000Y-79449925D01*
X93905000Y-79610075D01*
X93873758Y-79767142D01*
X93812470Y-79915102D01*
X93723498Y-80048258D01*
X93610258Y-80161498D01*
X93477102Y-80250470D01*
X93329142Y-80311758D01*
X93172075Y-80343000D01*
X93011925Y-80343000D01*
X92854858Y-80311758D01*
X92706898Y-80250470D01*
X92573742Y-80161498D01*
X92460502Y-80048258D01*
X92371530Y-79915102D01*
X92310242Y-79767142D01*
X92279000Y-79610075D01*
X92279000Y-79449925D01*
X92310242Y-79292858D01*
X92371530Y-79144898D01*
X92458895Y-79014147D01*
X92460501Y-79011743D01*
X92573743Y-78898501D01*
X92639870Y-78854317D01*
X92706898Y-78809530D01*
X92723916Y-78802481D01*
X92740417Y-78795646D01*
X92854858Y-78748242D01*
X93011925Y-78717000D01*
X93172075Y-78717000D01*
X93329142Y-78748242D01*
X93329142Y-78748242D01*
G37*
G36*
X121788228Y-77695703D02*
X121943100Y-77759853D01*
X122082481Y-77852985D01*
X122201015Y-77971519D01*
X122294147Y-78110900D01*
X122358297Y-78265772D01*
X122391000Y-78430184D01*
X122391000Y-78597816D01*
X122358297Y-78762228D01*
X122294147Y-78917100D01*
X122201015Y-79056481D01*
X122082481Y-79175015D01*
X121943100Y-79268147D01*
X121788228Y-79332297D01*
X121623816Y-79365000D01*
X121456184Y-79365000D01*
X121291772Y-79332297D01*
X121136900Y-79268147D01*
X120997519Y-79175015D01*
X120878985Y-79056481D01*
X120785853Y-78917100D01*
X120721703Y-78762228D01*
X120689000Y-78597816D01*
X120689000Y-78430184D01*
X120721703Y-78265772D01*
X120785853Y-78110900D01*
X120878985Y-77971519D01*
X120997519Y-77852985D01*
X121136900Y-77759853D01*
X121291772Y-77695703D01*
X121456184Y-77663000D01*
X121623816Y-77663000D01*
X121788228Y-77695703D01*
X121788228Y-77695703D01*
G37*
G36*
X126868228Y-77695703D02*
X127023100Y-77759853D01*
X127162481Y-77852985D01*
X127281015Y-77971519D01*
X127374147Y-78110900D01*
X127438297Y-78265772D01*
X127471000Y-78430184D01*
X127471000Y-78597816D01*
X127438297Y-78762228D01*
X127374147Y-78917100D01*
X127281015Y-79056481D01*
X127162481Y-79175015D01*
X127023100Y-79268147D01*
X126868228Y-79332297D01*
X126703816Y-79365000D01*
X126536184Y-79365000D01*
X126371772Y-79332297D01*
X126216900Y-79268147D01*
X126077519Y-79175015D01*
X125958985Y-79056481D01*
X125865853Y-78917100D01*
X125801703Y-78762228D01*
X125769000Y-78597816D01*
X125769000Y-78430184D01*
X125801703Y-78265772D01*
X125865853Y-78110900D01*
X125958985Y-77971519D01*
X126077519Y-77852985D01*
X126216900Y-77759853D01*
X126371772Y-77695703D01*
X126536184Y-77663000D01*
X126703816Y-77663000D01*
X126868228Y-77695703D01*
X126868228Y-77695703D01*
G37*
G36*
X116708228Y-77695703D02*
X116863100Y-77759853D01*
X117002481Y-77852985D01*
X117121015Y-77971519D01*
X117214147Y-78110900D01*
X117278297Y-78265772D01*
X117311000Y-78430184D01*
X117311000Y-78597816D01*
X117278297Y-78762228D01*
X117214147Y-78917100D01*
X117121015Y-79056481D01*
X117002481Y-79175015D01*
X116863100Y-79268147D01*
X116708228Y-79332297D01*
X116543816Y-79365000D01*
X116376184Y-79365000D01*
X116211772Y-79332297D01*
X116056900Y-79268147D01*
X115917519Y-79175015D01*
X115798985Y-79056481D01*
X115705853Y-78917100D01*
X115641703Y-78762228D01*
X115609000Y-78597816D01*
X115609000Y-78430184D01*
X115641703Y-78265772D01*
X115705853Y-78110900D01*
X115798985Y-77971519D01*
X115917519Y-77852985D01*
X116056900Y-77759853D01*
X116211772Y-77695703D01*
X116376184Y-77663000D01*
X116543816Y-77663000D01*
X116708228Y-77695703D01*
X116708228Y-77695703D01*
G37*
G36*
X119248228Y-77695703D02*
X119403100Y-77759853D01*
X119542481Y-77852985D01*
X119661015Y-77971519D01*
X119754147Y-78110900D01*
X119818297Y-78265772D01*
X119851000Y-78430184D01*
X119851000Y-78597816D01*
X119818297Y-78762228D01*
X119754147Y-78917100D01*
X119661015Y-79056481D01*
X119542481Y-79175015D01*
X119403100Y-79268147D01*
X119248228Y-79332297D01*
X119083816Y-79365000D01*
X118916184Y-79365000D01*
X118751772Y-79332297D01*
X118596900Y-79268147D01*
X118457519Y-79175015D01*
X118338985Y-79056481D01*
X118245853Y-78917100D01*
X118181703Y-78762228D01*
X118149000Y-78597816D01*
X118149000Y-78430184D01*
X118181703Y-78265772D01*
X118245853Y-78110900D01*
X118338985Y-77971519D01*
X118457519Y-77852985D01*
X118596900Y-77759853D01*
X118751772Y-77695703D01*
X118916184Y-77663000D01*
X119083816Y-77663000D01*
X119248228Y-77695703D01*
X119248228Y-77695703D01*
G37*
G36*
X150998228Y-77441703D02*
X151153100Y-77505853D01*
X151292481Y-77598985D01*
X151411015Y-77717519D01*
X151504147Y-77856900D01*
X151568297Y-78011772D01*
X151601000Y-78176184D01*
X151601000Y-78343816D01*
X151568297Y-78508228D01*
X151504147Y-78663100D01*
X151411015Y-78802481D01*
X151292481Y-78921015D01*
X151153100Y-79014147D01*
X150998228Y-79078297D01*
X150833816Y-79111000D01*
X150666184Y-79111000D01*
X150501772Y-79078297D01*
X150346900Y-79014147D01*
X150207519Y-78921015D01*
X150088985Y-78802481D01*
X149995853Y-78663100D01*
X149931703Y-78508228D01*
X149899000Y-78343816D01*
X149899000Y-78176184D01*
X149931703Y-78011772D01*
X149995853Y-77856900D01*
X150088985Y-77717519D01*
X150207519Y-77598985D01*
X150346900Y-77505853D01*
X150501772Y-77441703D01*
X150666184Y-77409000D01*
X150833816Y-77409000D01*
X150998228Y-77441703D01*
X150998228Y-77441703D01*
G37*
G36*
X137028228Y-76171703D02*
X137183100Y-76235853D01*
X137322481Y-76328985D01*
X137441015Y-76447519D01*
X137534147Y-76586900D01*
X137598297Y-76741772D01*
X137631000Y-76906184D01*
X137631000Y-77073816D01*
X137598297Y-77238228D01*
X137534147Y-77393100D01*
X137441015Y-77532481D01*
X137322481Y-77651015D01*
X137183100Y-77744147D01*
X137028228Y-77808297D01*
X136863816Y-77841000D01*
X136696184Y-77841000D01*
X136531772Y-77808297D01*
X136376900Y-77744147D01*
X136237519Y-77651015D01*
X136118985Y-77532481D01*
X136025853Y-77393100D01*
X135961703Y-77238228D01*
X135929000Y-77073816D01*
X135929000Y-76906184D01*
X135961703Y-76741772D01*
X136025853Y-76586900D01*
X136118985Y-76447519D01*
X136237519Y-76328985D01*
X136376900Y-76235853D01*
X136531772Y-76171703D01*
X136696184Y-76139000D01*
X136863816Y-76139000D01*
X137028228Y-76171703D01*
X137028228Y-76171703D01*
G37*
G36*
X145272142Y-76208242D02*
X145420102Y-76269530D01*
X145553258Y-76358502D01*
X145666498Y-76471742D01*
X145755470Y-76604898D01*
X145816758Y-76752858D01*
X145848000Y-76909925D01*
X145848000Y-77070075D01*
X145816758Y-77227142D01*
X145769354Y-77341583D01*
X145755471Y-77375100D01*
X145668105Y-77505854D01*
X145666498Y-77508258D01*
X145553258Y-77621498D01*
X145420102Y-77710470D01*
X145420101Y-77710471D01*
X145420100Y-77710471D01*
X145386583Y-77724354D01*
X145272142Y-77771758D01*
X145115075Y-77803000D01*
X144954925Y-77803000D01*
X144797858Y-77771758D01*
X144683417Y-77724354D01*
X144649900Y-77710471D01*
X144649899Y-77710471D01*
X144649898Y-77710470D01*
X144516742Y-77621498D01*
X144403502Y-77508258D01*
X144401896Y-77505854D01*
X144314529Y-77375100D01*
X144300646Y-77341583D01*
X144253242Y-77227142D01*
X144222000Y-77070075D01*
X144222000Y-76909925D01*
X144253242Y-76752858D01*
X144314530Y-76604898D01*
X144403502Y-76471742D01*
X144516742Y-76358502D01*
X144649898Y-76269530D01*
X144797858Y-76208242D01*
X144954925Y-76177000D01*
X145115075Y-76177000D01*
X145272142Y-76208242D01*
X145272142Y-76208242D01*
G37*
G36*
X104008228Y-75536703D02*
X104163100Y-75600853D01*
X104302481Y-75693985D01*
X104421015Y-75812519D01*
X104514147Y-75951900D01*
X104578297Y-76106772D01*
X104611000Y-76271184D01*
X104611000Y-76438816D01*
X104578297Y-76603228D01*
X104514147Y-76758100D01*
X104421015Y-76897481D01*
X104302481Y-77016015D01*
X104163100Y-77109147D01*
X104008228Y-77173297D01*
X103843816Y-77206000D01*
X103676184Y-77206000D01*
X103511772Y-77173297D01*
X103356900Y-77109147D01*
X103217519Y-77016015D01*
X103098985Y-76897481D01*
X103005853Y-76758100D01*
X102941703Y-76603228D01*
X102909000Y-76438816D01*
X102909000Y-76271184D01*
X102941703Y-76106772D01*
X103005853Y-75951900D01*
X103098985Y-75812519D01*
X103217519Y-75693985D01*
X103356900Y-75600853D01*
X103511772Y-75536703D01*
X103676184Y-75504000D01*
X103843816Y-75504000D01*
X104008228Y-75536703D01*
X104008228Y-75536703D01*
G37*
G36*
X85990789Y-74779789D02*
X84430211Y-75680789D01*
X83529211Y-74120211D01*
X85089789Y-73219211D01*
X85990789Y-74779789D01*
X85990789Y-74779789D01*
G37*
G36*
X145272142Y-73668242D02*
X145420102Y-73729530D01*
X145487130Y-73774317D01*
X145553257Y-73818501D01*
X145666499Y-73931743D01*
X145667191Y-73932779D01*
X145755470Y-74064898D01*
X145816758Y-74212858D01*
X145848000Y-74369925D01*
X145848000Y-74530075D01*
X145816758Y-74687142D01*
X145755470Y-74835102D01*
X145666498Y-74968258D01*
X145553258Y-75081498D01*
X145420102Y-75170470D01*
X145272142Y-75231758D01*
X145115075Y-75263000D01*
X144954925Y-75263000D01*
X144797858Y-75231758D01*
X144649898Y-75170470D01*
X144516742Y-75081498D01*
X144403502Y-74968258D01*
X144314530Y-74835102D01*
X144253242Y-74687142D01*
X144222000Y-74530075D01*
X144222000Y-74369925D01*
X144253242Y-74212858D01*
X144314530Y-74064898D01*
X144402809Y-73932779D01*
X144403501Y-73931743D01*
X144516743Y-73818501D01*
X144582870Y-73774317D01*
X144649898Y-73729530D01*
X144797858Y-73668242D01*
X144954925Y-73637000D01*
X145115075Y-73637000D01*
X145272142Y-73668242D01*
X145272142Y-73668242D01*
G37*
G36*
X134477142Y-73668242D02*
X134625102Y-73729530D01*
X134692130Y-73774317D01*
X134758257Y-73818501D01*
X134871499Y-73931743D01*
X134872191Y-73932779D01*
X134960470Y-74064898D01*
X135021758Y-74212858D01*
X135053000Y-74369925D01*
X135053000Y-74530075D01*
X135021758Y-74687142D01*
X134960470Y-74835102D01*
X134871498Y-74968258D01*
X134758258Y-75081498D01*
X134625102Y-75170470D01*
X134477142Y-75231758D01*
X134320075Y-75263000D01*
X134159925Y-75263000D01*
X134002858Y-75231758D01*
X133854898Y-75170470D01*
X133721742Y-75081498D01*
X133608502Y-74968258D01*
X133519530Y-74835102D01*
X133458242Y-74687142D01*
X133427000Y-74530075D01*
X133427000Y-74369925D01*
X133458242Y-74212858D01*
X133519530Y-74064898D01*
X133607809Y-73932779D01*
X133608501Y-73931743D01*
X133721743Y-73818501D01*
X133787870Y-73774317D01*
X133854898Y-73729530D01*
X134002858Y-73668242D01*
X134159925Y-73637000D01*
X134320075Y-73637000D01*
X134477142Y-73668242D01*
X134477142Y-73668242D01*
G37*
G36*
X87070147Y-72285518D02*
X87136332Y-72292037D01*
X87249558Y-72326384D01*
X87306172Y-72343557D01*
X87383851Y-72385078D01*
X87462696Y-72427222D01*
X87493474Y-72452481D01*
X87599891Y-72539814D01*
X87683153Y-72641271D01*
X87712483Y-72677009D01*
X87712484Y-72677011D01*
X87796148Y-72833533D01*
X87796148Y-72833534D01*
X87847668Y-73003373D01*
X87865064Y-73180000D01*
X87847668Y-73356627D01*
X87813321Y-73469853D01*
X87796148Y-73526467D01*
X87737066Y-73637000D01*
X87712483Y-73682991D01*
X87683153Y-73718729D01*
X87599891Y-73820186D01*
X87498434Y-73903448D01*
X87462696Y-73932778D01*
X87462694Y-73932779D01*
X87306172Y-74016443D01*
X87249558Y-74033616D01*
X87136332Y-74067963D01*
X87070148Y-74074481D01*
X87003965Y-74081000D01*
X86915445Y-74081000D01*
X86849262Y-74074481D01*
X86783078Y-74067963D01*
X86669852Y-74033616D01*
X86613238Y-74016443D01*
X86456716Y-73932779D01*
X86456714Y-73932778D01*
X86420976Y-73903448D01*
X86319519Y-73820186D01*
X86236257Y-73718729D01*
X86206927Y-73682991D01*
X86182344Y-73637000D01*
X86123262Y-73526467D01*
X86106089Y-73469853D01*
X86071742Y-73356627D01*
X86054346Y-73180000D01*
X86071742Y-73003373D01*
X86123262Y-72833534D01*
X86123262Y-72833533D01*
X86206926Y-72677011D01*
X86206927Y-72677009D01*
X86236257Y-72641271D01*
X86319519Y-72539814D01*
X86425936Y-72452481D01*
X86456714Y-72427222D01*
X86535559Y-72385078D01*
X86613238Y-72343557D01*
X86669852Y-72326384D01*
X86783078Y-72292037D01*
X86849263Y-72285518D01*
X86915445Y-72279000D01*
X87003965Y-72279000D01*
X87070147Y-72285518D01*
X87070147Y-72285518D01*
G37*
G36*
X103926821Y-71071313D02*
X103926824Y-71071314D01*
X103926825Y-71071314D01*
X104087239Y-71119975D01*
X104087241Y-71119976D01*
X104087244Y-71119977D01*
X104235078Y-71198995D01*
X104364659Y-71305341D01*
X104471005Y-71434922D01*
X104550023Y-71582756D01*
X104550024Y-71582759D01*
X104550025Y-71582761D01*
X104586495Y-71702988D01*
X104598687Y-71743179D01*
X104615117Y-71910000D01*
X104598687Y-72076821D01*
X104598686Y-72076824D01*
X104598686Y-72076825D01*
X104573993Y-72158228D01*
X104550023Y-72237244D01*
X104471005Y-72385078D01*
X104364659Y-72514659D01*
X104235078Y-72621005D01*
X104087244Y-72700023D01*
X104087241Y-72700024D01*
X104087239Y-72700025D01*
X103926825Y-72748686D01*
X103926824Y-72748686D01*
X103926821Y-72748687D01*
X103801804Y-72761000D01*
X103718196Y-72761000D01*
X103593179Y-72748687D01*
X103593176Y-72748686D01*
X103593175Y-72748686D01*
X103432761Y-72700025D01*
X103432759Y-72700024D01*
X103432756Y-72700023D01*
X103284922Y-72621005D01*
X103155341Y-72514659D01*
X103048995Y-72385078D01*
X102969977Y-72237244D01*
X102946008Y-72158228D01*
X102921314Y-72076825D01*
X102921314Y-72076824D01*
X102921313Y-72076821D01*
X102904883Y-71910000D01*
X102921313Y-71743179D01*
X102933505Y-71702988D01*
X102969975Y-71582761D01*
X102969976Y-71582759D01*
X102969977Y-71582756D01*
X103048995Y-71434922D01*
X103155341Y-71305341D01*
X103284922Y-71198995D01*
X103432756Y-71119977D01*
X103432759Y-71119976D01*
X103432761Y-71119975D01*
X103593175Y-71071314D01*
X103593176Y-71071314D01*
X103593179Y-71071313D01*
X103718196Y-71059000D01*
X103801804Y-71059000D01*
X103926821Y-71071313D01*
X103926821Y-71071313D01*
G37*
G36*
X96388228Y-71091703D02*
X96543100Y-71155853D01*
X96682481Y-71248985D01*
X96801015Y-71367519D01*
X96894147Y-71506900D01*
X96958297Y-71661772D01*
X96991000Y-71826184D01*
X96991000Y-71993816D01*
X96958297Y-72158228D01*
X96894147Y-72313100D01*
X96801015Y-72452481D01*
X96682481Y-72571015D01*
X96543100Y-72664147D01*
X96388228Y-72728297D01*
X96223816Y-72761000D01*
X96056184Y-72761000D01*
X95891772Y-72728297D01*
X95736900Y-72664147D01*
X95597519Y-72571015D01*
X95478985Y-72452481D01*
X95385853Y-72313100D01*
X95321703Y-72158228D01*
X95289000Y-71993816D01*
X95289000Y-71826184D01*
X95321703Y-71661772D01*
X95385853Y-71506900D01*
X95478985Y-71367519D01*
X95597519Y-71248985D01*
X95736900Y-71155853D01*
X95891772Y-71091703D01*
X96056184Y-71059000D01*
X96223816Y-71059000D01*
X96388228Y-71091703D01*
X96388228Y-71091703D01*
G37*
G36*
X142832916Y-68802334D02*
X142941492Y-68835271D01*
X143041557Y-68888756D01*
X143129264Y-68960736D01*
X143201244Y-69048443D01*
X143254729Y-69148508D01*
X143287666Y-69257084D01*
X143298787Y-69370000D01*
X143287666Y-69482916D01*
X143254729Y-69591492D01*
X143237353Y-69624000D01*
X143201244Y-69691557D01*
X143129264Y-69779264D01*
X143041557Y-69851244D01*
X142960143Y-69894760D01*
X142939768Y-69908373D01*
X142922441Y-69925701D01*
X142908827Y-69946075D01*
X142899450Y-69968714D01*
X142894669Y-69992747D01*
X142894669Y-70017252D01*
X142899449Y-70041285D01*
X142908827Y-70063924D01*
X142922440Y-70084299D01*
X142939768Y-70101626D01*
X142960143Y-70115240D01*
X143041557Y-70158756D01*
X143129264Y-70230736D01*
X143201244Y-70318443D01*
X143254729Y-70418508D01*
X143287666Y-70527084D01*
X143298787Y-70640000D01*
X143287666Y-70752916D01*
X143254729Y-70861492D01*
X143254726Y-70861497D01*
X143201244Y-70961557D01*
X143129264Y-71049264D01*
X143052365Y-71112374D01*
X143035038Y-71129701D01*
X143021424Y-71150076D01*
X143012046Y-71172715D01*
X143007266Y-71196748D01*
X143007266Y-71221252D01*
X143012047Y-71245286D01*
X143021424Y-71267925D01*
X143035038Y-71288299D01*
X143052365Y-71305626D01*
X143072740Y-71319240D01*
X143095379Y-71328618D01*
X143131664Y-71334000D01*
X143296000Y-71334000D01*
X143296000Y-72486000D01*
X141694000Y-72486000D01*
X141694000Y-71334000D01*
X141858336Y-71334000D01*
X141882722Y-71331598D01*
X141906171Y-71324485D01*
X141927782Y-71312934D01*
X141946724Y-71297388D01*
X141962270Y-71278446D01*
X141973821Y-71256835D01*
X141980934Y-71233386D01*
X141983336Y-71209000D01*
X141980934Y-71184614D01*
X141973821Y-71161165D01*
X141962270Y-71139554D01*
X141937635Y-71112374D01*
X141860736Y-71049264D01*
X141788756Y-70961557D01*
X141735274Y-70861497D01*
X141735271Y-70861492D01*
X141702334Y-70752916D01*
X141691213Y-70640000D01*
X141702334Y-70527084D01*
X141735271Y-70418508D01*
X141788756Y-70318443D01*
X141860736Y-70230736D01*
X141948443Y-70158756D01*
X142029857Y-70115240D01*
X142050232Y-70101627D01*
X142067559Y-70084299D01*
X142081173Y-70063925D01*
X142090550Y-70041286D01*
X142095331Y-70017253D01*
X142095331Y-69992748D01*
X142090551Y-69968715D01*
X142081173Y-69946076D01*
X142067560Y-69925701D01*
X142050232Y-69908374D01*
X142029857Y-69894760D01*
X141948443Y-69851244D01*
X141860736Y-69779264D01*
X141788756Y-69691557D01*
X141752647Y-69624000D01*
X141735271Y-69591492D01*
X141702334Y-69482916D01*
X141691213Y-69370000D01*
X141702334Y-69257084D01*
X141735271Y-69148508D01*
X141788756Y-69048443D01*
X141860736Y-68960736D01*
X141948443Y-68888756D01*
X142048508Y-68835271D01*
X142157084Y-68802334D01*
X142241702Y-68794000D01*
X142748298Y-68794000D01*
X142832916Y-68802334D01*
X142832916Y-68802334D01*
G37*
G36*
X112810721Y-70745174D02*
X112910995Y-70786709D01*
X113001245Y-70847012D01*
X113077988Y-70923755D01*
X113138291Y-71014005D01*
X113179826Y-71114279D01*
X113201000Y-71220730D01*
X113201000Y-71329270D01*
X113179826Y-71435721D01*
X113138291Y-71535995D01*
X113077988Y-71626245D01*
X113001245Y-71702988D01*
X112910995Y-71763291D01*
X112810721Y-71804826D01*
X112704270Y-71826000D01*
X112595730Y-71826000D01*
X112489279Y-71804826D01*
X112389005Y-71763291D01*
X112298755Y-71702988D01*
X112222012Y-71626245D01*
X112161709Y-71535995D01*
X112120174Y-71435721D01*
X112099000Y-71329270D01*
X112099000Y-71220730D01*
X112120174Y-71114279D01*
X112161709Y-71014005D01*
X112222012Y-70923755D01*
X112298755Y-70847012D01*
X112389005Y-70786709D01*
X112489279Y-70745174D01*
X112595730Y-70724000D01*
X112704270Y-70724000D01*
X112810721Y-70745174D01*
X112810721Y-70745174D01*
G37*
G36*
X115350721Y-70745174D02*
X115450995Y-70786709D01*
X115541245Y-70847012D01*
X115617988Y-70923755D01*
X115678291Y-71014005D01*
X115719826Y-71114279D01*
X115741000Y-71220730D01*
X115741000Y-71329270D01*
X115719826Y-71435721D01*
X115678291Y-71535995D01*
X115617988Y-71626245D01*
X115541245Y-71702988D01*
X115450995Y-71763291D01*
X115350721Y-71804826D01*
X115244270Y-71826000D01*
X115135730Y-71826000D01*
X115029279Y-71804826D01*
X114929005Y-71763291D01*
X114838755Y-71702988D01*
X114762012Y-71626245D01*
X114701709Y-71535995D01*
X114660174Y-71435721D01*
X114639000Y-71329270D01*
X114639000Y-71220730D01*
X114660174Y-71114279D01*
X114701709Y-71014005D01*
X114762012Y-70923755D01*
X114838755Y-70847012D01*
X114929005Y-70786709D01*
X115029279Y-70745174D01*
X115135730Y-70724000D01*
X115244270Y-70724000D01*
X115350721Y-70745174D01*
X115350721Y-70745174D01*
G37*
G36*
X111032721Y-70745174D02*
X111132995Y-70786709D01*
X111223245Y-70847012D01*
X111299988Y-70923755D01*
X111360291Y-71014005D01*
X111401826Y-71114279D01*
X111423000Y-71220730D01*
X111423000Y-71329270D01*
X111401826Y-71435721D01*
X111360291Y-71535995D01*
X111299988Y-71626245D01*
X111223245Y-71702988D01*
X111132995Y-71763291D01*
X111032721Y-71804826D01*
X110926270Y-71826000D01*
X110817730Y-71826000D01*
X110711279Y-71804826D01*
X110611005Y-71763291D01*
X110520755Y-71702988D01*
X110444012Y-71626245D01*
X110383709Y-71535995D01*
X110342174Y-71435721D01*
X110321000Y-71329270D01*
X110321000Y-71220730D01*
X110342174Y-71114279D01*
X110383709Y-71014005D01*
X110444012Y-70923755D01*
X110520755Y-70847012D01*
X110611005Y-70786709D01*
X110711279Y-70745174D01*
X110817730Y-70724000D01*
X110926270Y-70724000D01*
X111032721Y-70745174D01*
X111032721Y-70745174D01*
G37*
G36*
X109000721Y-70745174D02*
X109100995Y-70786709D01*
X109191245Y-70847012D01*
X109267988Y-70923755D01*
X109328291Y-71014005D01*
X109369826Y-71114279D01*
X109391000Y-71220730D01*
X109391000Y-71329270D01*
X109369826Y-71435721D01*
X109328291Y-71535995D01*
X109267988Y-71626245D01*
X109191245Y-71702988D01*
X109100995Y-71763291D01*
X109000721Y-71804826D01*
X108894270Y-71826000D01*
X108785730Y-71826000D01*
X108679279Y-71804826D01*
X108579005Y-71763291D01*
X108488755Y-71702988D01*
X108412012Y-71626245D01*
X108351709Y-71535995D01*
X108310174Y-71435721D01*
X108289000Y-71329270D01*
X108289000Y-71220730D01*
X108310174Y-71114279D01*
X108351709Y-71014005D01*
X108412012Y-70923755D01*
X108488755Y-70847012D01*
X108579005Y-70786709D01*
X108679279Y-70745174D01*
X108785730Y-70724000D01*
X108894270Y-70724000D01*
X109000721Y-70745174D01*
X109000721Y-70745174D01*
G37*
G36*
X138552228Y-68805703D02*
X138707100Y-68869853D01*
X138846481Y-68962985D01*
X138965015Y-69081519D01*
X139058147Y-69220900D01*
X139122297Y-69375772D01*
X139155000Y-69540184D01*
X139155000Y-69707816D01*
X139122297Y-69872228D01*
X139058147Y-70027100D01*
X138965015Y-70166481D01*
X138846481Y-70285015D01*
X138707100Y-70378147D01*
X138552228Y-70442297D01*
X138387816Y-70475000D01*
X138220184Y-70475000D01*
X138055772Y-70442297D01*
X137900900Y-70378147D01*
X137761519Y-70285015D01*
X137642985Y-70166481D01*
X137549853Y-70027100D01*
X137485703Y-69872228D01*
X137453000Y-69707816D01*
X137453000Y-69540184D01*
X137485703Y-69375772D01*
X137549853Y-69220900D01*
X137642985Y-69081519D01*
X137761519Y-68962985D01*
X137900900Y-68869853D01*
X138055772Y-68805703D01*
X138220184Y-68773000D01*
X138387816Y-68773000D01*
X138552228Y-68805703D01*
X138552228Y-68805703D01*
G37*
G36*
X130850821Y-68785313D02*
X130850824Y-68785314D01*
X130850825Y-68785314D01*
X131011239Y-68833975D01*
X131011241Y-68833976D01*
X131011244Y-68833977D01*
X131159078Y-68912995D01*
X131288659Y-69019341D01*
X131395005Y-69148922D01*
X131474023Y-69296756D01*
X131474024Y-69296759D01*
X131474025Y-69296761D01*
X131521667Y-69453816D01*
X131522687Y-69457179D01*
X131539117Y-69624000D01*
X131522687Y-69790821D01*
X131522686Y-69790824D01*
X131522686Y-69790825D01*
X131481772Y-69925701D01*
X131474023Y-69951244D01*
X131395005Y-70099078D01*
X131288659Y-70228659D01*
X131159078Y-70335005D01*
X131011244Y-70414023D01*
X131011241Y-70414024D01*
X131011239Y-70414025D01*
X130850825Y-70462686D01*
X130850824Y-70462686D01*
X130850821Y-70462687D01*
X130725804Y-70475000D01*
X130642196Y-70475000D01*
X130517179Y-70462687D01*
X130517176Y-70462686D01*
X130517175Y-70462686D01*
X130356761Y-70414025D01*
X130356759Y-70414024D01*
X130356756Y-70414023D01*
X130208922Y-70335005D01*
X130079341Y-70228659D01*
X129972995Y-70099078D01*
X129893977Y-69951244D01*
X129886229Y-69925701D01*
X129845314Y-69790825D01*
X129845314Y-69790824D01*
X129845313Y-69790821D01*
X129828883Y-69624000D01*
X129845313Y-69457179D01*
X129846333Y-69453816D01*
X129893975Y-69296761D01*
X129893976Y-69296759D01*
X129893977Y-69296756D01*
X129972995Y-69148922D01*
X130079341Y-69019341D01*
X130208922Y-68912995D01*
X130356756Y-68833977D01*
X130356759Y-68833976D01*
X130356761Y-68833975D01*
X130517175Y-68785314D01*
X130517176Y-68785314D01*
X130517179Y-68785313D01*
X130642196Y-68773000D01*
X130725804Y-68773000D01*
X130850821Y-68785313D01*
X130850821Y-68785313D01*
G37*
G36*
X111011000Y-70271000D02*
X109209000Y-70271000D01*
X109209000Y-68469000D01*
X111011000Y-68469000D01*
X111011000Y-70271000D01*
X111011000Y-70271000D01*
G37*
G36*
X125460442Y-68475518D02*
X125526627Y-68482037D01*
X125639853Y-68516384D01*
X125696467Y-68533557D01*
X125801503Y-68589701D01*
X125852991Y-68617222D01*
X125871869Y-68632715D01*
X125990186Y-68729814D01*
X126052466Y-68805704D01*
X126102778Y-68867009D01*
X126102779Y-68867011D01*
X126186443Y-69023533D01*
X126186443Y-69023534D01*
X126237963Y-69193373D01*
X126255359Y-69370000D01*
X126237963Y-69546627D01*
X126216243Y-69618228D01*
X126186443Y-69716467D01*
X126152877Y-69779264D01*
X126102778Y-69872991D01*
X126076731Y-69904729D01*
X125990186Y-70010186D01*
X125888729Y-70093448D01*
X125852991Y-70122778D01*
X125852989Y-70122779D01*
X125696467Y-70206443D01*
X125648478Y-70221000D01*
X125526627Y-70257963D01*
X125460443Y-70264481D01*
X125394260Y-70271000D01*
X125305740Y-70271000D01*
X125239557Y-70264481D01*
X125173373Y-70257963D01*
X125051522Y-70221000D01*
X125003533Y-70206443D01*
X124847011Y-70122779D01*
X124847009Y-70122778D01*
X124811271Y-70093448D01*
X124709814Y-70010186D01*
X124623269Y-69904729D01*
X124597222Y-69872991D01*
X124547123Y-69779264D01*
X124513557Y-69716467D01*
X124483757Y-69618228D01*
X124462037Y-69546627D01*
X124444641Y-69370000D01*
X124462037Y-69193373D01*
X124513557Y-69023534D01*
X124513557Y-69023533D01*
X124597221Y-68867011D01*
X124597222Y-68867009D01*
X124647534Y-68805704D01*
X124709814Y-68729814D01*
X124828131Y-68632715D01*
X124847009Y-68617222D01*
X124898497Y-68589701D01*
X125003533Y-68533557D01*
X125060147Y-68516384D01*
X125173373Y-68482037D01*
X125239558Y-68475518D01*
X125305740Y-68469000D01*
X125394260Y-68469000D01*
X125460442Y-68475518D01*
X125460442Y-68475518D01*
G37*
G36*
X128000442Y-68475518D02*
X128066627Y-68482037D01*
X128179853Y-68516384D01*
X128236467Y-68533557D01*
X128341503Y-68589701D01*
X128392991Y-68617222D01*
X128411869Y-68632715D01*
X128530186Y-68729814D01*
X128592466Y-68805704D01*
X128642778Y-68867009D01*
X128642779Y-68867011D01*
X128726443Y-69023533D01*
X128726443Y-69023534D01*
X128777963Y-69193373D01*
X128795359Y-69370000D01*
X128777963Y-69546627D01*
X128756243Y-69618228D01*
X128726443Y-69716467D01*
X128692877Y-69779264D01*
X128642778Y-69872991D01*
X128616731Y-69904729D01*
X128530186Y-70010186D01*
X128428729Y-70093448D01*
X128392991Y-70122778D01*
X128392989Y-70122779D01*
X128236467Y-70206443D01*
X128188478Y-70221000D01*
X128066627Y-70257963D01*
X128000443Y-70264481D01*
X127934260Y-70271000D01*
X127845740Y-70271000D01*
X127779557Y-70264481D01*
X127713373Y-70257963D01*
X127591522Y-70221000D01*
X127543533Y-70206443D01*
X127387011Y-70122779D01*
X127387009Y-70122778D01*
X127351271Y-70093448D01*
X127249814Y-70010186D01*
X127163269Y-69904729D01*
X127137222Y-69872991D01*
X127087123Y-69779264D01*
X127053557Y-69716467D01*
X127023757Y-69618228D01*
X127002037Y-69546627D01*
X126984641Y-69370000D01*
X127002037Y-69193373D01*
X127053557Y-69023534D01*
X127053557Y-69023533D01*
X127137221Y-68867011D01*
X127137222Y-68867009D01*
X127187534Y-68805704D01*
X127249814Y-68729814D01*
X127368131Y-68632715D01*
X127387009Y-68617222D01*
X127438497Y-68589701D01*
X127543533Y-68533557D01*
X127600147Y-68516384D01*
X127713373Y-68482037D01*
X127779558Y-68475518D01*
X127845740Y-68469000D01*
X127934260Y-68469000D01*
X128000442Y-68475518D01*
X128000442Y-68475518D01*
G37*
G36*
X117840442Y-68475518D02*
X117906627Y-68482037D01*
X118019853Y-68516384D01*
X118076467Y-68533557D01*
X118181503Y-68589701D01*
X118232991Y-68617222D01*
X118251869Y-68632715D01*
X118370186Y-68729814D01*
X118432466Y-68805704D01*
X118482778Y-68867009D01*
X118482779Y-68867011D01*
X118566443Y-69023533D01*
X118566443Y-69023534D01*
X118617963Y-69193373D01*
X118635359Y-69370000D01*
X118617963Y-69546627D01*
X118596243Y-69618228D01*
X118566443Y-69716467D01*
X118532877Y-69779264D01*
X118482778Y-69872991D01*
X118456731Y-69904729D01*
X118370186Y-70010186D01*
X118268729Y-70093448D01*
X118232991Y-70122778D01*
X118232989Y-70122779D01*
X118076467Y-70206443D01*
X118028478Y-70221000D01*
X117906627Y-70257963D01*
X117840443Y-70264481D01*
X117774260Y-70271000D01*
X117685740Y-70271000D01*
X117619557Y-70264481D01*
X117553373Y-70257963D01*
X117431522Y-70221000D01*
X117383533Y-70206443D01*
X117227011Y-70122779D01*
X117227009Y-70122778D01*
X117191271Y-70093448D01*
X117089814Y-70010186D01*
X117003269Y-69904729D01*
X116977222Y-69872991D01*
X116927123Y-69779264D01*
X116893557Y-69716467D01*
X116863757Y-69618228D01*
X116842037Y-69546627D01*
X116824641Y-69370000D01*
X116842037Y-69193373D01*
X116893557Y-69023534D01*
X116893557Y-69023533D01*
X116977221Y-68867011D01*
X116977222Y-68867009D01*
X117027534Y-68805704D01*
X117089814Y-68729814D01*
X117208131Y-68632715D01*
X117227009Y-68617222D01*
X117278497Y-68589701D01*
X117383533Y-68533557D01*
X117440147Y-68516384D01*
X117553373Y-68482037D01*
X117619558Y-68475518D01*
X117685740Y-68469000D01*
X117774260Y-68469000D01*
X117840442Y-68475518D01*
X117840442Y-68475518D01*
G37*
G36*
X122920442Y-68475518D02*
X122986627Y-68482037D01*
X123099853Y-68516384D01*
X123156467Y-68533557D01*
X123261503Y-68589701D01*
X123312991Y-68617222D01*
X123331869Y-68632715D01*
X123450186Y-68729814D01*
X123512466Y-68805704D01*
X123562778Y-68867009D01*
X123562779Y-68867011D01*
X123646443Y-69023533D01*
X123646443Y-69023534D01*
X123697963Y-69193373D01*
X123715359Y-69370000D01*
X123697963Y-69546627D01*
X123676243Y-69618228D01*
X123646443Y-69716467D01*
X123612877Y-69779264D01*
X123562778Y-69872991D01*
X123536731Y-69904729D01*
X123450186Y-70010186D01*
X123348729Y-70093448D01*
X123312991Y-70122778D01*
X123312989Y-70122779D01*
X123156467Y-70206443D01*
X123108478Y-70221000D01*
X122986627Y-70257963D01*
X122920443Y-70264481D01*
X122854260Y-70271000D01*
X122765740Y-70271000D01*
X122699557Y-70264481D01*
X122633373Y-70257963D01*
X122511522Y-70221000D01*
X122463533Y-70206443D01*
X122307011Y-70122779D01*
X122307009Y-70122778D01*
X122271271Y-70093448D01*
X122169814Y-70010186D01*
X122083269Y-69904729D01*
X122057222Y-69872991D01*
X122007123Y-69779264D01*
X121973557Y-69716467D01*
X121943757Y-69618228D01*
X121922037Y-69546627D01*
X121904641Y-69370000D01*
X121922037Y-69193373D01*
X121973557Y-69023534D01*
X121973557Y-69023533D01*
X122057221Y-68867011D01*
X122057222Y-68867009D01*
X122107534Y-68805704D01*
X122169814Y-68729814D01*
X122288131Y-68632715D01*
X122307009Y-68617222D01*
X122358497Y-68589701D01*
X122463533Y-68533557D01*
X122520147Y-68516384D01*
X122633373Y-68482037D01*
X122699558Y-68475518D01*
X122765740Y-68469000D01*
X122854260Y-68469000D01*
X122920442Y-68475518D01*
X122920442Y-68475518D01*
G37*
G36*
X115300442Y-68475518D02*
X115366627Y-68482037D01*
X115479853Y-68516384D01*
X115536467Y-68533557D01*
X115641503Y-68589701D01*
X115692991Y-68617222D01*
X115711869Y-68632715D01*
X115830186Y-68729814D01*
X115892466Y-68805704D01*
X115942778Y-68867009D01*
X115942779Y-68867011D01*
X116026443Y-69023533D01*
X116026443Y-69023534D01*
X116077963Y-69193373D01*
X116095359Y-69370000D01*
X116077963Y-69546627D01*
X116056243Y-69618228D01*
X116026443Y-69716467D01*
X115992877Y-69779264D01*
X115942778Y-69872991D01*
X115916731Y-69904729D01*
X115830186Y-70010186D01*
X115728729Y-70093448D01*
X115692991Y-70122778D01*
X115692989Y-70122779D01*
X115536467Y-70206443D01*
X115488478Y-70221000D01*
X115366627Y-70257963D01*
X115300443Y-70264481D01*
X115234260Y-70271000D01*
X115145740Y-70271000D01*
X115079557Y-70264481D01*
X115013373Y-70257963D01*
X114891522Y-70221000D01*
X114843533Y-70206443D01*
X114687011Y-70122779D01*
X114687009Y-70122778D01*
X114651271Y-70093448D01*
X114549814Y-70010186D01*
X114463269Y-69904729D01*
X114437222Y-69872991D01*
X114387123Y-69779264D01*
X114353557Y-69716467D01*
X114323757Y-69618228D01*
X114302037Y-69546627D01*
X114284641Y-69370000D01*
X114302037Y-69193373D01*
X114353557Y-69023534D01*
X114353557Y-69023533D01*
X114437221Y-68867011D01*
X114437222Y-68867009D01*
X114487534Y-68805704D01*
X114549814Y-68729814D01*
X114668131Y-68632715D01*
X114687009Y-68617222D01*
X114738497Y-68589701D01*
X114843533Y-68533557D01*
X114900147Y-68516384D01*
X115013373Y-68482037D01*
X115079558Y-68475518D01*
X115145740Y-68469000D01*
X115234260Y-68469000D01*
X115300442Y-68475518D01*
X115300442Y-68475518D01*
G37*
G36*
X112760442Y-68475518D02*
X112826627Y-68482037D01*
X112939853Y-68516384D01*
X112996467Y-68533557D01*
X113101503Y-68589701D01*
X113152991Y-68617222D01*
X113171869Y-68632715D01*
X113290186Y-68729814D01*
X113352466Y-68805704D01*
X113402778Y-68867009D01*
X113402779Y-68867011D01*
X113486443Y-69023533D01*
X113486443Y-69023534D01*
X113537963Y-69193373D01*
X113555359Y-69370000D01*
X113537963Y-69546627D01*
X113516243Y-69618228D01*
X113486443Y-69716467D01*
X113452877Y-69779264D01*
X113402778Y-69872991D01*
X113376731Y-69904729D01*
X113290186Y-70010186D01*
X113188729Y-70093448D01*
X113152991Y-70122778D01*
X113152989Y-70122779D01*
X112996467Y-70206443D01*
X112948478Y-70221000D01*
X112826627Y-70257963D01*
X112760443Y-70264481D01*
X112694260Y-70271000D01*
X112605740Y-70271000D01*
X112539557Y-70264481D01*
X112473373Y-70257963D01*
X112351522Y-70221000D01*
X112303533Y-70206443D01*
X112147011Y-70122779D01*
X112147009Y-70122778D01*
X112111271Y-70093448D01*
X112009814Y-70010186D01*
X111923269Y-69904729D01*
X111897222Y-69872991D01*
X111847123Y-69779264D01*
X111813557Y-69716467D01*
X111783757Y-69618228D01*
X111762037Y-69546627D01*
X111744641Y-69370000D01*
X111762037Y-69193373D01*
X111813557Y-69023534D01*
X111813557Y-69023533D01*
X111897221Y-68867011D01*
X111897222Y-68867009D01*
X111947534Y-68805704D01*
X112009814Y-68729814D01*
X112128131Y-68632715D01*
X112147009Y-68617222D01*
X112198497Y-68589701D01*
X112303533Y-68533557D01*
X112360147Y-68516384D01*
X112473373Y-68482037D01*
X112539558Y-68475518D01*
X112605740Y-68469000D01*
X112694260Y-68469000D01*
X112760442Y-68475518D01*
X112760442Y-68475518D01*
G37*
G36*
X94395442Y-68475518D02*
X94461627Y-68482037D01*
X94574853Y-68516384D01*
X94631467Y-68533557D01*
X94736503Y-68589701D01*
X94787991Y-68617222D01*
X94806869Y-68632715D01*
X94925186Y-68729814D01*
X94987466Y-68805704D01*
X95037778Y-68867009D01*
X95037779Y-68867011D01*
X95121443Y-69023533D01*
X95121443Y-69023534D01*
X95172963Y-69193373D01*
X95190359Y-69370000D01*
X95172963Y-69546627D01*
X95151243Y-69618228D01*
X95121443Y-69716467D01*
X95087877Y-69779264D01*
X95037778Y-69872991D01*
X95011731Y-69904729D01*
X94925186Y-70010186D01*
X94823729Y-70093448D01*
X94787991Y-70122778D01*
X94787989Y-70122779D01*
X94631467Y-70206443D01*
X94583478Y-70221000D01*
X94461627Y-70257963D01*
X94395443Y-70264481D01*
X94329260Y-70271000D01*
X94240740Y-70271000D01*
X94174557Y-70264481D01*
X94108373Y-70257963D01*
X93986522Y-70221000D01*
X93938533Y-70206443D01*
X93782011Y-70122779D01*
X93782009Y-70122778D01*
X93746271Y-70093448D01*
X93644814Y-70010186D01*
X93558269Y-69904729D01*
X93532222Y-69872991D01*
X93482123Y-69779264D01*
X93448557Y-69716467D01*
X93418757Y-69618228D01*
X93397037Y-69546627D01*
X93379641Y-69370000D01*
X93397037Y-69193373D01*
X93448557Y-69023534D01*
X93448557Y-69023533D01*
X93532221Y-68867011D01*
X93532222Y-68867009D01*
X93582534Y-68805704D01*
X93644814Y-68729814D01*
X93763131Y-68632715D01*
X93782009Y-68617222D01*
X93833497Y-68589701D01*
X93938533Y-68533557D01*
X93995147Y-68516384D01*
X94108373Y-68482037D01*
X94174558Y-68475518D01*
X94240740Y-68469000D01*
X94329260Y-68469000D01*
X94395442Y-68475518D01*
X94395442Y-68475518D01*
G37*
G36*
X120380442Y-68475518D02*
X120446627Y-68482037D01*
X120559853Y-68516384D01*
X120616467Y-68533557D01*
X120721503Y-68589701D01*
X120772991Y-68617222D01*
X120791869Y-68632715D01*
X120910186Y-68729814D01*
X120972466Y-68805704D01*
X121022778Y-68867009D01*
X121022779Y-68867011D01*
X121106443Y-69023533D01*
X121106443Y-69023534D01*
X121157963Y-69193373D01*
X121175359Y-69370000D01*
X121157963Y-69546627D01*
X121136243Y-69618228D01*
X121106443Y-69716467D01*
X121072877Y-69779264D01*
X121022778Y-69872991D01*
X120996731Y-69904729D01*
X120910186Y-70010186D01*
X120808729Y-70093448D01*
X120772991Y-70122778D01*
X120772989Y-70122779D01*
X120616467Y-70206443D01*
X120568478Y-70221000D01*
X120446627Y-70257963D01*
X120380443Y-70264481D01*
X120314260Y-70271000D01*
X120225740Y-70271000D01*
X120159557Y-70264481D01*
X120093373Y-70257963D01*
X119971522Y-70221000D01*
X119923533Y-70206443D01*
X119767011Y-70122779D01*
X119767009Y-70122778D01*
X119731271Y-70093448D01*
X119629814Y-70010186D01*
X119543269Y-69904729D01*
X119517222Y-69872991D01*
X119467123Y-69779264D01*
X119433557Y-69716467D01*
X119403757Y-69618228D01*
X119382037Y-69546627D01*
X119364641Y-69370000D01*
X119382037Y-69193373D01*
X119433557Y-69023534D01*
X119433557Y-69023533D01*
X119517221Y-68867011D01*
X119517222Y-68867009D01*
X119567534Y-68805704D01*
X119629814Y-68729814D01*
X119748131Y-68632715D01*
X119767009Y-68617222D01*
X119818497Y-68589701D01*
X119923533Y-68533557D01*
X119980147Y-68516384D01*
X120093373Y-68482037D01*
X120159558Y-68475518D01*
X120225740Y-68469000D01*
X120314260Y-68469000D01*
X120380442Y-68475518D01*
X120380442Y-68475518D01*
G37*
G36*
X100198228Y-68551703D02*
X100353100Y-68615853D01*
X100492481Y-68708985D01*
X100611015Y-68827519D01*
X100704147Y-68966900D01*
X100768297Y-69121772D01*
X100801000Y-69286184D01*
X100801000Y-69453816D01*
X100768297Y-69618228D01*
X100704147Y-69773100D01*
X100611015Y-69912481D01*
X100492481Y-70031015D01*
X100353100Y-70124147D01*
X100198228Y-70188297D01*
X100033816Y-70221000D01*
X99866184Y-70221000D01*
X99701772Y-70188297D01*
X99546900Y-70124147D01*
X99407519Y-70031015D01*
X99288985Y-69912481D01*
X99195853Y-69773100D01*
X99131703Y-69618228D01*
X99099000Y-69453816D01*
X99099000Y-69286184D01*
X99131703Y-69121772D01*
X99195853Y-68966900D01*
X99288985Y-68827519D01*
X99407519Y-68708985D01*
X99546900Y-68615853D01*
X99701772Y-68551703D01*
X99866184Y-68519000D01*
X100033816Y-68519000D01*
X100198228Y-68551703D01*
X100198228Y-68551703D01*
G37*
G36*
X104097916Y-66262334D02*
X104206492Y-66295271D01*
X104306557Y-66348756D01*
X104394264Y-66420736D01*
X104466244Y-66508443D01*
X104519729Y-66608508D01*
X104552666Y-66717084D01*
X104563787Y-66830000D01*
X104552666Y-66942916D01*
X104519729Y-67051492D01*
X104519726Y-67051497D01*
X104466244Y-67151557D01*
X104394264Y-67239264D01*
X104306557Y-67311244D01*
X104225143Y-67354760D01*
X104204768Y-67368373D01*
X104187441Y-67385701D01*
X104173827Y-67406075D01*
X104164450Y-67428714D01*
X104159669Y-67452747D01*
X104159669Y-67477252D01*
X104164449Y-67501285D01*
X104173827Y-67523924D01*
X104187440Y-67544299D01*
X104204768Y-67561626D01*
X104225143Y-67575240D01*
X104306557Y-67618756D01*
X104394264Y-67690736D01*
X104466244Y-67778443D01*
X104519729Y-67878508D01*
X104552666Y-67987084D01*
X104563787Y-68100000D01*
X104552666Y-68212916D01*
X104519729Y-68321492D01*
X104519726Y-68321497D01*
X104466244Y-68421557D01*
X104394264Y-68509264D01*
X104317365Y-68572374D01*
X104300038Y-68589701D01*
X104286424Y-68610076D01*
X104277046Y-68632715D01*
X104272266Y-68656748D01*
X104272266Y-68681252D01*
X104277047Y-68705286D01*
X104286424Y-68727925D01*
X104300038Y-68748299D01*
X104317365Y-68765626D01*
X104337740Y-68779240D01*
X104360379Y-68788618D01*
X104396664Y-68794000D01*
X104561000Y-68794000D01*
X104561000Y-69946000D01*
X102959000Y-69946000D01*
X102959000Y-68794000D01*
X103123336Y-68794000D01*
X103147722Y-68791598D01*
X103171171Y-68784485D01*
X103192782Y-68772934D01*
X103211724Y-68757388D01*
X103227270Y-68738446D01*
X103238821Y-68716835D01*
X103245934Y-68693386D01*
X103248336Y-68669000D01*
X103245934Y-68644614D01*
X103238821Y-68621165D01*
X103227270Y-68599554D01*
X103202635Y-68572374D01*
X103125736Y-68509264D01*
X103053756Y-68421557D01*
X103000274Y-68321497D01*
X103000271Y-68321492D01*
X102967334Y-68212916D01*
X102956213Y-68100000D01*
X102967334Y-67987084D01*
X103000271Y-67878508D01*
X103053756Y-67778443D01*
X103125736Y-67690736D01*
X103213443Y-67618756D01*
X103294857Y-67575240D01*
X103315232Y-67561627D01*
X103332559Y-67544299D01*
X103346173Y-67523925D01*
X103355550Y-67501286D01*
X103360331Y-67477253D01*
X103360331Y-67452748D01*
X103355551Y-67428715D01*
X103346173Y-67406076D01*
X103332560Y-67385701D01*
X103315232Y-67368374D01*
X103294857Y-67354760D01*
X103213443Y-67311244D01*
X103125736Y-67239264D01*
X103053756Y-67151557D01*
X103000274Y-67051497D01*
X103000271Y-67051492D01*
X102967334Y-66942916D01*
X102956213Y-66830000D01*
X102967334Y-66717084D01*
X103000271Y-66608508D01*
X103053756Y-66508443D01*
X103125736Y-66420736D01*
X103213443Y-66348756D01*
X103313508Y-66295271D01*
X103422084Y-66262334D01*
X103506702Y-66254000D01*
X104013298Y-66254000D01*
X104097916Y-66262334D01*
X104097916Y-66262334D01*
G37*
G36*
X96785789Y-66840506D02*
X95884789Y-68401084D01*
X94324211Y-67500084D01*
X95225211Y-65939506D01*
X96785789Y-66840506D01*
X96785789Y-66840506D01*
G37*
G36*
X138216821Y-66245313D02*
X138216824Y-66245314D01*
X138216825Y-66245314D01*
X138377239Y-66293975D01*
X138377241Y-66293976D01*
X138377244Y-66293977D01*
X138525078Y-66372995D01*
X138654659Y-66479341D01*
X138761005Y-66608922D01*
X138840023Y-66756756D01*
X138840024Y-66756759D01*
X138840025Y-66756761D01*
X138888686Y-66917175D01*
X138888687Y-66917179D01*
X138905117Y-67084000D01*
X138888687Y-67250821D01*
X138888686Y-67250824D01*
X138888686Y-67250825D01*
X138847772Y-67385701D01*
X138840023Y-67411244D01*
X138761005Y-67559078D01*
X138654659Y-67688659D01*
X138525078Y-67795005D01*
X138377244Y-67874023D01*
X138377241Y-67874024D01*
X138377239Y-67874025D01*
X138216825Y-67922686D01*
X138216824Y-67922686D01*
X138216821Y-67922687D01*
X138091804Y-67935000D01*
X138008196Y-67935000D01*
X137883179Y-67922687D01*
X137883176Y-67922686D01*
X137883175Y-67922686D01*
X137722761Y-67874025D01*
X137722759Y-67874024D01*
X137722756Y-67874023D01*
X137574922Y-67795005D01*
X137445341Y-67688659D01*
X137338995Y-67559078D01*
X137259977Y-67411244D01*
X137252229Y-67385701D01*
X137211314Y-67250825D01*
X137211314Y-67250824D01*
X137211313Y-67250821D01*
X137194883Y-67084000D01*
X137211313Y-66917179D01*
X137211314Y-66917175D01*
X137259975Y-66756761D01*
X137259976Y-66756759D01*
X137259977Y-66756756D01*
X137338995Y-66608922D01*
X137445341Y-66479341D01*
X137574922Y-66372995D01*
X137722756Y-66293977D01*
X137722759Y-66293976D01*
X137722761Y-66293975D01*
X137883175Y-66245314D01*
X137883176Y-66245314D01*
X137883179Y-66245313D01*
X138008196Y-66233000D01*
X138091804Y-66233000D01*
X138216821Y-66245313D01*
X138216821Y-66245313D01*
G37*
G36*
X115300442Y-65935518D02*
X115366627Y-65942037D01*
X115479853Y-65976384D01*
X115536467Y-65993557D01*
X115675087Y-66067652D01*
X115692991Y-66077222D01*
X115728729Y-66106552D01*
X115830186Y-66189814D01*
X115913448Y-66291271D01*
X115942778Y-66327009D01*
X115942779Y-66327011D01*
X116026443Y-66483533D01*
X116026443Y-66483534D01*
X116077963Y-66653373D01*
X116095359Y-66830000D01*
X116077963Y-67006627D01*
X116054492Y-67084000D01*
X116026443Y-67176467D01*
X115992877Y-67239264D01*
X115942778Y-67332991D01*
X115916731Y-67364729D01*
X115830186Y-67470186D01*
X115728729Y-67553448D01*
X115692991Y-67582778D01*
X115692989Y-67582779D01*
X115536467Y-67666443D01*
X115479853Y-67683616D01*
X115366627Y-67717963D01*
X115300443Y-67724481D01*
X115234260Y-67731000D01*
X115145740Y-67731000D01*
X115079557Y-67724481D01*
X115013373Y-67717963D01*
X114900147Y-67683616D01*
X114843533Y-67666443D01*
X114687011Y-67582779D01*
X114687009Y-67582778D01*
X114651271Y-67553448D01*
X114549814Y-67470186D01*
X114463269Y-67364729D01*
X114437222Y-67332991D01*
X114387123Y-67239264D01*
X114353557Y-67176467D01*
X114325508Y-67084000D01*
X114302037Y-67006627D01*
X114284641Y-66830000D01*
X114302037Y-66653373D01*
X114353557Y-66483534D01*
X114353557Y-66483533D01*
X114437221Y-66327011D01*
X114437222Y-66327009D01*
X114466552Y-66291271D01*
X114549814Y-66189814D01*
X114651271Y-66106552D01*
X114687009Y-66077222D01*
X114704913Y-66067652D01*
X114843533Y-65993557D01*
X114900147Y-65976384D01*
X115013373Y-65942037D01*
X115079558Y-65935518D01*
X115145740Y-65929000D01*
X115234260Y-65929000D01*
X115300442Y-65935518D01*
X115300442Y-65935518D01*
G37*
G36*
X110220442Y-65935518D02*
X110286627Y-65942037D01*
X110399853Y-65976384D01*
X110456467Y-65993557D01*
X110595087Y-66067652D01*
X110612991Y-66077222D01*
X110648729Y-66106552D01*
X110750186Y-66189814D01*
X110833448Y-66291271D01*
X110862778Y-66327009D01*
X110862779Y-66327011D01*
X110946443Y-66483533D01*
X110946443Y-66483534D01*
X110997963Y-66653373D01*
X111015359Y-66830000D01*
X110997963Y-67006627D01*
X110974492Y-67084000D01*
X110946443Y-67176467D01*
X110912877Y-67239264D01*
X110862778Y-67332991D01*
X110836731Y-67364729D01*
X110750186Y-67470186D01*
X110648729Y-67553448D01*
X110612991Y-67582778D01*
X110612989Y-67582779D01*
X110456467Y-67666443D01*
X110399853Y-67683616D01*
X110286627Y-67717963D01*
X110220443Y-67724481D01*
X110154260Y-67731000D01*
X110065740Y-67731000D01*
X109999557Y-67724481D01*
X109933373Y-67717963D01*
X109820147Y-67683616D01*
X109763533Y-67666443D01*
X109607011Y-67582779D01*
X109607009Y-67582778D01*
X109571271Y-67553448D01*
X109469814Y-67470186D01*
X109383269Y-67364729D01*
X109357222Y-67332991D01*
X109307123Y-67239264D01*
X109273557Y-67176467D01*
X109245508Y-67084000D01*
X109222037Y-67006627D01*
X109204641Y-66830000D01*
X109222037Y-66653373D01*
X109273557Y-66483534D01*
X109273557Y-66483533D01*
X109357221Y-66327011D01*
X109357222Y-66327009D01*
X109386552Y-66291271D01*
X109469814Y-66189814D01*
X109571271Y-66106552D01*
X109607009Y-66077222D01*
X109624913Y-66067652D01*
X109763533Y-65993557D01*
X109820147Y-65976384D01*
X109933373Y-65942037D01*
X109999558Y-65935518D01*
X110065740Y-65929000D01*
X110154260Y-65929000D01*
X110220442Y-65935518D01*
X110220442Y-65935518D01*
G37*
G36*
X117840442Y-65935518D02*
X117906627Y-65942037D01*
X118019853Y-65976384D01*
X118076467Y-65993557D01*
X118215087Y-66067652D01*
X118232991Y-66077222D01*
X118268729Y-66106552D01*
X118370186Y-66189814D01*
X118453448Y-66291271D01*
X118482778Y-66327009D01*
X118482779Y-66327011D01*
X118566443Y-66483533D01*
X118566443Y-66483534D01*
X118617963Y-66653373D01*
X118635359Y-66830000D01*
X118617963Y-67006627D01*
X118594492Y-67084000D01*
X118566443Y-67176467D01*
X118532877Y-67239264D01*
X118482778Y-67332991D01*
X118456731Y-67364729D01*
X118370186Y-67470186D01*
X118268729Y-67553448D01*
X118232991Y-67582778D01*
X118232989Y-67582779D01*
X118076467Y-67666443D01*
X118019853Y-67683616D01*
X117906627Y-67717963D01*
X117840443Y-67724481D01*
X117774260Y-67731000D01*
X117685740Y-67731000D01*
X117619557Y-67724481D01*
X117553373Y-67717963D01*
X117440147Y-67683616D01*
X117383533Y-67666443D01*
X117227011Y-67582779D01*
X117227009Y-67582778D01*
X117191271Y-67553448D01*
X117089814Y-67470186D01*
X117003269Y-67364729D01*
X116977222Y-67332991D01*
X116927123Y-67239264D01*
X116893557Y-67176467D01*
X116865508Y-67084000D01*
X116842037Y-67006627D01*
X116824641Y-66830000D01*
X116842037Y-66653373D01*
X116893557Y-66483534D01*
X116893557Y-66483533D01*
X116977221Y-66327011D01*
X116977222Y-66327009D01*
X117006552Y-66291271D01*
X117089814Y-66189814D01*
X117191271Y-66106552D01*
X117227009Y-66077222D01*
X117244913Y-66067652D01*
X117383533Y-65993557D01*
X117440147Y-65976384D01*
X117553373Y-65942037D01*
X117619558Y-65935518D01*
X117685740Y-65929000D01*
X117774260Y-65929000D01*
X117840442Y-65935518D01*
X117840442Y-65935518D01*
G37*
G36*
X120380442Y-65935518D02*
X120446627Y-65942037D01*
X120559853Y-65976384D01*
X120616467Y-65993557D01*
X120755087Y-66067652D01*
X120772991Y-66077222D01*
X120808729Y-66106552D01*
X120910186Y-66189814D01*
X120993448Y-66291271D01*
X121022778Y-66327009D01*
X121022779Y-66327011D01*
X121106443Y-66483533D01*
X121106443Y-66483534D01*
X121157963Y-66653373D01*
X121175359Y-66830000D01*
X121157963Y-67006627D01*
X121134492Y-67084000D01*
X121106443Y-67176467D01*
X121072877Y-67239264D01*
X121022778Y-67332991D01*
X120996731Y-67364729D01*
X120910186Y-67470186D01*
X120808729Y-67553448D01*
X120772991Y-67582778D01*
X120772989Y-67582779D01*
X120616467Y-67666443D01*
X120559853Y-67683616D01*
X120446627Y-67717963D01*
X120380443Y-67724481D01*
X120314260Y-67731000D01*
X120225740Y-67731000D01*
X120159557Y-67724481D01*
X120093373Y-67717963D01*
X119980147Y-67683616D01*
X119923533Y-67666443D01*
X119767011Y-67582779D01*
X119767009Y-67582778D01*
X119731271Y-67553448D01*
X119629814Y-67470186D01*
X119543269Y-67364729D01*
X119517222Y-67332991D01*
X119467123Y-67239264D01*
X119433557Y-67176467D01*
X119405508Y-67084000D01*
X119382037Y-67006627D01*
X119364641Y-66830000D01*
X119382037Y-66653373D01*
X119433557Y-66483534D01*
X119433557Y-66483533D01*
X119517221Y-66327011D01*
X119517222Y-66327009D01*
X119546552Y-66291271D01*
X119629814Y-66189814D01*
X119731271Y-66106552D01*
X119767009Y-66077222D01*
X119784913Y-66067652D01*
X119923533Y-65993557D01*
X119980147Y-65976384D01*
X120093373Y-65942037D01*
X120159558Y-65935518D01*
X120225740Y-65929000D01*
X120314260Y-65929000D01*
X120380442Y-65935518D01*
X120380442Y-65935518D01*
G37*
G36*
X128000442Y-65935518D02*
X128066627Y-65942037D01*
X128179853Y-65976384D01*
X128236467Y-65993557D01*
X128375087Y-66067652D01*
X128392991Y-66077222D01*
X128428729Y-66106552D01*
X128530186Y-66189814D01*
X128613448Y-66291271D01*
X128642778Y-66327009D01*
X128642779Y-66327011D01*
X128726443Y-66483533D01*
X128726443Y-66483534D01*
X128777963Y-66653373D01*
X128795359Y-66830000D01*
X128777963Y-67006627D01*
X128754492Y-67084000D01*
X128726443Y-67176467D01*
X128692877Y-67239264D01*
X128642778Y-67332991D01*
X128616731Y-67364729D01*
X128530186Y-67470186D01*
X128428729Y-67553448D01*
X128392991Y-67582778D01*
X128392989Y-67582779D01*
X128236467Y-67666443D01*
X128179853Y-67683616D01*
X128066627Y-67717963D01*
X128000443Y-67724481D01*
X127934260Y-67731000D01*
X127845740Y-67731000D01*
X127779557Y-67724481D01*
X127713373Y-67717963D01*
X127600147Y-67683616D01*
X127543533Y-67666443D01*
X127387011Y-67582779D01*
X127387009Y-67582778D01*
X127351271Y-67553448D01*
X127249814Y-67470186D01*
X127163269Y-67364729D01*
X127137222Y-67332991D01*
X127087123Y-67239264D01*
X127053557Y-67176467D01*
X127025508Y-67084000D01*
X127002037Y-67006627D01*
X126984641Y-66830000D01*
X127002037Y-66653373D01*
X127053557Y-66483534D01*
X127053557Y-66483533D01*
X127137221Y-66327011D01*
X127137222Y-66327009D01*
X127166552Y-66291271D01*
X127249814Y-66189814D01*
X127351271Y-66106552D01*
X127387009Y-66077222D01*
X127404913Y-66067652D01*
X127543533Y-65993557D01*
X127600147Y-65976384D01*
X127713373Y-65942037D01*
X127779558Y-65935518D01*
X127845740Y-65929000D01*
X127934260Y-65929000D01*
X128000442Y-65935518D01*
X128000442Y-65935518D01*
G37*
G36*
X122920442Y-65935518D02*
X122986627Y-65942037D01*
X123099853Y-65976384D01*
X123156467Y-65993557D01*
X123295087Y-66067652D01*
X123312991Y-66077222D01*
X123348729Y-66106552D01*
X123450186Y-66189814D01*
X123533448Y-66291271D01*
X123562778Y-66327009D01*
X123562779Y-66327011D01*
X123646443Y-66483533D01*
X123646443Y-66483534D01*
X123697963Y-66653373D01*
X123715359Y-66830000D01*
X123697963Y-67006627D01*
X123674492Y-67084000D01*
X123646443Y-67176467D01*
X123612877Y-67239264D01*
X123562778Y-67332991D01*
X123536731Y-67364729D01*
X123450186Y-67470186D01*
X123348729Y-67553448D01*
X123312991Y-67582778D01*
X123312989Y-67582779D01*
X123156467Y-67666443D01*
X123099853Y-67683616D01*
X122986627Y-67717963D01*
X122920443Y-67724481D01*
X122854260Y-67731000D01*
X122765740Y-67731000D01*
X122699557Y-67724481D01*
X122633373Y-67717963D01*
X122520147Y-67683616D01*
X122463533Y-67666443D01*
X122307011Y-67582779D01*
X122307009Y-67582778D01*
X122271271Y-67553448D01*
X122169814Y-67470186D01*
X122083269Y-67364729D01*
X122057222Y-67332991D01*
X122007123Y-67239264D01*
X121973557Y-67176467D01*
X121945508Y-67084000D01*
X121922037Y-67006627D01*
X121904641Y-66830000D01*
X121922037Y-66653373D01*
X121973557Y-66483534D01*
X121973557Y-66483533D01*
X122057221Y-66327011D01*
X122057222Y-66327009D01*
X122086552Y-66291271D01*
X122169814Y-66189814D01*
X122271271Y-66106552D01*
X122307009Y-66077222D01*
X122324913Y-66067652D01*
X122463533Y-65993557D01*
X122520147Y-65976384D01*
X122633373Y-65942037D01*
X122699558Y-65935518D01*
X122765740Y-65929000D01*
X122854260Y-65929000D01*
X122920442Y-65935518D01*
X122920442Y-65935518D01*
G37*
G36*
X112760442Y-65935518D02*
X112826627Y-65942037D01*
X112939853Y-65976384D01*
X112996467Y-65993557D01*
X113135087Y-66067652D01*
X113152991Y-66077222D01*
X113188729Y-66106552D01*
X113290186Y-66189814D01*
X113373448Y-66291271D01*
X113402778Y-66327009D01*
X113402779Y-66327011D01*
X113486443Y-66483533D01*
X113486443Y-66483534D01*
X113537963Y-66653373D01*
X113555359Y-66830000D01*
X113537963Y-67006627D01*
X113514492Y-67084000D01*
X113486443Y-67176467D01*
X113452877Y-67239264D01*
X113402778Y-67332991D01*
X113376731Y-67364729D01*
X113290186Y-67470186D01*
X113188729Y-67553448D01*
X113152991Y-67582778D01*
X113152989Y-67582779D01*
X112996467Y-67666443D01*
X112939853Y-67683616D01*
X112826627Y-67717963D01*
X112760443Y-67724481D01*
X112694260Y-67731000D01*
X112605740Y-67731000D01*
X112539557Y-67724481D01*
X112473373Y-67717963D01*
X112360147Y-67683616D01*
X112303533Y-67666443D01*
X112147011Y-67582779D01*
X112147009Y-67582778D01*
X112111271Y-67553448D01*
X112009814Y-67470186D01*
X111923269Y-67364729D01*
X111897222Y-67332991D01*
X111847123Y-67239264D01*
X111813557Y-67176467D01*
X111785508Y-67084000D01*
X111762037Y-67006627D01*
X111744641Y-66830000D01*
X111762037Y-66653373D01*
X111813557Y-66483534D01*
X111813557Y-66483533D01*
X111897221Y-66327011D01*
X111897222Y-66327009D01*
X111926552Y-66291271D01*
X112009814Y-66189814D01*
X112111271Y-66106552D01*
X112147009Y-66077222D01*
X112164913Y-66067652D01*
X112303533Y-65993557D01*
X112360147Y-65976384D01*
X112473373Y-65942037D01*
X112539558Y-65935518D01*
X112605740Y-65929000D01*
X112694260Y-65929000D01*
X112760442Y-65935518D01*
X112760442Y-65935518D01*
G37*
G36*
X125460442Y-65935518D02*
X125526627Y-65942037D01*
X125639853Y-65976384D01*
X125696467Y-65993557D01*
X125835087Y-66067652D01*
X125852991Y-66077222D01*
X125888729Y-66106552D01*
X125990186Y-66189814D01*
X126073448Y-66291271D01*
X126102778Y-66327009D01*
X126102779Y-66327011D01*
X126186443Y-66483533D01*
X126186443Y-66483534D01*
X126237963Y-66653373D01*
X126255359Y-66830000D01*
X126237963Y-67006627D01*
X126214492Y-67084000D01*
X126186443Y-67176467D01*
X126152877Y-67239264D01*
X126102778Y-67332991D01*
X126076731Y-67364729D01*
X125990186Y-67470186D01*
X125888729Y-67553448D01*
X125852991Y-67582778D01*
X125852989Y-67582779D01*
X125696467Y-67666443D01*
X125639853Y-67683616D01*
X125526627Y-67717963D01*
X125460443Y-67724481D01*
X125394260Y-67731000D01*
X125305740Y-67731000D01*
X125239557Y-67724481D01*
X125173373Y-67717963D01*
X125060147Y-67683616D01*
X125003533Y-67666443D01*
X124847011Y-67582779D01*
X124847009Y-67582778D01*
X124811271Y-67553448D01*
X124709814Y-67470186D01*
X124623269Y-67364729D01*
X124597222Y-67332991D01*
X124547123Y-67239264D01*
X124513557Y-67176467D01*
X124485508Y-67084000D01*
X124462037Y-67006627D01*
X124444641Y-66830000D01*
X124462037Y-66653373D01*
X124513557Y-66483534D01*
X124513557Y-66483533D01*
X124597221Y-66327011D01*
X124597222Y-66327009D01*
X124626552Y-66291271D01*
X124709814Y-66189814D01*
X124811271Y-66106552D01*
X124847009Y-66077222D01*
X124864913Y-66067652D01*
X125003533Y-65993557D01*
X125060147Y-65976384D01*
X125173373Y-65942037D01*
X125239558Y-65935518D01*
X125305740Y-65929000D01*
X125394260Y-65929000D01*
X125460442Y-65935518D01*
X125460442Y-65935518D01*
G37*
G36*
X141380764Y-63927308D02*
X141469220Y-63936020D01*
X141658381Y-63993401D01*
X141832712Y-64086583D01*
X141985515Y-64211985D01*
X142110917Y-64364788D01*
X142204099Y-64539119D01*
X142261480Y-64728280D01*
X142280855Y-64925000D01*
X142261480Y-65121720D01*
X142204099Y-65310881D01*
X142110917Y-65485212D01*
X141985515Y-65638015D01*
X141832712Y-65763417D01*
X141658381Y-65856599D01*
X141469220Y-65913980D01*
X141380764Y-65922692D01*
X141321796Y-65928500D01*
X141128204Y-65928500D01*
X141069236Y-65922692D01*
X140980780Y-65913980D01*
X140791619Y-65856599D01*
X140617288Y-65763417D01*
X140464485Y-65638015D01*
X140339083Y-65485212D01*
X140245901Y-65310881D01*
X140188520Y-65121720D01*
X140169145Y-64925000D01*
X140188520Y-64728280D01*
X140245901Y-64539119D01*
X140339083Y-64364788D01*
X140464485Y-64211985D01*
X140617288Y-64086583D01*
X140791619Y-63993401D01*
X140980780Y-63936020D01*
X141069236Y-63927308D01*
X141128204Y-63921500D01*
X141321796Y-63921500D01*
X141380764Y-63927308D01*
X141380764Y-63927308D01*
G37*
G36*
X103870443Y-62760519D02*
X103936627Y-62767037D01*
X104049853Y-62801384D01*
X104106467Y-62818557D01*
X104245087Y-62892652D01*
X104262991Y-62902222D01*
X104298729Y-62931552D01*
X104400186Y-63014814D01*
X104468466Y-63098015D01*
X104512778Y-63152009D01*
X104512779Y-63152011D01*
X104596443Y-63308533D01*
X104613134Y-63363556D01*
X104647963Y-63478373D01*
X104665359Y-63655000D01*
X104647963Y-63831627D01*
X104620700Y-63921500D01*
X104596443Y-64001467D01*
X104550947Y-64086583D01*
X104512778Y-64157991D01*
X104483448Y-64193729D01*
X104400186Y-64295186D01*
X104315374Y-64364788D01*
X104262991Y-64407778D01*
X104262989Y-64407779D01*
X104106467Y-64491443D01*
X104049853Y-64508616D01*
X103936627Y-64542963D01*
X103870443Y-64549481D01*
X103804260Y-64556000D01*
X103715740Y-64556000D01*
X103649557Y-64549481D01*
X103583373Y-64542963D01*
X103470147Y-64508616D01*
X103413533Y-64491443D01*
X103257011Y-64407779D01*
X103257009Y-64407778D01*
X103204626Y-64364788D01*
X103119814Y-64295186D01*
X103036552Y-64193729D01*
X103007222Y-64157991D01*
X102969053Y-64086583D01*
X102923557Y-64001467D01*
X102899300Y-63921500D01*
X102872037Y-63831627D01*
X102854641Y-63655000D01*
X102872037Y-63478373D01*
X102906866Y-63363556D01*
X102923557Y-63308533D01*
X103007221Y-63152011D01*
X103007222Y-63152009D01*
X103051534Y-63098015D01*
X103119814Y-63014814D01*
X103221271Y-62931552D01*
X103257009Y-62902222D01*
X103274913Y-62892652D01*
X103413533Y-62818557D01*
X103470147Y-62801384D01*
X103583373Y-62767037D01*
X103649557Y-62760519D01*
X103715740Y-62754000D01*
X103804260Y-62754000D01*
X103870443Y-62760519D01*
X103870443Y-62760519D01*
G37*
G36*
X95011943Y-62676443D02*
X95011943Y-62676444D01*
X94737375Y-63152009D01*
X94008443Y-64414557D01*
X92188057Y-63363557D01*
X92188057Y-63363556D01*
X92829242Y-62252991D01*
X93191557Y-61625443D01*
X95011943Y-62676443D01*
X95011943Y-62676443D01*
G37*
G36*
X141380764Y-61387308D02*
X141469220Y-61396020D01*
X141658381Y-61453401D01*
X141832712Y-61546583D01*
X141985515Y-61671985D01*
X142110917Y-61824788D01*
X142204099Y-61999119D01*
X142261480Y-62188280D01*
X142280855Y-62385000D01*
X142261480Y-62581720D01*
X142204099Y-62770881D01*
X142110917Y-62945212D01*
X141985515Y-63098015D01*
X141832712Y-63223417D01*
X141658381Y-63316599D01*
X141469220Y-63373980D01*
X141380764Y-63382692D01*
X141321796Y-63388500D01*
X141128204Y-63388500D01*
X141069236Y-63382692D01*
X140980780Y-63373980D01*
X140791619Y-63316599D01*
X140617288Y-63223417D01*
X140464485Y-63098015D01*
X140339083Y-62945212D01*
X140245901Y-62770881D01*
X140188520Y-62581720D01*
X140169145Y-62385000D01*
X140188520Y-62188280D01*
X140245901Y-61999119D01*
X140339083Y-61824788D01*
X140464485Y-61671985D01*
X140617288Y-61546583D01*
X140791619Y-61453401D01*
X140980780Y-61396020D01*
X141069236Y-61387308D01*
X141128204Y-61381500D01*
X141321796Y-61381500D01*
X141380764Y-61387308D01*
X141380764Y-61387308D01*
G37*
G36*
X134350443Y-60855519D02*
X134416627Y-60862037D01*
X134529853Y-60896384D01*
X134586467Y-60913557D01*
X134673311Y-60959977D01*
X134742991Y-60997222D01*
X134778729Y-61026552D01*
X134880186Y-61109814D01*
X134963448Y-61211271D01*
X134992778Y-61247009D01*
X134992779Y-61247011D01*
X135076443Y-61403533D01*
X135091570Y-61453401D01*
X135127963Y-61573373D01*
X135145359Y-61750000D01*
X135127963Y-61926627D01*
X135105973Y-61999117D01*
X135076443Y-62096467D01*
X135007698Y-62225078D01*
X134992778Y-62252991D01*
X134963448Y-62288729D01*
X134880186Y-62390186D01*
X134778729Y-62473448D01*
X134742991Y-62502778D01*
X134742989Y-62502779D01*
X134586467Y-62586443D01*
X134579069Y-62588687D01*
X134416627Y-62637963D01*
X134350443Y-62644481D01*
X134284260Y-62651000D01*
X134195740Y-62651000D01*
X134129557Y-62644481D01*
X134063373Y-62637963D01*
X133900931Y-62588687D01*
X133893533Y-62586443D01*
X133737011Y-62502779D01*
X133737009Y-62502778D01*
X133701271Y-62473448D01*
X133599814Y-62390186D01*
X133516552Y-62288729D01*
X133487222Y-62252991D01*
X133472302Y-62225078D01*
X133403557Y-62096467D01*
X133374027Y-61999117D01*
X133352037Y-61926627D01*
X133334641Y-61750000D01*
X133352037Y-61573373D01*
X133388430Y-61453401D01*
X133403557Y-61403533D01*
X133487221Y-61247011D01*
X133487222Y-61247009D01*
X133516552Y-61211271D01*
X133599814Y-61109814D01*
X133701271Y-61026552D01*
X133737009Y-60997222D01*
X133806689Y-60959977D01*
X133893533Y-60913557D01*
X133950147Y-60896384D01*
X134063373Y-60862037D01*
X134129557Y-60855519D01*
X134195740Y-60849000D01*
X134284260Y-60849000D01*
X134350443Y-60855519D01*
X134350443Y-60855519D01*
G37*
G36*
X100116821Y-60911313D02*
X100116824Y-60911314D01*
X100116825Y-60911314D01*
X100277239Y-60959975D01*
X100277241Y-60959976D01*
X100277244Y-60959977D01*
X100425078Y-61038995D01*
X100554659Y-61145341D01*
X100661005Y-61274922D01*
X100740023Y-61422756D01*
X100740024Y-61422759D01*
X100740025Y-61422761D01*
X100785713Y-61573375D01*
X100788687Y-61583179D01*
X100805117Y-61750000D01*
X100788687Y-61916821D01*
X100788686Y-61916824D01*
X100788686Y-61916825D01*
X100758602Y-62016000D01*
X100740023Y-62077244D01*
X100661005Y-62225078D01*
X100554659Y-62354659D01*
X100425078Y-62461005D01*
X100277244Y-62540023D01*
X100277241Y-62540024D01*
X100277239Y-62540025D01*
X100116825Y-62588686D01*
X100116824Y-62588686D01*
X100116821Y-62588687D01*
X99991804Y-62601000D01*
X99908196Y-62601000D01*
X99783179Y-62588687D01*
X99783176Y-62588686D01*
X99783175Y-62588686D01*
X99622761Y-62540025D01*
X99622759Y-62540024D01*
X99622756Y-62540023D01*
X99474922Y-62461005D01*
X99345341Y-62354659D01*
X99238995Y-62225078D01*
X99159977Y-62077244D01*
X99141399Y-62016000D01*
X99111314Y-61916825D01*
X99111314Y-61916824D01*
X99111313Y-61916821D01*
X99094883Y-61750000D01*
X99111313Y-61583179D01*
X99114287Y-61573375D01*
X99159975Y-61422761D01*
X99159976Y-61422759D01*
X99159977Y-61422756D01*
X99238995Y-61274922D01*
X99345341Y-61145341D01*
X99474922Y-61038995D01*
X99622756Y-60959977D01*
X99622759Y-60959976D01*
X99622761Y-60959975D01*
X99783175Y-60911314D01*
X99783176Y-60911314D01*
X99783179Y-60911313D01*
X99908196Y-60899000D01*
X99991804Y-60899000D01*
X100116821Y-60911313D01*
X100116821Y-60911313D01*
G37*
G36*
X104661000Y-62016000D02*
X102859000Y-62016000D01*
X102859000Y-60214000D01*
X104661000Y-60214000D01*
X104661000Y-62016000D01*
X104661000Y-62016000D01*
G37*
G36*
X94960482Y-59796817D02*
X95152991Y-59841704D01*
X95287926Y-59902843D01*
X95287929Y-59902845D01*
X95455575Y-59999635D01*
X95575994Y-60085926D01*
X95650193Y-60165150D01*
X95711119Y-60230200D01*
X95815503Y-60398063D01*
X95843488Y-60472418D01*
X95885134Y-60583068D01*
X95917332Y-60778096D01*
X95917332Y-60778099D01*
X95910864Y-60975664D01*
X95891776Y-61057526D01*
X95865976Y-61168175D01*
X95817609Y-61274922D01*
X95784396Y-61348224D01*
X95730987Y-61422756D01*
X95669255Y-61508903D01*
X95620394Y-61554665D01*
X95524982Y-61644028D01*
X95357118Y-61748412D01*
X95172115Y-61818042D01*
X94977083Y-61850241D01*
X94779518Y-61843773D01*
X94587009Y-61798886D01*
X94452075Y-61737747D01*
X94413168Y-61715284D01*
X94284418Y-61640951D01*
X94189880Y-61573205D01*
X94164008Y-61554665D01*
X94028881Y-61410391D01*
X93924497Y-61242527D01*
X93854867Y-61057524D01*
X93822668Y-60862492D01*
X93829136Y-60664927D01*
X93874023Y-60472418D01*
X93955605Y-60292366D01*
X94070744Y-60131689D01*
X94215018Y-59996562D01*
X94382882Y-59892178D01*
X94567885Y-59822548D01*
X94762917Y-59790349D01*
X94960482Y-59796817D01*
X94960482Y-59796817D01*
G37*
G36*
X142276000Y-60848500D02*
X140174000Y-60848500D01*
X140174000Y-58841500D01*
X142276000Y-58841500D01*
X142276000Y-60848500D01*
X142276000Y-60848500D01*
G37*
G36*
X138298228Y-58645703D02*
X138453100Y-58709853D01*
X138592481Y-58802985D01*
X138711015Y-58921519D01*
X138804147Y-59060900D01*
X138868297Y-59215772D01*
X138901000Y-59380184D01*
X138901000Y-59547816D01*
X138868297Y-59712228D01*
X138804147Y-59867100D01*
X138711015Y-60006481D01*
X138592481Y-60125015D01*
X138453100Y-60218147D01*
X138298228Y-60282297D01*
X138133816Y-60315000D01*
X137966184Y-60315000D01*
X137801772Y-60282297D01*
X137646900Y-60218147D01*
X137507519Y-60125015D01*
X137388985Y-60006481D01*
X137295853Y-59867100D01*
X137231703Y-59712228D01*
X137199000Y-59547816D01*
X137199000Y-59380184D01*
X137231703Y-59215772D01*
X137295853Y-59060900D01*
X137388985Y-58921519D01*
X137507519Y-58802985D01*
X137646900Y-58709853D01*
X137801772Y-58645703D01*
X137966184Y-58613000D01*
X138133816Y-58613000D01*
X138298228Y-58645703D01*
X138298228Y-58645703D01*
G37*
G36*
X135141000Y-60111000D02*
X133339000Y-60111000D01*
X133339000Y-58309000D01*
X135141000Y-58309000D01*
X135141000Y-60111000D01*
X135141000Y-60111000D01*
G37*
G36*
X107657142Y-58428242D02*
X107805102Y-58489530D01*
X107872130Y-58534317D01*
X107938257Y-58578501D01*
X108051499Y-58691743D01*
X108063600Y-58709854D01*
X108140470Y-58824898D01*
X108201758Y-58972858D01*
X108233000Y-59129925D01*
X108233000Y-59290075D01*
X108201758Y-59447142D01*
X108140470Y-59595102D01*
X108095683Y-59662130D01*
X108051499Y-59728257D01*
X107938257Y-59841499D01*
X107899942Y-59867100D01*
X107805102Y-59930470D01*
X107657142Y-59991758D01*
X107500075Y-60023000D01*
X107339925Y-60023000D01*
X107182858Y-59991758D01*
X107034898Y-59930470D01*
X106940058Y-59867100D01*
X106901743Y-59841499D01*
X106788501Y-59728257D01*
X106744317Y-59662130D01*
X106699530Y-59595102D01*
X106638242Y-59447142D01*
X106607000Y-59290075D01*
X106607000Y-59129925D01*
X106638242Y-58972858D01*
X106699530Y-58824898D01*
X106776400Y-58709854D01*
X106788501Y-58691743D01*
X106901743Y-58578501D01*
X106967870Y-58534317D01*
X107034898Y-58489530D01*
X107182858Y-58428242D01*
X107339925Y-58397000D01*
X107500075Y-58397000D01*
X107657142Y-58428242D01*
X107657142Y-58428242D01*
G37*
G36*
X111617142Y-58428242D02*
X111765102Y-58489530D01*
X111832130Y-58534317D01*
X111898257Y-58578501D01*
X112011499Y-58691743D01*
X112023600Y-58709854D01*
X112100470Y-58824898D01*
X112161758Y-58972858D01*
X112193000Y-59129925D01*
X112193000Y-59290075D01*
X112161758Y-59447142D01*
X112100470Y-59595102D01*
X112055683Y-59662130D01*
X112011499Y-59728257D01*
X111898257Y-59841499D01*
X111859942Y-59867100D01*
X111765102Y-59930470D01*
X111617142Y-59991758D01*
X111460075Y-60023000D01*
X111299925Y-60023000D01*
X111142858Y-59991758D01*
X110994898Y-59930470D01*
X110900058Y-59867100D01*
X110861743Y-59841499D01*
X110748501Y-59728257D01*
X110704317Y-59662130D01*
X110659530Y-59595102D01*
X110598242Y-59447142D01*
X110567000Y-59290075D01*
X110567000Y-59129925D01*
X110598242Y-58972858D01*
X110659530Y-58824898D01*
X110736400Y-58709854D01*
X110748501Y-58691743D01*
X110861743Y-58578501D01*
X110927870Y-58534317D01*
X110994898Y-58489530D01*
X111142858Y-58428242D01*
X111299925Y-58397000D01*
X111460075Y-58397000D01*
X111617142Y-58428242D01*
X111617142Y-58428242D01*
G37*
G36*
X115577142Y-58428242D02*
X115725102Y-58489530D01*
X115792130Y-58534317D01*
X115858257Y-58578501D01*
X115971499Y-58691743D01*
X115983600Y-58709854D01*
X116060470Y-58824898D01*
X116121758Y-58972858D01*
X116153000Y-59129925D01*
X116153000Y-59290075D01*
X116121758Y-59447142D01*
X116060470Y-59595102D01*
X116015683Y-59662130D01*
X115971499Y-59728257D01*
X115858257Y-59841499D01*
X115819942Y-59867100D01*
X115725102Y-59930470D01*
X115577142Y-59991758D01*
X115420075Y-60023000D01*
X115259925Y-60023000D01*
X115102858Y-59991758D01*
X114954898Y-59930470D01*
X114860058Y-59867100D01*
X114821743Y-59841499D01*
X114708501Y-59728257D01*
X114664317Y-59662130D01*
X114619530Y-59595102D01*
X114558242Y-59447142D01*
X114527000Y-59290075D01*
X114527000Y-59129925D01*
X114558242Y-58972858D01*
X114619530Y-58824898D01*
X114696400Y-58709854D01*
X114708501Y-58691743D01*
X114821743Y-58578501D01*
X114887870Y-58534317D01*
X114954898Y-58489530D01*
X115102858Y-58428242D01*
X115259925Y-58397000D01*
X115420075Y-58397000D01*
X115577142Y-58428242D01*
X115577142Y-58428242D01*
G37*
G36*
X130817142Y-58428242D02*
X130965102Y-58489530D01*
X131032130Y-58534317D01*
X131098257Y-58578501D01*
X131211499Y-58691743D01*
X131223600Y-58709854D01*
X131300470Y-58824898D01*
X131361758Y-58972858D01*
X131393000Y-59129925D01*
X131393000Y-59290075D01*
X131361758Y-59447142D01*
X131300470Y-59595102D01*
X131255683Y-59662130D01*
X131211499Y-59728257D01*
X131098257Y-59841499D01*
X131059942Y-59867100D01*
X130965102Y-59930470D01*
X130817142Y-59991758D01*
X130660075Y-60023000D01*
X130499925Y-60023000D01*
X130342858Y-59991758D01*
X130194898Y-59930470D01*
X130100058Y-59867100D01*
X130061743Y-59841499D01*
X129948501Y-59728257D01*
X129904317Y-59662130D01*
X129859530Y-59595102D01*
X129798242Y-59447142D01*
X129767000Y-59290075D01*
X129767000Y-59129925D01*
X129798242Y-58972858D01*
X129859530Y-58824898D01*
X129936400Y-58709854D01*
X129948501Y-58691743D01*
X130061743Y-58578501D01*
X130127870Y-58534317D01*
X130194898Y-58489530D01*
X130342858Y-58428242D01*
X130499925Y-58397000D01*
X130660075Y-58397000D01*
X130817142Y-58428242D01*
X130817142Y-58428242D01*
G37*
G36*
X126857142Y-58428242D02*
X127005102Y-58489530D01*
X127072130Y-58534317D01*
X127138257Y-58578501D01*
X127251499Y-58691743D01*
X127263600Y-58709854D01*
X127340470Y-58824898D01*
X127401758Y-58972858D01*
X127433000Y-59129925D01*
X127433000Y-59290075D01*
X127401758Y-59447142D01*
X127340470Y-59595102D01*
X127295683Y-59662130D01*
X127251499Y-59728257D01*
X127138257Y-59841499D01*
X127099942Y-59867100D01*
X127005102Y-59930470D01*
X126857142Y-59991758D01*
X126700075Y-60023000D01*
X126539925Y-60023000D01*
X126382858Y-59991758D01*
X126234898Y-59930470D01*
X126140058Y-59867100D01*
X126101743Y-59841499D01*
X125988501Y-59728257D01*
X125944317Y-59662130D01*
X125899530Y-59595102D01*
X125838242Y-59447142D01*
X125807000Y-59290075D01*
X125807000Y-59129925D01*
X125838242Y-58972858D01*
X125899530Y-58824898D01*
X125976400Y-58709854D01*
X125988501Y-58691743D01*
X126101743Y-58578501D01*
X126167870Y-58534317D01*
X126234898Y-58489530D01*
X126382858Y-58428242D01*
X126539925Y-58397000D01*
X126700075Y-58397000D01*
X126857142Y-58428242D01*
X126857142Y-58428242D01*
G37*
G36*
X122897142Y-58428242D02*
X123045102Y-58489530D01*
X123112130Y-58534317D01*
X123178257Y-58578501D01*
X123291499Y-58691743D01*
X123303600Y-58709854D01*
X123380470Y-58824898D01*
X123441758Y-58972858D01*
X123473000Y-59129925D01*
X123473000Y-59290075D01*
X123441758Y-59447142D01*
X123380470Y-59595102D01*
X123335683Y-59662130D01*
X123291499Y-59728257D01*
X123178257Y-59841499D01*
X123139942Y-59867100D01*
X123045102Y-59930470D01*
X122897142Y-59991758D01*
X122740075Y-60023000D01*
X122579925Y-60023000D01*
X122422858Y-59991758D01*
X122274898Y-59930470D01*
X122180058Y-59867100D01*
X122141743Y-59841499D01*
X122028501Y-59728257D01*
X121984317Y-59662130D01*
X121939530Y-59595102D01*
X121878242Y-59447142D01*
X121847000Y-59290075D01*
X121847000Y-59129925D01*
X121878242Y-58972858D01*
X121939530Y-58824898D01*
X122016400Y-58709854D01*
X122028501Y-58691743D01*
X122141743Y-58578501D01*
X122207870Y-58534317D01*
X122274898Y-58489530D01*
X122422858Y-58428242D01*
X122579925Y-58397000D01*
X122740075Y-58397000D01*
X122897142Y-58428242D01*
X122897142Y-58428242D01*
G37*
G36*
X96230482Y-57597113D02*
X96422991Y-57642000D01*
X96557926Y-57703139D01*
X96557929Y-57703141D01*
X96725575Y-57799931D01*
X96845994Y-57886222D01*
X96920193Y-57965446D01*
X96981119Y-58030496D01*
X97085503Y-58198359D01*
X97113488Y-58272714D01*
X97155134Y-58383364D01*
X97172661Y-58489529D01*
X97187332Y-58578395D01*
X97180864Y-58775960D01*
X97161776Y-58857822D01*
X97135976Y-58968471D01*
X97062821Y-59129925D01*
X97054396Y-59148520D01*
X97006204Y-59215772D01*
X96939255Y-59309199D01*
X96890394Y-59354961D01*
X96794982Y-59444324D01*
X96663996Y-59525776D01*
X96628553Y-59547816D01*
X96627118Y-59548708D01*
X96442115Y-59618338D01*
X96247083Y-59650537D01*
X96049518Y-59644069D01*
X95857009Y-59599182D01*
X95722075Y-59538043D01*
X95683168Y-59515580D01*
X95554418Y-59441247D01*
X95459880Y-59373501D01*
X95434008Y-59354961D01*
X95298881Y-59210687D01*
X95194497Y-59042823D01*
X95124867Y-58857820D01*
X95092668Y-58662788D01*
X95099136Y-58465223D01*
X95144023Y-58272714D01*
X95225605Y-58092662D01*
X95340744Y-57931985D01*
X95485018Y-57796858D01*
X95652882Y-57692474D01*
X95837885Y-57622844D01*
X96032917Y-57590645D01*
X96230482Y-57597113D01*
X96230482Y-57597113D01*
G37*
G36*
X140115443Y-53235519D02*
X140181627Y-53242037D01*
X140294853Y-53276384D01*
X140351467Y-53293557D01*
X140427651Y-53334279D01*
X140507991Y-53377222D01*
X140543729Y-53406552D01*
X140645186Y-53489814D01*
X140728448Y-53591271D01*
X140757778Y-53627009D01*
X140757779Y-53627011D01*
X140841443Y-53783533D01*
X140841443Y-53783534D01*
X140892963Y-53953373D01*
X140910359Y-54130000D01*
X140892963Y-54306627D01*
X140858616Y-54419853D01*
X140841443Y-54476467D01*
X140767348Y-54615087D01*
X140757778Y-54632991D01*
X140728448Y-54668729D01*
X140645186Y-54770186D01*
X140543729Y-54853448D01*
X140507991Y-54882778D01*
X140507989Y-54882779D01*
X140351467Y-54966443D01*
X140294853Y-54983616D01*
X140181627Y-55017963D01*
X140115442Y-55024482D01*
X140049260Y-55031000D01*
X139960740Y-55031000D01*
X139894558Y-55024482D01*
X139828373Y-55017963D01*
X139715147Y-54983616D01*
X139658533Y-54966443D01*
X139502011Y-54882779D01*
X139502009Y-54882778D01*
X139466271Y-54853448D01*
X139364814Y-54770186D01*
X139281552Y-54668729D01*
X139252222Y-54632991D01*
X139242652Y-54615087D01*
X139168557Y-54476467D01*
X139151384Y-54419853D01*
X139117037Y-54306627D01*
X139099641Y-54130000D01*
X139117037Y-53953373D01*
X139168557Y-53783534D01*
X139168557Y-53783533D01*
X139252221Y-53627011D01*
X139252222Y-53627009D01*
X139281552Y-53591271D01*
X139364814Y-53489814D01*
X139466271Y-53406552D01*
X139502009Y-53377222D01*
X139582349Y-53334279D01*
X139658533Y-53293557D01*
X139715147Y-53276384D01*
X139828373Y-53242037D01*
X139894557Y-53235519D01*
X139960740Y-53229000D01*
X140049260Y-53229000D01*
X140115443Y-53235519D01*
X140115443Y-53235519D01*
G37*
G36*
X98205443Y-53235519D02*
X98271627Y-53242037D01*
X98384853Y-53276384D01*
X98441467Y-53293557D01*
X98517651Y-53334279D01*
X98597991Y-53377222D01*
X98633729Y-53406552D01*
X98735186Y-53489814D01*
X98818448Y-53591271D01*
X98847778Y-53627009D01*
X98847779Y-53627011D01*
X98931443Y-53783533D01*
X98931443Y-53783534D01*
X98982963Y-53953373D01*
X99000359Y-54130000D01*
X98982963Y-54306627D01*
X98948616Y-54419853D01*
X98931443Y-54476467D01*
X98857348Y-54615087D01*
X98847778Y-54632991D01*
X98818448Y-54668729D01*
X98735186Y-54770186D01*
X98633729Y-54853448D01*
X98597991Y-54882778D01*
X98597989Y-54882779D01*
X98441467Y-54966443D01*
X98384853Y-54983616D01*
X98271627Y-55017963D01*
X98205442Y-55024482D01*
X98139260Y-55031000D01*
X98050740Y-55031000D01*
X97984558Y-55024482D01*
X97918373Y-55017963D01*
X97805147Y-54983616D01*
X97748533Y-54966443D01*
X97592011Y-54882779D01*
X97592009Y-54882778D01*
X97556271Y-54853448D01*
X97454814Y-54770186D01*
X97371552Y-54668729D01*
X97342222Y-54632991D01*
X97332652Y-54615087D01*
X97258557Y-54476467D01*
X97241384Y-54419853D01*
X97207037Y-54306627D01*
X97189641Y-54130000D01*
X97207037Y-53953373D01*
X97258557Y-53783534D01*
X97258557Y-53783533D01*
X97342221Y-53627011D01*
X97342222Y-53627009D01*
X97371552Y-53591271D01*
X97454814Y-53489814D01*
X97556271Y-53406552D01*
X97592009Y-53377222D01*
X97672349Y-53334279D01*
X97748533Y-53293557D01*
X97805147Y-53276384D01*
X97918373Y-53242037D01*
X97984557Y-53235519D01*
X98050740Y-53229000D01*
X98139260Y-53229000D01*
X98205443Y-53235519D01*
X98205443Y-53235519D01*
G37*
G36*
X118525721Y-52965174D02*
X118625995Y-53006709D01*
X118716245Y-53067012D01*
X118792988Y-53143755D01*
X118853291Y-53234005D01*
X118894826Y-53334279D01*
X118916000Y-53440730D01*
X118916000Y-53549270D01*
X118894826Y-53655721D01*
X118853291Y-53755995D01*
X118792988Y-53846245D01*
X118716245Y-53922988D01*
X118625995Y-53983291D01*
X118525721Y-54024826D01*
X118419270Y-54046000D01*
X118310730Y-54046000D01*
X118204279Y-54024826D01*
X118104005Y-53983291D01*
X118013755Y-53922988D01*
X117937012Y-53846245D01*
X117876709Y-53755995D01*
X117835174Y-53655721D01*
X117814000Y-53549270D01*
X117814000Y-53440730D01*
X117835174Y-53334279D01*
X117876709Y-53234005D01*
X117937012Y-53143755D01*
X118013755Y-53067012D01*
X118104005Y-53006709D01*
X118204279Y-52965174D01*
X118310730Y-52944000D01*
X118419270Y-52944000D01*
X118525721Y-52965174D01*
X118525721Y-52965174D01*
G37*
G36*
X98996000Y-52491000D02*
X97194000Y-52491000D01*
X97194000Y-50689000D01*
X98996000Y-50689000D01*
X98996000Y-52491000D01*
X98996000Y-52491000D01*
G37*
G36*
X140906000Y-52491000D02*
X139104000Y-52491000D01*
X139104000Y-50689000D01*
X140906000Y-50689000D01*
X140906000Y-52491000D01*
X140906000Y-52491000D01*
G37*
G36*
X133461142Y-48268242D02*
X133609102Y-48329530D01*
X133742258Y-48418502D01*
X133855498Y-48531742D01*
X133944470Y-48664898D01*
X134005758Y-48812858D01*
X134037000Y-48969925D01*
X134037000Y-49130075D01*
X134005758Y-49287142D01*
X133944470Y-49435102D01*
X133855498Y-49568258D01*
X133742258Y-49681498D01*
X133609102Y-49770470D01*
X133461142Y-49831758D01*
X133304075Y-49863000D01*
X133143925Y-49863000D01*
X132986858Y-49831758D01*
X132838898Y-49770470D01*
X132705742Y-49681498D01*
X132592502Y-49568258D01*
X132503530Y-49435102D01*
X132442242Y-49287142D01*
X132411000Y-49130075D01*
X132411000Y-48969925D01*
X132442242Y-48812858D01*
X132503530Y-48664898D01*
X132592502Y-48531742D01*
X132705742Y-48418502D01*
X132838898Y-48329530D01*
X132986858Y-48268242D01*
X133143925Y-48237000D01*
X133304075Y-48237000D01*
X133461142Y-48268242D01*
X133461142Y-48268242D01*
G37*
G36*
X130921142Y-48268242D02*
X131069102Y-48329530D01*
X131202258Y-48418502D01*
X131315498Y-48531742D01*
X131404470Y-48664898D01*
X131465758Y-48812858D01*
X131497000Y-48969925D01*
X131497000Y-49130075D01*
X131465758Y-49287142D01*
X131404470Y-49435102D01*
X131315498Y-49568258D01*
X131202258Y-49681498D01*
X131069102Y-49770470D01*
X130921142Y-49831758D01*
X130764075Y-49863000D01*
X130603925Y-49863000D01*
X130446858Y-49831758D01*
X130298898Y-49770470D01*
X130165742Y-49681498D01*
X130052502Y-49568258D01*
X129963530Y-49435102D01*
X129902242Y-49287142D01*
X129871000Y-49130075D01*
X129871000Y-48969925D01*
X129902242Y-48812858D01*
X129963530Y-48664898D01*
X130052502Y-48531742D01*
X130165742Y-48418502D01*
X130298898Y-48329530D01*
X130446858Y-48268242D01*
X130603925Y-48237000D01*
X130764075Y-48237000D01*
X130921142Y-48268242D01*
X130921142Y-48268242D01*
G37*
G36*
X128381142Y-48268242D02*
X128529102Y-48329530D01*
X128662258Y-48418502D01*
X128775498Y-48531742D01*
X128864470Y-48664898D01*
X128925758Y-48812858D01*
X128957000Y-48969925D01*
X128957000Y-49130075D01*
X128925758Y-49287142D01*
X128864470Y-49435102D01*
X128775498Y-49568258D01*
X128662258Y-49681498D01*
X128529102Y-49770470D01*
X128381142Y-49831758D01*
X128224075Y-49863000D01*
X128063925Y-49863000D01*
X127906858Y-49831758D01*
X127758898Y-49770470D01*
X127625742Y-49681498D01*
X127512502Y-49568258D01*
X127423530Y-49435102D01*
X127362242Y-49287142D01*
X127331000Y-49130075D01*
X127331000Y-48969925D01*
X127362242Y-48812858D01*
X127423530Y-48664898D01*
X127512502Y-48531742D01*
X127625742Y-48418502D01*
X127758898Y-48329530D01*
X127906858Y-48268242D01*
X128063925Y-48237000D01*
X128224075Y-48237000D01*
X128381142Y-48268242D01*
X128381142Y-48268242D01*
G37*
G36*
X105013142Y-48268242D02*
X105161102Y-48329530D01*
X105294258Y-48418502D01*
X105407498Y-48531742D01*
X105496470Y-48664898D01*
X105557758Y-48812858D01*
X105589000Y-48969925D01*
X105589000Y-49130075D01*
X105557758Y-49287142D01*
X105496470Y-49435102D01*
X105407498Y-49568258D01*
X105294258Y-49681498D01*
X105161102Y-49770470D01*
X105013142Y-49831758D01*
X104856075Y-49863000D01*
X104695925Y-49863000D01*
X104538858Y-49831758D01*
X104390898Y-49770470D01*
X104257742Y-49681498D01*
X104144502Y-49568258D01*
X104055530Y-49435102D01*
X103994242Y-49287142D01*
X103963000Y-49130075D01*
X103963000Y-48969925D01*
X103994242Y-48812858D01*
X104055530Y-48664898D01*
X104144502Y-48531742D01*
X104257742Y-48418502D01*
X104390898Y-48329530D01*
X104538858Y-48268242D01*
X104695925Y-48237000D01*
X104856075Y-48237000D01*
X105013142Y-48268242D01*
X105013142Y-48268242D01*
G37*
G36*
X107553142Y-48268242D02*
X107701102Y-48329530D01*
X107834258Y-48418502D01*
X107947498Y-48531742D01*
X108036470Y-48664898D01*
X108097758Y-48812858D01*
X108129000Y-48969925D01*
X108129000Y-49130075D01*
X108097758Y-49287142D01*
X108036470Y-49435102D01*
X107947498Y-49568258D01*
X107834258Y-49681498D01*
X107701102Y-49770470D01*
X107553142Y-49831758D01*
X107396075Y-49863000D01*
X107235925Y-49863000D01*
X107078858Y-49831758D01*
X106930898Y-49770470D01*
X106797742Y-49681498D01*
X106684502Y-49568258D01*
X106595530Y-49435102D01*
X106534242Y-49287142D01*
X106503000Y-49130075D01*
X106503000Y-48969925D01*
X106534242Y-48812858D01*
X106595530Y-48664898D01*
X106684502Y-48531742D01*
X106797742Y-48418502D01*
X106930898Y-48329530D01*
X107078858Y-48268242D01*
X107235925Y-48237000D01*
X107396075Y-48237000D01*
X107553142Y-48268242D01*
X107553142Y-48268242D01*
G37*
G36*
X110093142Y-48268242D02*
X110241102Y-48329530D01*
X110374258Y-48418502D01*
X110487498Y-48531742D01*
X110576470Y-48664898D01*
X110637758Y-48812858D01*
X110669000Y-48969925D01*
X110669000Y-49130075D01*
X110637758Y-49287142D01*
X110576470Y-49435102D01*
X110487498Y-49568258D01*
X110374258Y-49681498D01*
X110241102Y-49770470D01*
X110093142Y-49831758D01*
X109936075Y-49863000D01*
X109775925Y-49863000D01*
X109618858Y-49831758D01*
X109470898Y-49770470D01*
X109337742Y-49681498D01*
X109224502Y-49568258D01*
X109135530Y-49435102D01*
X109074242Y-49287142D01*
X109043000Y-49130075D01*
X109043000Y-48969925D01*
X109074242Y-48812858D01*
X109135530Y-48664898D01*
X109224502Y-48531742D01*
X109337742Y-48418502D01*
X109470898Y-48329530D01*
X109618858Y-48268242D01*
X109775925Y-48237000D01*
X109936075Y-48237000D01*
X110093142Y-48268242D01*
X110093142Y-48268242D01*
G37*
G36*
X125841142Y-48268242D02*
X125989102Y-48329530D01*
X126122258Y-48418502D01*
X126235498Y-48531742D01*
X126324470Y-48664898D01*
X126385758Y-48812858D01*
X126417000Y-48969925D01*
X126417000Y-49130075D01*
X126385758Y-49287142D01*
X126324470Y-49435102D01*
X126235498Y-49568258D01*
X126122258Y-49681498D01*
X125989102Y-49770470D01*
X125841142Y-49831758D01*
X125684075Y-49863000D01*
X125523925Y-49863000D01*
X125366858Y-49831758D01*
X125218898Y-49770470D01*
X125085742Y-49681498D01*
X124972502Y-49568258D01*
X124883530Y-49435102D01*
X124822242Y-49287142D01*
X124791000Y-49130075D01*
X124791000Y-48969925D01*
X124822242Y-48812858D01*
X124883530Y-48664898D01*
X124972502Y-48531742D01*
X125085742Y-48418502D01*
X125218898Y-48329530D01*
X125366858Y-48268242D01*
X125523925Y-48237000D01*
X125684075Y-48237000D01*
X125841142Y-48268242D01*
X125841142Y-48268242D01*
G37*
G36*
X123301142Y-48268242D02*
X123449102Y-48329530D01*
X123582258Y-48418502D01*
X123695498Y-48531742D01*
X123784470Y-48664898D01*
X123845758Y-48812858D01*
X123877000Y-48969925D01*
X123877000Y-49130075D01*
X123845758Y-49287142D01*
X123784470Y-49435102D01*
X123695498Y-49568258D01*
X123582258Y-49681498D01*
X123449102Y-49770470D01*
X123301142Y-49831758D01*
X123144075Y-49863000D01*
X122983925Y-49863000D01*
X122826858Y-49831758D01*
X122678898Y-49770470D01*
X122545742Y-49681498D01*
X122432502Y-49568258D01*
X122343530Y-49435102D01*
X122282242Y-49287142D01*
X122251000Y-49130075D01*
X122251000Y-48969925D01*
X122282242Y-48812858D01*
X122343530Y-48664898D01*
X122432502Y-48531742D01*
X122545742Y-48418502D01*
X122678898Y-48329530D01*
X122826858Y-48268242D01*
X122983925Y-48237000D01*
X123144075Y-48237000D01*
X123301142Y-48268242D01*
X123301142Y-48268242D01*
G37*
G36*
X115173142Y-48268242D02*
X115321102Y-48329530D01*
X115454258Y-48418502D01*
X115567498Y-48531742D01*
X115656470Y-48664898D01*
X115717758Y-48812858D01*
X115749000Y-48969925D01*
X115749000Y-49130075D01*
X115717758Y-49287142D01*
X115656470Y-49435102D01*
X115567498Y-49568258D01*
X115454258Y-49681498D01*
X115321102Y-49770470D01*
X115173142Y-49831758D01*
X115016075Y-49863000D01*
X114855925Y-49863000D01*
X114698858Y-49831758D01*
X114550898Y-49770470D01*
X114417742Y-49681498D01*
X114304502Y-49568258D01*
X114215530Y-49435102D01*
X114154242Y-49287142D01*
X114123000Y-49130075D01*
X114123000Y-48969925D01*
X114154242Y-48812858D01*
X114215530Y-48664898D01*
X114304502Y-48531742D01*
X114417742Y-48418502D01*
X114550898Y-48329530D01*
X114698858Y-48268242D01*
X114855925Y-48237000D01*
X115016075Y-48237000D01*
X115173142Y-48268242D01*
X115173142Y-48268242D01*
G37*
G36*
X112633142Y-48268242D02*
X112781102Y-48329530D01*
X112914258Y-48418502D01*
X113027498Y-48531742D01*
X113116470Y-48664898D01*
X113177758Y-48812858D01*
X113209000Y-48969925D01*
X113209000Y-49130075D01*
X113177758Y-49287142D01*
X113116470Y-49435102D01*
X113027498Y-49568258D01*
X112914258Y-49681498D01*
X112781102Y-49770470D01*
X112633142Y-49831758D01*
X112476075Y-49863000D01*
X112315925Y-49863000D01*
X112158858Y-49831758D01*
X112010898Y-49770470D01*
X111877742Y-49681498D01*
X111764502Y-49568258D01*
X111675530Y-49435102D01*
X111614242Y-49287142D01*
X111583000Y-49130075D01*
X111583000Y-48969925D01*
X111614242Y-48812858D01*
X111675530Y-48664898D01*
X111764502Y-48531742D01*
X111877742Y-48418502D01*
X112010898Y-48329530D01*
X112158858Y-48268242D01*
X112315925Y-48237000D01*
X112476075Y-48237000D01*
X112633142Y-48268242D01*
X112633142Y-48268242D01*
G37*
M02*
