M48
;DRILL file {KiCad 5.0.2-bee76a0~70~ubuntu18.04.1} date mar. 29 janv. 2019 21:20:38 CET
;FORMAT={3:3/ absolute / metric / suppress leading zeros}
FMAT,2
METRIC,TZ
T1C0.500
T2C0.750
T3C0.762
T4C0.800
T5C1.000
T6C1.100
%
G90
G05
T1
X91060Y-100485
X108840Y-71275
X110872Y-71275
X112650Y-71275
X113920Y-91214
X115190Y-71275
X118365Y-53495
T2
X103760Y-66830
X103760Y-68100
X103760Y-69370
X142495Y-69370
X142495Y-70640
X142495Y-71910
T3
X123064Y-49050
X125604Y-49050
X128144Y-49050
X130684Y-49050
X133224Y-49050
X107420Y-59210
X111380Y-59210
X115340Y-59210
X134240Y-74450
X145035Y-74450
X145035Y-76990
X145035Y-79530
X145035Y-82070
X145035Y-84610
X134240Y-92865
X145035Y-92865
X145035Y-95405
X145035Y-97945
X145035Y-100485
X145035Y-103025
X104776Y-49050
X107316Y-49050
X109856Y-49050
X112396Y-49050
X114936Y-49050
X93092Y-79530
X93092Y-82070
X93092Y-84610
X93092Y-87150
X93092Y-89690
X103887Y-89690
X93092Y-97945
X93092Y-100485
X93092Y-103025
X93092Y-105565
X93092Y-108105
X103887Y-108105
X122660Y-59210
X126620Y-59210
X130580Y-59210
X115190Y-104930
X116460Y-107470
X121540Y-107470
X122810Y-104930
T4
X98045Y-97945
X145035Y-86515
X145035Y-105565
X103760Y-76355
X109148Y-81743
X150750Y-78260
X150750Y-85880
X138050Y-59464
X138050Y-67084
X131392Y-82378
X136780Y-76990
X130684Y-69624
X138304Y-69624
X86615Y-81435
X86615Y-89055
X99950Y-61750
X99950Y-69370
X150750Y-90960
X150750Y-98580
X86615Y-92865
X86615Y-100485
X96140Y-71910
X103760Y-71910
T5
X140005Y-51590
X140005Y-54130
X110110Y-66830
X110110Y-69370
X112650Y-66830
X112650Y-69370
X115190Y-66830
X115190Y-69370
X117730Y-66830
X117730Y-69370
X120270Y-66830
X120270Y-69370
X122810Y-66830
X122810Y-69370
X125350Y-66830
X125350Y-69370
X127890Y-66830
X127890Y-69370
X134240Y-59210
X134240Y-61750
X98095Y-51590
X98095Y-54130
X103760Y-61115
X103760Y-63655
X129845Y-111280
X132385Y-111280
X84760Y-74450
X86960Y-73180
X94285Y-69370
X95555Y-67170
T6
X93600Y-63020
X94870Y-60820
X96140Y-58621
X141225Y-59845
X141225Y-62385
X141225Y-64925
X111380Y-83594
X111380Y-86134
X111380Y-88674
X111380Y-91214
X111380Y-93754
X111380Y-96294
X111380Y-98834
X111380Y-103914
X111380Y-111534
X116460Y-78514
X119000Y-78514
X121540Y-78514
X126620Y-78514
X126620Y-81054
X126620Y-83594
X126620Y-86134
X126620Y-88674
X126620Y-91214
X126620Y-96294
X126620Y-98834
X126620Y-103914
X126620Y-106454
X126620Y-108994
X126620Y-111534
T0
M30
