G04 #@! TF.GenerationSoftware,KiCad,Pcbnew,5.0.2-bee76a0~70~ubuntu18.04.1*
G04 #@! TF.CreationDate,2019-01-29T21:20:29+01:00*
G04 #@! TF.ProjectId,Robot Propulsion layer 2 V2,526f626f-7420-4507-926f-70756c73696f,rev?*
G04 #@! TF.SameCoordinates,Original*
G04 #@! TF.FileFunction,Legend,Top*
G04 #@! TF.FilePolarity,Positive*
%FSLAX46Y46*%
G04 Gerber Fmt 4.6, Leading zero omitted, Abs format (unit mm)*
G04 Created by KiCad (PCBNEW 5.0.2-bee76a0~70~ubuntu18.04.1) date mar. 29 janv. 2019 21:20:29 CET*
%MOMM*%
%LPD*%
G01*
G04 APERTURE LIST*
%ADD10C,0.150000*%
%ADD11C,0.120000*%
G04 APERTURE END LIST*
D10*
G04 #@! TO.C,U3*
X122810000Y-112804000D02*
X122810000Y-114074000D01*
X122810000Y-114074000D02*
X115190000Y-114074000D01*
X115190000Y-114074000D02*
X115190000Y-112804000D01*
X124080000Y-101374000D02*
X124080000Y-97564000D01*
X124080000Y-97564000D02*
X121540000Y-97564000D01*
X121540000Y-97564000D02*
X121540000Y-101374000D01*
X121540000Y-101374000D02*
X124080000Y-101374000D01*
X122810000Y-107724000D02*
X115190000Y-107724000D01*
X115190000Y-107724000D02*
X115190000Y-112804000D01*
X122810000Y-107724000D02*
X122810000Y-112804000D01*
X124080000Y-106454000D02*
X124080000Y-103914000D01*
X124080000Y-103914000D02*
X121540000Y-103914000D01*
X121540000Y-103914000D02*
X121540000Y-106454000D01*
X121540000Y-106454000D02*
X124080000Y-106454000D01*
X116460000Y-79784000D02*
X121540000Y-79784000D01*
X121540000Y-79784000D02*
X121540000Y-82324000D01*
X121540000Y-82324000D02*
X116460000Y-82324000D01*
X116460000Y-82324000D02*
X116460000Y-79784000D01*
X124080000Y-86134000D02*
X113920000Y-86134000D01*
X113920000Y-95024000D02*
X124080000Y-95024000D01*
X113920000Y-86134000D02*
X113920000Y-95024000D01*
X124080000Y-86134000D02*
X124080000Y-95024000D01*
X110110000Y-112804000D02*
X110110000Y-77244000D01*
X110110000Y-77244000D02*
X127890000Y-77244000D01*
X127890000Y-77244000D02*
X127890000Y-112804000D01*
X127890000Y-112804000D02*
X110110000Y-112804000D01*
D11*
G04 #@! TO.C,Q1*
X105598478Y-66261522D02*
G75*
G03X101160000Y-68100000I-1838478J-1838478D01*
G01*
X105598478Y-69938478D02*
G75*
G02X101160000Y-68100000I-1838478J1838478D01*
G01*
X105610000Y-69900000D02*
X105610000Y-66300000D01*
G04 #@! TO.C,Q3*
X144333478Y-68801522D02*
G75*
G03X139895000Y-70640000I-1838478J-1838478D01*
G01*
X144333478Y-72478478D02*
G75*
G02X139895000Y-70640000I-1838478J1838478D01*
G01*
X144345000Y-72440000D02*
X144345000Y-68840000D01*
D10*
G04 #@! TO.C,J3*
X117095000Y-56670000D02*
X117095000Y-61750000D01*
X113920000Y-56670000D02*
X117095000Y-56670000D01*
X113920000Y-57305000D02*
X113920000Y-56670000D01*
X108840000Y-57305000D02*
X113920000Y-57305000D01*
X108840000Y-56670000D02*
X108840000Y-57305000D01*
X105665000Y-56670000D02*
X108840000Y-56670000D01*
X105665000Y-61750000D02*
X105665000Y-56670000D01*
X117095000Y-61750000D02*
X105665000Y-61750000D01*
G04 #@! TO.C,J5*
X132335000Y-56670000D02*
X132335000Y-61750000D01*
X129160000Y-56670000D02*
X132335000Y-56670000D01*
X129160000Y-57305000D02*
X129160000Y-56670000D01*
X124080000Y-57305000D02*
X129160000Y-57305000D01*
X124080000Y-56670000D02*
X124080000Y-57305000D01*
X120905000Y-56670000D02*
X124080000Y-56670000D01*
X120905000Y-61750000D02*
X120905000Y-56670000D01*
X132335000Y-61750000D02*
X120905000Y-61750000D01*
D11*
G04 #@! TO.C,J2*
X102430000Y-59785000D02*
X103760000Y-59785000D01*
X102430000Y-61115000D02*
X102430000Y-59785000D01*
X102430000Y-62385000D02*
X105090000Y-62385000D01*
X105090000Y-62385000D02*
X105090000Y-64985000D01*
X102430000Y-62385000D02*
X102430000Y-64985000D01*
X102430000Y-64985000D02*
X105090000Y-64985000D01*
G04 #@! TO.C,J4*
X132910000Y-57880000D02*
X134240000Y-57880000D01*
X132910000Y-59210000D02*
X132910000Y-57880000D01*
X132910000Y-60480000D02*
X135570000Y-60480000D01*
X135570000Y-60480000D02*
X135570000Y-63080000D01*
X132910000Y-60480000D02*
X132910000Y-63080000D01*
X132910000Y-63080000D02*
X135570000Y-63080000D01*
G04 #@! TO.C,J7*
X84273186Y-76266814D02*
X83608186Y-75115000D01*
X85425000Y-75601814D02*
X84273186Y-76266814D01*
X86524852Y-74966814D02*
X85194852Y-72663186D01*
X85194852Y-72663186D02*
X87446518Y-71363186D01*
X86524852Y-74966814D02*
X88776518Y-73666814D01*
X88776518Y-73666814D02*
X87446518Y-71363186D01*
G04 #@! TO.C,J8*
X138675000Y-50260000D02*
X140005000Y-50260000D01*
X138675000Y-51590000D02*
X138675000Y-50260000D01*
X138675000Y-52860000D02*
X141335000Y-52860000D01*
X141335000Y-52860000D02*
X141335000Y-55460000D01*
X138675000Y-52860000D02*
X138675000Y-55460000D01*
X138675000Y-55460000D02*
X141335000Y-55460000D01*
G04 #@! TO.C,J9*
X133715000Y-109950000D02*
X133715000Y-111280000D01*
X132385000Y-109950000D02*
X133715000Y-109950000D01*
X131115000Y-109950000D02*
X131115000Y-112610000D01*
X131115000Y-112610000D02*
X128515000Y-112610000D01*
X131115000Y-109950000D02*
X128515000Y-109950000D01*
X128515000Y-109950000D02*
X128515000Y-112610000D01*
G04 #@! TO.C,J10*
X96765000Y-50260000D02*
X98095000Y-50260000D01*
X96765000Y-51590000D02*
X96765000Y-50260000D01*
X96765000Y-52860000D02*
X99425000Y-52860000D01*
X99425000Y-52860000D02*
X99425000Y-55460000D01*
X96765000Y-52860000D02*
X96765000Y-55460000D01*
X96765000Y-55460000D02*
X99425000Y-55460000D01*
G04 #@! TO.C,Switch_Power1*
X95068186Y-65353481D02*
X96220000Y-66018481D01*
X94403186Y-66505295D02*
X95068186Y-65353481D01*
X93768186Y-67605147D02*
X96071814Y-68935147D01*
X96071814Y-68935147D02*
X94771814Y-71186813D01*
X93768186Y-67605147D02*
X92468186Y-69856813D01*
X92468186Y-69856813D02*
X94771814Y-71186813D01*
D10*
G04 #@! TO.C,U4*
X91822000Y-73180000D02*
X109602000Y-73180000D01*
X109602000Y-73180000D02*
X109602000Y-90960000D01*
X109602000Y-90960000D02*
X91822000Y-90960000D01*
X91822000Y-90960000D02*
X91822000Y-73180000D01*
G04 #@! TO.C,U5*
X91822000Y-91595000D02*
X109602000Y-91595000D01*
X109602000Y-91595000D02*
X109602000Y-109375000D01*
X109602000Y-109375000D02*
X91822000Y-109375000D01*
X91822000Y-109375000D02*
X91822000Y-91595000D01*
G04 #@! TO.C,U6*
X146305000Y-109375000D02*
X128525000Y-109375000D01*
X128525000Y-109375000D02*
X128525000Y-91595000D01*
X128525000Y-91595000D02*
X146305000Y-91595000D01*
X146305000Y-91595000D02*
X146305000Y-109375000D01*
G04 #@! TO.C,U7*
X146305000Y-90960000D02*
X128525000Y-90960000D01*
X128525000Y-90960000D02*
X128525000Y-73180000D01*
X128525000Y-73180000D02*
X146305000Y-73180000D01*
X146305000Y-73180000D02*
X146305000Y-90960000D01*
G04 #@! TO.C,U1*
X100966000Y-30000000D02*
X118746000Y-30000000D01*
X100966000Y-50320000D02*
X100966000Y-30000000D01*
X118746000Y-50320000D02*
X100966000Y-50320000D01*
X118746000Y-30000000D02*
X118746000Y-50320000D01*
G04 #@! TO.C,U2*
X119254000Y-30000000D02*
X137034000Y-30000000D01*
X119254000Y-50320000D02*
X119254000Y-30000000D01*
X137034000Y-50320000D02*
X119254000Y-50320000D01*
X137034000Y-30000000D02*
X137034000Y-50320000D01*
D11*
G04 #@! TO.C,J1*
X108780000Y-70700000D02*
X108780000Y-69370000D01*
X110110000Y-70700000D02*
X108780000Y-70700000D01*
X108780000Y-68100000D02*
X108780000Y-65500000D01*
X111380000Y-68100000D02*
X108780000Y-68100000D01*
X111380000Y-70700000D02*
X111380000Y-68100000D01*
X108780000Y-65500000D02*
X129220000Y-65500000D01*
X111380000Y-70700000D02*
X129220000Y-70700000D01*
X129220000Y-70700000D02*
X129220000Y-65500000D01*
G04 #@! TO.C,R1*
X104877229Y-76001447D02*
X105110574Y-75768101D01*
X105110574Y-75768101D02*
X109735052Y-80392580D01*
X109735052Y-80392580D02*
X109501707Y-80625925D01*
X103406447Y-77472229D02*
X103173101Y-77705574D01*
X103173101Y-77705574D02*
X107797580Y-82330052D01*
X107797580Y-82330052D02*
X108030925Y-82096707D01*
G04 #@! TO.C,R2*
X103220000Y-73280000D02*
X103220000Y-72950000D01*
X96680000Y-73280000D02*
X103220000Y-73280000D01*
X96680000Y-72950000D02*
X96680000Y-73280000D01*
X103220000Y-70540000D02*
X103220000Y-70870000D01*
X96680000Y-70540000D02*
X103220000Y-70540000D01*
X96680000Y-70870000D02*
X96680000Y-70540000D01*
G04 #@! TO.C,R3*
X98910000Y-68830000D02*
X98580000Y-68830000D01*
X98580000Y-68830000D02*
X98580000Y-62290000D01*
X98580000Y-62290000D02*
X98910000Y-62290000D01*
X100990000Y-68830000D02*
X101320000Y-68830000D01*
X101320000Y-68830000D02*
X101320000Y-62290000D01*
X101320000Y-62290000D02*
X100990000Y-62290000D01*
G04 #@! TO.C,R4*
X85245000Y-88515000D02*
X85575000Y-88515000D01*
X85245000Y-81975000D02*
X85245000Y-88515000D01*
X85575000Y-81975000D02*
X85245000Y-81975000D01*
X87985000Y-88515000D02*
X87655000Y-88515000D01*
X87985000Y-81975000D02*
X87985000Y-88515000D01*
X87655000Y-81975000D02*
X87985000Y-81975000D01*
G04 #@! TO.C,R5*
X87655000Y-93405000D02*
X87985000Y-93405000D01*
X87985000Y-93405000D02*
X87985000Y-99945000D01*
X87985000Y-99945000D02*
X87655000Y-99945000D01*
X85575000Y-93405000D02*
X85245000Y-93405000D01*
X85245000Y-93405000D02*
X85245000Y-99945000D01*
X85245000Y-99945000D02*
X85575000Y-99945000D01*
G04 #@! TO.C,R6*
X137133553Y-78107229D02*
X137366899Y-78340574D01*
X137366899Y-78340574D02*
X132742420Y-82965052D01*
X132742420Y-82965052D02*
X132509075Y-82731707D01*
X135662771Y-76636447D02*
X135429426Y-76403101D01*
X135429426Y-76403101D02*
X130804948Y-81027580D01*
X130804948Y-81027580D02*
X131038293Y-81260925D01*
G04 #@! TO.C,R7*
X131224000Y-68254000D02*
X131224000Y-68584000D01*
X137764000Y-68254000D02*
X131224000Y-68254000D01*
X137764000Y-68584000D02*
X137764000Y-68254000D01*
X131224000Y-70994000D02*
X131224000Y-70664000D01*
X137764000Y-70994000D02*
X131224000Y-70994000D01*
X137764000Y-70664000D02*
X137764000Y-70994000D01*
G04 #@! TO.C,R8*
X136680000Y-66544000D02*
X137010000Y-66544000D01*
X136680000Y-60004000D02*
X136680000Y-66544000D01*
X137010000Y-60004000D02*
X136680000Y-60004000D01*
X139420000Y-66544000D02*
X139090000Y-66544000D01*
X139420000Y-60004000D02*
X139420000Y-66544000D01*
X139090000Y-60004000D02*
X139420000Y-60004000D01*
G04 #@! TO.C,R9*
X149380000Y-85340000D02*
X149710000Y-85340000D01*
X149380000Y-78800000D02*
X149380000Y-85340000D01*
X149710000Y-78800000D02*
X149380000Y-78800000D01*
X152120000Y-85340000D02*
X151790000Y-85340000D01*
X152120000Y-78800000D02*
X152120000Y-85340000D01*
X151790000Y-78800000D02*
X152120000Y-78800000D01*
G04 #@! TO.C,R10*
X151790000Y-91500000D02*
X152120000Y-91500000D01*
X152120000Y-91500000D02*
X152120000Y-98040000D01*
X152120000Y-98040000D02*
X151790000Y-98040000D01*
X149710000Y-91500000D02*
X149380000Y-91500000D01*
X149380000Y-91500000D02*
X149380000Y-98040000D01*
X149380000Y-98040000D02*
X149710000Y-98040000D01*
D10*
G04 #@! TO.C,SW1*
X122810000Y-103660000D02*
X115190000Y-103660000D01*
X115190000Y-103660000D02*
X115190000Y-110010000D01*
X115190000Y-110010000D02*
X117730000Y-110010000D01*
X117730000Y-110010000D02*
X117730000Y-116360000D01*
X117730000Y-116360000D02*
X120270000Y-116360000D01*
X120270000Y-116360000D02*
X120270000Y-110010000D01*
X120270000Y-110010000D02*
X122810000Y-110010000D01*
X122810000Y-110010000D02*
X122810000Y-103660000D01*
D11*
G04 #@! TO.C,Q2*
X89478097Y-63619346D02*
X94598097Y-54751245D01*
X93497321Y-65939846D02*
X98617321Y-57071745D01*
X89478097Y-63619346D02*
X93497321Y-65939846D01*
X94598097Y-54751245D02*
X98617321Y-57071745D01*
X90785795Y-64374346D02*
X95905795Y-55506245D01*
X91113097Y-60787442D02*
X92420795Y-61542442D01*
X92963597Y-57582282D02*
X94271295Y-58337282D01*
G04 #@! TO.C,Q4*
X144495000Y-57265000D02*
X144495000Y-67505000D01*
X139854000Y-57265000D02*
X139854000Y-67505000D01*
X144495000Y-57265000D02*
X139854000Y-57265000D01*
X144495000Y-67505000D02*
X139854000Y-67505000D01*
X142985000Y-57265000D02*
X142985000Y-67505000D01*
X144495000Y-60535000D02*
X142985000Y-60535000D01*
X144495000Y-64236000D02*
X142985000Y-64236000D01*
G04 #@! TO.C,U3*
D10*
X108292380Y-95785904D02*
X109101904Y-95785904D01*
X109197142Y-95738285D01*
X109244761Y-95690666D01*
X109292380Y-95595428D01*
X109292380Y-95404952D01*
X109244761Y-95309714D01*
X109197142Y-95262095D01*
X109101904Y-95214476D01*
X108292380Y-95214476D01*
X108292380Y-94833523D02*
X108292380Y-94214476D01*
X108673333Y-94547809D01*
X108673333Y-94404952D01*
X108720952Y-94309714D01*
X108768571Y-94262095D01*
X108863809Y-94214476D01*
X109101904Y-94214476D01*
X109197142Y-94262095D01*
X109244761Y-94309714D01*
X109292380Y-94404952D01*
X109292380Y-94690666D01*
X109244761Y-94785904D01*
X109197142Y-94833523D01*
G04 #@! TO.C,Q1*
X100747619Y-68195238D02*
X100700000Y-68290476D01*
X100604761Y-68385714D01*
X100461904Y-68528571D01*
X100414285Y-68623809D01*
X100414285Y-68719047D01*
X100652380Y-68671428D02*
X100604761Y-68766666D01*
X100509523Y-68861904D01*
X100319047Y-68909523D01*
X99985714Y-68909523D01*
X99795238Y-68861904D01*
X99700000Y-68766666D01*
X99652380Y-68671428D01*
X99652380Y-68480952D01*
X99700000Y-68385714D01*
X99795238Y-68290476D01*
X99985714Y-68242857D01*
X100319047Y-68242857D01*
X100509523Y-68290476D01*
X100604761Y-68385714D01*
X100652380Y-68480952D01*
X100652380Y-68671428D01*
X100652380Y-67290476D02*
X100652380Y-67861904D01*
X100652380Y-67576190D02*
X99652380Y-67576190D01*
X99795238Y-67671428D01*
X99890476Y-67766666D01*
X99938095Y-67861904D01*
G04 #@! TO.C,Q3*
X139482619Y-70735238D02*
X139435000Y-70830476D01*
X139339761Y-70925714D01*
X139196904Y-71068571D01*
X139149285Y-71163809D01*
X139149285Y-71259047D01*
X139387380Y-71211428D02*
X139339761Y-71306666D01*
X139244523Y-71401904D01*
X139054047Y-71449523D01*
X138720714Y-71449523D01*
X138530238Y-71401904D01*
X138435000Y-71306666D01*
X138387380Y-71211428D01*
X138387380Y-71020952D01*
X138435000Y-70925714D01*
X138530238Y-70830476D01*
X138720714Y-70782857D01*
X139054047Y-70782857D01*
X139244523Y-70830476D01*
X139339761Y-70925714D01*
X139387380Y-71020952D01*
X139387380Y-71211428D01*
X138387380Y-70449523D02*
X138387380Y-69830476D01*
X138768333Y-70163809D01*
X138768333Y-70020952D01*
X138815952Y-69925714D01*
X138863571Y-69878095D01*
X138958809Y-69830476D01*
X139196904Y-69830476D01*
X139292142Y-69878095D01*
X139339761Y-69925714D01*
X139387380Y-70020952D01*
X139387380Y-70306666D01*
X139339761Y-70401904D01*
X139292142Y-70449523D01*
G04 #@! TO.C,J3*
X111046666Y-55352380D02*
X111046666Y-56066666D01*
X110999047Y-56209523D01*
X110903809Y-56304761D01*
X110760952Y-56352380D01*
X110665714Y-56352380D01*
X111427619Y-55352380D02*
X112046666Y-55352380D01*
X111713333Y-55733333D01*
X111856190Y-55733333D01*
X111951428Y-55780952D01*
X111999047Y-55828571D01*
X112046666Y-55923809D01*
X112046666Y-56161904D01*
X111999047Y-56257142D01*
X111951428Y-56304761D01*
X111856190Y-56352380D01*
X111570476Y-56352380D01*
X111475238Y-56304761D01*
X111427619Y-56257142D01*
G04 #@! TO.C,J5*
X126286666Y-55352380D02*
X126286666Y-56066666D01*
X126239047Y-56209523D01*
X126143809Y-56304761D01*
X126000952Y-56352380D01*
X125905714Y-56352380D01*
X127239047Y-55352380D02*
X126762857Y-55352380D01*
X126715238Y-55828571D01*
X126762857Y-55780952D01*
X126858095Y-55733333D01*
X127096190Y-55733333D01*
X127191428Y-55780952D01*
X127239047Y-55828571D01*
X127286666Y-55923809D01*
X127286666Y-56161904D01*
X127239047Y-56257142D01*
X127191428Y-56304761D01*
X127096190Y-56352380D01*
X126858095Y-56352380D01*
X126762857Y-56304761D01*
X126715238Y-56257142D01*
G04 #@! TO.C,J2*
X103426666Y-58237380D02*
X103426666Y-58951666D01*
X103379047Y-59094523D01*
X103283809Y-59189761D01*
X103140952Y-59237380D01*
X103045714Y-59237380D01*
X103855238Y-58332619D02*
X103902857Y-58285000D01*
X103998095Y-58237380D01*
X104236190Y-58237380D01*
X104331428Y-58285000D01*
X104379047Y-58332619D01*
X104426666Y-58427857D01*
X104426666Y-58523095D01*
X104379047Y-58665952D01*
X103807619Y-59237380D01*
X104426666Y-59237380D01*
G04 #@! TO.C,J4*
X133906666Y-56332380D02*
X133906666Y-57046666D01*
X133859047Y-57189523D01*
X133763809Y-57284761D01*
X133620952Y-57332380D01*
X133525714Y-57332380D01*
X134811428Y-56665714D02*
X134811428Y-57332380D01*
X134573333Y-56284761D02*
X134335238Y-56999047D01*
X134954285Y-56999047D01*
G04 #@! TO.C,J7*
X83049746Y-75052515D02*
X82431156Y-75409658D01*
X82283629Y-75439847D01*
X82153531Y-75404987D01*
X82040863Y-75305079D01*
X81993244Y-75222600D01*
X83240222Y-75382429D02*
X83573555Y-75959780D01*
X82493244Y-76088626D01*
G04 #@! TO.C,J8*
X139671666Y-48712380D02*
X139671666Y-49426666D01*
X139624047Y-49569523D01*
X139528809Y-49664761D01*
X139385952Y-49712380D01*
X139290714Y-49712380D01*
X140290714Y-49140952D02*
X140195476Y-49093333D01*
X140147857Y-49045714D01*
X140100238Y-48950476D01*
X140100238Y-48902857D01*
X140147857Y-48807619D01*
X140195476Y-48760000D01*
X140290714Y-48712380D01*
X140481190Y-48712380D01*
X140576428Y-48760000D01*
X140624047Y-48807619D01*
X140671666Y-48902857D01*
X140671666Y-48950476D01*
X140624047Y-49045714D01*
X140576428Y-49093333D01*
X140481190Y-49140952D01*
X140290714Y-49140952D01*
X140195476Y-49188571D01*
X140147857Y-49236190D01*
X140100238Y-49331428D01*
X140100238Y-49521904D01*
X140147857Y-49617142D01*
X140195476Y-49664761D01*
X140290714Y-49712380D01*
X140481190Y-49712380D01*
X140576428Y-49664761D01*
X140624047Y-49617142D01*
X140671666Y-49521904D01*
X140671666Y-49331428D01*
X140624047Y-49236190D01*
X140576428Y-49188571D01*
X140481190Y-49140952D01*
G04 #@! TO.C,J9*
X134167380Y-111613333D02*
X134881666Y-111613333D01*
X135024523Y-111660952D01*
X135119761Y-111756190D01*
X135167380Y-111899047D01*
X135167380Y-111994285D01*
X135167380Y-111089523D02*
X135167380Y-110899047D01*
X135119761Y-110803809D01*
X135072142Y-110756190D01*
X134929285Y-110660952D01*
X134738809Y-110613333D01*
X134357857Y-110613333D01*
X134262619Y-110660952D01*
X134215000Y-110708571D01*
X134167380Y-110803809D01*
X134167380Y-110994285D01*
X134215000Y-111089523D01*
X134262619Y-111137142D01*
X134357857Y-111184761D01*
X134595952Y-111184761D01*
X134691190Y-111137142D01*
X134738809Y-111089523D01*
X134786428Y-110994285D01*
X134786428Y-110803809D01*
X134738809Y-110708571D01*
X134691190Y-110660952D01*
X134595952Y-110613333D01*
G04 #@! TO.C,J10*
X97285476Y-48712380D02*
X97285476Y-49426666D01*
X97237857Y-49569523D01*
X97142619Y-49664761D01*
X96999761Y-49712380D01*
X96904523Y-49712380D01*
X98285476Y-49712380D02*
X97714047Y-49712380D01*
X97999761Y-49712380D02*
X97999761Y-48712380D01*
X97904523Y-48855238D01*
X97809285Y-48950476D01*
X97714047Y-48998095D01*
X98904523Y-48712380D02*
X98999761Y-48712380D01*
X99095000Y-48760000D01*
X99142619Y-48807619D01*
X99190238Y-48902857D01*
X99237857Y-49093333D01*
X99237857Y-49331428D01*
X99190238Y-49521904D01*
X99142619Y-49617142D01*
X99095000Y-49664761D01*
X98999761Y-49712380D01*
X98904523Y-49712380D01*
X98809285Y-49664761D01*
X98761666Y-49617142D01*
X98714047Y-49521904D01*
X98666428Y-49331428D01*
X98666428Y-49093333D01*
X98714047Y-48902857D01*
X98761666Y-48807619D01*
X98809285Y-48760000D01*
X98904523Y-48712380D01*
G04 #@! TO.C,Switch_Power1*
X91940056Y-62860132D02*
X92039964Y-62972800D01*
X92246161Y-63091848D01*
X92352449Y-63098228D01*
X92417498Y-63080798D01*
X92506356Y-63022129D01*
X92553975Y-62939650D01*
X92560355Y-62833362D01*
X92542925Y-62768313D01*
X92484256Y-62679455D01*
X92343108Y-62542977D01*
X92284439Y-62454119D01*
X92267009Y-62389070D01*
X92273389Y-62282782D01*
X92321008Y-62200304D01*
X92409866Y-62141634D01*
X92474915Y-62124205D01*
X92581203Y-62130584D01*
X92787400Y-62249632D01*
X92887308Y-62362300D01*
X93033126Y-62776402D02*
X92864750Y-63448991D01*
X93267803Y-63131836D01*
X93194665Y-63639467D01*
X93692955Y-63157355D01*
X93689536Y-63925181D02*
X94022870Y-63347831D01*
X94189536Y-63059156D02*
X94124487Y-63076586D01*
X94141917Y-63141634D01*
X94206966Y-63124205D01*
X94189536Y-63059156D01*
X94141917Y-63141634D01*
X94311545Y-63514498D02*
X94641459Y-63704974D01*
X94601929Y-63297251D02*
X94173358Y-64039559D01*
X94166978Y-64145847D01*
X94225647Y-64234705D01*
X94308126Y-64282324D01*
X94991764Y-64622037D02*
X94885476Y-64615657D01*
X94720519Y-64520419D01*
X94661850Y-64431561D01*
X94644420Y-64366512D01*
X94650800Y-64260224D01*
X94793657Y-64012788D01*
X94882515Y-63954119D01*
X94947564Y-63936689D01*
X95053852Y-63943069D01*
X95218809Y-64038307D01*
X95277479Y-64127166D01*
X95339108Y-64877562D02*
X95839108Y-64011537D01*
X95710262Y-65091848D02*
X95972167Y-64638216D01*
X95978547Y-64531927D01*
X95919878Y-64443069D01*
X95796160Y-64371641D01*
X95689872Y-64365261D01*
X95624823Y-64382691D01*
X95868840Y-65293374D02*
X96528669Y-65674327D01*
X96782484Y-65710896D02*
X97282484Y-64844870D01*
X97612399Y-65035346D01*
X97671068Y-65124205D01*
X97688497Y-65189254D01*
X97682118Y-65295542D01*
X97610689Y-65419260D01*
X97521831Y-65477929D01*
X97456782Y-65495358D01*
X97350494Y-65488979D01*
X97020579Y-65298503D01*
X97772227Y-66282324D02*
X97713558Y-66193466D01*
X97696129Y-66128417D01*
X97702508Y-66022129D01*
X97845365Y-65774693D01*
X97934224Y-65716024D01*
X97999273Y-65698594D01*
X98105561Y-65704974D01*
X98229279Y-65776402D01*
X98287948Y-65865261D01*
X98305378Y-65930310D01*
X98298998Y-66036598D01*
X98156141Y-66284034D01*
X98067282Y-66342703D01*
X98002234Y-66360132D01*
X97895945Y-66353753D01*
X97772227Y-66282324D01*
X98682911Y-66038307D02*
X98514535Y-66710896D01*
X98917587Y-66393741D01*
X98844449Y-66901372D01*
X99342740Y-66419260D01*
X99693045Y-67336323D02*
X99586757Y-67329943D01*
X99421800Y-67234705D01*
X99363131Y-67145847D01*
X99369510Y-67039559D01*
X99559987Y-66709644D01*
X99648845Y-66650975D01*
X99755133Y-66657355D01*
X99920090Y-66752593D01*
X99978759Y-66841451D01*
X99972380Y-66947739D01*
X99924761Y-67030218D01*
X99464748Y-66874601D01*
X100081629Y-67615657D02*
X100414962Y-67038307D01*
X100319724Y-67203264D02*
X100408582Y-67144595D01*
X100473631Y-67127166D01*
X100579919Y-67133545D01*
X100662398Y-67181164D01*
X101071372Y-68187086D02*
X100576500Y-67901372D01*
X100823936Y-68044229D02*
X101323936Y-67178203D01*
X101170029Y-67254302D01*
X101039931Y-67289162D01*
X100933643Y-67282782D01*
G04 #@! TO.C,U4*
X99950095Y-81387380D02*
X99950095Y-82196904D01*
X99997714Y-82292142D01*
X100045333Y-82339761D01*
X100140571Y-82387380D01*
X100331047Y-82387380D01*
X100426285Y-82339761D01*
X100473904Y-82292142D01*
X100521523Y-82196904D01*
X100521523Y-81387380D01*
X101426285Y-81720714D02*
X101426285Y-82387380D01*
X101188190Y-81339761D02*
X100950095Y-82054047D01*
X101569142Y-82054047D01*
G04 #@! TO.C,U5*
X99950095Y-99802380D02*
X99950095Y-100611904D01*
X99997714Y-100707142D01*
X100045333Y-100754761D01*
X100140571Y-100802380D01*
X100331047Y-100802380D01*
X100426285Y-100754761D01*
X100473904Y-100707142D01*
X100521523Y-100611904D01*
X100521523Y-99802380D01*
X101473904Y-99802380D02*
X100997714Y-99802380D01*
X100950095Y-100278571D01*
X100997714Y-100230952D01*
X101092952Y-100183333D01*
X101331047Y-100183333D01*
X101426285Y-100230952D01*
X101473904Y-100278571D01*
X101521523Y-100373809D01*
X101521523Y-100611904D01*
X101473904Y-100707142D01*
X101426285Y-100754761D01*
X101331047Y-100802380D01*
X101092952Y-100802380D01*
X100997714Y-100754761D01*
X100950095Y-100707142D01*
G04 #@! TO.C,U6*
X136653095Y-100072380D02*
X136653095Y-100881904D01*
X136700714Y-100977142D01*
X136748333Y-101024761D01*
X136843571Y-101072380D01*
X137034047Y-101072380D01*
X137129285Y-101024761D01*
X137176904Y-100977142D01*
X137224523Y-100881904D01*
X137224523Y-100072380D01*
X138129285Y-100072380D02*
X137938809Y-100072380D01*
X137843571Y-100120000D01*
X137795952Y-100167619D01*
X137700714Y-100310476D01*
X137653095Y-100500952D01*
X137653095Y-100881904D01*
X137700714Y-100977142D01*
X137748333Y-101024761D01*
X137843571Y-101072380D01*
X138034047Y-101072380D01*
X138129285Y-101024761D01*
X138176904Y-100977142D01*
X138224523Y-100881904D01*
X138224523Y-100643809D01*
X138176904Y-100548571D01*
X138129285Y-100500952D01*
X138034047Y-100453333D01*
X137843571Y-100453333D01*
X137748333Y-100500952D01*
X137700714Y-100548571D01*
X137653095Y-100643809D01*
G04 #@! TO.C,U7*
X136653095Y-81657380D02*
X136653095Y-82466904D01*
X136700714Y-82562142D01*
X136748333Y-82609761D01*
X136843571Y-82657380D01*
X137034047Y-82657380D01*
X137129285Y-82609761D01*
X137176904Y-82562142D01*
X137224523Y-82466904D01*
X137224523Y-81657380D01*
X137605476Y-81657380D02*
X138272142Y-81657380D01*
X137843571Y-82657380D01*
G04 #@! TO.C,U1*
X108808380Y-40921904D02*
X109617904Y-40921904D01*
X109713142Y-40874285D01*
X109760761Y-40826666D01*
X109808380Y-40731428D01*
X109808380Y-40540952D01*
X109760761Y-40445714D01*
X109713142Y-40398095D01*
X109617904Y-40350476D01*
X108808380Y-40350476D01*
X109808380Y-39350476D02*
X109808380Y-39921904D01*
X109808380Y-39636190D02*
X108808380Y-39636190D01*
X108951238Y-39731428D01*
X109046476Y-39826666D01*
X109094095Y-39921904D01*
G04 #@! TO.C,U2*
X127096380Y-40921904D02*
X127905904Y-40921904D01*
X128001142Y-40874285D01*
X128048761Y-40826666D01*
X128096380Y-40731428D01*
X128096380Y-40540952D01*
X128048761Y-40445714D01*
X128001142Y-40398095D01*
X127905904Y-40350476D01*
X127096380Y-40350476D01*
X127191619Y-39921904D02*
X127144000Y-39874285D01*
X127096380Y-39779047D01*
X127096380Y-39540952D01*
X127144000Y-39445714D01*
X127191619Y-39398095D01*
X127286857Y-39350476D01*
X127382095Y-39350476D01*
X127524952Y-39398095D01*
X128096380Y-39969523D01*
X128096380Y-39350476D01*
G04 #@! TO.C,J1*
X107232380Y-68433333D02*
X107946666Y-68433333D01*
X108089523Y-68480952D01*
X108184761Y-68576190D01*
X108232380Y-68719047D01*
X108232380Y-68814285D01*
X108232380Y-67433333D02*
X108232380Y-68004761D01*
X108232380Y-67719047D02*
X107232380Y-67719047D01*
X107375238Y-67814285D01*
X107470476Y-67909523D01*
X107518095Y-68004761D01*
G04 #@! TO.C,R1*
X107692187Y-77575264D02*
X107793202Y-77002844D01*
X107288126Y-77171203D02*
X107995232Y-76464096D01*
X108264607Y-76733470D01*
X108298278Y-76834485D01*
X108298278Y-76901829D01*
X108264607Y-77002844D01*
X108163591Y-77103859D01*
X108062576Y-77137531D01*
X107995232Y-77137531D01*
X107894217Y-77103859D01*
X107624843Y-76834485D01*
X108365622Y-78248699D02*
X107961561Y-77844638D01*
X108163591Y-78046669D02*
X108870698Y-77339562D01*
X108702339Y-77373234D01*
X108567652Y-77373234D01*
X108466637Y-77339562D01*
G04 #@! TO.C,R2*
X99783333Y-69992380D02*
X99450000Y-69516190D01*
X99211904Y-69992380D02*
X99211904Y-68992380D01*
X99592857Y-68992380D01*
X99688095Y-69040000D01*
X99735714Y-69087619D01*
X99783333Y-69182857D01*
X99783333Y-69325714D01*
X99735714Y-69420952D01*
X99688095Y-69468571D01*
X99592857Y-69516190D01*
X99211904Y-69516190D01*
X100164285Y-69087619D02*
X100211904Y-69040000D01*
X100307142Y-68992380D01*
X100545238Y-68992380D01*
X100640476Y-69040000D01*
X100688095Y-69087619D01*
X100735714Y-69182857D01*
X100735714Y-69278095D01*
X100688095Y-69420952D01*
X100116666Y-69992380D01*
X100735714Y-69992380D01*
G04 #@! TO.C,R3*
X98032380Y-65726666D02*
X97556190Y-66060000D01*
X98032380Y-66298095D02*
X97032380Y-66298095D01*
X97032380Y-65917142D01*
X97080000Y-65821904D01*
X97127619Y-65774285D01*
X97222857Y-65726666D01*
X97365714Y-65726666D01*
X97460952Y-65774285D01*
X97508571Y-65821904D01*
X97556190Y-65917142D01*
X97556190Y-66298095D01*
X97032380Y-65393333D02*
X97032380Y-64774285D01*
X97413333Y-65107619D01*
X97413333Y-64964761D01*
X97460952Y-64869523D01*
X97508571Y-64821904D01*
X97603809Y-64774285D01*
X97841904Y-64774285D01*
X97937142Y-64821904D01*
X97984761Y-64869523D01*
X98032380Y-64964761D01*
X98032380Y-65250476D01*
X97984761Y-65345714D01*
X97937142Y-65393333D01*
G04 #@! TO.C,R4*
X89437380Y-85411666D02*
X88961190Y-85745000D01*
X89437380Y-85983095D02*
X88437380Y-85983095D01*
X88437380Y-85602142D01*
X88485000Y-85506904D01*
X88532619Y-85459285D01*
X88627857Y-85411666D01*
X88770714Y-85411666D01*
X88865952Y-85459285D01*
X88913571Y-85506904D01*
X88961190Y-85602142D01*
X88961190Y-85983095D01*
X88770714Y-84554523D02*
X89437380Y-84554523D01*
X88389761Y-84792619D02*
X89104047Y-85030714D01*
X89104047Y-84411666D01*
G04 #@! TO.C,R5*
X89437380Y-96841666D02*
X88961190Y-97175000D01*
X89437380Y-97413095D02*
X88437380Y-97413095D01*
X88437380Y-97032142D01*
X88485000Y-96936904D01*
X88532619Y-96889285D01*
X88627857Y-96841666D01*
X88770714Y-96841666D01*
X88865952Y-96889285D01*
X88913571Y-96936904D01*
X88961190Y-97032142D01*
X88961190Y-97413095D01*
X88437380Y-95936904D02*
X88437380Y-96413095D01*
X88913571Y-96460714D01*
X88865952Y-96413095D01*
X88818333Y-96317857D01*
X88818333Y-96079761D01*
X88865952Y-95984523D01*
X88913571Y-95936904D01*
X89008809Y-95889285D01*
X89246904Y-95889285D01*
X89342142Y-95936904D01*
X89389761Y-95984523D01*
X89437380Y-96079761D01*
X89437380Y-96317857D01*
X89389761Y-96413095D01*
X89342142Y-96460714D01*
G04 #@! TO.C,R6*
X135963796Y-81797652D02*
X135391376Y-81696637D01*
X135559735Y-82201713D02*
X134852628Y-81494607D01*
X135122002Y-81225232D01*
X135223017Y-81191561D01*
X135290361Y-81191561D01*
X135391376Y-81225232D01*
X135492391Y-81326248D01*
X135526063Y-81427263D01*
X135526063Y-81494607D01*
X135492391Y-81595622D01*
X135223017Y-81864996D01*
X135862781Y-80484454D02*
X135728094Y-80619141D01*
X135694422Y-80720156D01*
X135694422Y-80787500D01*
X135728094Y-80955858D01*
X135829109Y-81124217D01*
X136098483Y-81393591D01*
X136199498Y-81427263D01*
X136266842Y-81427263D01*
X136367857Y-81393591D01*
X136502544Y-81258904D01*
X136536216Y-81157889D01*
X136536216Y-81090545D01*
X136502544Y-80989530D01*
X136334185Y-80821171D01*
X136233170Y-80787500D01*
X136165827Y-80787500D01*
X136064811Y-80821171D01*
X135930124Y-80955858D01*
X135896453Y-81056874D01*
X135896453Y-81124217D01*
X135930124Y-81225232D01*
G04 #@! TO.C,R7*
X134327333Y-72446380D02*
X133994000Y-71970190D01*
X133755904Y-72446380D02*
X133755904Y-71446380D01*
X134136857Y-71446380D01*
X134232095Y-71494000D01*
X134279714Y-71541619D01*
X134327333Y-71636857D01*
X134327333Y-71779714D01*
X134279714Y-71874952D01*
X134232095Y-71922571D01*
X134136857Y-71970190D01*
X133755904Y-71970190D01*
X134660666Y-71446380D02*
X135327333Y-71446380D01*
X134898761Y-72446380D01*
G04 #@! TO.C,R8*
X140872380Y-63440666D02*
X140396190Y-63774000D01*
X140872380Y-64012095D02*
X139872380Y-64012095D01*
X139872380Y-63631142D01*
X139920000Y-63535904D01*
X139967619Y-63488285D01*
X140062857Y-63440666D01*
X140205714Y-63440666D01*
X140300952Y-63488285D01*
X140348571Y-63535904D01*
X140396190Y-63631142D01*
X140396190Y-64012095D01*
X140300952Y-62869238D02*
X140253333Y-62964476D01*
X140205714Y-63012095D01*
X140110476Y-63059714D01*
X140062857Y-63059714D01*
X139967619Y-63012095D01*
X139920000Y-62964476D01*
X139872380Y-62869238D01*
X139872380Y-62678761D01*
X139920000Y-62583523D01*
X139967619Y-62535904D01*
X140062857Y-62488285D01*
X140110476Y-62488285D01*
X140205714Y-62535904D01*
X140253333Y-62583523D01*
X140300952Y-62678761D01*
X140300952Y-62869238D01*
X140348571Y-62964476D01*
X140396190Y-63012095D01*
X140491428Y-63059714D01*
X140681904Y-63059714D01*
X140777142Y-63012095D01*
X140824761Y-62964476D01*
X140872380Y-62869238D01*
X140872380Y-62678761D01*
X140824761Y-62583523D01*
X140777142Y-62535904D01*
X140681904Y-62488285D01*
X140491428Y-62488285D01*
X140396190Y-62535904D01*
X140348571Y-62583523D01*
X140300952Y-62678761D01*
G04 #@! TO.C,R9*
X153572380Y-82236666D02*
X153096190Y-82570000D01*
X153572380Y-82808095D02*
X152572380Y-82808095D01*
X152572380Y-82427142D01*
X152620000Y-82331904D01*
X152667619Y-82284285D01*
X152762857Y-82236666D01*
X152905714Y-82236666D01*
X153000952Y-82284285D01*
X153048571Y-82331904D01*
X153096190Y-82427142D01*
X153096190Y-82808095D01*
X153572380Y-81760476D02*
X153572380Y-81570000D01*
X153524761Y-81474761D01*
X153477142Y-81427142D01*
X153334285Y-81331904D01*
X153143809Y-81284285D01*
X152762857Y-81284285D01*
X152667619Y-81331904D01*
X152620000Y-81379523D01*
X152572380Y-81474761D01*
X152572380Y-81665238D01*
X152620000Y-81760476D01*
X152667619Y-81808095D01*
X152762857Y-81855714D01*
X153000952Y-81855714D01*
X153096190Y-81808095D01*
X153143809Y-81760476D01*
X153191428Y-81665238D01*
X153191428Y-81474761D01*
X153143809Y-81379523D01*
X153096190Y-81331904D01*
X153000952Y-81284285D01*
G04 #@! TO.C,R10*
X153572380Y-95412857D02*
X153096190Y-95746190D01*
X153572380Y-95984285D02*
X152572380Y-95984285D01*
X152572380Y-95603333D01*
X152620000Y-95508095D01*
X152667619Y-95460476D01*
X152762857Y-95412857D01*
X152905714Y-95412857D01*
X153000952Y-95460476D01*
X153048571Y-95508095D01*
X153096190Y-95603333D01*
X153096190Y-95984285D01*
X153572380Y-94460476D02*
X153572380Y-95031904D01*
X153572380Y-94746190D02*
X152572380Y-94746190D01*
X152715238Y-94841428D01*
X152810476Y-94936666D01*
X152858095Y-95031904D01*
X152572380Y-93841428D02*
X152572380Y-93746190D01*
X152620000Y-93650952D01*
X152667619Y-93603333D01*
X152762857Y-93555714D01*
X152953333Y-93508095D01*
X153191428Y-93508095D01*
X153381904Y-93555714D01*
X153477142Y-93603333D01*
X153524761Y-93650952D01*
X153572380Y-93746190D01*
X153572380Y-93841428D01*
X153524761Y-93936666D01*
X153477142Y-93984285D01*
X153381904Y-94031904D01*
X153191428Y-94079523D01*
X152953333Y-94079523D01*
X152762857Y-94031904D01*
X152667619Y-93984285D01*
X152620000Y-93936666D01*
X152572380Y-93841428D01*
G04 #@! TO.C,SW1*
X117666666Y-111184761D02*
X117809523Y-111232380D01*
X118047619Y-111232380D01*
X118142857Y-111184761D01*
X118190476Y-111137142D01*
X118238095Y-111041904D01*
X118238095Y-110946666D01*
X118190476Y-110851428D01*
X118142857Y-110803809D01*
X118047619Y-110756190D01*
X117857142Y-110708571D01*
X117761904Y-110660952D01*
X117714285Y-110613333D01*
X117666666Y-110518095D01*
X117666666Y-110422857D01*
X117714285Y-110327619D01*
X117761904Y-110280000D01*
X117857142Y-110232380D01*
X118095238Y-110232380D01*
X118238095Y-110280000D01*
X118571428Y-110232380D02*
X118809523Y-111232380D01*
X119000000Y-110518095D01*
X119190476Y-111232380D01*
X119428571Y-110232380D01*
X120333333Y-111232380D02*
X119761904Y-111232380D01*
X120047619Y-111232380D02*
X120047619Y-110232380D01*
X119952380Y-110375238D01*
X119857142Y-110470476D01*
X119761904Y-110518095D01*
G04 #@! TO.C,Q2*
X91598704Y-59041583D02*
X91509846Y-59100252D01*
X91379748Y-59135111D01*
X91184602Y-59187401D01*
X91095744Y-59246070D01*
X91048125Y-59328548D01*
X91278131Y-59406357D02*
X91189272Y-59465026D01*
X91059175Y-59499885D01*
X90870408Y-59445886D01*
X90581733Y-59279220D01*
X90440585Y-59142742D01*
X90405725Y-59012645D01*
X90412105Y-58906357D01*
X90507343Y-58741399D01*
X90596202Y-58682730D01*
X90726299Y-58647871D01*
X90915066Y-58701870D01*
X91203741Y-58868536D01*
X91344889Y-59005014D01*
X91379748Y-59135111D01*
X91373369Y-59241399D01*
X91278131Y-59406357D01*
X90899346Y-58252907D02*
X90881916Y-58187859D01*
X90888296Y-58081571D01*
X91007343Y-57875374D01*
X91096202Y-57816705D01*
X91161250Y-57799275D01*
X91267539Y-57805655D01*
X91350017Y-57853274D01*
X91449926Y-57965942D01*
X91659083Y-58746528D01*
X91968607Y-58210417D01*
G04 #@! TO.C,Q4*
X146042619Y-62480238D02*
X145995000Y-62575476D01*
X145899761Y-62670714D01*
X145756904Y-62813571D01*
X145709285Y-62908809D01*
X145709285Y-63004047D01*
X145947380Y-62956428D02*
X145899761Y-63051666D01*
X145804523Y-63146904D01*
X145614047Y-63194523D01*
X145280714Y-63194523D01*
X145090238Y-63146904D01*
X144995000Y-63051666D01*
X144947380Y-62956428D01*
X144947380Y-62765952D01*
X144995000Y-62670714D01*
X145090238Y-62575476D01*
X145280714Y-62527857D01*
X145614047Y-62527857D01*
X145804523Y-62575476D01*
X145899761Y-62670714D01*
X145947380Y-62765952D01*
X145947380Y-62956428D01*
X145280714Y-61670714D02*
X145947380Y-61670714D01*
X144899761Y-61908809D02*
X145614047Y-62146904D01*
X145614047Y-61527857D01*
G04 #@! TD*
M02*
