G04 #@! TF.GenerationSoftware,KiCad,Pcbnew,5.0.2-bee76a0~70~ubuntu18.04.1*
G04 #@! TF.CreationDate,2019-01-29T21:20:29+01:00*
G04 #@! TF.ProjectId,Robot Propulsion layer 2 V2,526f626f-7420-4507-926f-70756c73696f,rev?*
G04 #@! TF.SameCoordinates,Original*
G04 #@! TF.FileFunction,Copper,L1,Top*
G04 #@! TF.FilePolarity,Positive*
%FSLAX46Y46*%
G04 Gerber Fmt 4.6, Leading zero omitted, Abs format (unit mm)*
G04 Created by KiCad (PCBNEW 5.0.2-bee76a0~70~ubuntu18.04.1) date mar. 29 janv. 2019 21:20:29 CET*
%MOMM*%
%LPD*%
G01*
G04 APERTURE LIST*
G04 #@! TA.AperFunction,ComponentPad*
%ADD10C,1.600000*%
G04 #@! TD*
G04 #@! TA.AperFunction,ComponentPad*
%ADD11R,1.600000X1.600000*%
G04 #@! TD*
G04 #@! TA.AperFunction,ComponentPad*
%ADD12R,1.500000X1.050000*%
G04 #@! TD*
G04 #@! TA.AperFunction,ComponentPad*
%ADD13O,1.500000X1.050000*%
G04 #@! TD*
G04 #@! TA.AperFunction,ComponentPad*
%ADD14C,1.524000*%
G04 #@! TD*
G04 #@! TA.AperFunction,ComponentPad*
%ADD15O,1.700000X1.700000*%
G04 #@! TD*
G04 #@! TA.AperFunction,ComponentPad*
%ADD16R,1.700000X1.700000*%
G04 #@! TD*
G04 #@! TA.AperFunction,ComponentPad*
%ADD17C,1.700000*%
G04 #@! TD*
G04 #@! TA.AperFunction,Conductor*
%ADD18C,1.700000*%
G04 #@! TD*
G04 #@! TA.AperFunction,Conductor*
%ADD19C,0.100000*%
G04 #@! TD*
G04 #@! TA.AperFunction,Conductor*
%ADD20C,1.600000*%
G04 #@! TD*
G04 #@! TA.AperFunction,ComponentPad*
%ADD21O,1.600000X1.600000*%
G04 #@! TD*
G04 #@! TA.AperFunction,ComponentPad*
%ADD22C,1.905000*%
G04 #@! TD*
G04 #@! TA.AperFunction,Conductor*
%ADD23C,1.905000*%
G04 #@! TD*
G04 #@! TA.AperFunction,ComponentPad*
%ADD24R,2.000000X1.905000*%
G04 #@! TD*
G04 #@! TA.AperFunction,ComponentPad*
%ADD25O,2.000000X1.905000*%
G04 #@! TD*
G04 #@! TA.AperFunction,ViaPad*
%ADD26C,1.000000*%
G04 #@! TD*
G04 #@! TA.AperFunction,ViaPad*
%ADD27C,1.600000*%
G04 #@! TD*
G04 #@! TA.AperFunction,Conductor*
%ADD28C,0.500000*%
G04 #@! TD*
G04 #@! TA.AperFunction,Conductor*
%ADD29C,2.000000*%
G04 #@! TD*
G04 APERTURE END LIST*
D10*
G04 #@! TO.P,U3,17*
G04 #@! TO.N,Net-(U3-Pad17)*
X119000000Y-78514000D03*
G04 #@! TO.P,U3,18*
G04 #@! TO.N,Net-(SW1-Pad1)*
X116460000Y-78514000D03*
G04 #@! TO.P,U3,16*
G04 #@! TO.N,+3V3*
X121540000Y-78514000D03*
G04 #@! TO.P,U3,14*
G04 #@! TO.N,/EN_BAT_6V*
X126620000Y-78514000D03*
G04 #@! TO.P,U3,22*
G04 #@! TO.N,/CUR_12V*
X111380000Y-83594000D03*
G04 #@! TO.P,U3,23*
G04 #@! TO.N,/ALERT_6V*
X111380000Y-86134000D03*
G04 #@! TO.P,U3,24*
G04 #@! TO.N,/CUR_6V*
X111380000Y-88674000D03*
G04 #@! TO.P,U3,25*
G04 #@! TO.N,/T_6V*
X111380000Y-91214000D03*
G04 #@! TO.P,U3,26*
G04 #@! TO.N,/T_12V*
X111380000Y-93754000D03*
G04 #@! TO.P,U3,27*
G04 #@! TO.N,Net-(U3-Pad27)*
X111380000Y-96294000D03*
G04 #@! TO.P,U3,28*
G04 #@! TO.N,Net-(U3-Pad28)*
X111380000Y-98834000D03*
G04 #@! TO.P,U3,30*
G04 #@! TO.N,/EN_5V*
X111380000Y-103914000D03*
G04 #@! TO.P,U3,33*
G04 #@! TO.N,Net-(U3-Pad33)*
X111380000Y-111534000D03*
G04 #@! TO.P,U3,13*
G04 #@! TO.N,/LED_1*
X126620000Y-81054000D03*
G04 #@! TO.P,U3,12*
G04 #@! TO.N,/STOP_BAT_POWER*
X126620000Y-83594000D03*
G04 #@! TO.P,U3,11*
G04 #@! TO.N,/LED_2*
X126620000Y-86134000D03*
G04 #@! TO.P,U3,10*
G04 #@! TO.N,/EN_BAT_12V*
X126620000Y-88674000D03*
G04 #@! TO.P,U3,9*
G04 #@! TO.N,/EN_3_3V*
X126620000Y-91214000D03*
G04 #@! TO.P,U3,7*
G04 #@! TO.N,/ALERT_12V*
X126620000Y-96294000D03*
G04 #@! TO.P,U3,6*
G04 #@! TO.N,/EN_9V*
X126620000Y-98834000D03*
G04 #@! TO.P,U3,4*
G04 #@! TO.N,/EN_6V*
X126620000Y-103914000D03*
G04 #@! TO.P,U3,3*
G04 #@! TO.N,/TX*
X126620000Y-106454000D03*
G04 #@! TO.P,U3,2*
G04 #@! TO.N,/RX*
X126620000Y-108994000D03*
D11*
G04 #@! TO.P,U3,1*
G04 #@! TO.N,GND*
X126620000Y-111534000D03*
G04 #@! TD*
D12*
G04 #@! TO.P,Q1,1*
G04 #@! TO.N,GND*
X103760000Y-69370000D03*
D13*
G04 #@! TO.P,Q1,3*
G04 #@! TO.N,Net-(Q1-Pad3)*
X103760000Y-66830000D03*
G04 #@! TO.P,Q1,2*
G04 #@! TO.N,Net-(Q1-Pad2)*
X103760000Y-68100000D03*
G04 #@! TD*
D12*
G04 #@! TO.P,Q3,1*
G04 #@! TO.N,GND*
X142495000Y-71910000D03*
D13*
G04 #@! TO.P,Q3,3*
G04 #@! TO.N,Net-(Q3-Pad3)*
X142495000Y-69370000D03*
G04 #@! TO.P,Q3,2*
G04 #@! TO.N,Net-(Q3-Pad2)*
X142495000Y-70640000D03*
G04 #@! TD*
D14*
G04 #@! TO.P,J3,3*
G04 #@! TO.N,GND*
X115340000Y-59210000D03*
G04 #@! TO.P,J3,2*
G04 #@! TO.N,+6V*
X111380000Y-59210000D03*
G04 #@! TO.P,J3,1*
G04 #@! TO.N,Net-(J3-Pad1)*
X107420000Y-59210000D03*
G04 #@! TD*
G04 #@! TO.P,J5,3*
G04 #@! TO.N,GND*
X130580000Y-59210000D03*
G04 #@! TO.P,J5,2*
G04 #@! TO.N,+12V*
X126620000Y-59210000D03*
G04 #@! TO.P,J5,1*
G04 #@! TO.N,Net-(J5-Pad1)*
X122660000Y-59210000D03*
G04 #@! TD*
D15*
G04 #@! TO.P,J2,2*
G04 #@! TO.N,Net-(J2-Pad2)*
X103760000Y-63655000D03*
D16*
G04 #@! TO.P,J2,1*
G04 #@! TO.N,GND*
X103760000Y-61115000D03*
G04 #@! TD*
D15*
G04 #@! TO.P,J4,2*
G04 #@! TO.N,Net-(J4-Pad2)*
X134240000Y-61750000D03*
D16*
G04 #@! TO.P,J4,1*
G04 #@! TO.N,GND*
X134240000Y-59210000D03*
G04 #@! TD*
D17*
G04 #@! TO.P,J7,2*
G04 #@! TO.N,+12V*
X86959705Y-73180000D03*
D18*
G04 #@! TD*
G04 #@! TO.N,+12V*
G04 #@! TO.C,J7*
X86959705Y-73180000D02*
X86959705Y-73180000D01*
D17*
G04 #@! TO.P,J7,1*
G04 #@! TO.N,GND*
X84760000Y-74450000D03*
D19*
G04 #@! TD*
G04 #@! TO.N,GND*
G04 #@! TO.C,J7*
G36*
X85921122Y-74761122D02*
X84448878Y-75611122D01*
X83598878Y-74138878D01*
X85071122Y-73288878D01*
X85921122Y-74761122D01*
X85921122Y-74761122D01*
G37*
D15*
G04 #@! TO.P,J8,2*
G04 #@! TO.N,+12V*
X140005000Y-54130000D03*
D16*
G04 #@! TO.P,J8,1*
G04 #@! TO.N,GND*
X140005000Y-51590000D03*
G04 #@! TD*
D15*
G04 #@! TO.P,J9,2*
G04 #@! TO.N,+12V*
X129845000Y-111280000D03*
D16*
G04 #@! TO.P,J9,1*
G04 #@! TO.N,GND*
X132385000Y-111280000D03*
G04 #@! TD*
D15*
G04 #@! TO.P,J10,2*
G04 #@! TO.N,+6V*
X98095000Y-54130000D03*
D16*
G04 #@! TO.P,J10,1*
G04 #@! TO.N,GND*
X98095000Y-51590000D03*
G04 #@! TD*
D17*
G04 #@! TO.P,Switch_Power1,2*
G04 #@! TO.N,Net-(J1-Pad6)*
X94285000Y-69370000D03*
D18*
G04 #@! TD*
G04 #@! TO.N,Net-(J1-Pad6)*
G04 #@! TO.C,Switch_Power1*
X94285000Y-69370000D02*
X94285000Y-69370000D01*
D17*
G04 #@! TO.P,Switch_Power1,1*
G04 #@! TO.N,GND*
X95555000Y-67170295D03*
D19*
G04 #@! TD*
G04 #@! TO.N,GND*
G04 #@! TO.C,Switch_Power1*
G36*
X94393878Y-67481417D02*
X95243878Y-66009173D01*
X96716122Y-66859173D01*
X95866122Y-68331417D01*
X94393878Y-67481417D01*
X94393878Y-67481417D01*
G37*
D14*
G04 #@! TO.P,U4,1*
G04 #@! TO.N,Net-(U4-Pad1)*
X93092000Y-89690000D03*
G04 #@! TO.P,U4,2*
G04 #@! TO.N,/EN_3_3V*
X93092000Y-87150000D03*
G04 #@! TO.P,U4,3*
G04 #@! TO.N,+6V*
X93092000Y-84610000D03*
G04 #@! TO.P,U4,4*
G04 #@! TO.N,GND*
X93092000Y-82070000D03*
G04 #@! TO.P,U4,5*
G04 #@! TO.N,/3_3V*
X93092000Y-79530000D03*
G04 #@! TO.P,U4,6*
G04 #@! TO.N,GND*
X103887000Y-89690000D03*
G04 #@! TD*
G04 #@! TO.P,U5,1*
G04 #@! TO.N,Net-(U5-Pad1)*
X93092000Y-108105000D03*
G04 #@! TO.P,U5,2*
G04 #@! TO.N,/EN_5V*
X93092000Y-105565000D03*
G04 #@! TO.P,U5,3*
G04 #@! TO.N,+6V*
X93092000Y-103025000D03*
G04 #@! TO.P,U5,4*
G04 #@! TO.N,GND*
X93092000Y-100485000D03*
G04 #@! TO.P,U5,5*
G04 #@! TO.N,/5V*
X93092000Y-97945000D03*
G04 #@! TO.P,U5,6*
G04 #@! TO.N,GND*
X103887000Y-108105000D03*
G04 #@! TD*
G04 #@! TO.P,U6,1*
G04 #@! TO.N,Net-(U6-Pad1)*
X145035000Y-92865000D03*
G04 #@! TO.P,U6,2*
G04 #@! TO.N,/EN_6V*
X145035000Y-95405000D03*
G04 #@! TO.P,U6,3*
G04 #@! TO.N,+12V*
X145035000Y-97945000D03*
G04 #@! TO.P,U6,4*
G04 #@! TO.N,GND*
X145035000Y-100485000D03*
G04 #@! TO.P,U6,5*
G04 #@! TO.N,/6V*
X145035000Y-103025000D03*
G04 #@! TO.P,U6,6*
G04 #@! TO.N,GND*
X134240000Y-92865000D03*
G04 #@! TD*
G04 #@! TO.P,U7,1*
G04 #@! TO.N,Net-(U7-Pad1)*
X145035000Y-74450000D03*
G04 #@! TO.P,U7,2*
G04 #@! TO.N,/EN_9V*
X145035000Y-76990000D03*
G04 #@! TO.P,U7,3*
G04 #@! TO.N,+12V*
X145035000Y-79530000D03*
G04 #@! TO.P,U7,4*
G04 #@! TO.N,GND*
X145035000Y-82070000D03*
G04 #@! TO.P,U7,5*
G04 #@! TO.N,/9V*
X145035000Y-84610000D03*
G04 #@! TO.P,U7,6*
G04 #@! TO.N,GND*
X134240000Y-74450000D03*
G04 #@! TD*
G04 #@! TO.P,U1,5*
G04 #@! TO.N,GND*
X104776000Y-49050000D03*
G04 #@! TO.P,U1,4*
X107316000Y-49050000D03*
G04 #@! TO.P,U1,3*
G04 #@! TO.N,+3V3*
X109856000Y-49050000D03*
G04 #@! TO.P,U1,2*
G04 #@! TO.N,/CUR_6V*
X112396000Y-49050000D03*
G04 #@! TO.P,U1,1*
G04 #@! TO.N,/ALERT_6V*
X114936000Y-49050000D03*
G04 #@! TD*
G04 #@! TO.P,U2,5*
G04 #@! TO.N,GND*
X123064000Y-49050000D03*
G04 #@! TO.P,U2,4*
X125604000Y-49050000D03*
G04 #@! TO.P,U2,3*
G04 #@! TO.N,+3V3*
X128144000Y-49050000D03*
G04 #@! TO.P,U2,2*
G04 #@! TO.N,/CUR_12V*
X130684000Y-49050000D03*
G04 #@! TO.P,U2,1*
G04 #@! TO.N,/ALERT_12V*
X133224000Y-49050000D03*
G04 #@! TD*
D15*
G04 #@! TO.P,J1,16*
G04 #@! TO.N,GND*
X127890000Y-66830000D03*
G04 #@! TO.P,J1,15*
G04 #@! TO.N,/9V*
X127890000Y-69370000D03*
G04 #@! TO.P,J1,14*
G04 #@! TO.N,GND*
X125350000Y-66830000D03*
G04 #@! TO.P,J1,13*
G04 #@! TO.N,/6V*
X125350000Y-69370000D03*
G04 #@! TO.P,J1,12*
G04 #@! TO.N,GND*
X122810000Y-66830000D03*
G04 #@! TO.P,J1,11*
G04 #@! TO.N,/5V*
X122810000Y-69370000D03*
G04 #@! TO.P,J1,10*
G04 #@! TO.N,GND*
X120270000Y-66830000D03*
G04 #@! TO.P,J1,9*
G04 #@! TO.N,/3_3V*
X120270000Y-69370000D03*
G04 #@! TO.P,J1,8*
G04 #@! TO.N,/USB_V+*
X117730000Y-66830000D03*
G04 #@! TO.P,J1,7*
G04 #@! TO.N,/USB_V-*
X117730000Y-69370000D03*
G04 #@! TO.P,J1,6*
G04 #@! TO.N,Net-(J1-Pad6)*
X115190000Y-66830000D03*
G04 #@! TO.P,J1,5*
G04 #@! TO.N,/STOP_BAT_POWER*
X115190000Y-69370000D03*
G04 #@! TO.P,J1,4*
G04 #@! TO.N,/LED_1*
X112650000Y-66830000D03*
G04 #@! TO.P,J1,3*
G04 #@! TO.N,/LED_2*
X112650000Y-69370000D03*
G04 #@! TO.P,J1,2*
G04 #@! TO.N,/TX*
X110110000Y-66830000D03*
D16*
G04 #@! TO.P,J1,1*
G04 #@! TO.N,/RX*
X110110000Y-69370000D03*
G04 #@! TD*
D10*
G04 #@! TO.P,R1,1*
G04 #@! TO.N,Net-(Q1-Pad2)*
X103760000Y-76355000D03*
G04 #@! TO.P,R1,2*
G04 #@! TO.N,/EN_BAT_6V*
X109148154Y-81743154D03*
D20*
G04 #@! TD*
G04 #@! TO.N,/EN_BAT_6V*
G04 #@! TO.C,R1*
X109148154Y-81743154D02*
X109148154Y-81743154D01*
D21*
G04 #@! TO.P,R2,2*
G04 #@! TO.N,GND*
X103760000Y-71910000D03*
D10*
G04 #@! TO.P,R2,1*
G04 #@! TO.N,Net-(Q1-Pad2)*
X96140000Y-71910000D03*
G04 #@! TD*
G04 #@! TO.P,R3,1*
G04 #@! TO.N,Net-(J2-Pad2)*
X99950000Y-69370000D03*
D21*
G04 #@! TO.P,R3,2*
G04 #@! TO.N,Net-(Q1-Pad3)*
X99950000Y-61750000D03*
G04 #@! TD*
G04 #@! TO.P,R4,2*
G04 #@! TO.N,/T_6V*
X86615000Y-89055000D03*
D10*
G04 #@! TO.P,R4,1*
G04 #@! TO.N,+6V*
X86615000Y-81435000D03*
G04 #@! TD*
G04 #@! TO.P,R5,1*
G04 #@! TO.N,/T_6V*
X86615000Y-92865000D03*
D21*
G04 #@! TO.P,R5,2*
G04 #@! TO.N,GND*
X86615000Y-100485000D03*
G04 #@! TD*
D10*
G04 #@! TO.P,R6,1*
G04 #@! TO.N,Net-(Q3-Pad2)*
X136780000Y-76990000D03*
G04 #@! TO.P,R6,2*
G04 #@! TO.N,/EN_BAT_12V*
X131391846Y-82378154D03*
D20*
G04 #@! TD*
G04 #@! TO.N,/EN_BAT_12V*
G04 #@! TO.C,R6*
X131391846Y-82378154D02*
X131391846Y-82378154D01*
D21*
G04 #@! TO.P,R7,2*
G04 #@! TO.N,GND*
X130684000Y-69624000D03*
D10*
G04 #@! TO.P,R7,1*
G04 #@! TO.N,Net-(Q3-Pad2)*
X138304000Y-69624000D03*
G04 #@! TD*
D21*
G04 #@! TO.P,R8,2*
G04 #@! TO.N,Net-(Q3-Pad3)*
X138050000Y-67084000D03*
D10*
G04 #@! TO.P,R8,1*
G04 #@! TO.N,Net-(J4-Pad2)*
X138050000Y-59464000D03*
G04 #@! TD*
D21*
G04 #@! TO.P,R9,2*
G04 #@! TO.N,/T_12V*
X150750000Y-85880000D03*
D10*
G04 #@! TO.P,R9,1*
G04 #@! TO.N,+12V*
X150750000Y-78260000D03*
G04 #@! TD*
G04 #@! TO.P,R10,1*
G04 #@! TO.N,/T_12V*
X150750000Y-90960000D03*
D21*
G04 #@! TO.P,R10,2*
G04 #@! TO.N,GND*
X150750000Y-98580000D03*
G04 #@! TD*
D14*
G04 #@! TO.P,SW1,1*
G04 #@! TO.N,Net-(SW1-Pad1)*
X121540000Y-107470000D03*
G04 #@! TO.P,SW1,2*
G04 #@! TO.N,GND*
X116460000Y-107470000D03*
G04 #@! TO.P,SW1,3*
G04 #@! TO.N,N/C*
X122810000Y-104930000D03*
G04 #@! TO.P,SW1,4*
X115190000Y-104930000D03*
G04 #@! TD*
D22*
G04 #@! TO.P,Q2,1*
G04 #@! TO.N,Net-(J2-Pad2)*
X93600000Y-63020000D03*
D19*
G04 #@! TD*
G04 #@! TO.N,Net-(J2-Pad2)*
G04 #@! TO.C,Q2*
G36*
X93989775Y-64344889D02*
X92257725Y-63344889D01*
X93210225Y-61695111D01*
X94942275Y-62695111D01*
X93989775Y-64344889D01*
X93989775Y-64344889D01*
G37*
D22*
G04 #@! TO.P,Q2,2*
G04 #@! TO.N,Net-(Q1-Pad3)*
X94870000Y-60820295D03*
D23*
G04 #@! TD*
G04 #@! TO.N,Net-(Q1-Pad3)*
G04 #@! TO.C,Q2*
X94828864Y-60796545D02*
X94911136Y-60844045D01*
D22*
G04 #@! TO.P,Q2,3*
G04 #@! TO.N,Net-(J3-Pad1)*
X96140000Y-58620591D03*
D23*
G04 #@! TD*
G04 #@! TO.N,Net-(J3-Pad1)*
G04 #@! TO.C,Q2*
X96098864Y-58596841D02*
X96181136Y-58644341D01*
D24*
G04 #@! TO.P,Q4,1*
G04 #@! TO.N,Net-(J4-Pad2)*
X141225000Y-59845000D03*
D25*
G04 #@! TO.P,Q4,2*
G04 #@! TO.N,Net-(Q3-Pad3)*
X141225000Y-62385000D03*
G04 #@! TO.P,Q4,3*
G04 #@! TO.N,Net-(J5-Pad1)*
X141225000Y-64925000D03*
G04 #@! TD*
D26*
G04 #@! TO.N,GND*
X91060000Y-100485000D03*
G04 #@! TO.N,/EN_3_3V*
X113920000Y-91214000D03*
D27*
G04 #@! TO.N,/5V*
X98045000Y-97945000D03*
G04 #@! TO.N,/6V*
X145035000Y-105565000D03*
G04 #@! TO.N,/9V*
X145035000Y-86515000D03*
D26*
G04 #@! TO.N,/CUR_12V*
X118365000Y-53495000D03*
G04 #@! TO.N,/RX*
X108840000Y-71275000D03*
G04 #@! TO.N,/LED_2*
X112650000Y-71275000D03*
G04 #@! TO.N,/STOP_BAT_POWER*
X115190000Y-71275000D03*
G04 #@! TO.N,/TX*
X110872000Y-71275000D03*
G04 #@! TD*
D28*
G04 #@! TO.N,Net-(Q1-Pad2)*
X96939999Y-72709999D02*
X96140000Y-71910000D01*
X99785001Y-75555001D02*
X96939999Y-72709999D01*
X102960001Y-75555001D02*
X99785001Y-75555001D01*
X103760000Y-76355000D02*
X102960001Y-75555001D01*
G04 #@! TO.N,Net-(Q1-Pad3)*
X99950000Y-62881370D02*
X99950000Y-61750000D01*
X102510000Y-66830000D02*
X99950000Y-64270000D01*
X99950000Y-64270000D02*
X99950000Y-62881370D01*
X103760000Y-66830000D02*
X102510000Y-66830000D01*
D29*
G04 #@! TO.N,GND*
X100945000Y-51590000D02*
X98095000Y-51590000D01*
X103760000Y-54405000D02*
X100945000Y-51590000D01*
X137155000Y-51590000D02*
X140005000Y-51590000D01*
X103887000Y-84102000D02*
X103887000Y-89563000D01*
X153290000Y-84610000D02*
X153290000Y-94770000D01*
D28*
X125604000Y-49050000D02*
X123064000Y-49050000D01*
X104776000Y-49050000D02*
X107316000Y-49050000D01*
D29*
X90425000Y-76990000D02*
X93600000Y-73815000D01*
X86218505Y-76990000D02*
X90425000Y-76990000D01*
X84760000Y-75531495D02*
X86218505Y-76990000D01*
X84760000Y-74450000D02*
X84760000Y-75531495D01*
X133655000Y-110010000D02*
X132385000Y-111280000D01*
X148210000Y-110010000D02*
X133655000Y-110010000D01*
X153290000Y-104930000D02*
X148210000Y-110010000D01*
X152655000Y-100485000D02*
X153290000Y-99850000D01*
X153290000Y-94770000D02*
X153290000Y-99850000D01*
X153290000Y-99850000D02*
X153290000Y-104930000D01*
X145035000Y-82070000D02*
X153290000Y-82070000D01*
X153290000Y-82070000D02*
X153290000Y-84610000D01*
X145035000Y-100485000D02*
X149480000Y-100485000D01*
D28*
X141860000Y-100485000D02*
X145035000Y-100485000D01*
X134240000Y-92865000D02*
X141860000Y-100485000D01*
X150750000Y-98580000D02*
X150750000Y-100485000D01*
D29*
X149480000Y-100485000D02*
X150750000Y-100485000D01*
X150750000Y-100485000D02*
X152655000Y-100485000D01*
D28*
X126620000Y-111534000D02*
X126620000Y-111280000D01*
X126620000Y-111280000D02*
X129160000Y-108740000D01*
X132385000Y-108740000D02*
X133655000Y-110010000D01*
X129160000Y-108740000D02*
X132385000Y-108740000D01*
X116460000Y-108740000D02*
X116460000Y-107470000D01*
X126620000Y-111534000D02*
X119254000Y-111534000D01*
X119254000Y-111534000D02*
X116460000Y-108740000D01*
X93092000Y-100485000D02*
X103887000Y-100485000D01*
D29*
X103887000Y-89563000D02*
X103887000Y-100485000D01*
X103887000Y-100485000D02*
X103887000Y-107851000D01*
D28*
X93092000Y-100485000D02*
X91060000Y-100485000D01*
X91060000Y-100485000D02*
X91060000Y-100485000D01*
X96775000Y-82070000D02*
X99315000Y-79530000D01*
X93092000Y-82070000D02*
X96775000Y-82070000D01*
D29*
X93600000Y-73815000D02*
X99315000Y-79530000D01*
X99315000Y-79530000D02*
X103887000Y-84102000D01*
D28*
X142495000Y-72935000D02*
X142495000Y-71910000D01*
X140980000Y-74450000D02*
X142495000Y-72935000D01*
X134240000Y-74450000D02*
X140980000Y-74450000D01*
D29*
X98095000Y-51590000D02*
X96775000Y-51590000D01*
X90552000Y-71681400D02*
X93600000Y-73815000D01*
X96775000Y-51590000D02*
X90598790Y-62258000D01*
D28*
X90867640Y-67170295D02*
X95555000Y-67170295D01*
X90572935Y-67465000D02*
X90867640Y-67170295D01*
D29*
X90572935Y-67465000D02*
X90552000Y-71681400D01*
X90598790Y-62258000D02*
X90572935Y-67465000D01*
D28*
X96247953Y-67863248D02*
X96247953Y-68842953D01*
X95555000Y-67170295D02*
X96247953Y-67863248D01*
X99315000Y-71910000D02*
X103760000Y-71910000D01*
X96247953Y-68842953D02*
X99315000Y-71910000D01*
D29*
X103760000Y-54405000D02*
X103760000Y-61115000D01*
X153290000Y-72646600D02*
X153290000Y-82070000D01*
X153061400Y-72418000D02*
X153290000Y-72646600D01*
X98095000Y-50905000D02*
X98095000Y-51590000D01*
X104268000Y-44732000D02*
X98095000Y-50905000D01*
X137155000Y-51590000D02*
X137155000Y-48155000D01*
X137155000Y-48155000D02*
X133732000Y-44732000D01*
D28*
X107316000Y-49050000D02*
X107316000Y-47972370D01*
X107316000Y-47972370D02*
X107316000Y-44732000D01*
D29*
X107316000Y-44732000D02*
X104268000Y-44732000D01*
X133732000Y-44732000D02*
X123064000Y-44732000D01*
D28*
X123064000Y-49050000D02*
X123064000Y-44732000D01*
D29*
X123064000Y-44732000D02*
X107316000Y-44732000D01*
X143878228Y-57035887D02*
X143878227Y-57035887D01*
X134240000Y-59210000D02*
X134240000Y-56924000D01*
X134240000Y-56924000D02*
X134240000Y-54505000D01*
X143813547Y-56924000D02*
X143878228Y-57035887D01*
X143878227Y-57035887D02*
X153061400Y-72418000D01*
X135764000Y-56924000D02*
X135764000Y-52981000D01*
X135764000Y-52981000D02*
X137155000Y-51590000D01*
X134240000Y-54505000D02*
X135764000Y-52981000D01*
X134240000Y-56924000D02*
X135764000Y-56924000D01*
X136780000Y-51965000D02*
X137155000Y-51590000D01*
X135764000Y-56924000D02*
X136780000Y-56924000D01*
X138050000Y-51590000D02*
X136780000Y-52860000D01*
X138812000Y-51590000D02*
X138050000Y-51590000D01*
X136780000Y-52860000D02*
X136780000Y-51965000D01*
D28*
X138812000Y-51590000D02*
X140005000Y-51590000D01*
D29*
X137796000Y-56924000D02*
X143813547Y-56924000D01*
X136780000Y-55908000D02*
X137796000Y-56924000D01*
X136780000Y-56924000D02*
X137796000Y-56924000D01*
X136780000Y-55400000D02*
X136780000Y-55908000D01*
X136780000Y-55400000D02*
X136780000Y-52860000D01*
X136780000Y-56924000D02*
X136780000Y-55400000D01*
X134494000Y-59210000D02*
X136780000Y-56924000D01*
X134240000Y-59210000D02*
X134494000Y-59210000D01*
D28*
G04 #@! TO.N,+3V3*
X109856000Y-49050000D02*
X111126000Y-47780000D01*
X111126000Y-47780000D02*
X118365000Y-47780000D01*
X118365000Y-47780000D02*
X122175000Y-51590000D01*
X125604000Y-51590000D02*
X128144000Y-49050000D01*
X128525000Y-80800000D02*
X129795000Y-79530000D01*
X128525000Y-92230000D02*
X128525000Y-80800000D01*
X127255000Y-93500000D02*
X128525000Y-92230000D01*
X125985000Y-93500000D02*
X127255000Y-93500000D01*
X121540000Y-78514000D02*
X121540000Y-84610000D01*
X121540000Y-84610000D02*
X124080000Y-87150000D01*
X124080000Y-91595000D02*
X125985000Y-93500000D01*
X124080000Y-87150000D02*
X124080000Y-91595000D01*
X125604000Y-51590000D02*
X124842000Y-51590000D01*
X122175000Y-51590000D02*
X124588000Y-51590000D01*
X124588000Y-51590000D02*
X125604000Y-51590000D01*
X129795000Y-79530000D02*
X129795000Y-75085000D01*
X129795000Y-75085000D02*
X134240000Y-70640000D01*
X134240000Y-68100000D02*
X134240000Y-69116000D01*
X134240000Y-69116000D02*
X134240000Y-68608000D01*
X134240000Y-70640000D02*
X134240000Y-69116000D01*
X124588000Y-51590000D02*
X124588000Y-60988000D01*
X125985000Y-62385000D02*
X128525000Y-62385000D01*
X128525000Y-62385000D02*
X134240000Y-68100000D01*
X124588000Y-60988000D02*
X125985000Y-62385000D01*
D29*
G04 #@! TO.N,+6V*
X89790000Y-103025000D02*
X93092000Y-103025000D01*
X89155000Y-102390000D02*
X89790000Y-103025000D01*
X89663000Y-84483000D02*
X94169630Y-84483000D01*
X86615000Y-81435000D02*
X89663000Y-84483000D01*
X94169630Y-84483000D02*
X95505000Y-85818370D01*
X95505000Y-85818370D02*
X95505000Y-90960000D01*
X95505000Y-90960000D02*
X89155000Y-97310000D01*
X89155000Y-97310000D02*
X89155000Y-102390000D01*
G04 #@! TO.N,+12V*
X148210000Y-79530000D02*
X149480000Y-78260000D01*
X145035000Y-79530000D02*
X148210000Y-79530000D01*
X143765000Y-79530000D02*
X145035000Y-79530000D01*
X141860000Y-81435000D02*
X143765000Y-79530000D01*
X141860000Y-88420000D02*
X141860000Y-81435000D01*
X146305000Y-97945000D02*
X148210000Y-96040000D01*
X145035000Y-97945000D02*
X146305000Y-97945000D01*
X148210000Y-96040000D02*
X148210000Y-90960000D01*
X148210000Y-90960000D02*
X146940000Y-89690000D01*
X143130000Y-89690000D02*
X141860000Y-88420000D01*
X146940000Y-89690000D02*
X143130000Y-89690000D01*
X149480000Y-78260000D02*
X150750000Y-78260000D01*
D28*
G04 #@! TO.N,/EN_3_3V*
X90425000Y-89055000D02*
X92330000Y-87150000D01*
X84710000Y-97945000D02*
X90425000Y-92230000D01*
X113285000Y-91849000D02*
X113285000Y-104295000D01*
X92330000Y-87150000D02*
X93092000Y-87150000D01*
X113920000Y-91214000D02*
X113285000Y-91849000D01*
X90425000Y-92230000D02*
X90425000Y-89055000D01*
X113285000Y-104295000D02*
X106935000Y-110645000D01*
X106935000Y-110645000D02*
X91695000Y-110645000D01*
X91695000Y-110645000D02*
X84710000Y-103660000D01*
X84710000Y-103660000D02*
X84710000Y-97945000D01*
D29*
G04 #@! TO.N,/5V*
X93092000Y-97945000D02*
X98045000Y-97945000D01*
X98045000Y-97945000D02*
X98045000Y-97945000D01*
D28*
G04 #@! TO.N,/EN_5V*
X110580001Y-104713999D02*
X111380000Y-103914000D01*
X105976999Y-109317001D02*
X110580001Y-104713999D01*
X96844001Y-109317001D02*
X105976999Y-109317001D01*
X93092000Y-105565000D02*
X96844001Y-109317001D01*
G04 #@! TO.N,/EN_6V*
X142495000Y-95405000D02*
X145035000Y-95405000D01*
X134240000Y-89690000D02*
X136780000Y-89690000D01*
X126620000Y-103914000D02*
X131700000Y-98834000D01*
X136780000Y-89690000D02*
X142495000Y-95405000D01*
X131700000Y-92230000D02*
X134240000Y-89690000D01*
X131700000Y-98834000D02*
X131700000Y-92230000D01*
D29*
G04 #@! TO.N,/6V*
X145035000Y-103025000D02*
X145035000Y-105565000D01*
X145035000Y-105565000D02*
X145035000Y-105565000D01*
G04 #@! TO.N,/9V*
X145035000Y-84610000D02*
X145035000Y-86515000D01*
X145035000Y-86515000D02*
X145035000Y-86515000D01*
D28*
G04 #@! TO.N,/EN_9V*
X127751370Y-98834000D02*
X130430000Y-96155370D01*
X126620000Y-98834000D02*
X127751370Y-98834000D01*
X130430000Y-96155370D02*
X130430000Y-85880000D01*
X130430000Y-85880000D02*
X139320000Y-76990000D01*
X139320000Y-76990000D02*
X145035000Y-76990000D01*
G04 #@! TO.N,/CUR_6V*
X110999000Y-88674000D02*
X111380000Y-88674000D01*
X112396000Y-50828000D02*
X109348000Y-53876000D01*
X105284000Y-65560000D02*
X105284000Y-82959000D01*
X112396000Y-49050000D02*
X112396000Y-50828000D01*
X109348000Y-53876000D02*
X109348000Y-61496000D01*
X109348000Y-61496000D02*
X105284000Y-65560000D01*
X105284000Y-82959000D02*
X110999000Y-88674000D01*
G04 #@! TO.N,/CUR_12V*
X118365000Y-59845000D02*
X118365000Y-53495000D01*
X111380000Y-80165000D02*
X107570000Y-76355000D01*
X111380000Y-63020000D02*
X115190000Y-63020000D01*
X111380000Y-83594000D02*
X111380000Y-80165000D01*
X115190000Y-63020000D02*
X118365000Y-59845000D01*
X107570000Y-76355000D02*
X107570000Y-66830000D01*
X107570000Y-66830000D02*
X111380000Y-63020000D01*
G04 #@! TO.N,/RX*
X108840000Y-71275000D02*
X108840000Y-71275000D01*
X108840000Y-73815000D02*
X108840000Y-71275000D01*
X113920000Y-85245000D02*
X113920000Y-81435000D01*
X115308249Y-86633249D02*
X113920000Y-85245000D01*
X113920000Y-81435000D02*
X112650000Y-80165000D01*
X115308249Y-101873249D02*
X115308249Y-86633249D01*
X125488630Y-108994000D02*
X123837630Y-110645000D01*
X112650000Y-77625000D02*
X108840000Y-73815000D01*
X118365000Y-108740000D02*
X118365000Y-104930000D01*
X112650000Y-80165000D02*
X112650000Y-77625000D01*
X126620000Y-108994000D02*
X125488630Y-108994000D01*
X123837630Y-110645000D02*
X120270000Y-110645000D01*
X120270000Y-110645000D02*
X118365000Y-108740000D01*
X118365000Y-104930000D02*
X115308249Y-101873249D01*
G04 #@! TO.N,/LED_2*
X123445000Y-82959000D02*
X126620000Y-86134000D01*
X112650000Y-71275000D02*
X112650000Y-72545000D01*
X112650000Y-72545000D02*
X114555000Y-74450000D01*
X114555000Y-74450000D02*
X120270000Y-74450000D01*
X120270000Y-74450000D02*
X123445000Y-77625000D01*
X123445000Y-77625000D02*
X123445000Y-78260000D01*
X123445000Y-77879000D02*
X123445000Y-78260000D01*
X123445000Y-78260000D02*
X123445000Y-82959000D01*
G04 #@! TO.N,/STOP_BAT_POWER*
X125820001Y-82794001D02*
X126620000Y-83594000D01*
X126620000Y-83594000D02*
X124715000Y-81689000D01*
X124715000Y-81689000D02*
X124715000Y-76990000D01*
X124715000Y-76990000D02*
X124715000Y-75720000D01*
X124715000Y-75720000D02*
X120905000Y-71910000D01*
X115190000Y-71275000D02*
X115825000Y-71910000D01*
X115825000Y-71910000D02*
X117095000Y-71910000D01*
X120905000Y-71910000D02*
X117095000Y-71910000D01*
X117095000Y-71910000D02*
X116460000Y-71910000D01*
G04 #@! TO.N,/LED_1*
X115190000Y-64290000D02*
X113950001Y-65529999D01*
X113950001Y-65529999D02*
X112650000Y-66830000D01*
X128525000Y-79149000D02*
X128525000Y-74649002D01*
X126620000Y-81054000D02*
X128525000Y-79149000D01*
X132716000Y-68481000D02*
X128525000Y-64290000D01*
X128525000Y-64290000D02*
X115190000Y-64290000D01*
X128525000Y-74649002D02*
X132716000Y-70458002D01*
X132716000Y-70458002D02*
X132716000Y-68481000D01*
G04 #@! TO.N,/TX*
X120624962Y-109375000D02*
X123445000Y-109375000D01*
X126366000Y-106454000D02*
X126620000Y-106454000D01*
X119635000Y-108385038D02*
X120624962Y-109375000D01*
X123445000Y-109375000D02*
X126366000Y-106454000D01*
X119635000Y-104295000D02*
X119635000Y-108385038D01*
X113920000Y-76990000D02*
X113920000Y-79530000D01*
X115190000Y-84610000D02*
X116460000Y-85880000D01*
X116460000Y-85880000D02*
X116460000Y-101120000D01*
X113920000Y-79530000D02*
X115190000Y-80800000D01*
X116460000Y-101120000D02*
X119635000Y-104295000D01*
X110872000Y-71275000D02*
X110872000Y-73180000D01*
X115190000Y-80800000D02*
X115190000Y-84610000D01*
X110872000Y-73180000D02*
X110872000Y-73942000D01*
X110872000Y-73942000D02*
X113920000Y-76990000D01*
G04 #@! TO.N,Net-(SW1-Pad1)*
X120905000Y-103025000D02*
X120905000Y-106835000D01*
X119000000Y-83975000D02*
X119000000Y-101120000D01*
X119000000Y-101120000D02*
X120905000Y-103025000D01*
X116460000Y-78514000D02*
X116460000Y-81435000D01*
X116460000Y-81435000D02*
X119000000Y-83975000D01*
X120905000Y-106835000D02*
X121540000Y-107470000D01*
G04 #@! TO.N,/ALERT_12V*
X126620000Y-96294000D02*
X129160000Y-93754000D01*
X129160000Y-93754000D02*
X129414000Y-93500000D01*
X129414000Y-93500000D02*
X129668000Y-93246000D01*
X129668000Y-93246000D02*
X129668000Y-82070000D01*
X129668000Y-82070000D02*
X129668000Y-81308000D01*
X129668000Y-81308000D02*
X130684000Y-80292000D01*
X130684000Y-80292000D02*
X131192000Y-79784000D01*
X131192000Y-79784000D02*
X131192000Y-75212000D01*
X131192000Y-75212000D02*
X135256000Y-71148000D01*
X135256000Y-71148000D02*
X135256000Y-69116000D01*
X135256000Y-67084000D02*
X128652000Y-60480000D01*
X135256000Y-69116000D02*
X135256000Y-68608000D01*
X135256000Y-69116000D02*
X135256000Y-67084000D01*
X133224000Y-49812000D02*
X133224000Y-49050000D01*
X128652000Y-60480000D02*
X128652000Y-54384000D01*
X128652000Y-54384000D02*
X133224000Y-49812000D01*
G04 #@! TO.N,/ALERT_6V*
X111126000Y-86134000D02*
X111380000Y-86134000D01*
X110745000Y-86515000D02*
X111126000Y-86134000D01*
X106300000Y-82070000D02*
X110745000Y-86515000D01*
X106300000Y-66195000D02*
X106300000Y-82070000D01*
X114936000Y-50574000D02*
X113285000Y-52225000D01*
X113285000Y-52225000D02*
X113285000Y-61115000D01*
X113285000Y-61115000D02*
X112650000Y-61750000D01*
X112650000Y-61750000D02*
X110745000Y-61750000D01*
X110745000Y-61750000D02*
X106300000Y-66195000D01*
X114936000Y-49050000D02*
X114936000Y-50574000D01*
G04 #@! TD*
M02*
