G04 #@! TF.GenerationSoftware,KiCad,Pcbnew,5.0.2-bee76a0~70~ubuntu18.04.1*
G04 #@! TF.CreationDate,2019-01-29T21:25:52+01:00*
G04 #@! TF.ProjectId,Robot Propulsion V2,526f626f-7420-4507-926f-70756c73696f,rev?*
G04 #@! TF.SameCoordinates,Original*
G04 #@! TF.FileFunction,Copper,L2,Bot*
G04 #@! TF.FilePolarity,Positive*
%FSLAX46Y46*%
G04 Gerber Fmt 4.6, Leading zero omitted, Abs format (unit mm)*
G04 Created by KiCad (PCBNEW 5.0.2-bee76a0~70~ubuntu18.04.1) date mar. 29 janv. 2019 21:25:52 CET*
%MOMM*%
%LPD*%
G01*
G04 APERTURE LIST*
G04 #@! TA.AperFunction,ComponentPad*
%ADD10C,1.524000*%
G04 #@! TD*
G04 #@! TA.AperFunction,ComponentPad*
%ADD11C,1.600000*%
G04 #@! TD*
G04 #@! TA.AperFunction,ComponentPad*
%ADD12C,1.900000*%
G04 #@! TD*
G04 #@! TA.AperFunction,ComponentPad*
%ADD13R,1.600000X1.600000*%
G04 #@! TD*
G04 #@! TA.AperFunction,ComponentPad*
%ADD14O,2.200000X2.200000*%
G04 #@! TD*
G04 #@! TA.AperFunction,ComponentPad*
%ADD15R,2.200000X2.200000*%
G04 #@! TD*
G04 #@! TA.AperFunction,ComponentPad*
%ADD16C,1.050000*%
G04 #@! TD*
G04 #@! TA.AperFunction,Conductor*
%ADD17C,0.100000*%
G04 #@! TD*
G04 #@! TA.AperFunction,Conductor*
%ADD18C,1.050000*%
G04 #@! TD*
G04 #@! TA.AperFunction,ComponentPad*
%ADD19O,1.600000X1.600000*%
G04 #@! TD*
G04 #@! TA.AperFunction,ComponentPad*
%ADD20C,1.700000*%
G04 #@! TD*
G04 #@! TA.AperFunction,Conductor*
%ADD21C,1.700000*%
G04 #@! TD*
G04 #@! TA.AperFunction,ComponentPad*
%ADD22O,1.700000X1.700000*%
G04 #@! TD*
G04 #@! TA.AperFunction,ComponentPad*
%ADD23R,1.700000X1.700000*%
G04 #@! TD*
G04 #@! TA.AperFunction,ComponentPad*
%ADD24C,1.200000*%
G04 #@! TD*
G04 #@! TA.AperFunction,ComponentPad*
%ADD25C,2.600000*%
G04 #@! TD*
G04 #@! TA.AperFunction,ComponentPad*
%ADD26C,1.905000*%
G04 #@! TD*
G04 #@! TA.AperFunction,Conductor*
%ADD27C,1.905000*%
G04 #@! TD*
G04 #@! TA.AperFunction,ViaPad*
%ADD28C,1.000000*%
G04 #@! TD*
G04 #@! TA.AperFunction,ViaPad*
%ADD29C,0.800000*%
G04 #@! TD*
G04 #@! TA.AperFunction,Conductor*
%ADD30C,0.500000*%
G04 #@! TD*
G04 APERTURE END LIST*
D10*
G04 #@! TO.P,U2,1*
G04 #@! TO.N,/INA_2*
X162476670Y-83563068D03*
G04 #@! TO.P,U2,2*
G04 #@! TO.N,Net-(U2-Pad2)*
X160276966Y-82293068D03*
G04 #@! TO.P,U2,3*
G04 #@! TO.N,/PWM_2*
X158077261Y-81023068D03*
G04 #@! TO.P,U2,4*
G04 #@! TO.N,/CS_2*
X155877557Y-79753068D03*
G04 #@! TO.P,U2,6*
G04 #@! TO.N,/INB_2*
X151478148Y-77213068D03*
G04 #@! TO.P,U2,7*
G04 #@! TO.N,/3V*
X149278443Y-75943068D03*
G04 #@! TO.P,U2,8*
G04 #@! TO.N,GND*
X147078739Y-74673068D03*
G04 #@! TO.P,U2,18*
G04 #@! TO.N,Net-(J6-Pad2)*
X129298739Y-105468932D03*
G04 #@! TO.P,U2,13*
G04 #@! TO.N,Net-(J5-Pad2)*
X140297261Y-111818932D03*
G04 #@! TO.P,U2,14*
X138097557Y-110548932D03*
G04 #@! TO.P,U2,15*
G04 #@! TO.N,Net-(J6-Pad1)*
X135897852Y-109278932D03*
G04 #@! TO.P,U2,16*
X133698148Y-108008932D03*
G04 #@! TO.P,U2,17*
G04 #@! TO.N,Net-(J6-Pad2)*
X131498443Y-106738932D03*
G04 #@! TO.P,U2,12*
G04 #@! TO.N,Net-(J5-Pad1)*
X142496966Y-113088932D03*
G04 #@! TO.P,U2,11*
X144696670Y-114358932D03*
G04 #@! TD*
D11*
G04 #@! TO.P,U5,27*
G04 #@! TO.N,/PWM_3*
X111430000Y-96294000D03*
G04 #@! TO.P,U5,36*
G04 #@! TO.N,/INB_1*
X113970000Y-101374000D03*
D12*
G04 #@! TO.P,U5,52*
G04 #@! TO.N,Net-(U5-Pad52)*
X119050000Y-105184000D03*
X119050000Y-101374000D03*
D11*
G04 #@! TO.P,U5,51*
G04 #@! TO.N,/CS_1*
X116510000Y-96294000D03*
G04 #@! TO.P,U5,50*
G04 #@! TO.N,Net-(U5-Pad50)*
X116510000Y-93754000D03*
G04 #@! TO.P,U5,49*
G04 #@! TO.N,/ENC_B_1*
X116510000Y-91214000D03*
G04 #@! TO.P,U5,48*
G04 #@! TO.N,/PWM_1*
X116510000Y-88674000D03*
G04 #@! TO.P,U5,47*
G04 #@! TO.N,/INA_1*
X116510000Y-86134000D03*
G04 #@! TO.P,U5,46*
G04 #@! TO.N,/ENC_A_1*
X116510000Y-83594000D03*
G04 #@! TO.P,U5,45*
G04 #@! TO.N,/INA_3*
X116510000Y-81054000D03*
G04 #@! TO.P,U5,44*
G04 #@! TO.N,/ENC_B_3*
X119050000Y-81054000D03*
G04 #@! TO.P,U5,43*
G04 #@! TO.N,/INB_2*
X119050000Y-83594000D03*
G04 #@! TO.P,U5,42*
G04 #@! TO.N,/ENC_B_2*
X119050000Y-86134000D03*
G04 #@! TO.P,U5,41*
G04 #@! TO.N,/PWM_2*
X119050000Y-88674000D03*
G04 #@! TO.P,U5,40*
G04 #@! TO.N,/ENC_A_2*
X119050000Y-91214000D03*
G04 #@! TO.P,U5,39*
G04 #@! TO.N,GND*
X119050000Y-93754000D03*
G04 #@! TO.P,U5,38*
G04 #@! TO.N,/CS_2*
X119050000Y-96294000D03*
D13*
G04 #@! TO.P,U5,1*
G04 #@! TO.N,GND*
X126670000Y-111534000D03*
D11*
G04 #@! TO.P,U5,2*
G04 #@! TO.N,Net-(U5-Pad2)*
X126670000Y-108994000D03*
G04 #@! TO.P,U5,3*
G04 #@! TO.N,/INA_2*
X126670000Y-106454000D03*
G04 #@! TO.P,U5,8*
G04 #@! TO.N,Net-(U5-Pad8)*
X126670000Y-93754000D03*
G04 #@! TO.P,U5,37*
G04 #@! TO.N,/CTRL_ALIM*
X113970000Y-98834000D03*
G04 #@! TO.P,U5,34*
G04 #@! TO.N,Net-(U5-Pad34)*
X113970000Y-108994000D03*
G04 #@! TO.P,U5,33*
G04 #@! TO.N,Net-(D2-Pad1)*
X111430000Y-111534000D03*
G04 #@! TO.P,U5,32*
G04 #@! TO.N,GND*
X111430000Y-108994000D03*
G04 #@! TO.P,U5,31*
G04 #@! TO.N,/3V*
X111430000Y-106454000D03*
G04 #@! TO.P,U5,21*
G04 #@! TO.N,/CS_3*
X111430000Y-81054000D03*
G04 #@! TO.P,U5,14*
G04 #@! TO.N,/ENC_A_3*
X126670000Y-78514000D03*
G04 #@! TO.P,U5,15*
G04 #@! TO.N,Net-(U5-Pad15)*
X124130000Y-78514000D03*
G04 #@! TO.P,U5,18*
G04 #@! TO.N,Net-(U5-Pad18)*
X116510000Y-78514000D03*
G04 #@! TO.P,U5,17*
G04 #@! TO.N,GND*
X119050000Y-78514000D03*
G04 #@! TO.P,U5,12*
G04 #@! TO.N,Net-(U5-Pad12)*
X126670000Y-83594000D03*
G04 #@! TO.P,U5,22*
G04 #@! TO.N,/INB_3*
X111430000Y-83594000D03*
G04 #@! TD*
D10*
G04 #@! TO.P,U1,1*
G04 #@! TO.N,/INA_1*
X93149330Y-114358932D03*
G04 #@! TO.P,U1,2*
G04 #@! TO.N,Net-(U1-Pad2)*
X95349034Y-113088932D03*
G04 #@! TO.P,U1,3*
G04 #@! TO.N,/PWM_1*
X97548739Y-111818932D03*
G04 #@! TO.P,U1,4*
G04 #@! TO.N,/CS_1*
X99748443Y-110548932D03*
G04 #@! TO.P,U1,6*
G04 #@! TO.N,/INB_1*
X104147852Y-108008932D03*
G04 #@! TO.P,U1,7*
G04 #@! TO.N,/3V*
X106347557Y-106738932D03*
G04 #@! TO.P,U1,8*
G04 #@! TO.N,GND*
X108547261Y-105468932D03*
G04 #@! TO.P,U1,18*
G04 #@! TO.N,Net-(J4-Pad2)*
X90767261Y-74673068D03*
G04 #@! TO.P,U1,13*
G04 #@! TO.N,Net-(J3-Pad2)*
X79768739Y-81023068D03*
G04 #@! TO.P,U1,14*
X81968443Y-79753068D03*
G04 #@! TO.P,U1,15*
G04 #@! TO.N,Net-(J4-Pad1)*
X84168148Y-78483068D03*
G04 #@! TO.P,U1,16*
X86367852Y-77213068D03*
G04 #@! TO.P,U1,17*
G04 #@! TO.N,Net-(J4-Pad2)*
X88567557Y-75943068D03*
G04 #@! TO.P,U1,12*
G04 #@! TO.N,Net-(J3-Pad1)*
X77569034Y-82293068D03*
G04 #@! TO.P,U1,11*
X75369330Y-83563068D03*
G04 #@! TD*
D14*
G04 #@! TO.P,D1,2*
G04 #@! TO.N,GND*
X130734000Y-84864000D03*
D15*
G04 #@! TO.P,D1,1*
G04 #@! TO.N,Net-(D1-Pad1)*
X130734000Y-74704000D03*
G04 #@! TD*
D16*
G04 #@! TO.P,Q1,1*
G04 #@! TO.N,GND*
X89840000Y-69370000D03*
D17*
G04 #@! TD*
G04 #@! TO.N,GND*
G04 #@! TO.C,Q1*
G36*
X90227019Y-70199663D02*
X88927981Y-69449663D01*
X89452981Y-68540337D01*
X90752019Y-69290337D01*
X90227019Y-70199663D01*
X90227019Y-70199663D01*
G37*
D16*
G04 #@! TO.P,Q1,3*
G04 #@! TO.N,Net-(J1-Pad2)*
X91110000Y-67170295D03*
D18*
G04 #@! TD*
G04 #@! TO.N,Net-(J1-Pad2)*
G04 #@! TO.C,Q1*
X90915144Y-67057795D02*
X91304856Y-67282795D01*
D16*
G04 #@! TO.P,Q1,2*
G04 #@! TO.N,Net-(Q1-Pad2)*
X90475000Y-68270148D03*
D18*
G04 #@! TD*
G04 #@! TO.N,Net-(Q1-Pad2)*
G04 #@! TO.C,Q1*
X90280144Y-68157648D02*
X90669856Y-68382648D01*
D19*
G04 #@! TO.P,U4,8*
G04 #@! TO.N,Net-(U4-Pad8)*
X137846000Y-64290000D03*
G04 #@! TO.P,U4,4*
G04 #@! TO.N,GND*
X130226000Y-71910000D03*
G04 #@! TO.P,U4,7*
G04 #@! TO.N,Net-(D1-Pad1)*
X137846000Y-66830000D03*
G04 #@! TO.P,U4,3*
G04 #@! TO.N,GND*
X130226000Y-69370000D03*
G04 #@! TO.P,U4,6*
G04 #@! TO.N,Net-(U4-Pad6)*
X137846000Y-69370000D03*
G04 #@! TO.P,U4,2*
G04 #@! TO.N,GND*
X130226000Y-66830000D03*
G04 #@! TO.P,U4,5*
G04 #@! TO.N,Net-(C1-Pad1)*
X137846000Y-71910000D03*
D13*
G04 #@! TO.P,U4,1*
G04 #@! TO.N,+5V*
X130226000Y-64290000D03*
G04 #@! TD*
D10*
G04 #@! TO.P,U3,1*
G04 #@! TO.N,/INA_3*
X101270000Y-36350000D03*
G04 #@! TO.P,U3,2*
G04 #@! TO.N,Net-(U3-Pad2)*
X101270000Y-38890000D03*
G04 #@! TO.P,U3,3*
G04 #@! TO.N,/PWM_3*
X101270000Y-41430000D03*
G04 #@! TO.P,U3,4*
G04 #@! TO.N,/CS_3*
X101270000Y-43970000D03*
G04 #@! TO.P,U3,6*
G04 #@! TO.N,/INB_3*
X101270000Y-49050000D03*
G04 #@! TO.P,U3,7*
G04 #@! TO.N,/3V*
X101270000Y-51590000D03*
G04 #@! TO.P,U3,8*
G04 #@! TO.N,GND*
X101270000Y-54130000D03*
G04 #@! TO.P,U3,18*
G04 #@! TO.N,Net-(J8-Pad2)*
X136830000Y-54130000D03*
G04 #@! TO.P,U3,13*
G04 #@! TO.N,Net-(J7-Pad2)*
X136830000Y-41430000D03*
G04 #@! TO.P,U3,14*
X136830000Y-43970000D03*
G04 #@! TO.P,U3,15*
G04 #@! TO.N,Net-(J8-Pad1)*
X136830000Y-46510000D03*
G04 #@! TO.P,U3,16*
X136830000Y-49050000D03*
G04 #@! TO.P,U3,17*
G04 #@! TO.N,Net-(J8-Pad2)*
X136830000Y-51590000D03*
G04 #@! TO.P,U3,12*
G04 #@! TO.N,Net-(J7-Pad1)*
X136830000Y-38890000D03*
G04 #@! TO.P,U3,11*
X136830000Y-36350000D03*
G04 #@! TD*
D20*
G04 #@! TO.P,J3,6*
G04 #@! TO.N,/ENC_B_1*
X81204000Y-107719114D03*
D21*
G04 #@! TD*
G04 #@! TO.N,/ENC_B_1*
G04 #@! TO.C,J3*
X81204000Y-107719114D02*
X81204000Y-107719114D01*
D20*
G04 #@! TO.P,J3,5*
G04 #@! TO.N,/ENC_A_1*
X79934000Y-105519409D03*
D21*
G04 #@! TD*
G04 #@! TO.N,/ENC_A_1*
G04 #@! TO.C,J3*
X79934000Y-105519409D02*
X79934000Y-105519409D01*
D20*
G04 #@! TO.P,J3,4*
G04 #@! TO.N,+5V*
X78664000Y-103319705D03*
D21*
G04 #@! TD*
G04 #@! TO.N,+5V*
G04 #@! TO.C,J3*
X78664000Y-103319705D02*
X78664000Y-103319705D01*
D20*
G04 #@! TO.P,J3,3*
G04 #@! TO.N,GND*
X77394000Y-101120000D03*
D21*
G04 #@! TD*
G04 #@! TO.N,GND*
G04 #@! TO.C,J3*
X77394000Y-101120000D02*
X77394000Y-101120000D01*
D20*
G04 #@! TO.P,J3,2*
G04 #@! TO.N,Net-(J3-Pad2)*
X76124000Y-98920296D03*
D21*
G04 #@! TD*
G04 #@! TO.N,Net-(J3-Pad2)*
G04 #@! TO.C,J3*
X76124000Y-98920296D02*
X76124000Y-98920296D01*
D20*
G04 #@! TO.P,J3,1*
G04 #@! TO.N,Net-(J3-Pad1)*
X74854000Y-96720591D03*
D17*
G04 #@! TD*
G04 #@! TO.N,Net-(J3-Pad1)*
G04 #@! TO.C,J3*
G36*
X74542878Y-97881713D02*
X73692878Y-96409469D01*
X75165122Y-95559469D01*
X76015122Y-97031713D01*
X74542878Y-97881713D01*
X74542878Y-97881713D01*
G37*
D20*
G04 #@! TO.P,J5,6*
G04 #@! TO.N,/ENC_B_2*
X162992000Y-96979477D03*
D21*
G04 #@! TD*
G04 #@! TO.N,/ENC_B_2*
G04 #@! TO.C,J5*
X162992000Y-96979477D02*
X162992000Y-96979477D01*
D20*
G04 #@! TO.P,J5,5*
G04 #@! TO.N,/ENC_A_2*
X161722000Y-99179182D03*
D21*
G04 #@! TD*
G04 #@! TO.N,/ENC_A_2*
G04 #@! TO.C,J5*
X161722000Y-99179182D02*
X161722000Y-99179182D01*
D20*
G04 #@! TO.P,J5,4*
G04 #@! TO.N,+5V*
X160452000Y-101378886D03*
D21*
G04 #@! TD*
G04 #@! TO.N,+5V*
G04 #@! TO.C,J5*
X160452000Y-101378886D02*
X160452000Y-101378886D01*
D20*
G04 #@! TO.P,J5,3*
G04 #@! TO.N,GND*
X159182000Y-103578591D03*
D21*
G04 #@! TD*
G04 #@! TO.N,GND*
G04 #@! TO.C,J5*
X159182000Y-103578591D02*
X159182000Y-103578591D01*
D20*
G04 #@! TO.P,J5,2*
G04 #@! TO.N,Net-(J5-Pad2)*
X157912000Y-105778295D03*
D21*
G04 #@! TD*
G04 #@! TO.N,Net-(J5-Pad2)*
G04 #@! TO.C,J5*
X157912000Y-105778295D02*
X157912000Y-105778295D01*
D20*
G04 #@! TO.P,J5,1*
G04 #@! TO.N,Net-(J5-Pad1)*
X156642000Y-107978000D03*
D17*
G04 #@! TD*
G04 #@! TO.N,Net-(J5-Pad1)*
G04 #@! TO.C,J5*
G36*
X157803122Y-107666878D02*
X156953122Y-109139122D01*
X155480878Y-108289122D01*
X156330878Y-106816878D01*
X157803122Y-107666878D01*
X157803122Y-107666878D01*
G37*
D22*
G04 #@! TO.P,J7,6*
G04 #@! TO.N,/ENC_B_3*
X112700000Y-31968500D03*
G04 #@! TO.P,J7,5*
G04 #@! TO.N,/ENC_A_3*
X115240000Y-31968500D03*
G04 #@! TO.P,J7,4*
G04 #@! TO.N,+5V*
X117780000Y-31968500D03*
G04 #@! TO.P,J7,3*
G04 #@! TO.N,GND*
X120320000Y-31968500D03*
G04 #@! TO.P,J7,2*
G04 #@! TO.N,Net-(J7-Pad2)*
X122860000Y-31968500D03*
D23*
G04 #@! TO.P,J7,1*
G04 #@! TO.N,Net-(J7-Pad1)*
X125400000Y-31968500D03*
G04 #@! TD*
D24*
G04 #@! TO.P,C1,2*
G04 #@! TO.N,GND*
X150788000Y-72447038D03*
G04 #@! TO.P,C1,1*
G04 #@! TO.N,Net-(C1-Pad1)*
X150038000Y-71148000D03*
D17*
G04 #@! TD*
G04 #@! TO.N,Net-(C1-Pad1)*
G04 #@! TO.C,C1*
G36*
X149218385Y-70928385D02*
X150257615Y-70328385D01*
X150857615Y-71367615D01*
X149818385Y-71967615D01*
X149218385Y-70928385D01*
X149218385Y-70928385D01*
G37*
D11*
G04 #@! TO.P,C2,2*
G04 #@! TO.N,GND*
X140680000Y-59210000D03*
D13*
G04 #@! TO.P,C2,1*
G04 #@! TO.N,+5V*
X143180000Y-59210000D03*
G04 #@! TD*
D14*
G04 #@! TO.P,D2,2*
G04 #@! TO.N,+5V*
X124130000Y-63528000D03*
D15*
G04 #@! TO.P,D2,1*
G04 #@! TO.N,Net-(D2-Pad1)*
X113970000Y-63528000D03*
G04 #@! TD*
D25*
G04 #@! TO.P,L1,2*
G04 #@! TO.N,+5V*
X148180000Y-66830000D03*
G04 #@! TO.P,L1,1*
G04 #@! TO.N,Net-(D1-Pad1)*
X143180000Y-66830000D03*
G04 #@! TD*
D19*
G04 #@! TO.P,R1,2*
G04 #@! TO.N,/CTRL_ALIM*
X106350000Y-70005000D03*
D11*
G04 #@! TO.P,R1,1*
G04 #@! TO.N,Net-(Q1-Pad2)*
X98730000Y-70005000D03*
G04 #@! TD*
D19*
G04 #@! TO.P,R3,2*
G04 #@! TO.N,GND*
X106350000Y-66830000D03*
D11*
G04 #@! TO.P,R3,1*
G04 #@! TO.N,Net-(Q1-Pad2)*
X98730000Y-66830000D03*
G04 #@! TD*
D19*
G04 #@! TO.P,R4,2*
G04 #@! TO.N,Net-(J1-Pad2)*
X98730000Y-63655000D03*
D11*
G04 #@! TO.P,R4,1*
G04 #@! TO.N,+BATT*
X106350000Y-63655000D03*
G04 #@! TD*
D26*
G04 #@! TO.P,Q2,3*
G04 #@! TO.N,+BATT*
X96698000Y-59255591D03*
D27*
G04 #@! TD*
G04 #@! TO.N,+BATT*
G04 #@! TO.C,Q2*
X96656864Y-59231841D02*
X96739136Y-59279341D01*
D26*
G04 #@! TO.P,Q2,2*
G04 #@! TO.N,Net-(J1-Pad2)*
X95428000Y-61455295D03*
D27*
G04 #@! TD*
G04 #@! TO.N,Net-(J1-Pad2)*
G04 #@! TO.C,Q2*
X95386864Y-61431545D02*
X95469136Y-61479045D01*
D26*
G04 #@! TO.P,Q2,1*
G04 #@! TO.N,Net-(C1-Pad1)*
X94158000Y-63655000D03*
D17*
G04 #@! TD*
G04 #@! TO.N,Net-(C1-Pad1)*
G04 #@! TO.C,Q2*
G36*
X94547775Y-64979889D02*
X92815725Y-63979889D01*
X93768225Y-62330111D01*
X95500275Y-63330111D01*
X94547775Y-64979889D01*
X94547775Y-64979889D01*
G37*
D20*
G04 #@! TO.P,J1,2*
G04 #@! TO.N,Net-(J1-Pad2)*
X94285000Y-69370000D03*
D21*
G04 #@! TD*
G04 #@! TO.N,Net-(J1-Pad2)*
G04 #@! TO.C,J1*
X94285000Y-69370000D02*
X94285000Y-69370000D01*
D20*
G04 #@! TO.P,J1,1*
G04 #@! TO.N,GND*
X95555000Y-67170295D03*
D17*
G04 #@! TD*
G04 #@! TO.N,GND*
G04 #@! TO.C,J1*
G36*
X94393878Y-67481417D02*
X95243878Y-66009173D01*
X96716122Y-66859173D01*
X95866122Y-68331417D01*
X94393878Y-67481417D01*
X94393878Y-67481417D01*
G37*
D22*
G04 #@! TO.P,J2,2*
G04 #@! TO.N,+BATT*
X98095000Y-54130000D03*
D23*
G04 #@! TO.P,J2,1*
G04 #@! TO.N,GND*
X98095000Y-51590000D03*
G04 #@! TD*
D22*
G04 #@! TO.P,J6,2*
G04 #@! TO.N,Net-(J6-Pad2)*
X129845000Y-111280000D03*
D23*
G04 #@! TO.P,J6,1*
G04 #@! TO.N,Net-(J6-Pad1)*
X132385000Y-111280000D03*
G04 #@! TD*
D22*
G04 #@! TO.P,J8,2*
G04 #@! TO.N,Net-(J8-Pad2)*
X140005000Y-54130000D03*
D23*
G04 #@! TO.P,J8,1*
G04 #@! TO.N,Net-(J8-Pad1)*
X140005000Y-51590000D03*
G04 #@! TD*
D20*
G04 #@! TO.P,J4,2*
G04 #@! TO.N,Net-(J4-Pad2)*
X86959705Y-73180000D03*
D21*
G04 #@! TD*
G04 #@! TO.N,Net-(J4-Pad2)*
G04 #@! TO.C,J4*
X86959705Y-73180000D02*
X86959705Y-73180000D01*
D20*
G04 #@! TO.P,J4,1*
G04 #@! TO.N,Net-(J4-Pad1)*
X84760000Y-74450000D03*
D17*
G04 #@! TD*
G04 #@! TO.N,Net-(J4-Pad1)*
G04 #@! TO.C,J4*
G36*
X85921122Y-74761122D02*
X84448878Y-75611122D01*
X83598878Y-74138878D01*
X85071122Y-73288878D01*
X85921122Y-74761122D01*
X85921122Y-74761122D01*
G37*
D28*
G04 #@! TO.N,Net-(C1-Pad1)*
X109906000Y-57940000D03*
D29*
X94666000Y-56924000D03*
D28*
G04 #@! TO.N,+5V*
X102794000Y-79276000D03*
G04 #@! TO.N,/INA_1*
X108890000Y-86896000D03*
G04 #@! TO.N,/PWM_1*
X108890000Y-88420000D03*
G04 #@! TO.N,/CS_1*
X109906000Y-94008000D03*
G04 #@! TO.N,/INB_1*
X108128000Y-101374000D03*
G04 #@! TO.N,/INB_2*
X123702000Y-83340000D03*
G04 #@! TO.N,/CS_2*
X133020000Y-96040000D03*
G04 #@! TO.N,/PWM_2*
X129210000Y-88420000D03*
G04 #@! TO.N,/CTRL_ALIM*
X114986000Y-81816000D03*
X114986000Y-97564000D03*
G04 #@! TO.N,/ENC_B_2*
X154610000Y-88420000D03*
G04 #@! TO.N,/ENC_A_2*
X153594000Y-91051182D03*
G04 #@! TO.N,/3V*
X118034000Y-51844000D03*
G04 #@! TD*
D30*
G04 #@! TO.N,Net-(D1-Pad1)*
X143180000Y-66830000D02*
X137846000Y-66830000D01*
X134798000Y-68608000D02*
X136576000Y-66830000D01*
X134798000Y-72240000D02*
X134798000Y-68608000D01*
X130734000Y-74704000D02*
X132334000Y-74704000D01*
X136576000Y-66830000D02*
X137846000Y-66830000D01*
X132334000Y-74704000D02*
X134798000Y-72240000D01*
G04 #@! TO.N,GND*
X101270000Y-53876000D02*
X101270000Y-54130000D01*
X98095000Y-51590000D02*
X98984000Y-51590000D01*
X98984000Y-51590000D02*
X101270000Y-53876000D01*
X109745501Y-30668499D02*
X119718499Y-30668499D01*
X98095000Y-51463000D02*
X98730000Y-50828000D01*
X108890000Y-31524000D02*
X109745501Y-30668499D01*
X98095000Y-51590000D02*
X98095000Y-51463000D01*
X98730000Y-50828000D02*
X98730000Y-48796000D01*
X119718499Y-30668499D02*
X120320000Y-31270000D01*
X108890000Y-38636000D02*
X108890000Y-31524000D01*
X120320000Y-31270000D02*
X120320000Y-31968500D01*
X98730000Y-48796000D02*
X108890000Y-38636000D01*
X89384964Y-69825036D02*
X89840000Y-69370000D01*
X89384964Y-69930964D02*
X89384964Y-69825036D01*
X93142000Y-73688000D02*
X89384964Y-69930964D01*
X93142000Y-85372000D02*
X93142000Y-73688000D01*
X77394000Y-101120000D02*
X93142000Y-85372000D01*
X127178000Y-80800000D02*
X123114000Y-80800000D01*
X130226000Y-83848000D02*
X127178000Y-80800000D01*
X130734000Y-84864000D02*
X130734000Y-83848000D01*
X120828000Y-78514000D02*
X119050000Y-78514000D01*
X123114000Y-80800000D02*
X120828000Y-78514000D01*
X130734000Y-83848000D02*
X130226000Y-83848000D01*
X120828000Y-78514000D02*
X123114000Y-76228000D01*
X123114000Y-76228000D02*
X128194000Y-76228000D01*
X128194000Y-73942000D02*
X130226000Y-71910000D01*
X128194000Y-76228000D02*
X128194000Y-73942000D01*
X80950000Y-110264000D02*
X75870000Y-101628000D01*
X107246329Y-104168000D02*
X104318000Y-104168000D01*
X108547261Y-105468932D02*
X107246329Y-104168000D01*
X104318000Y-104168000D02*
X100254000Y-108232000D01*
X100254000Y-108232000D02*
X97714000Y-108232000D01*
X97714000Y-108232000D02*
X95682000Y-110264000D01*
X95682000Y-110264000D02*
X80950000Y-110264000D01*
X75870000Y-101441919D02*
X76191919Y-101120000D01*
X76191919Y-101120000D02*
X77394000Y-101120000D01*
X75870000Y-101628000D02*
X75870000Y-101441919D01*
X130226000Y-71910000D02*
X130226000Y-69370000D01*
X130226000Y-69370000D02*
X130226000Y-66830000D01*
X120320000Y-31968500D02*
X120320000Y-41430000D01*
X138100000Y-59210000D02*
X140680000Y-59210000D01*
X120320000Y-41430000D02*
X138100000Y-59210000D01*
X100254000Y-85372000D02*
X93142000Y-85372000D01*
X104318000Y-81308000D02*
X100254000Y-85372000D01*
X104318000Y-67730630D02*
X104318000Y-81308000D01*
X106350000Y-66830000D02*
X105218630Y-66830000D01*
X105218630Y-66830000D02*
X104318000Y-67730630D01*
X158358010Y-101552520D02*
X158358010Y-86072010D01*
X159182000Y-103578591D02*
X159182000Y-102376510D01*
X159182000Y-102376510D02*
X158358010Y-101552520D01*
X158358010Y-86072010D02*
X153086000Y-80800000D01*
X153086000Y-80800000D02*
X153086000Y-74704000D01*
X153044962Y-74704000D02*
X150788000Y-72447038D01*
X153086000Y-74704000D02*
X153044962Y-74704000D01*
X149420038Y-73815000D02*
X150788000Y-72447038D01*
X147078739Y-74673068D02*
X147936807Y-73815000D01*
X147936807Y-73815000D02*
X149420038Y-73815000D01*
G04 #@! TO.N,Net-(Q1-Pad2)*
X96825000Y-71275000D02*
X98095000Y-70005000D01*
X91618000Y-69878000D02*
X93650000Y-71910000D01*
X96190000Y-71910000D02*
X96825000Y-71275000D01*
X90475000Y-68270148D02*
X90772148Y-68270148D01*
X90772148Y-68270148D02*
X91618000Y-69116000D01*
X91618000Y-69116000D02*
X91618000Y-69878000D01*
X93650000Y-71910000D02*
X96190000Y-71910000D01*
X98730000Y-70005000D02*
X98730000Y-66830000D01*
G04 #@! TO.N,+BATT*
X97472109Y-60029700D02*
X98914700Y-60029700D01*
X96698000Y-59255591D02*
X97472109Y-60029700D01*
X98914700Y-60029700D02*
X101270000Y-62385000D01*
X105080000Y-62385000D02*
X106350000Y-63655000D01*
X101270000Y-62385000D02*
X105080000Y-62385000D01*
G04 #@! TO.N,Net-(C1-Pad1)*
X148895000Y-70005000D02*
X150038000Y-71148000D01*
X141275000Y-70005000D02*
X148895000Y-70005000D01*
X137846000Y-71910000D02*
X139370000Y-71910000D01*
X139370000Y-71910000D02*
X141275000Y-70005000D01*
X107874000Y-57940000D02*
X102286000Y-57940000D01*
X102286000Y-57940000D02*
X100762000Y-57940000D01*
X100762000Y-57940000D02*
X99746000Y-56924000D01*
X99746000Y-56924000D02*
X94666000Y-56924000D01*
X107874000Y-57940000D02*
X109906000Y-57940000D01*
X109906000Y-57940000D02*
X109906000Y-57940000D01*
X94666000Y-56924000D02*
X94666000Y-56924000D01*
G04 #@! TO.N,+5V*
X136830000Y-62385000D02*
X141910000Y-62385000D01*
X130226000Y-64290000D02*
X134925000Y-64290000D01*
X143180000Y-61115000D02*
X143180000Y-59210000D01*
X134925000Y-64290000D02*
X136830000Y-62385000D01*
X143735000Y-62385000D02*
X148180000Y-66830000D01*
X143180000Y-61830000D02*
X143180000Y-59210000D01*
X143735000Y-62385000D02*
X143180000Y-61830000D01*
X142625000Y-61830000D02*
X142545000Y-61750000D01*
X143180000Y-61830000D02*
X142625000Y-61830000D01*
X141910000Y-62385000D02*
X142545000Y-61750000D01*
X142545000Y-61750000D02*
X143180000Y-61115000D01*
X142545000Y-61750000D02*
X142545000Y-62385000D01*
X141910000Y-62385000D02*
X142545000Y-62385000D01*
X142545000Y-62385000D02*
X143180000Y-62385000D01*
X143180000Y-62385000D02*
X143735000Y-62385000D01*
X143180000Y-62385000D02*
X143180000Y-61830000D01*
X143100000Y-61830000D02*
X142545000Y-62385000D01*
X143180000Y-61830000D02*
X143100000Y-61830000D01*
X117780000Y-31968500D02*
X117780000Y-49050000D01*
X123030001Y-62428001D02*
X124130000Y-63528000D01*
X122579999Y-61977999D02*
X123030001Y-62428001D01*
X105334000Y-65052000D02*
X108382000Y-65052000D01*
X102794000Y-77244000D02*
X102794000Y-67592000D01*
X112446000Y-60988000D02*
X121590000Y-60988000D01*
X108382000Y-65052000D02*
X112446000Y-60988000D01*
X102794000Y-67592000D02*
X105334000Y-65052000D01*
X129464000Y-63528000D02*
X130226000Y-64290000D01*
X124130000Y-63528000D02*
X129464000Y-63528000D01*
X124130000Y-63528000D02*
X121590000Y-60988000D01*
X121590000Y-60988000D02*
X121590000Y-52860000D01*
X117780000Y-49050000D02*
X121590000Y-52860000D01*
X102794000Y-77244000D02*
X102794000Y-79276000D01*
X148180000Y-66830000D02*
X149479999Y-68129999D01*
X154102000Y-80292000D02*
X159602001Y-85792001D01*
X159602001Y-100528887D02*
X160452000Y-101378886D01*
X159602001Y-85792001D02*
X159602001Y-100528887D01*
X149530000Y-68100000D02*
X154102000Y-73688000D01*
X154102000Y-73688000D02*
X154102000Y-80292000D01*
G04 #@! TO.N,/INA_1*
X116256000Y-85880000D02*
X116510000Y-86134000D01*
X116510000Y-86134000D02*
X114732000Y-86134000D01*
X113970000Y-86896000D02*
X108890000Y-86896000D01*
X114732000Y-86134000D02*
X113970000Y-86896000D01*
G04 #@! TO.N,/PWM_1*
X116002000Y-88420000D02*
X116256000Y-88674000D01*
X108890000Y-88420000D02*
X116002000Y-88420000D01*
G04 #@! TO.N,/CS_1*
X116002000Y-96040000D02*
X116256000Y-96294000D01*
X116510000Y-96294000D02*
X114732000Y-96294000D01*
X114732000Y-96294000D02*
X112446000Y-94008000D01*
X112446000Y-94008000D02*
X109906000Y-94008000D01*
X109906000Y-94008000D02*
X109906000Y-94008000D01*
G04 #@! TO.N,/INB_1*
X113970000Y-101374000D02*
X108128000Y-101374000D01*
G04 #@! TO.N,/INB_2*
X119304000Y-83340000D02*
X119050000Y-83594000D01*
X122860000Y-83340000D02*
X119304000Y-83340000D01*
X122860000Y-83340000D02*
X123702000Y-83340000D01*
G04 #@! TO.N,/CS_2*
X119050000Y-96040000D02*
X118796000Y-96294000D01*
X119304000Y-96040000D02*
X119050000Y-96294000D01*
X133020000Y-96040000D02*
X119304000Y-96040000D01*
G04 #@! TO.N,/PWM_2*
X119304000Y-88420000D02*
X119050000Y-88674000D01*
X129210000Y-88420000D02*
X119304000Y-88420000D01*
G04 #@! TO.N,/ENC_B_1*
X81204000Y-107719114D02*
X81970886Y-107719114D01*
X116256000Y-90960000D02*
X116510000Y-91214000D01*
X111430000Y-90960000D02*
X116256000Y-90960000D01*
X81204000Y-107719114D02*
X94670886Y-107719114D01*
X94670886Y-107719114D02*
X111430000Y-90960000D01*
G04 #@! TO.N,/ENC_A_1*
X116002000Y-83340000D02*
X116256000Y-83594000D01*
X102621409Y-85372000D02*
X82474000Y-105519409D01*
X115378630Y-83594000D02*
X113600630Y-85372000D01*
X116510000Y-83594000D02*
X115378630Y-83594000D01*
X79934000Y-105519409D02*
X82474000Y-105519409D01*
X113600630Y-85372000D02*
X102621409Y-85372000D01*
G04 #@! TO.N,Net-(U5-Pad12)*
X126670000Y-83594000D02*
X127051000Y-83594000D01*
X127051000Y-83594000D02*
X127305000Y-83340000D01*
G04 #@! TO.N,/CTRL_ALIM*
X106350000Y-70005000D02*
X106350000Y-71136370D01*
X106350000Y-71136370D02*
X106350000Y-75720000D01*
X106350000Y-75720000D02*
X108382000Y-77752000D01*
X108382000Y-77752000D02*
X109978002Y-77752000D01*
X109978002Y-77752000D02*
X112446000Y-77752000D01*
X112446000Y-77752000D02*
X113970000Y-79276000D01*
X113970000Y-79276000D02*
X114478000Y-79784000D01*
X114478000Y-79784000D02*
X114986000Y-80292000D01*
X114986000Y-80292000D02*
X114986000Y-81816000D01*
X114986000Y-81816000D02*
X114986000Y-81816000D01*
X114986000Y-97818000D02*
X113970000Y-98834000D01*
X114986000Y-97564000D02*
X114986000Y-97818000D01*
G04 #@! TO.N,/ENC_B_2*
X120320000Y-86134000D02*
X119600010Y-86134000D01*
X121082000Y-86896000D02*
X120320000Y-86134000D01*
X152324000Y-86134000D02*
X145212000Y-86134000D01*
X134290000Y-89944000D02*
X131242000Y-86896000D01*
X145212000Y-86134000D02*
X141402000Y-89944000D01*
X141402000Y-89944000D02*
X134290000Y-89944000D01*
X154610000Y-88420000D02*
X152324000Y-86134000D01*
X131242000Y-86896000D02*
X121082000Y-86896000D01*
G04 #@! TO.N,/ENC_A_2*
X161722000Y-99179182D02*
X161559182Y-99179182D01*
X119304000Y-90960000D02*
X119050000Y-91214000D01*
X153340000Y-90960000D02*
X153594000Y-91051182D01*
X153594000Y-91051182D02*
X119304000Y-90960000D01*
G04 #@! TO.N,/3V*
X149278443Y-79024443D02*
X149278443Y-75943068D01*
X119812000Y-98072000D02*
X150546000Y-98072000D01*
X150546000Y-98072000D02*
X156642000Y-91976000D01*
X156642000Y-87404000D02*
X149278443Y-80040443D01*
X149278443Y-80040443D02*
X149278443Y-79024443D01*
X111430000Y-106454000D02*
X119812000Y-98072000D01*
X156642000Y-91976000D02*
X156642000Y-87404000D01*
X117756000Y-51844000D02*
X118034000Y-51844000D01*
X101270000Y-51590000D02*
X117502000Y-51590000D01*
X117502000Y-51590000D02*
X117756000Y-51844000D01*
G04 #@! TO.N,Net-(J1-Pad2)*
X94452705Y-60480000D02*
X95428000Y-61455295D01*
X91110000Y-67170295D02*
X91110000Y-62385000D01*
X93015000Y-60480000D02*
X94452705Y-60480000D01*
X91110000Y-62385000D02*
X93015000Y-60480000D01*
X92085295Y-67170295D02*
X94285000Y-69370000D01*
X91110000Y-67170295D02*
X92085295Y-67170295D01*
X96530295Y-61455295D02*
X98730000Y-63655000D01*
X95428000Y-61455295D02*
X96530295Y-61455295D01*
G04 #@! TD*
M02*
