M48
;DRILL file {KiCad 5.0.2-bee76a0~70~ubuntu18.04.1} date mar. 29 janv. 2019 21:25:57 CET
;FORMAT={3:3/ absolute / metric / suppress leading zeros}
FMAT,2
METRIC,TZ
T1C0.400
T2C0.500
T3C0.600
T4C0.750
T5C0.762
T6C0.800
T7C1.000
T8C1.100
T9C1.300
%
G90
G05
T1
X94666Y-56924
T2
X102794Y-79276
X108128Y-101374
X108890Y-86896
X108890Y-88420
X109906Y-57940
X109906Y-94008
X114986Y-81816
X114986Y-97564
X118034Y-51844
X123702Y-83340
X129210Y-88420
X133020Y-96040
X153594Y-91051
X154610Y-88420
X119050Y-101374
X119050Y-105184
T3
X150038Y-71148
X150788Y-72447
T4
X89840Y-69370
X90475Y-68270
X91110Y-67170
T5
X101270Y-36350
X101270Y-38890
X101270Y-41430
X101270Y-43970
X101270Y-49050
X101270Y-51590
X101270Y-54130
X136830Y-36350
X136830Y-38890
X136830Y-41430
X136830Y-43970
X136830Y-46510
X136830Y-49050
X136830Y-51590
X136830Y-54130
X75369Y-83563
X77569Y-82293
X79769Y-81023
X81968Y-79753
X84168Y-78483
X86368Y-77213
X88568Y-75943
X90767Y-74673
X93149Y-114359
X95349Y-113089
X97549Y-111819
X99748Y-110549
X104148Y-108009
X106348Y-106739
X108547Y-105469
X129299Y-105469
X131498Y-106739
X133698Y-108009
X135898Y-109279
X138098Y-110549
X140297Y-111819
X142497Y-113089
X144697Y-114359
X147079Y-74673
X149278Y-75943
X151478Y-77213
X155878Y-79753
X158077Y-81023
X160277Y-82293
X162477Y-83563
T6
X130226Y-64290
X130226Y-66830
X130226Y-69370
X130226Y-71910
X137846Y-64290
X137846Y-66830
X137846Y-69370
X137846Y-71910
X140680Y-59210
X143180Y-59210
X98730Y-66830
X106350Y-66830
X98730Y-70005
X106350Y-70005
X98730Y-63655
X106350Y-63655
T7
X129845Y-111280
X132385Y-111280
X84760Y-74450
X86960Y-73180
X140005Y-51590
X140005Y-54130
X74854Y-96721
X76124Y-98920
X77394Y-101120
X78664Y-103320
X79934Y-105519
X81204Y-107719
X94285Y-69370
X95555Y-67170
X112700Y-31969
X115240Y-31969
X117780Y-31969
X120320Y-31969
X122860Y-31969
X125400Y-31969
X156642Y-107978
X157912Y-105778
X159182Y-103579
X160452Y-101379
X161722Y-99179
X162992Y-96979
X98095Y-51590
X98095Y-54130
T8
X111430Y-81054
X111430Y-83594
X111430Y-96294
X111430Y-106454
X111430Y-108994
X111430Y-111534
X113970Y-98834
X113970Y-101374
X113970Y-108994
X116510Y-78514
X116510Y-81054
X116510Y-83594
X116510Y-86134
X116510Y-88674
X116510Y-91214
X116510Y-93754
X116510Y-96294
X119050Y-78514
X119050Y-81054
X119050Y-83594
X119050Y-86134
X119050Y-88674
X119050Y-91214
X119050Y-93754
X119050Y-96294
X124130Y-78514
X126670Y-78514
X126670Y-83594
X126670Y-93754
X126670Y-106454
X126670Y-108994
X126670Y-111534
X94158Y-63655
X95428Y-61455
X96698Y-59256
X130734Y-74704
X130734Y-84864
X113970Y-63528
X124130Y-63528
T9
X143180Y-66830
X148180Y-66830
T0
M30
