G04 #@! TF.GenerationSoftware,KiCad,Pcbnew,5.0.2-bee76a0~70~ubuntu18.04.1*
G04 #@! TF.CreationDate,2019-01-29T21:25:52+01:00*
G04 #@! TF.ProjectId,Robot Propulsion V2,526f626f-7420-4507-926f-70756c73696f,rev?*
G04 #@! TF.SameCoordinates,Original*
G04 #@! TF.FileFunction,Soldermask,Top*
G04 #@! TF.FilePolarity,Negative*
%FSLAX46Y46*%
G04 Gerber Fmt 4.6, Leading zero omitted, Abs format (unit mm)*
G04 Created by KiCad (PCBNEW 5.0.2-bee76a0~70~ubuntu18.04.1) date mar. 29 janv. 2019 21:25:52 CET*
%MOMM*%
%LPD*%
G01*
G04 APERTURE LIST*
%ADD10C,0.100000*%
G04 APERTURE END LIST*
D10*
G36*
X144933812Y-113577174D02*
X145081772Y-113638462D01*
X145148800Y-113683249D01*
X145214927Y-113727433D01*
X145328169Y-113840675D01*
X145348224Y-113870690D01*
X145417140Y-113973830D01*
X145478428Y-114121790D01*
X145509670Y-114278857D01*
X145509670Y-114439007D01*
X145478428Y-114596074D01*
X145417140Y-114744034D01*
X145328168Y-114877190D01*
X145214928Y-114990430D01*
X145081772Y-115079402D01*
X144933812Y-115140690D01*
X144776745Y-115171932D01*
X144616595Y-115171932D01*
X144459528Y-115140690D01*
X144311568Y-115079402D01*
X144178412Y-114990430D01*
X144065172Y-114877190D01*
X143976200Y-114744034D01*
X143914912Y-114596074D01*
X143883670Y-114439007D01*
X143883670Y-114278857D01*
X143914912Y-114121790D01*
X143976200Y-113973830D01*
X144045116Y-113870690D01*
X144065171Y-113840675D01*
X144178413Y-113727433D01*
X144244540Y-113683249D01*
X144311568Y-113638462D01*
X144459528Y-113577174D01*
X144616595Y-113545932D01*
X144776745Y-113545932D01*
X144933812Y-113577174D01*
X144933812Y-113577174D01*
G37*
G36*
X93386472Y-113577174D02*
X93534432Y-113638462D01*
X93601460Y-113683249D01*
X93667587Y-113727433D01*
X93780829Y-113840675D01*
X93800884Y-113870690D01*
X93869800Y-113973830D01*
X93931088Y-114121790D01*
X93962330Y-114278857D01*
X93962330Y-114439007D01*
X93931088Y-114596074D01*
X93869800Y-114744034D01*
X93780828Y-114877190D01*
X93667588Y-114990430D01*
X93534432Y-115079402D01*
X93386472Y-115140690D01*
X93229405Y-115171932D01*
X93069255Y-115171932D01*
X92912188Y-115140690D01*
X92764228Y-115079402D01*
X92631072Y-114990430D01*
X92517832Y-114877190D01*
X92428860Y-114744034D01*
X92367572Y-114596074D01*
X92336330Y-114439007D01*
X92336330Y-114278857D01*
X92367572Y-114121790D01*
X92428860Y-113973830D01*
X92497776Y-113870690D01*
X92517831Y-113840675D01*
X92631073Y-113727433D01*
X92697200Y-113683249D01*
X92764228Y-113638462D01*
X92912188Y-113577174D01*
X93069255Y-113545932D01*
X93229405Y-113545932D01*
X93386472Y-113577174D01*
X93386472Y-113577174D01*
G37*
G36*
X95586176Y-112307174D02*
X95734136Y-112368462D01*
X95758887Y-112385000D01*
X95867291Y-112457433D01*
X95980533Y-112570675D01*
X96000588Y-112600690D01*
X96069504Y-112703830D01*
X96130792Y-112851790D01*
X96162034Y-113008857D01*
X96162034Y-113169007D01*
X96130792Y-113326074D01*
X96083388Y-113440515D01*
X96069505Y-113474032D01*
X95980533Y-113607189D01*
X95867291Y-113720431D01*
X95856810Y-113727434D01*
X95734136Y-113809402D01*
X95586176Y-113870690D01*
X95429109Y-113901932D01*
X95268959Y-113901932D01*
X95111892Y-113870690D01*
X94963932Y-113809402D01*
X94841258Y-113727434D01*
X94830777Y-113720431D01*
X94717535Y-113607189D01*
X94628563Y-113474032D01*
X94614680Y-113440515D01*
X94567276Y-113326074D01*
X94536034Y-113169007D01*
X94536034Y-113008857D01*
X94567276Y-112851790D01*
X94628564Y-112703830D01*
X94697480Y-112600690D01*
X94717535Y-112570675D01*
X94830777Y-112457433D01*
X94939181Y-112385000D01*
X94963932Y-112368462D01*
X95111892Y-112307174D01*
X95268959Y-112275932D01*
X95429109Y-112275932D01*
X95586176Y-112307174D01*
X95586176Y-112307174D01*
G37*
G36*
X142734108Y-112307174D02*
X142882068Y-112368462D01*
X142906819Y-112385000D01*
X143015223Y-112457433D01*
X143128465Y-112570675D01*
X143148520Y-112600690D01*
X143217436Y-112703830D01*
X143278724Y-112851790D01*
X143309966Y-113008857D01*
X143309966Y-113169007D01*
X143278724Y-113326074D01*
X143231320Y-113440515D01*
X143217437Y-113474032D01*
X143128465Y-113607189D01*
X143015223Y-113720431D01*
X143004742Y-113727434D01*
X142882068Y-113809402D01*
X142734108Y-113870690D01*
X142577041Y-113901932D01*
X142416891Y-113901932D01*
X142259824Y-113870690D01*
X142111864Y-113809402D01*
X141989190Y-113727434D01*
X141978709Y-113720431D01*
X141865467Y-113607189D01*
X141776495Y-113474032D01*
X141762612Y-113440515D01*
X141715208Y-113326074D01*
X141683966Y-113169007D01*
X141683966Y-113008857D01*
X141715208Y-112851790D01*
X141776496Y-112703830D01*
X141845412Y-112600690D01*
X141865467Y-112570675D01*
X141978709Y-112457433D01*
X142087113Y-112385000D01*
X142111864Y-112368462D01*
X142259824Y-112307174D01*
X142416891Y-112275932D01*
X142577041Y-112275932D01*
X142734108Y-112307174D01*
X142734108Y-112307174D01*
G37*
G36*
X140534403Y-111037174D02*
X140682363Y-111098462D01*
X140730910Y-111130900D01*
X140815518Y-111187433D01*
X140928760Y-111300675D01*
X140948815Y-111330690D01*
X141017731Y-111433830D01*
X141079019Y-111581790D01*
X141110261Y-111738857D01*
X141110261Y-111899007D01*
X141079019Y-112056074D01*
X141070566Y-112076481D01*
X141017732Y-112204032D01*
X140928760Y-112337189D01*
X140815518Y-112450431D01*
X140805037Y-112457434D01*
X140682363Y-112539402D01*
X140534403Y-112600690D01*
X140377336Y-112631932D01*
X140217186Y-112631932D01*
X140060119Y-112600690D01*
X139912159Y-112539402D01*
X139789485Y-112457434D01*
X139779004Y-112450431D01*
X139665762Y-112337189D01*
X139576790Y-112204032D01*
X139523956Y-112076481D01*
X139515503Y-112056074D01*
X139484261Y-111899007D01*
X139484261Y-111738857D01*
X139515503Y-111581790D01*
X139576791Y-111433830D01*
X139645707Y-111330690D01*
X139665762Y-111300675D01*
X139779004Y-111187433D01*
X139863612Y-111130900D01*
X139912159Y-111098462D01*
X140060119Y-111037174D01*
X140217186Y-111005932D01*
X140377336Y-111005932D01*
X140534403Y-111037174D01*
X140534403Y-111037174D01*
G37*
G36*
X97785881Y-111037174D02*
X97933841Y-111098462D01*
X97982388Y-111130900D01*
X98066996Y-111187433D01*
X98180238Y-111300675D01*
X98200293Y-111330690D01*
X98269209Y-111433830D01*
X98330497Y-111581790D01*
X98361739Y-111738857D01*
X98361739Y-111899007D01*
X98330497Y-112056074D01*
X98322044Y-112076481D01*
X98269210Y-112204032D01*
X98180238Y-112337189D01*
X98066996Y-112450431D01*
X98056515Y-112457434D01*
X97933841Y-112539402D01*
X97785881Y-112600690D01*
X97628814Y-112631932D01*
X97468664Y-112631932D01*
X97311597Y-112600690D01*
X97163637Y-112539402D01*
X97040963Y-112457434D01*
X97030482Y-112450431D01*
X96917240Y-112337189D01*
X96828268Y-112204032D01*
X96775434Y-112076481D01*
X96766981Y-112056074D01*
X96735739Y-111899007D01*
X96735739Y-111738857D01*
X96766981Y-111581790D01*
X96828269Y-111433830D01*
X96897185Y-111330690D01*
X96917240Y-111300675D01*
X97030482Y-111187433D01*
X97115090Y-111130900D01*
X97163637Y-111098462D01*
X97311597Y-111037174D01*
X97468664Y-111005932D01*
X97628814Y-111005932D01*
X97785881Y-111037174D01*
X97785881Y-111037174D01*
G37*
G36*
X111678228Y-110715703D02*
X111833100Y-110779853D01*
X111972481Y-110872985D01*
X112091015Y-110991519D01*
X112184147Y-111130900D01*
X112248297Y-111285772D01*
X112281000Y-111450184D01*
X112281000Y-111617816D01*
X112248297Y-111782228D01*
X112184147Y-111937100D01*
X112091015Y-112076481D01*
X111972481Y-112195015D01*
X111833100Y-112288147D01*
X111678228Y-112352297D01*
X111513816Y-112385000D01*
X111346184Y-112385000D01*
X111181772Y-112352297D01*
X111026900Y-112288147D01*
X110887519Y-112195015D01*
X110768985Y-112076481D01*
X110675853Y-111937100D01*
X110611703Y-111782228D01*
X110579000Y-111617816D01*
X110579000Y-111450184D01*
X110611703Y-111285772D01*
X110675853Y-111130900D01*
X110768985Y-110991519D01*
X110887519Y-110872985D01*
X111026900Y-110779853D01*
X111181772Y-110715703D01*
X111346184Y-110683000D01*
X111513816Y-110683000D01*
X111678228Y-110715703D01*
X111678228Y-110715703D01*
G37*
G36*
X127521000Y-112385000D02*
X125819000Y-112385000D01*
X125819000Y-110683000D01*
X127521000Y-110683000D01*
X127521000Y-112385000D01*
X127521000Y-112385000D01*
G37*
G36*
X133286000Y-112181000D02*
X131484000Y-112181000D01*
X131484000Y-110379000D01*
X133286000Y-110379000D01*
X133286000Y-112181000D01*
X133286000Y-112181000D01*
G37*
G36*
X129955442Y-110385518D02*
X130021627Y-110392037D01*
X130134853Y-110426384D01*
X130191467Y-110443557D01*
X130330087Y-110517652D01*
X130347991Y-110527222D01*
X130383729Y-110556552D01*
X130485186Y-110639814D01*
X130547466Y-110715704D01*
X130597778Y-110777009D01*
X130597779Y-110777011D01*
X130681443Y-110933533D01*
X130681443Y-110933534D01*
X130732963Y-111103373D01*
X130750359Y-111280000D01*
X130732963Y-111456627D01*
X130698616Y-111569853D01*
X130681443Y-111626467D01*
X130621368Y-111738857D01*
X130597778Y-111782991D01*
X130568448Y-111818729D01*
X130485186Y-111920186D01*
X130383729Y-112003448D01*
X130347991Y-112032778D01*
X130347989Y-112032779D01*
X130191467Y-112116443D01*
X130134853Y-112133616D01*
X130021627Y-112167963D01*
X129955442Y-112174482D01*
X129889260Y-112181000D01*
X129800740Y-112181000D01*
X129734558Y-112174482D01*
X129668373Y-112167963D01*
X129555147Y-112133616D01*
X129498533Y-112116443D01*
X129342011Y-112032779D01*
X129342009Y-112032778D01*
X129306271Y-112003448D01*
X129204814Y-111920186D01*
X129121552Y-111818729D01*
X129092222Y-111782991D01*
X129068632Y-111738857D01*
X129008557Y-111626467D01*
X128991384Y-111569853D01*
X128957037Y-111456627D01*
X128939641Y-111280000D01*
X128957037Y-111103373D01*
X129008557Y-110933534D01*
X129008557Y-110933533D01*
X129092221Y-110777011D01*
X129092222Y-110777009D01*
X129142534Y-110715704D01*
X129204814Y-110639814D01*
X129306271Y-110556552D01*
X129342009Y-110527222D01*
X129359913Y-110517652D01*
X129498533Y-110443557D01*
X129555147Y-110426384D01*
X129668373Y-110392037D01*
X129734558Y-110385518D01*
X129800740Y-110379000D01*
X129889260Y-110379000D01*
X129955442Y-110385518D01*
X129955442Y-110385518D01*
G37*
G36*
X138334699Y-109767174D02*
X138482659Y-109828462D01*
X138507410Y-109845000D01*
X138615814Y-109917433D01*
X138729056Y-110030675D01*
X138749111Y-110060690D01*
X138818027Y-110163830D01*
X138879315Y-110311790D01*
X138910557Y-110468857D01*
X138910557Y-110629007D01*
X138879315Y-110786074D01*
X138843315Y-110872985D01*
X138818028Y-110934032D01*
X138729056Y-111067189D01*
X138615814Y-111180431D01*
X138605333Y-111187434D01*
X138482659Y-111269402D01*
X138334699Y-111330690D01*
X138177632Y-111361932D01*
X138017482Y-111361932D01*
X137860415Y-111330690D01*
X137712455Y-111269402D01*
X137589781Y-111187434D01*
X137579300Y-111180431D01*
X137466058Y-111067189D01*
X137377086Y-110934032D01*
X137351799Y-110872985D01*
X137315799Y-110786074D01*
X137284557Y-110629007D01*
X137284557Y-110468857D01*
X137315799Y-110311790D01*
X137377087Y-110163830D01*
X137446003Y-110060690D01*
X137466058Y-110030675D01*
X137579300Y-109917433D01*
X137687704Y-109845000D01*
X137712455Y-109828462D01*
X137860415Y-109767174D01*
X138017482Y-109735932D01*
X138177632Y-109735932D01*
X138334699Y-109767174D01*
X138334699Y-109767174D01*
G37*
G36*
X99985585Y-109767174D02*
X100133545Y-109828462D01*
X100158296Y-109845000D01*
X100266700Y-109917433D01*
X100379942Y-110030675D01*
X100399997Y-110060690D01*
X100468913Y-110163830D01*
X100530201Y-110311790D01*
X100561443Y-110468857D01*
X100561443Y-110629007D01*
X100530201Y-110786074D01*
X100494201Y-110872985D01*
X100468914Y-110934032D01*
X100379942Y-111067189D01*
X100266700Y-111180431D01*
X100256219Y-111187434D01*
X100133545Y-111269402D01*
X99985585Y-111330690D01*
X99828518Y-111361932D01*
X99668368Y-111361932D01*
X99511301Y-111330690D01*
X99363341Y-111269402D01*
X99240667Y-111187434D01*
X99230186Y-111180431D01*
X99116944Y-111067189D01*
X99027972Y-110934032D01*
X99002685Y-110872985D01*
X98966685Y-110786074D01*
X98935443Y-110629007D01*
X98935443Y-110468857D01*
X98966685Y-110311790D01*
X99027973Y-110163830D01*
X99096889Y-110060690D01*
X99116944Y-110030675D01*
X99230186Y-109917433D01*
X99338590Y-109845000D01*
X99363341Y-109828462D01*
X99511301Y-109767174D01*
X99668368Y-109735932D01*
X99828518Y-109735932D01*
X99985585Y-109767174D01*
X99985585Y-109767174D01*
G37*
G36*
X136134994Y-108497174D02*
X136282954Y-108558462D01*
X136331501Y-108590900D01*
X136416109Y-108647433D01*
X136529351Y-108760675D01*
X136549406Y-108790690D01*
X136618322Y-108893830D01*
X136679610Y-109041790D01*
X136710852Y-109198857D01*
X136710852Y-109359007D01*
X136679610Y-109516074D01*
X136671157Y-109536481D01*
X136618323Y-109664032D01*
X136529351Y-109797189D01*
X136416109Y-109910431D01*
X136405628Y-109917434D01*
X136282954Y-109999402D01*
X136134994Y-110060690D01*
X135977927Y-110091932D01*
X135817777Y-110091932D01*
X135660710Y-110060690D01*
X135512750Y-109999402D01*
X135390076Y-109917434D01*
X135379595Y-109910431D01*
X135266353Y-109797189D01*
X135177381Y-109664032D01*
X135124547Y-109536481D01*
X135116094Y-109516074D01*
X135084852Y-109359007D01*
X135084852Y-109198857D01*
X135116094Y-109041790D01*
X135177382Y-108893830D01*
X135246298Y-108790690D01*
X135266353Y-108760675D01*
X135379595Y-108647433D01*
X135464203Y-108590900D01*
X135512750Y-108558462D01*
X135660710Y-108497174D01*
X135817777Y-108465932D01*
X135977927Y-108465932D01*
X136134994Y-108497174D01*
X136134994Y-108497174D01*
G37*
G36*
X111678228Y-108175703D02*
X111833100Y-108239853D01*
X111972481Y-108332985D01*
X112091015Y-108451519D01*
X112184147Y-108590900D01*
X112248297Y-108745772D01*
X112281000Y-108910184D01*
X112281000Y-109077816D01*
X112248297Y-109242228D01*
X112184147Y-109397100D01*
X112091015Y-109536481D01*
X111972481Y-109655015D01*
X111833100Y-109748147D01*
X111678228Y-109812297D01*
X111513816Y-109845000D01*
X111346184Y-109845000D01*
X111181772Y-109812297D01*
X111026900Y-109748147D01*
X110887519Y-109655015D01*
X110768985Y-109536481D01*
X110675853Y-109397100D01*
X110611703Y-109242228D01*
X110579000Y-109077816D01*
X110579000Y-108910184D01*
X110611703Y-108745772D01*
X110675853Y-108590900D01*
X110768985Y-108451519D01*
X110887519Y-108332985D01*
X111026900Y-108239853D01*
X111181772Y-108175703D01*
X111346184Y-108143000D01*
X111513816Y-108143000D01*
X111678228Y-108175703D01*
X111678228Y-108175703D01*
G37*
G36*
X126918228Y-108175703D02*
X127073100Y-108239853D01*
X127212481Y-108332985D01*
X127331015Y-108451519D01*
X127424147Y-108590900D01*
X127488297Y-108745772D01*
X127521000Y-108910184D01*
X127521000Y-109077816D01*
X127488297Y-109242228D01*
X127424147Y-109397100D01*
X127331015Y-109536481D01*
X127212481Y-109655015D01*
X127073100Y-109748147D01*
X126918228Y-109812297D01*
X126753816Y-109845000D01*
X126586184Y-109845000D01*
X126421772Y-109812297D01*
X126266900Y-109748147D01*
X126127519Y-109655015D01*
X126008985Y-109536481D01*
X125915853Y-109397100D01*
X125851703Y-109242228D01*
X125819000Y-109077816D01*
X125819000Y-108910184D01*
X125851703Y-108745772D01*
X125915853Y-108590900D01*
X126008985Y-108451519D01*
X126127519Y-108332985D01*
X126266900Y-108239853D01*
X126421772Y-108175703D01*
X126586184Y-108143000D01*
X126753816Y-108143000D01*
X126918228Y-108175703D01*
X126918228Y-108175703D01*
G37*
G36*
X114218228Y-108175703D02*
X114373100Y-108239853D01*
X114512481Y-108332985D01*
X114631015Y-108451519D01*
X114724147Y-108590900D01*
X114788297Y-108745772D01*
X114821000Y-108910184D01*
X114821000Y-109077816D01*
X114788297Y-109242228D01*
X114724147Y-109397100D01*
X114631015Y-109536481D01*
X114512481Y-109655015D01*
X114373100Y-109748147D01*
X114218228Y-109812297D01*
X114053816Y-109845000D01*
X113886184Y-109845000D01*
X113721772Y-109812297D01*
X113566900Y-109748147D01*
X113427519Y-109655015D01*
X113308985Y-109536481D01*
X113215853Y-109397100D01*
X113151703Y-109242228D01*
X113119000Y-109077816D01*
X113119000Y-108910184D01*
X113151703Y-108745772D01*
X113215853Y-108590900D01*
X113308985Y-108451519D01*
X113427519Y-108332985D01*
X113566900Y-108239853D01*
X113721772Y-108175703D01*
X113886184Y-108143000D01*
X114053816Y-108143000D01*
X114218228Y-108175703D01*
X114218228Y-108175703D01*
G37*
G36*
X157872789Y-107648211D02*
X156971789Y-109208789D01*
X155411211Y-108307789D01*
X156312211Y-106747211D01*
X157872789Y-107648211D01*
X157872789Y-107648211D01*
G37*
G36*
X133935290Y-107227174D02*
X134083250Y-107288462D01*
X134108001Y-107305000D01*
X134216405Y-107377433D01*
X134329647Y-107490675D01*
X134349702Y-107520690D01*
X134418618Y-107623830D01*
X134479906Y-107771790D01*
X134511148Y-107928857D01*
X134511148Y-108089007D01*
X134479906Y-108246074D01*
X134454342Y-108307789D01*
X134418619Y-108394032D01*
X134329647Y-108527189D01*
X134216405Y-108640431D01*
X134205924Y-108647434D01*
X134083250Y-108729402D01*
X133935290Y-108790690D01*
X133778223Y-108821932D01*
X133618073Y-108821932D01*
X133461006Y-108790690D01*
X133313046Y-108729402D01*
X133190372Y-108647434D01*
X133179891Y-108640431D01*
X133066649Y-108527189D01*
X132977677Y-108394032D01*
X132941954Y-108307789D01*
X132916390Y-108246074D01*
X132885148Y-108089007D01*
X132885148Y-107928857D01*
X132916390Y-107771790D01*
X132977678Y-107623830D01*
X133046594Y-107520690D01*
X133066649Y-107490675D01*
X133179891Y-107377433D01*
X133288295Y-107305000D01*
X133313046Y-107288462D01*
X133461006Y-107227174D01*
X133618073Y-107195932D01*
X133778223Y-107195932D01*
X133935290Y-107227174D01*
X133935290Y-107227174D01*
G37*
G36*
X104384994Y-107227174D02*
X104532954Y-107288462D01*
X104557705Y-107305000D01*
X104666109Y-107377433D01*
X104779351Y-107490675D01*
X104799406Y-107520690D01*
X104868322Y-107623830D01*
X104929610Y-107771790D01*
X104960852Y-107928857D01*
X104960852Y-108089007D01*
X104929610Y-108246074D01*
X104904046Y-108307789D01*
X104868323Y-108394032D01*
X104779351Y-108527189D01*
X104666109Y-108640431D01*
X104655628Y-108647434D01*
X104532954Y-108729402D01*
X104384994Y-108790690D01*
X104227927Y-108821932D01*
X104067777Y-108821932D01*
X103910710Y-108790690D01*
X103762750Y-108729402D01*
X103640076Y-108647434D01*
X103629595Y-108640431D01*
X103516353Y-108527189D01*
X103427381Y-108394032D01*
X103391658Y-108307789D01*
X103366094Y-108246074D01*
X103334852Y-108089007D01*
X103334852Y-107928857D01*
X103366094Y-107771790D01*
X103427382Y-107623830D01*
X103496298Y-107520690D01*
X103516353Y-107490675D01*
X103629595Y-107377433D01*
X103737999Y-107305000D01*
X103762750Y-107288462D01*
X103910710Y-107227174D01*
X104067777Y-107195932D01*
X104227927Y-107195932D01*
X104384994Y-107227174D01*
X104384994Y-107227174D01*
G37*
G36*
X81314442Y-106824632D02*
X81380627Y-106831151D01*
X81493853Y-106865498D01*
X81550467Y-106882671D01*
X81689087Y-106956766D01*
X81706991Y-106966336D01*
X81742729Y-106995666D01*
X81844186Y-107078928D01*
X81927448Y-107180385D01*
X81956778Y-107216123D01*
X81956779Y-107216125D01*
X82040443Y-107372647D01*
X82040443Y-107372648D01*
X82091963Y-107542487D01*
X82109359Y-107719114D01*
X82091963Y-107895741D01*
X82081917Y-107928857D01*
X82040443Y-108065581D01*
X82027921Y-108089007D01*
X81956778Y-108222105D01*
X81937107Y-108246074D01*
X81844186Y-108359300D01*
X81742729Y-108442562D01*
X81706991Y-108471892D01*
X81706989Y-108471893D01*
X81550467Y-108555557D01*
X81493853Y-108572730D01*
X81380627Y-108607077D01*
X81314443Y-108613595D01*
X81248260Y-108620114D01*
X81159740Y-108620114D01*
X81093557Y-108613595D01*
X81027373Y-108607077D01*
X80914147Y-108572730D01*
X80857533Y-108555557D01*
X80701011Y-108471893D01*
X80701009Y-108471892D01*
X80665271Y-108442562D01*
X80563814Y-108359300D01*
X80470893Y-108246074D01*
X80451222Y-108222105D01*
X80380079Y-108089007D01*
X80367557Y-108065581D01*
X80326083Y-107928857D01*
X80316037Y-107895741D01*
X80298641Y-107719114D01*
X80316037Y-107542487D01*
X80367557Y-107372648D01*
X80367557Y-107372647D01*
X80451221Y-107216125D01*
X80451222Y-107216123D01*
X80480552Y-107180385D01*
X80563814Y-107078928D01*
X80665271Y-106995666D01*
X80701009Y-106966336D01*
X80718913Y-106956766D01*
X80857533Y-106882671D01*
X80914147Y-106865498D01*
X81027373Y-106831151D01*
X81093558Y-106824632D01*
X81159740Y-106818114D01*
X81248260Y-106818114D01*
X81314442Y-106824632D01*
X81314442Y-106824632D01*
G37*
G36*
X106584699Y-105957174D02*
X106732659Y-106018462D01*
X106781206Y-106050900D01*
X106865814Y-106107433D01*
X106979056Y-106220675D01*
X106999111Y-106250690D01*
X107068027Y-106353830D01*
X107129315Y-106501790D01*
X107160557Y-106658857D01*
X107160557Y-106819007D01*
X107129315Y-106976074D01*
X107120862Y-106996481D01*
X107068028Y-107124032D01*
X106979056Y-107257189D01*
X106865814Y-107370431D01*
X106855333Y-107377434D01*
X106732659Y-107459402D01*
X106584699Y-107520690D01*
X106427632Y-107551932D01*
X106267482Y-107551932D01*
X106110415Y-107520690D01*
X105962455Y-107459402D01*
X105839781Y-107377434D01*
X105829300Y-107370431D01*
X105716058Y-107257189D01*
X105627086Y-107124032D01*
X105574252Y-106996481D01*
X105565799Y-106976074D01*
X105534557Y-106819007D01*
X105534557Y-106658857D01*
X105565799Y-106501790D01*
X105627087Y-106353830D01*
X105696003Y-106250690D01*
X105716058Y-106220675D01*
X105829300Y-106107433D01*
X105913908Y-106050900D01*
X105962455Y-106018462D01*
X106110415Y-105957174D01*
X106267482Y-105925932D01*
X106427632Y-105925932D01*
X106584699Y-105957174D01*
X106584699Y-105957174D01*
G37*
G36*
X131735585Y-105957174D02*
X131883545Y-106018462D01*
X131932092Y-106050900D01*
X132016700Y-106107433D01*
X132129942Y-106220675D01*
X132149997Y-106250690D01*
X132218913Y-106353830D01*
X132280201Y-106501790D01*
X132311443Y-106658857D01*
X132311443Y-106819007D01*
X132280201Y-106976074D01*
X132271748Y-106996481D01*
X132218914Y-107124032D01*
X132129942Y-107257189D01*
X132016700Y-107370431D01*
X132006219Y-107377434D01*
X131883545Y-107459402D01*
X131735585Y-107520690D01*
X131578518Y-107551932D01*
X131418368Y-107551932D01*
X131261301Y-107520690D01*
X131113341Y-107459402D01*
X130990667Y-107377434D01*
X130980186Y-107370431D01*
X130866944Y-107257189D01*
X130777972Y-107124032D01*
X130725138Y-106996481D01*
X130716685Y-106976074D01*
X130685443Y-106819007D01*
X130685443Y-106658857D01*
X130716685Y-106501790D01*
X130777973Y-106353830D01*
X130846889Y-106250690D01*
X130866944Y-106220675D01*
X130980186Y-106107433D01*
X131064794Y-106050900D01*
X131113341Y-106018462D01*
X131261301Y-105957174D01*
X131418368Y-105925932D01*
X131578518Y-105925932D01*
X131735585Y-105957174D01*
X131735585Y-105957174D01*
G37*
G36*
X126918228Y-105635703D02*
X127073100Y-105699853D01*
X127212481Y-105792985D01*
X127331015Y-105911519D01*
X127424147Y-106050900D01*
X127488297Y-106205772D01*
X127521000Y-106370184D01*
X127521000Y-106537816D01*
X127488297Y-106702228D01*
X127424147Y-106857100D01*
X127331015Y-106996481D01*
X127212481Y-107115015D01*
X127073100Y-107208147D01*
X126918228Y-107272297D01*
X126753816Y-107305000D01*
X126586184Y-107305000D01*
X126421772Y-107272297D01*
X126266900Y-107208147D01*
X126127519Y-107115015D01*
X126008985Y-106996481D01*
X125915853Y-106857100D01*
X125851703Y-106702228D01*
X125819000Y-106537816D01*
X125819000Y-106370184D01*
X125851703Y-106205772D01*
X125915853Y-106050900D01*
X126008985Y-105911519D01*
X126127519Y-105792985D01*
X126266900Y-105699853D01*
X126421772Y-105635703D01*
X126586184Y-105603000D01*
X126753816Y-105603000D01*
X126918228Y-105635703D01*
X126918228Y-105635703D01*
G37*
G36*
X111678228Y-105635703D02*
X111833100Y-105699853D01*
X111972481Y-105792985D01*
X112091015Y-105911519D01*
X112184147Y-106050900D01*
X112248297Y-106205772D01*
X112281000Y-106370184D01*
X112281000Y-106537816D01*
X112248297Y-106702228D01*
X112184147Y-106857100D01*
X112091015Y-106996481D01*
X111972481Y-107115015D01*
X111833100Y-107208147D01*
X111678228Y-107272297D01*
X111513816Y-107305000D01*
X111346184Y-107305000D01*
X111181772Y-107272297D01*
X111026900Y-107208147D01*
X110887519Y-107115015D01*
X110768985Y-106996481D01*
X110675853Y-106857100D01*
X110611703Y-106702228D01*
X110579000Y-106537816D01*
X110579000Y-106370184D01*
X110611703Y-106205772D01*
X110675853Y-106050900D01*
X110768985Y-105911519D01*
X110887519Y-105792985D01*
X111026900Y-105699853D01*
X111181772Y-105635703D01*
X111346184Y-105603000D01*
X111513816Y-105603000D01*
X111678228Y-105635703D01*
X111678228Y-105635703D01*
G37*
G36*
X158022443Y-104883814D02*
X158088627Y-104890332D01*
X158201853Y-104924679D01*
X158258467Y-104941852D01*
X158274973Y-104950675D01*
X158414991Y-105025517D01*
X158450729Y-105054847D01*
X158552186Y-105138109D01*
X158629066Y-105231789D01*
X158664778Y-105275304D01*
X158664779Y-105275306D01*
X158748443Y-105431828D01*
X158748443Y-105431829D01*
X158799963Y-105601668D01*
X158817359Y-105778295D01*
X158799963Y-105954922D01*
X158780688Y-106018462D01*
X158748443Y-106124762D01*
X158697176Y-106220674D01*
X158664778Y-106281286D01*
X158635448Y-106317024D01*
X158552186Y-106418481D01*
X158450729Y-106501743D01*
X158414991Y-106531073D01*
X158414989Y-106531074D01*
X158258467Y-106614738D01*
X158201853Y-106631911D01*
X158088627Y-106666258D01*
X158022442Y-106672777D01*
X157956260Y-106679295D01*
X157867740Y-106679295D01*
X157801558Y-106672777D01*
X157735373Y-106666258D01*
X157622147Y-106631911D01*
X157565533Y-106614738D01*
X157409011Y-106531074D01*
X157409009Y-106531073D01*
X157373271Y-106501743D01*
X157271814Y-106418481D01*
X157188552Y-106317024D01*
X157159222Y-106281286D01*
X157126824Y-106220674D01*
X157075557Y-106124762D01*
X157043312Y-106018462D01*
X157024037Y-105954922D01*
X157006641Y-105778295D01*
X157024037Y-105601668D01*
X157075557Y-105431829D01*
X157075557Y-105431828D01*
X157159221Y-105275306D01*
X157159222Y-105275304D01*
X157194934Y-105231789D01*
X157271814Y-105138109D01*
X157373271Y-105054847D01*
X157409009Y-105025517D01*
X157549027Y-104950675D01*
X157565533Y-104941852D01*
X157622147Y-104924679D01*
X157735373Y-104890332D01*
X157801557Y-104883814D01*
X157867740Y-104877295D01*
X157956260Y-104877295D01*
X158022443Y-104883814D01*
X158022443Y-104883814D01*
G37*
G36*
X80044443Y-104624928D02*
X80110627Y-104631446D01*
X80223853Y-104665793D01*
X80280467Y-104682966D01*
X80419087Y-104757061D01*
X80436991Y-104766631D01*
X80472729Y-104795961D01*
X80574186Y-104879223D01*
X80632823Y-104950674D01*
X80686778Y-105016418D01*
X80686779Y-105016420D01*
X80770443Y-105172942D01*
X80770443Y-105172943D01*
X80821963Y-105342782D01*
X80839359Y-105519409D01*
X80821963Y-105696036D01*
X80797010Y-105778295D01*
X80770443Y-105865876D01*
X80746046Y-105911519D01*
X80686778Y-106022400D01*
X80663388Y-106050900D01*
X80574186Y-106159595D01*
X80472729Y-106242857D01*
X80436991Y-106272187D01*
X80436989Y-106272188D01*
X80280467Y-106355852D01*
X80233220Y-106370184D01*
X80110627Y-106407372D01*
X80044443Y-106413890D01*
X79978260Y-106420409D01*
X79889740Y-106420409D01*
X79823557Y-106413890D01*
X79757373Y-106407372D01*
X79634780Y-106370184D01*
X79587533Y-106355852D01*
X79431011Y-106272188D01*
X79431009Y-106272187D01*
X79395271Y-106242857D01*
X79293814Y-106159595D01*
X79204612Y-106050900D01*
X79181222Y-106022400D01*
X79121954Y-105911519D01*
X79097557Y-105865876D01*
X79070990Y-105778295D01*
X79046037Y-105696036D01*
X79028641Y-105519409D01*
X79046037Y-105342782D01*
X79097557Y-105172943D01*
X79097557Y-105172942D01*
X79181221Y-105016420D01*
X79181222Y-105016418D01*
X79235177Y-104950674D01*
X79293814Y-104879223D01*
X79395271Y-104795961D01*
X79431009Y-104766631D01*
X79448913Y-104757061D01*
X79587533Y-104682966D01*
X79644147Y-104665793D01*
X79757373Y-104631446D01*
X79823557Y-104624928D01*
X79889740Y-104618409D01*
X79978260Y-104618409D01*
X80044443Y-104624928D01*
X80044443Y-104624928D01*
G37*
G36*
X108784403Y-104687174D02*
X108932363Y-104748462D01*
X108959553Y-104766630D01*
X109065518Y-104837433D01*
X109178760Y-104950675D01*
X109267732Y-105083832D01*
X109281615Y-105117349D01*
X109329019Y-105231790D01*
X109360261Y-105388857D01*
X109360261Y-105549007D01*
X109329019Y-105706074D01*
X109293019Y-105792985D01*
X109267732Y-105854032D01*
X109178760Y-105987189D01*
X109065518Y-106100431D01*
X109055037Y-106107434D01*
X108932363Y-106189402D01*
X108784403Y-106250690D01*
X108627336Y-106281932D01*
X108467186Y-106281932D01*
X108310119Y-106250690D01*
X108162159Y-106189402D01*
X108039485Y-106107434D01*
X108029004Y-106100431D01*
X107915762Y-105987189D01*
X107826790Y-105854032D01*
X107801503Y-105792985D01*
X107765503Y-105706074D01*
X107734261Y-105549007D01*
X107734261Y-105388857D01*
X107765503Y-105231790D01*
X107812907Y-105117349D01*
X107826790Y-105083832D01*
X107915762Y-104950675D01*
X108029004Y-104837433D01*
X108134969Y-104766630D01*
X108162159Y-104748462D01*
X108310119Y-104687174D01*
X108467186Y-104655932D01*
X108627336Y-104655932D01*
X108784403Y-104687174D01*
X108784403Y-104687174D01*
G37*
G36*
X129535881Y-104687174D02*
X129683841Y-104748462D01*
X129711031Y-104766630D01*
X129816996Y-104837433D01*
X129930238Y-104950675D01*
X130019210Y-105083832D01*
X130033093Y-105117349D01*
X130080497Y-105231790D01*
X130111739Y-105388857D01*
X130111739Y-105549007D01*
X130080497Y-105706074D01*
X130044497Y-105792985D01*
X130019210Y-105854032D01*
X129930238Y-105987189D01*
X129816996Y-106100431D01*
X129806515Y-106107434D01*
X129683841Y-106189402D01*
X129535881Y-106250690D01*
X129378814Y-106281932D01*
X129218664Y-106281932D01*
X129061597Y-106250690D01*
X128913637Y-106189402D01*
X128790963Y-106107434D01*
X128780482Y-106100431D01*
X128667240Y-105987189D01*
X128578268Y-105854032D01*
X128552981Y-105792985D01*
X128516981Y-105706074D01*
X128485739Y-105549007D01*
X128485739Y-105388857D01*
X128516981Y-105231790D01*
X128564385Y-105117349D01*
X128578268Y-105083832D01*
X128667240Y-104950675D01*
X128780482Y-104837433D01*
X128886447Y-104766630D01*
X128913637Y-104748462D01*
X129061597Y-104687174D01*
X129218664Y-104655932D01*
X129378814Y-104655932D01*
X129535881Y-104687174D01*
X129535881Y-104687174D01*
G37*
G36*
X119341981Y-104221468D02*
X119524150Y-104296925D01*
X119688103Y-104406475D01*
X119827525Y-104545897D01*
X119937075Y-104709850D01*
X120012532Y-104892019D01*
X120051000Y-105085410D01*
X120051000Y-105282590D01*
X120012532Y-105475981D01*
X119937075Y-105658150D01*
X119827525Y-105822103D01*
X119688103Y-105961525D01*
X119524150Y-106071075D01*
X119341981Y-106146532D01*
X119148590Y-106185000D01*
X118951410Y-106185000D01*
X118758019Y-106146532D01*
X118575850Y-106071075D01*
X118411897Y-105961525D01*
X118272475Y-105822103D01*
X118162925Y-105658150D01*
X118087468Y-105475981D01*
X118049000Y-105282590D01*
X118049000Y-105085410D01*
X118087468Y-104892019D01*
X118162925Y-104709850D01*
X118272475Y-104545897D01*
X118411897Y-104406475D01*
X118575850Y-104296925D01*
X118758019Y-104221468D01*
X118951410Y-104183000D01*
X119148590Y-104183000D01*
X119341981Y-104221468D01*
X119341981Y-104221468D01*
G37*
G36*
X159292443Y-102684110D02*
X159358627Y-102690628D01*
X159471853Y-102724975D01*
X159528467Y-102742148D01*
X159667087Y-102816243D01*
X159684991Y-102825813D01*
X159720729Y-102855143D01*
X159822186Y-102938405D01*
X159905448Y-103039862D01*
X159934778Y-103075600D01*
X159934779Y-103075602D01*
X160018443Y-103232124D01*
X160018443Y-103232125D01*
X160069963Y-103401964D01*
X160087359Y-103578591D01*
X160069963Y-103755218D01*
X160049494Y-103822694D01*
X160018443Y-103925058D01*
X159999824Y-103959891D01*
X159934778Y-104081582D01*
X159905448Y-104117320D01*
X159822186Y-104218777D01*
X159726961Y-104296925D01*
X159684991Y-104331369D01*
X159684989Y-104331370D01*
X159528467Y-104415034D01*
X159471853Y-104432207D01*
X159358627Y-104466554D01*
X159292443Y-104473072D01*
X159226260Y-104479591D01*
X159137740Y-104479591D01*
X159071558Y-104473073D01*
X159005373Y-104466554D01*
X158892147Y-104432207D01*
X158835533Y-104415034D01*
X158679011Y-104331370D01*
X158679009Y-104331369D01*
X158637039Y-104296925D01*
X158541814Y-104218777D01*
X158458552Y-104117320D01*
X158429222Y-104081582D01*
X158364176Y-103959891D01*
X158345557Y-103925058D01*
X158314506Y-103822694D01*
X158294037Y-103755218D01*
X158276641Y-103578591D01*
X158294037Y-103401964D01*
X158345557Y-103232125D01*
X158345557Y-103232124D01*
X158429221Y-103075602D01*
X158429222Y-103075600D01*
X158458552Y-103039862D01*
X158541814Y-102938405D01*
X158643271Y-102855143D01*
X158679009Y-102825813D01*
X158696913Y-102816243D01*
X158835533Y-102742148D01*
X158892147Y-102724975D01*
X159005373Y-102690628D01*
X159071558Y-102684109D01*
X159137740Y-102677591D01*
X159226260Y-102677591D01*
X159292443Y-102684110D01*
X159292443Y-102684110D01*
G37*
G36*
X78774442Y-102425223D02*
X78840627Y-102431742D01*
X78953853Y-102466089D01*
X79010467Y-102483262D01*
X79149087Y-102557357D01*
X79166991Y-102566927D01*
X79202729Y-102596257D01*
X79304186Y-102679519D01*
X79387448Y-102780976D01*
X79416778Y-102816714D01*
X79416779Y-102816716D01*
X79500443Y-102973238D01*
X79500443Y-102973239D01*
X79551963Y-103143078D01*
X79569359Y-103319705D01*
X79551963Y-103496332D01*
X79527010Y-103578591D01*
X79500443Y-103666172D01*
X79452847Y-103755216D01*
X79416778Y-103822696D01*
X79387448Y-103858434D01*
X79304186Y-103959891D01*
X79202729Y-104043153D01*
X79166991Y-104072483D01*
X79166989Y-104072484D01*
X79010467Y-104156148D01*
X78953853Y-104173321D01*
X78840627Y-104207668D01*
X78774443Y-104214186D01*
X78708260Y-104220705D01*
X78619740Y-104220705D01*
X78553558Y-104214187D01*
X78487373Y-104207668D01*
X78374147Y-104173321D01*
X78317533Y-104156148D01*
X78161011Y-104072484D01*
X78161009Y-104072483D01*
X78125271Y-104043153D01*
X78023814Y-103959891D01*
X77940552Y-103858434D01*
X77911222Y-103822696D01*
X77875153Y-103755216D01*
X77827557Y-103666172D01*
X77800990Y-103578591D01*
X77776037Y-103496332D01*
X77758641Y-103319705D01*
X77776037Y-103143078D01*
X77827557Y-102973239D01*
X77827557Y-102973238D01*
X77911221Y-102816716D01*
X77911222Y-102816714D01*
X77940552Y-102780976D01*
X78023814Y-102679519D01*
X78125271Y-102596257D01*
X78161009Y-102566927D01*
X78178913Y-102557357D01*
X78317533Y-102483262D01*
X78374147Y-102466089D01*
X78487373Y-102431742D01*
X78553557Y-102425224D01*
X78619740Y-102418705D01*
X78708260Y-102418705D01*
X78774442Y-102425223D01*
X78774442Y-102425223D01*
G37*
G36*
X119341981Y-100411468D02*
X119524150Y-100486925D01*
X119688103Y-100596475D01*
X119827525Y-100735897D01*
X119937075Y-100899850D01*
X120012532Y-101082019D01*
X120051000Y-101275410D01*
X120051000Y-101472590D01*
X120012532Y-101665981D01*
X119937075Y-101848150D01*
X119827525Y-102012103D01*
X119688103Y-102151525D01*
X119524150Y-102261075D01*
X119341981Y-102336532D01*
X119148590Y-102375000D01*
X118951410Y-102375000D01*
X118758019Y-102336532D01*
X118575850Y-102261075D01*
X118411897Y-102151525D01*
X118272475Y-102012103D01*
X118162925Y-101848150D01*
X118087468Y-101665981D01*
X118049000Y-101472590D01*
X118049000Y-101275410D01*
X118087468Y-101082019D01*
X118162925Y-100899850D01*
X118272475Y-100735897D01*
X118411897Y-100596475D01*
X118575850Y-100486925D01*
X118758019Y-100411468D01*
X118951410Y-100373000D01*
X119148590Y-100373000D01*
X119341981Y-100411468D01*
X119341981Y-100411468D01*
G37*
G36*
X160562443Y-100484405D02*
X160628627Y-100490923D01*
X160734371Y-100523000D01*
X160798467Y-100542443D01*
X160899552Y-100596475D01*
X160954991Y-100626108D01*
X160990729Y-100655438D01*
X161092186Y-100738700D01*
X161161368Y-100823000D01*
X161204778Y-100875895D01*
X161204779Y-100875897D01*
X161288443Y-101032419D01*
X161288443Y-101032420D01*
X161339963Y-101202259D01*
X161357359Y-101378886D01*
X161339963Y-101555513D01*
X161319725Y-101622228D01*
X161288443Y-101725353D01*
X161269824Y-101760186D01*
X161204778Y-101881877D01*
X161186765Y-101903826D01*
X161092186Y-102019072D01*
X160990729Y-102102334D01*
X160954991Y-102131664D01*
X160954989Y-102131665D01*
X160798467Y-102215329D01*
X160766585Y-102225000D01*
X160628627Y-102266849D01*
X160562443Y-102273367D01*
X160496260Y-102279886D01*
X160407740Y-102279886D01*
X160341557Y-102273367D01*
X160275373Y-102266849D01*
X160137415Y-102225000D01*
X160105533Y-102215329D01*
X159949011Y-102131665D01*
X159949009Y-102131664D01*
X159913271Y-102102334D01*
X159811814Y-102019072D01*
X159717235Y-101903826D01*
X159699222Y-101881877D01*
X159634176Y-101760186D01*
X159615557Y-101725353D01*
X159584275Y-101622228D01*
X159564037Y-101555513D01*
X159546641Y-101378886D01*
X159564037Y-101202259D01*
X159615557Y-101032420D01*
X159615557Y-101032419D01*
X159699221Y-100875897D01*
X159699222Y-100875895D01*
X159742632Y-100823000D01*
X159811814Y-100738700D01*
X159913271Y-100655438D01*
X159949009Y-100626108D01*
X160004448Y-100596475D01*
X160105533Y-100542443D01*
X160169629Y-100523000D01*
X160275373Y-100490923D01*
X160341557Y-100484405D01*
X160407740Y-100477886D01*
X160496260Y-100477886D01*
X160562443Y-100484405D01*
X160562443Y-100484405D01*
G37*
G36*
X114218228Y-100555703D02*
X114373100Y-100619853D01*
X114512481Y-100712985D01*
X114631015Y-100831519D01*
X114724147Y-100970900D01*
X114788297Y-101125772D01*
X114821000Y-101290184D01*
X114821000Y-101457816D01*
X114788297Y-101622228D01*
X114724147Y-101777100D01*
X114631015Y-101916481D01*
X114512481Y-102035015D01*
X114373100Y-102128147D01*
X114218228Y-102192297D01*
X114053816Y-102225000D01*
X113886184Y-102225000D01*
X113721772Y-102192297D01*
X113566900Y-102128147D01*
X113427519Y-102035015D01*
X113308985Y-101916481D01*
X113215853Y-101777100D01*
X113151703Y-101622228D01*
X113119000Y-101457816D01*
X113119000Y-101290184D01*
X113151703Y-101125772D01*
X113215853Y-100970900D01*
X113308985Y-100831519D01*
X113427519Y-100712985D01*
X113566900Y-100619853D01*
X113721772Y-100555703D01*
X113886184Y-100523000D01*
X114053816Y-100523000D01*
X114218228Y-100555703D01*
X114218228Y-100555703D01*
G37*
G36*
X77504443Y-100225519D02*
X77570627Y-100232037D01*
X77683853Y-100266384D01*
X77740467Y-100283557D01*
X77879087Y-100357652D01*
X77896991Y-100367222D01*
X77904031Y-100373000D01*
X78034186Y-100479814D01*
X78096466Y-100555704D01*
X78146778Y-100617009D01*
X78146779Y-100617011D01*
X78230443Y-100773533D01*
X78230443Y-100773534D01*
X78281963Y-100943373D01*
X78299359Y-101120000D01*
X78281963Y-101296627D01*
X78274954Y-101319731D01*
X78230443Y-101466467D01*
X78227170Y-101472590D01*
X78146778Y-101622991D01*
X78117448Y-101658729D01*
X78034186Y-101760186D01*
X77932729Y-101843448D01*
X77896991Y-101872778D01*
X77896989Y-101872779D01*
X77740467Y-101956443D01*
X77683853Y-101973616D01*
X77570627Y-102007963D01*
X77504442Y-102014482D01*
X77438260Y-102021000D01*
X77349740Y-102021000D01*
X77283557Y-102014481D01*
X77217373Y-102007963D01*
X77104147Y-101973616D01*
X77047533Y-101956443D01*
X76891011Y-101872779D01*
X76891009Y-101872778D01*
X76855271Y-101843448D01*
X76753814Y-101760186D01*
X76670552Y-101658729D01*
X76641222Y-101622991D01*
X76560830Y-101472590D01*
X76557557Y-101466467D01*
X76513046Y-101319731D01*
X76506037Y-101296627D01*
X76488641Y-101120000D01*
X76506037Y-100943373D01*
X76557557Y-100773534D01*
X76557557Y-100773533D01*
X76641221Y-100617011D01*
X76641222Y-100617009D01*
X76691534Y-100555704D01*
X76753814Y-100479814D01*
X76883969Y-100373000D01*
X76891009Y-100367222D01*
X76908913Y-100357652D01*
X77047533Y-100283557D01*
X77104147Y-100266384D01*
X77217373Y-100232037D01*
X77283557Y-100225519D01*
X77349740Y-100219000D01*
X77438260Y-100219000D01*
X77504443Y-100225519D01*
X77504443Y-100225519D01*
G37*
G36*
X108288721Y-100844174D02*
X108388995Y-100885709D01*
X108479245Y-100946012D01*
X108555988Y-101022755D01*
X108616291Y-101113005D01*
X108657826Y-101213279D01*
X108679000Y-101319730D01*
X108679000Y-101428270D01*
X108657826Y-101534721D01*
X108616291Y-101634995D01*
X108555988Y-101725245D01*
X108479245Y-101801988D01*
X108388995Y-101862291D01*
X108288721Y-101903826D01*
X108182270Y-101925000D01*
X108073730Y-101925000D01*
X107967279Y-101903826D01*
X107867005Y-101862291D01*
X107776755Y-101801988D01*
X107700012Y-101725245D01*
X107639709Y-101634995D01*
X107598174Y-101534721D01*
X107577000Y-101428270D01*
X107577000Y-101319730D01*
X107598174Y-101213279D01*
X107639709Y-101113005D01*
X107700012Y-101022755D01*
X107776755Y-100946012D01*
X107867005Y-100885709D01*
X107967279Y-100844174D01*
X108073730Y-100823000D01*
X108182270Y-100823000D01*
X108288721Y-100844174D01*
X108288721Y-100844174D01*
G37*
G36*
X161832442Y-98284700D02*
X161898627Y-98291219D01*
X162011853Y-98325566D01*
X162068467Y-98342739D01*
X162207087Y-98416834D01*
X162224991Y-98426404D01*
X162230469Y-98430900D01*
X162362186Y-98538996D01*
X162445448Y-98640453D01*
X162474778Y-98676191D01*
X162474779Y-98676193D01*
X162558443Y-98832715D01*
X162558443Y-98832716D01*
X162609963Y-99002555D01*
X162627359Y-99179182D01*
X162609963Y-99355809D01*
X162603692Y-99376481D01*
X162558443Y-99525649D01*
X162490748Y-99652296D01*
X162474778Y-99682173D01*
X162445448Y-99717911D01*
X162362186Y-99819368D01*
X162260729Y-99902630D01*
X162224991Y-99931960D01*
X162224989Y-99931961D01*
X162068467Y-100015625D01*
X162011853Y-100032798D01*
X161898627Y-100067145D01*
X161832443Y-100073663D01*
X161766260Y-100080182D01*
X161677740Y-100080182D01*
X161611557Y-100073663D01*
X161545373Y-100067145D01*
X161432147Y-100032798D01*
X161375533Y-100015625D01*
X161219011Y-99931961D01*
X161219009Y-99931960D01*
X161183271Y-99902630D01*
X161081814Y-99819368D01*
X160998552Y-99717911D01*
X160969222Y-99682173D01*
X160953252Y-99652296D01*
X160885557Y-99525649D01*
X160840308Y-99376481D01*
X160834037Y-99355809D01*
X160816641Y-99179182D01*
X160834037Y-99002555D01*
X160885557Y-98832716D01*
X160885557Y-98832715D01*
X160969221Y-98676193D01*
X160969222Y-98676191D01*
X160998552Y-98640453D01*
X161081814Y-98538996D01*
X161213531Y-98430900D01*
X161219009Y-98426404D01*
X161236913Y-98416834D01*
X161375533Y-98342739D01*
X161432147Y-98325566D01*
X161545373Y-98291219D01*
X161611557Y-98284701D01*
X161677740Y-98278182D01*
X161766260Y-98278182D01*
X161832442Y-98284700D01*
X161832442Y-98284700D01*
G37*
G36*
X76234442Y-98025814D02*
X76300627Y-98032333D01*
X76413853Y-98066680D01*
X76470467Y-98083853D01*
X76590949Y-98148253D01*
X76626991Y-98167518D01*
X76662729Y-98196848D01*
X76764186Y-98280110D01*
X76847448Y-98381567D01*
X76876778Y-98417305D01*
X76876779Y-98417307D01*
X76960443Y-98573829D01*
X76960443Y-98573830D01*
X77011963Y-98743669D01*
X77029359Y-98920296D01*
X77011963Y-99096923D01*
X76987010Y-99179182D01*
X76960443Y-99266763D01*
X76912847Y-99355807D01*
X76876778Y-99423287D01*
X76847448Y-99459025D01*
X76764186Y-99560482D01*
X76662729Y-99643744D01*
X76626991Y-99673074D01*
X76626989Y-99673075D01*
X76470467Y-99756739D01*
X76413853Y-99773912D01*
X76300627Y-99808259D01*
X76234443Y-99814777D01*
X76168260Y-99821296D01*
X76079740Y-99821296D01*
X76013557Y-99814777D01*
X75947373Y-99808259D01*
X75834147Y-99773912D01*
X75777533Y-99756739D01*
X75621011Y-99673075D01*
X75621009Y-99673074D01*
X75585271Y-99643744D01*
X75483814Y-99560482D01*
X75400552Y-99459025D01*
X75371222Y-99423287D01*
X75335153Y-99355807D01*
X75287557Y-99266763D01*
X75260990Y-99179182D01*
X75236037Y-99096923D01*
X75218641Y-98920296D01*
X75236037Y-98743669D01*
X75287557Y-98573830D01*
X75287557Y-98573829D01*
X75371221Y-98417307D01*
X75371222Y-98417305D01*
X75400552Y-98381567D01*
X75483814Y-98280110D01*
X75585271Y-98196848D01*
X75621009Y-98167518D01*
X75657051Y-98148253D01*
X75777533Y-98083853D01*
X75834147Y-98066680D01*
X75947373Y-98032333D01*
X76013558Y-98025814D01*
X76079740Y-98019296D01*
X76168260Y-98019296D01*
X76234442Y-98025814D01*
X76234442Y-98025814D01*
G37*
G36*
X115146721Y-97034174D02*
X115246995Y-97075709D01*
X115337245Y-97136012D01*
X115413988Y-97212755D01*
X115474291Y-97303005D01*
X115515826Y-97403279D01*
X115537000Y-97509730D01*
X115537000Y-97618270D01*
X115515826Y-97724721D01*
X115474291Y-97824995D01*
X115413988Y-97915245D01*
X115337245Y-97991988D01*
X115246995Y-98052291D01*
X115146721Y-98093826D01*
X115040270Y-98115000D01*
X114931730Y-98115000D01*
X114825279Y-98093826D01*
X114736745Y-98057154D01*
X114713296Y-98050041D01*
X114688910Y-98047639D01*
X114664523Y-98050041D01*
X114641074Y-98057154D01*
X114619464Y-98068705D01*
X114600521Y-98084251D01*
X114584976Y-98103193D01*
X114573425Y-98124804D01*
X114566312Y-98148253D01*
X114563910Y-98172639D01*
X114566312Y-98197026D01*
X114573425Y-98220475D01*
X114584976Y-98242085D01*
X114600517Y-98261021D01*
X114631015Y-98291519D01*
X114724147Y-98430900D01*
X114788297Y-98585772D01*
X114821000Y-98750184D01*
X114821000Y-98917816D01*
X114788297Y-99082228D01*
X114724147Y-99237100D01*
X114631015Y-99376481D01*
X114512481Y-99495015D01*
X114373100Y-99588147D01*
X114218228Y-99652297D01*
X114053816Y-99685000D01*
X113886184Y-99685000D01*
X113721772Y-99652297D01*
X113566900Y-99588147D01*
X113427519Y-99495015D01*
X113308985Y-99376481D01*
X113215853Y-99237100D01*
X113151703Y-99082228D01*
X113119000Y-98917816D01*
X113119000Y-98750184D01*
X113151703Y-98585772D01*
X113215853Y-98430900D01*
X113308985Y-98291519D01*
X113427519Y-98172985D01*
X113566900Y-98079853D01*
X113721772Y-98015703D01*
X113886184Y-97983000D01*
X114053816Y-97983000D01*
X114218228Y-98015703D01*
X114373100Y-98079853D01*
X114379086Y-98083853D01*
X114383347Y-98086700D01*
X114404958Y-98098251D01*
X114428407Y-98105364D01*
X114452793Y-98107766D01*
X114477180Y-98105364D01*
X114500629Y-98098250D01*
X114522239Y-98086699D01*
X114541181Y-98071153D01*
X114556726Y-98052211D01*
X114568277Y-98030600D01*
X114575390Y-98007151D01*
X114577792Y-97982765D01*
X114575390Y-97958378D01*
X114568276Y-97934929D01*
X114556730Y-97913326D01*
X114497710Y-97824996D01*
X114497708Y-97824993D01*
X114456174Y-97724721D01*
X114435000Y-97618270D01*
X114435000Y-97509730D01*
X114456174Y-97403279D01*
X114497709Y-97303005D01*
X114558012Y-97212755D01*
X114634755Y-97136012D01*
X114725005Y-97075709D01*
X114825279Y-97034174D01*
X114931730Y-97013000D01*
X115040270Y-97013000D01*
X115146721Y-97034174D01*
X115146721Y-97034174D01*
G37*
G36*
X76084789Y-97050380D02*
X74524211Y-97951380D01*
X73623211Y-96390802D01*
X75183789Y-95489802D01*
X76084789Y-97050380D01*
X76084789Y-97050380D01*
G37*
G36*
X163102443Y-96084996D02*
X163168627Y-96091514D01*
X163281853Y-96125861D01*
X163338467Y-96143034D01*
X163446390Y-96200721D01*
X163494991Y-96226699D01*
X163530729Y-96256029D01*
X163632186Y-96339291D01*
X163715448Y-96440748D01*
X163744778Y-96476486D01*
X163744779Y-96476488D01*
X163828443Y-96633010D01*
X163828443Y-96633011D01*
X163879963Y-96802850D01*
X163897359Y-96979477D01*
X163879963Y-97156104D01*
X163862778Y-97212755D01*
X163828443Y-97325944D01*
X163787106Y-97403279D01*
X163744778Y-97482468D01*
X163722404Y-97509730D01*
X163632186Y-97619663D01*
X163530729Y-97702925D01*
X163494991Y-97732255D01*
X163494989Y-97732256D01*
X163338467Y-97815920D01*
X163281853Y-97833093D01*
X163168627Y-97867440D01*
X163102443Y-97873958D01*
X163036260Y-97880477D01*
X162947740Y-97880477D01*
X162881557Y-97873958D01*
X162815373Y-97867440D01*
X162702147Y-97833093D01*
X162645533Y-97815920D01*
X162489011Y-97732256D01*
X162489009Y-97732255D01*
X162453271Y-97702925D01*
X162351814Y-97619663D01*
X162261596Y-97509730D01*
X162239222Y-97482468D01*
X162196894Y-97403279D01*
X162155557Y-97325944D01*
X162121222Y-97212755D01*
X162104037Y-97156104D01*
X162086641Y-96979477D01*
X162104037Y-96802850D01*
X162155557Y-96633011D01*
X162155557Y-96633010D01*
X162239221Y-96476488D01*
X162239222Y-96476486D01*
X162268552Y-96440748D01*
X162351814Y-96339291D01*
X162453271Y-96256029D01*
X162489009Y-96226699D01*
X162537610Y-96200721D01*
X162645533Y-96143034D01*
X162702147Y-96125861D01*
X162815373Y-96091514D01*
X162881557Y-96084996D01*
X162947740Y-96078477D01*
X163036260Y-96078477D01*
X163102443Y-96084996D01*
X163102443Y-96084996D01*
G37*
G36*
X116758228Y-95475703D02*
X116913100Y-95539853D01*
X117052481Y-95632985D01*
X117171015Y-95751519D01*
X117264147Y-95890900D01*
X117328297Y-96045772D01*
X117361000Y-96210184D01*
X117361000Y-96377816D01*
X117328297Y-96542228D01*
X117264147Y-96697100D01*
X117171015Y-96836481D01*
X117052481Y-96955015D01*
X116913100Y-97048147D01*
X116758228Y-97112297D01*
X116593816Y-97145000D01*
X116426184Y-97145000D01*
X116261772Y-97112297D01*
X116106900Y-97048147D01*
X115967519Y-96955015D01*
X115848985Y-96836481D01*
X115755853Y-96697100D01*
X115691703Y-96542228D01*
X115659000Y-96377816D01*
X115659000Y-96210184D01*
X115691703Y-96045772D01*
X115755853Y-95890900D01*
X115848985Y-95751519D01*
X115967519Y-95632985D01*
X116106900Y-95539853D01*
X116261772Y-95475703D01*
X116426184Y-95443000D01*
X116593816Y-95443000D01*
X116758228Y-95475703D01*
X116758228Y-95475703D01*
G37*
G36*
X119298228Y-95475703D02*
X119453100Y-95539853D01*
X119592481Y-95632985D01*
X119711015Y-95751519D01*
X119804147Y-95890900D01*
X119868297Y-96045772D01*
X119901000Y-96210184D01*
X119901000Y-96377816D01*
X119868297Y-96542228D01*
X119804147Y-96697100D01*
X119711015Y-96836481D01*
X119592481Y-96955015D01*
X119453100Y-97048147D01*
X119298228Y-97112297D01*
X119133816Y-97145000D01*
X118966184Y-97145000D01*
X118801772Y-97112297D01*
X118646900Y-97048147D01*
X118507519Y-96955015D01*
X118388985Y-96836481D01*
X118295853Y-96697100D01*
X118231703Y-96542228D01*
X118199000Y-96377816D01*
X118199000Y-96210184D01*
X118231703Y-96045772D01*
X118295853Y-95890900D01*
X118388985Y-95751519D01*
X118507519Y-95632985D01*
X118646900Y-95539853D01*
X118801772Y-95475703D01*
X118966184Y-95443000D01*
X119133816Y-95443000D01*
X119298228Y-95475703D01*
X119298228Y-95475703D01*
G37*
G36*
X111678228Y-95475703D02*
X111833100Y-95539853D01*
X111972481Y-95632985D01*
X112091015Y-95751519D01*
X112184147Y-95890900D01*
X112248297Y-96045772D01*
X112281000Y-96210184D01*
X112281000Y-96377816D01*
X112248297Y-96542228D01*
X112184147Y-96697100D01*
X112091015Y-96836481D01*
X111972481Y-96955015D01*
X111833100Y-97048147D01*
X111678228Y-97112297D01*
X111513816Y-97145000D01*
X111346184Y-97145000D01*
X111181772Y-97112297D01*
X111026900Y-97048147D01*
X110887519Y-96955015D01*
X110768985Y-96836481D01*
X110675853Y-96697100D01*
X110611703Y-96542228D01*
X110579000Y-96377816D01*
X110579000Y-96210184D01*
X110611703Y-96045772D01*
X110675853Y-95890900D01*
X110768985Y-95751519D01*
X110887519Y-95632985D01*
X111026900Y-95539853D01*
X111181772Y-95475703D01*
X111346184Y-95443000D01*
X111513816Y-95443000D01*
X111678228Y-95475703D01*
X111678228Y-95475703D01*
G37*
G36*
X133180721Y-95510174D02*
X133280995Y-95551709D01*
X133371245Y-95612012D01*
X133447988Y-95688755D01*
X133508291Y-95779005D01*
X133549826Y-95879279D01*
X133571000Y-95985730D01*
X133571000Y-96094270D01*
X133549826Y-96200721D01*
X133508291Y-96300995D01*
X133447988Y-96391245D01*
X133371245Y-96467988D01*
X133280995Y-96528291D01*
X133180721Y-96569826D01*
X133074270Y-96591000D01*
X132965730Y-96591000D01*
X132859279Y-96569826D01*
X132759005Y-96528291D01*
X132668755Y-96467988D01*
X132592012Y-96391245D01*
X132531709Y-96300995D01*
X132490174Y-96200721D01*
X132469000Y-96094270D01*
X132469000Y-95985730D01*
X132490174Y-95879279D01*
X132531709Y-95779005D01*
X132592012Y-95688755D01*
X132668755Y-95612012D01*
X132759005Y-95551709D01*
X132859279Y-95510174D01*
X132965730Y-95489000D01*
X133074270Y-95489000D01*
X133180721Y-95510174D01*
X133180721Y-95510174D01*
G37*
G36*
X116758228Y-92935703D02*
X116913100Y-92999853D01*
X117052481Y-93092985D01*
X117171015Y-93211519D01*
X117264147Y-93350900D01*
X117328297Y-93505772D01*
X117361000Y-93670184D01*
X117361000Y-93837816D01*
X117328297Y-94002228D01*
X117264147Y-94157100D01*
X117171015Y-94296481D01*
X117052481Y-94415015D01*
X116913100Y-94508147D01*
X116758228Y-94572297D01*
X116593816Y-94605000D01*
X116426184Y-94605000D01*
X116261772Y-94572297D01*
X116106900Y-94508147D01*
X115967519Y-94415015D01*
X115848985Y-94296481D01*
X115755853Y-94157100D01*
X115691703Y-94002228D01*
X115659000Y-93837816D01*
X115659000Y-93670184D01*
X115691703Y-93505772D01*
X115755853Y-93350900D01*
X115848985Y-93211519D01*
X115967519Y-93092985D01*
X116106900Y-92999853D01*
X116261772Y-92935703D01*
X116426184Y-92903000D01*
X116593816Y-92903000D01*
X116758228Y-92935703D01*
X116758228Y-92935703D01*
G37*
G36*
X119298228Y-92935703D02*
X119453100Y-92999853D01*
X119592481Y-93092985D01*
X119711015Y-93211519D01*
X119804147Y-93350900D01*
X119868297Y-93505772D01*
X119901000Y-93670184D01*
X119901000Y-93837816D01*
X119868297Y-94002228D01*
X119804147Y-94157100D01*
X119711015Y-94296481D01*
X119592481Y-94415015D01*
X119453100Y-94508147D01*
X119298228Y-94572297D01*
X119133816Y-94605000D01*
X118966184Y-94605000D01*
X118801772Y-94572297D01*
X118646900Y-94508147D01*
X118507519Y-94415015D01*
X118388985Y-94296481D01*
X118295853Y-94157100D01*
X118231703Y-94002228D01*
X118199000Y-93837816D01*
X118199000Y-93670184D01*
X118231703Y-93505772D01*
X118295853Y-93350900D01*
X118388985Y-93211519D01*
X118507519Y-93092985D01*
X118646900Y-92999853D01*
X118801772Y-92935703D01*
X118966184Y-92903000D01*
X119133816Y-92903000D01*
X119298228Y-92935703D01*
X119298228Y-92935703D01*
G37*
G36*
X126918228Y-92935703D02*
X127073100Y-92999853D01*
X127212481Y-93092985D01*
X127331015Y-93211519D01*
X127424147Y-93350900D01*
X127488297Y-93505772D01*
X127521000Y-93670184D01*
X127521000Y-93837816D01*
X127488297Y-94002228D01*
X127424147Y-94157100D01*
X127331015Y-94296481D01*
X127212481Y-94415015D01*
X127073100Y-94508147D01*
X126918228Y-94572297D01*
X126753816Y-94605000D01*
X126586184Y-94605000D01*
X126421772Y-94572297D01*
X126266900Y-94508147D01*
X126127519Y-94415015D01*
X126008985Y-94296481D01*
X125915853Y-94157100D01*
X125851703Y-94002228D01*
X125819000Y-93837816D01*
X125819000Y-93670184D01*
X125851703Y-93505772D01*
X125915853Y-93350900D01*
X126008985Y-93211519D01*
X126127519Y-93092985D01*
X126266900Y-92999853D01*
X126421772Y-92935703D01*
X126586184Y-92903000D01*
X126753816Y-92903000D01*
X126918228Y-92935703D01*
X126918228Y-92935703D01*
G37*
G36*
X110066721Y-93478174D02*
X110166995Y-93519709D01*
X110257245Y-93580012D01*
X110333988Y-93656755D01*
X110394291Y-93747005D01*
X110435826Y-93847279D01*
X110457000Y-93953730D01*
X110457000Y-94062270D01*
X110435826Y-94168721D01*
X110394291Y-94268995D01*
X110333988Y-94359245D01*
X110257245Y-94435988D01*
X110166995Y-94496291D01*
X110066721Y-94537826D01*
X109960270Y-94559000D01*
X109851730Y-94559000D01*
X109745279Y-94537826D01*
X109645005Y-94496291D01*
X109554755Y-94435988D01*
X109478012Y-94359245D01*
X109417709Y-94268995D01*
X109376174Y-94168721D01*
X109355000Y-94062270D01*
X109355000Y-93953730D01*
X109376174Y-93847279D01*
X109417709Y-93747005D01*
X109478012Y-93656755D01*
X109554755Y-93580012D01*
X109645005Y-93519709D01*
X109745279Y-93478174D01*
X109851730Y-93457000D01*
X109960270Y-93457000D01*
X110066721Y-93478174D01*
X110066721Y-93478174D01*
G37*
G36*
X119298228Y-90395703D02*
X119453100Y-90459853D01*
X119592481Y-90552985D01*
X119711015Y-90671519D01*
X119804147Y-90810900D01*
X119868297Y-90965772D01*
X119901000Y-91130184D01*
X119901000Y-91297816D01*
X119868297Y-91462228D01*
X119804147Y-91617100D01*
X119711015Y-91756481D01*
X119592481Y-91875015D01*
X119453100Y-91968147D01*
X119298228Y-92032297D01*
X119133816Y-92065000D01*
X118966184Y-92065000D01*
X118801772Y-92032297D01*
X118646900Y-91968147D01*
X118507519Y-91875015D01*
X118388985Y-91756481D01*
X118295853Y-91617100D01*
X118231703Y-91462228D01*
X118199000Y-91297816D01*
X118199000Y-91130184D01*
X118231703Y-90965772D01*
X118295853Y-90810900D01*
X118388985Y-90671519D01*
X118507519Y-90552985D01*
X118646900Y-90459853D01*
X118801772Y-90395703D01*
X118966184Y-90363000D01*
X119133816Y-90363000D01*
X119298228Y-90395703D01*
X119298228Y-90395703D01*
G37*
G36*
X116758228Y-90395703D02*
X116913100Y-90459853D01*
X117052481Y-90552985D01*
X117171015Y-90671519D01*
X117264147Y-90810900D01*
X117328297Y-90965772D01*
X117361000Y-91130184D01*
X117361000Y-91297816D01*
X117328297Y-91462228D01*
X117264147Y-91617100D01*
X117171015Y-91756481D01*
X117052481Y-91875015D01*
X116913100Y-91968147D01*
X116758228Y-92032297D01*
X116593816Y-92065000D01*
X116426184Y-92065000D01*
X116261772Y-92032297D01*
X116106900Y-91968147D01*
X115967519Y-91875015D01*
X115848985Y-91756481D01*
X115755853Y-91617100D01*
X115691703Y-91462228D01*
X115659000Y-91297816D01*
X115659000Y-91130184D01*
X115691703Y-90965772D01*
X115755853Y-90810900D01*
X115848985Y-90671519D01*
X115967519Y-90552985D01*
X116106900Y-90459853D01*
X116261772Y-90395703D01*
X116426184Y-90363000D01*
X116593816Y-90363000D01*
X116758228Y-90395703D01*
X116758228Y-90395703D01*
G37*
G36*
X153754721Y-90521356D02*
X153854995Y-90562891D01*
X153945245Y-90623194D01*
X154021988Y-90699937D01*
X154082291Y-90790187D01*
X154123826Y-90890461D01*
X154145000Y-90996912D01*
X154145000Y-91105452D01*
X154123826Y-91211903D01*
X154082291Y-91312177D01*
X154021988Y-91402427D01*
X153945245Y-91479170D01*
X153854995Y-91539473D01*
X153754721Y-91581008D01*
X153648270Y-91602182D01*
X153539730Y-91602182D01*
X153433279Y-91581008D01*
X153333005Y-91539473D01*
X153242755Y-91479170D01*
X153166012Y-91402427D01*
X153105709Y-91312177D01*
X153064174Y-91211903D01*
X153043000Y-91105452D01*
X153043000Y-90996912D01*
X153064174Y-90890461D01*
X153105709Y-90790187D01*
X153166012Y-90699937D01*
X153242755Y-90623194D01*
X153333005Y-90562891D01*
X153433279Y-90521356D01*
X153539730Y-90500182D01*
X153648270Y-90500182D01*
X153754721Y-90521356D01*
X153754721Y-90521356D01*
G37*
G36*
X119298228Y-87855703D02*
X119453100Y-87919853D01*
X119592481Y-88012985D01*
X119711015Y-88131519D01*
X119804147Y-88270900D01*
X119868297Y-88425772D01*
X119901000Y-88590184D01*
X119901000Y-88757816D01*
X119868297Y-88922228D01*
X119804147Y-89077100D01*
X119711015Y-89216481D01*
X119592481Y-89335015D01*
X119453100Y-89428147D01*
X119298228Y-89492297D01*
X119133816Y-89525000D01*
X118966184Y-89525000D01*
X118801772Y-89492297D01*
X118646900Y-89428147D01*
X118507519Y-89335015D01*
X118388985Y-89216481D01*
X118295853Y-89077100D01*
X118231703Y-88922228D01*
X118199000Y-88757816D01*
X118199000Y-88590184D01*
X118231703Y-88425772D01*
X118295853Y-88270900D01*
X118388985Y-88131519D01*
X118507519Y-88012985D01*
X118646900Y-87919853D01*
X118801772Y-87855703D01*
X118966184Y-87823000D01*
X119133816Y-87823000D01*
X119298228Y-87855703D01*
X119298228Y-87855703D01*
G37*
G36*
X116758228Y-87855703D02*
X116913100Y-87919853D01*
X117052481Y-88012985D01*
X117171015Y-88131519D01*
X117264147Y-88270900D01*
X117328297Y-88425772D01*
X117361000Y-88590184D01*
X117361000Y-88757816D01*
X117328297Y-88922228D01*
X117264147Y-89077100D01*
X117171015Y-89216481D01*
X117052481Y-89335015D01*
X116913100Y-89428147D01*
X116758228Y-89492297D01*
X116593816Y-89525000D01*
X116426184Y-89525000D01*
X116261772Y-89492297D01*
X116106900Y-89428147D01*
X115967519Y-89335015D01*
X115848985Y-89216481D01*
X115755853Y-89077100D01*
X115691703Y-88922228D01*
X115659000Y-88757816D01*
X115659000Y-88590184D01*
X115691703Y-88425772D01*
X115755853Y-88270900D01*
X115848985Y-88131519D01*
X115967519Y-88012985D01*
X116106900Y-87919853D01*
X116261772Y-87855703D01*
X116426184Y-87823000D01*
X116593816Y-87823000D01*
X116758228Y-87855703D01*
X116758228Y-87855703D01*
G37*
G36*
X154770721Y-87890174D02*
X154870995Y-87931709D01*
X154961245Y-87992012D01*
X155037988Y-88068755D01*
X155098291Y-88159005D01*
X155139826Y-88259279D01*
X155161000Y-88365730D01*
X155161000Y-88474270D01*
X155139826Y-88580721D01*
X155098291Y-88680995D01*
X155037988Y-88771245D01*
X154961245Y-88847988D01*
X154870995Y-88908291D01*
X154770721Y-88949826D01*
X154664270Y-88971000D01*
X154555730Y-88971000D01*
X154449279Y-88949826D01*
X154349005Y-88908291D01*
X154258755Y-88847988D01*
X154182012Y-88771245D01*
X154121709Y-88680995D01*
X154080174Y-88580721D01*
X154059000Y-88474270D01*
X154059000Y-88365730D01*
X154080174Y-88259279D01*
X154121709Y-88159005D01*
X154182012Y-88068755D01*
X154258755Y-87992012D01*
X154349005Y-87931709D01*
X154449279Y-87890174D01*
X154555730Y-87869000D01*
X154664270Y-87869000D01*
X154770721Y-87890174D01*
X154770721Y-87890174D01*
G37*
G36*
X129370721Y-87890174D02*
X129470995Y-87931709D01*
X129561245Y-87992012D01*
X129637988Y-88068755D01*
X129698291Y-88159005D01*
X129739826Y-88259279D01*
X129761000Y-88365730D01*
X129761000Y-88474270D01*
X129739826Y-88580721D01*
X129698291Y-88680995D01*
X129637988Y-88771245D01*
X129561245Y-88847988D01*
X129470995Y-88908291D01*
X129370721Y-88949826D01*
X129264270Y-88971000D01*
X129155730Y-88971000D01*
X129049279Y-88949826D01*
X128949005Y-88908291D01*
X128858755Y-88847988D01*
X128782012Y-88771245D01*
X128721709Y-88680995D01*
X128680174Y-88580721D01*
X128659000Y-88474270D01*
X128659000Y-88365730D01*
X128680174Y-88259279D01*
X128721709Y-88159005D01*
X128782012Y-88068755D01*
X128858755Y-87992012D01*
X128949005Y-87931709D01*
X129049279Y-87890174D01*
X129155730Y-87869000D01*
X129264270Y-87869000D01*
X129370721Y-87890174D01*
X129370721Y-87890174D01*
G37*
G36*
X109050721Y-87890174D02*
X109150995Y-87931709D01*
X109241245Y-87992012D01*
X109317988Y-88068755D01*
X109378291Y-88159005D01*
X109419826Y-88259279D01*
X109441000Y-88365730D01*
X109441000Y-88474270D01*
X109419826Y-88580721D01*
X109378291Y-88680995D01*
X109317988Y-88771245D01*
X109241245Y-88847988D01*
X109150995Y-88908291D01*
X109050721Y-88949826D01*
X108944270Y-88971000D01*
X108835730Y-88971000D01*
X108729279Y-88949826D01*
X108629005Y-88908291D01*
X108538755Y-88847988D01*
X108462012Y-88771245D01*
X108401709Y-88680995D01*
X108360174Y-88580721D01*
X108339000Y-88474270D01*
X108339000Y-88365730D01*
X108360174Y-88259279D01*
X108401709Y-88159005D01*
X108462012Y-88068755D01*
X108538755Y-87992012D01*
X108629005Y-87931709D01*
X108729279Y-87890174D01*
X108835730Y-87869000D01*
X108944270Y-87869000D01*
X109050721Y-87890174D01*
X109050721Y-87890174D01*
G37*
G36*
X109050721Y-86366174D02*
X109150995Y-86407709D01*
X109241245Y-86468012D01*
X109317988Y-86544755D01*
X109378291Y-86635005D01*
X109419826Y-86735279D01*
X109441000Y-86841730D01*
X109441000Y-86950270D01*
X109419826Y-87056721D01*
X109378291Y-87156995D01*
X109317988Y-87247245D01*
X109241245Y-87323988D01*
X109150995Y-87384291D01*
X109050721Y-87425826D01*
X108944270Y-87447000D01*
X108835730Y-87447000D01*
X108729279Y-87425826D01*
X108629005Y-87384291D01*
X108538755Y-87323988D01*
X108462012Y-87247245D01*
X108401709Y-87156995D01*
X108360174Y-87056721D01*
X108339000Y-86950270D01*
X108339000Y-86841730D01*
X108360174Y-86735279D01*
X108401709Y-86635005D01*
X108462012Y-86544755D01*
X108538755Y-86468012D01*
X108629005Y-86407709D01*
X108729279Y-86366174D01*
X108835730Y-86345000D01*
X108944270Y-86345000D01*
X109050721Y-86366174D01*
X109050721Y-86366174D01*
G37*
G36*
X119298228Y-85315703D02*
X119453100Y-85379853D01*
X119592481Y-85472985D01*
X119711015Y-85591519D01*
X119804147Y-85730900D01*
X119868297Y-85885772D01*
X119901000Y-86050184D01*
X119901000Y-86217816D01*
X119868297Y-86382228D01*
X119804147Y-86537100D01*
X119711015Y-86676481D01*
X119592481Y-86795015D01*
X119453100Y-86888147D01*
X119298228Y-86952297D01*
X119133816Y-86985000D01*
X118966184Y-86985000D01*
X118801772Y-86952297D01*
X118646900Y-86888147D01*
X118507519Y-86795015D01*
X118388985Y-86676481D01*
X118295853Y-86537100D01*
X118231703Y-86382228D01*
X118199000Y-86217816D01*
X118199000Y-86050184D01*
X118231703Y-85885772D01*
X118295853Y-85730900D01*
X118388985Y-85591519D01*
X118507519Y-85472985D01*
X118646900Y-85379853D01*
X118801772Y-85315703D01*
X118966184Y-85283000D01*
X119133816Y-85283000D01*
X119298228Y-85315703D01*
X119298228Y-85315703D01*
G37*
G36*
X116758228Y-85315703D02*
X116913100Y-85379853D01*
X117052481Y-85472985D01*
X117171015Y-85591519D01*
X117264147Y-85730900D01*
X117328297Y-85885772D01*
X117361000Y-86050184D01*
X117361000Y-86217816D01*
X117328297Y-86382228D01*
X117264147Y-86537100D01*
X117171015Y-86676481D01*
X117052481Y-86795015D01*
X116913100Y-86888147D01*
X116758228Y-86952297D01*
X116593816Y-86985000D01*
X116426184Y-86985000D01*
X116261772Y-86952297D01*
X116106900Y-86888147D01*
X115967519Y-86795015D01*
X115848985Y-86676481D01*
X115755853Y-86537100D01*
X115691703Y-86382228D01*
X115659000Y-86217816D01*
X115659000Y-86050184D01*
X115691703Y-85885772D01*
X115755853Y-85730900D01*
X115848985Y-85591519D01*
X115967519Y-85472985D01*
X116106900Y-85379853D01*
X116261772Y-85315703D01*
X116426184Y-85283000D01*
X116593816Y-85283000D01*
X116758228Y-85315703D01*
X116758228Y-85315703D01*
G37*
G36*
X130858180Y-83719662D02*
X130959635Y-83729654D01*
X131176600Y-83795470D01*
X131176602Y-83795471D01*
X131176605Y-83795472D01*
X131376556Y-83902347D01*
X131551818Y-84046182D01*
X131695653Y-84221444D01*
X131802528Y-84421395D01*
X131802529Y-84421398D01*
X131802530Y-84421400D01*
X131868346Y-84638365D01*
X131890569Y-84864000D01*
X131868346Y-85089635D01*
X131802530Y-85306600D01*
X131802528Y-85306605D01*
X131695653Y-85506556D01*
X131551818Y-85681818D01*
X131376556Y-85825653D01*
X131176605Y-85932528D01*
X131176602Y-85932529D01*
X131176600Y-85932530D01*
X130959635Y-85998346D01*
X130858180Y-86008338D01*
X130790545Y-86015000D01*
X130677455Y-86015000D01*
X130609820Y-86008338D01*
X130508365Y-85998346D01*
X130291400Y-85932530D01*
X130291398Y-85932529D01*
X130291395Y-85932528D01*
X130091444Y-85825653D01*
X129916182Y-85681818D01*
X129772347Y-85506556D01*
X129665472Y-85306605D01*
X129665470Y-85306600D01*
X129599654Y-85089635D01*
X129577431Y-84864000D01*
X129599654Y-84638365D01*
X129665470Y-84421400D01*
X129665471Y-84421398D01*
X129665472Y-84421395D01*
X129772347Y-84221444D01*
X129916182Y-84046182D01*
X130091444Y-83902347D01*
X130291395Y-83795472D01*
X130291398Y-83795471D01*
X130291400Y-83795470D01*
X130508365Y-83729654D01*
X130609820Y-83719662D01*
X130677455Y-83713000D01*
X130790545Y-83713000D01*
X130858180Y-83719662D01*
X130858180Y-83719662D01*
G37*
G36*
X126918228Y-82775703D02*
X127073100Y-82839853D01*
X127212481Y-82932985D01*
X127331015Y-83051519D01*
X127424147Y-83190900D01*
X127488297Y-83345772D01*
X127521000Y-83510184D01*
X127521000Y-83677816D01*
X127488297Y-83842228D01*
X127424147Y-83997100D01*
X127331015Y-84136481D01*
X127212481Y-84255015D01*
X127073100Y-84348147D01*
X126918228Y-84412297D01*
X126753816Y-84445000D01*
X126586184Y-84445000D01*
X126421772Y-84412297D01*
X126266900Y-84348147D01*
X126127519Y-84255015D01*
X126008985Y-84136481D01*
X125915853Y-83997100D01*
X125851703Y-83842228D01*
X125819000Y-83677816D01*
X125819000Y-83510184D01*
X125851703Y-83345772D01*
X125915853Y-83190900D01*
X126008985Y-83051519D01*
X126127519Y-82932985D01*
X126266900Y-82839853D01*
X126421772Y-82775703D01*
X126586184Y-82743000D01*
X126753816Y-82743000D01*
X126918228Y-82775703D01*
X126918228Y-82775703D01*
G37*
G36*
X119298228Y-82775703D02*
X119453100Y-82839853D01*
X119592481Y-82932985D01*
X119711015Y-83051519D01*
X119804147Y-83190900D01*
X119868297Y-83345772D01*
X119901000Y-83510184D01*
X119901000Y-83677816D01*
X119868297Y-83842228D01*
X119804147Y-83997100D01*
X119711015Y-84136481D01*
X119592481Y-84255015D01*
X119453100Y-84348147D01*
X119298228Y-84412297D01*
X119133816Y-84445000D01*
X118966184Y-84445000D01*
X118801772Y-84412297D01*
X118646900Y-84348147D01*
X118507519Y-84255015D01*
X118388985Y-84136481D01*
X118295853Y-83997100D01*
X118231703Y-83842228D01*
X118199000Y-83677816D01*
X118199000Y-83510184D01*
X118231703Y-83345772D01*
X118295853Y-83190900D01*
X118388985Y-83051519D01*
X118507519Y-82932985D01*
X118646900Y-82839853D01*
X118801772Y-82775703D01*
X118966184Y-82743000D01*
X119133816Y-82743000D01*
X119298228Y-82775703D01*
X119298228Y-82775703D01*
G37*
G36*
X116758228Y-82775703D02*
X116913100Y-82839853D01*
X117052481Y-82932985D01*
X117171015Y-83051519D01*
X117264147Y-83190900D01*
X117328297Y-83345772D01*
X117361000Y-83510184D01*
X117361000Y-83677816D01*
X117328297Y-83842228D01*
X117264147Y-83997100D01*
X117171015Y-84136481D01*
X117052481Y-84255015D01*
X116913100Y-84348147D01*
X116758228Y-84412297D01*
X116593816Y-84445000D01*
X116426184Y-84445000D01*
X116261772Y-84412297D01*
X116106900Y-84348147D01*
X115967519Y-84255015D01*
X115848985Y-84136481D01*
X115755853Y-83997100D01*
X115691703Y-83842228D01*
X115659000Y-83677816D01*
X115659000Y-83510184D01*
X115691703Y-83345772D01*
X115755853Y-83190900D01*
X115848985Y-83051519D01*
X115967519Y-82932985D01*
X116106900Y-82839853D01*
X116261772Y-82775703D01*
X116426184Y-82743000D01*
X116593816Y-82743000D01*
X116758228Y-82775703D01*
X116758228Y-82775703D01*
G37*
G36*
X111678228Y-82775703D02*
X111833100Y-82839853D01*
X111972481Y-82932985D01*
X112091015Y-83051519D01*
X112184147Y-83190900D01*
X112248297Y-83345772D01*
X112281000Y-83510184D01*
X112281000Y-83677816D01*
X112248297Y-83842228D01*
X112184147Y-83997100D01*
X112091015Y-84136481D01*
X111972481Y-84255015D01*
X111833100Y-84348147D01*
X111678228Y-84412297D01*
X111513816Y-84445000D01*
X111346184Y-84445000D01*
X111181772Y-84412297D01*
X111026900Y-84348147D01*
X110887519Y-84255015D01*
X110768985Y-84136481D01*
X110675853Y-83997100D01*
X110611703Y-83842228D01*
X110579000Y-83677816D01*
X110579000Y-83510184D01*
X110611703Y-83345772D01*
X110675853Y-83190900D01*
X110768985Y-83051519D01*
X110887519Y-82932985D01*
X111026900Y-82839853D01*
X111181772Y-82775703D01*
X111346184Y-82743000D01*
X111513816Y-82743000D01*
X111678228Y-82775703D01*
X111678228Y-82775703D01*
G37*
G36*
X162713812Y-82781310D02*
X162861772Y-82842598D01*
X162875409Y-82851710D01*
X162994927Y-82931569D01*
X163108169Y-83044811D01*
X163149099Y-83106068D01*
X163197140Y-83177966D01*
X163258428Y-83325926D01*
X163289670Y-83482993D01*
X163289670Y-83643143D01*
X163258428Y-83800210D01*
X163220821Y-83891000D01*
X163197141Y-83948168D01*
X163131651Y-84046182D01*
X163108168Y-84081326D01*
X162994928Y-84194566D01*
X162861772Y-84283538D01*
X162713812Y-84344826D01*
X162556745Y-84376068D01*
X162396595Y-84376068D01*
X162239528Y-84344826D01*
X162091568Y-84283538D01*
X161958412Y-84194566D01*
X161845172Y-84081326D01*
X161821690Y-84046182D01*
X161756199Y-83948168D01*
X161732519Y-83891000D01*
X161694912Y-83800210D01*
X161663670Y-83643143D01*
X161663670Y-83482993D01*
X161694912Y-83325926D01*
X161756200Y-83177966D01*
X161804241Y-83106068D01*
X161845171Y-83044811D01*
X161958413Y-82931569D01*
X162077931Y-82851710D01*
X162091568Y-82842598D01*
X162239528Y-82781310D01*
X162396595Y-82750068D01*
X162556745Y-82750068D01*
X162713812Y-82781310D01*
X162713812Y-82781310D01*
G37*
G36*
X75606472Y-82781310D02*
X75754432Y-82842598D01*
X75768069Y-82851710D01*
X75887587Y-82931569D01*
X76000829Y-83044811D01*
X76041759Y-83106068D01*
X76089800Y-83177966D01*
X76151088Y-83325926D01*
X76182330Y-83482993D01*
X76182330Y-83643143D01*
X76151088Y-83800210D01*
X76113481Y-83891000D01*
X76089801Y-83948168D01*
X76024311Y-84046182D01*
X76000828Y-84081326D01*
X75887588Y-84194566D01*
X75754432Y-84283538D01*
X75606472Y-84344826D01*
X75449405Y-84376068D01*
X75289255Y-84376068D01*
X75132188Y-84344826D01*
X74984228Y-84283538D01*
X74851072Y-84194566D01*
X74737832Y-84081326D01*
X74714350Y-84046182D01*
X74648859Y-83948168D01*
X74625179Y-83891000D01*
X74587572Y-83800210D01*
X74556330Y-83643143D01*
X74556330Y-83482993D01*
X74587572Y-83325926D01*
X74648860Y-83177966D01*
X74696901Y-83106068D01*
X74737831Y-83044811D01*
X74851073Y-82931569D01*
X74970591Y-82851710D01*
X74984228Y-82842598D01*
X75132188Y-82781310D01*
X75289255Y-82750068D01*
X75449405Y-82750068D01*
X75606472Y-82781310D01*
X75606472Y-82781310D01*
G37*
G36*
X123862721Y-82810174D02*
X123962995Y-82851709D01*
X124053245Y-82912012D01*
X124129988Y-82988755D01*
X124190291Y-83079005D01*
X124231826Y-83179279D01*
X124253000Y-83285730D01*
X124253000Y-83394270D01*
X124231826Y-83500721D01*
X124190291Y-83600995D01*
X124129988Y-83691245D01*
X124053245Y-83767988D01*
X123962995Y-83828291D01*
X123862721Y-83869826D01*
X123756270Y-83891000D01*
X123647730Y-83891000D01*
X123541279Y-83869826D01*
X123441005Y-83828291D01*
X123350755Y-83767988D01*
X123274012Y-83691245D01*
X123213709Y-83600995D01*
X123172174Y-83500721D01*
X123151000Y-83394270D01*
X123151000Y-83285730D01*
X123172174Y-83179279D01*
X123213709Y-83079005D01*
X123274012Y-82988755D01*
X123350755Y-82912012D01*
X123441005Y-82851709D01*
X123541279Y-82810174D01*
X123647730Y-82789000D01*
X123756270Y-82789000D01*
X123862721Y-82810174D01*
X123862721Y-82810174D01*
G37*
G36*
X77806176Y-81511310D02*
X77954136Y-81572598D01*
X77989879Y-81596481D01*
X78087291Y-81661569D01*
X78200533Y-81774811D01*
X78222807Y-81808147D01*
X78289504Y-81907966D01*
X78350792Y-82055926D01*
X78382034Y-82212993D01*
X78382034Y-82373143D01*
X78350792Y-82530210D01*
X78303388Y-82644651D01*
X78289505Y-82678168D01*
X78200533Y-82811325D01*
X78087291Y-82924567D01*
X78076810Y-82931570D01*
X77954136Y-83013538D01*
X77806176Y-83074826D01*
X77649109Y-83106068D01*
X77488959Y-83106068D01*
X77331892Y-83074826D01*
X77183932Y-83013538D01*
X77061258Y-82931570D01*
X77050777Y-82924567D01*
X76937535Y-82811325D01*
X76848563Y-82678168D01*
X76834680Y-82644651D01*
X76787276Y-82530210D01*
X76756034Y-82373143D01*
X76756034Y-82212993D01*
X76787276Y-82055926D01*
X76848564Y-81907966D01*
X76915261Y-81808147D01*
X76937535Y-81774811D01*
X77050777Y-81661569D01*
X77148189Y-81596481D01*
X77183932Y-81572598D01*
X77331892Y-81511310D01*
X77488959Y-81480068D01*
X77649109Y-81480068D01*
X77806176Y-81511310D01*
X77806176Y-81511310D01*
G37*
G36*
X160514108Y-81511310D02*
X160662068Y-81572598D01*
X160697811Y-81596481D01*
X160795223Y-81661569D01*
X160908465Y-81774811D01*
X160930739Y-81808147D01*
X160997436Y-81907966D01*
X161058724Y-82055926D01*
X161089966Y-82212993D01*
X161089966Y-82373143D01*
X161058724Y-82530210D01*
X161011320Y-82644651D01*
X160997437Y-82678168D01*
X160908465Y-82811325D01*
X160795223Y-82924567D01*
X160784742Y-82931570D01*
X160662068Y-83013538D01*
X160514108Y-83074826D01*
X160357041Y-83106068D01*
X160196891Y-83106068D01*
X160039824Y-83074826D01*
X159891864Y-83013538D01*
X159769190Y-82931570D01*
X159758709Y-82924567D01*
X159645467Y-82811325D01*
X159556495Y-82678168D01*
X159542612Y-82644651D01*
X159495208Y-82530210D01*
X159463966Y-82373143D01*
X159463966Y-82212993D01*
X159495208Y-82055926D01*
X159556496Y-81907966D01*
X159623193Y-81808147D01*
X159645467Y-81774811D01*
X159758709Y-81661569D01*
X159856121Y-81596481D01*
X159891864Y-81572598D01*
X160039824Y-81511310D01*
X160196891Y-81480068D01*
X160357041Y-81480068D01*
X160514108Y-81511310D01*
X160514108Y-81511310D01*
G37*
G36*
X115146721Y-81286174D02*
X115246995Y-81327709D01*
X115337245Y-81388012D01*
X115413988Y-81464755D01*
X115474291Y-81555005D01*
X115515826Y-81655279D01*
X115537000Y-81761730D01*
X115537000Y-81870270D01*
X115515826Y-81976721D01*
X115474291Y-82076995D01*
X115413988Y-82167245D01*
X115337245Y-82243988D01*
X115246995Y-82304291D01*
X115146721Y-82345826D01*
X115040270Y-82367000D01*
X114931730Y-82367000D01*
X114825279Y-82345826D01*
X114725005Y-82304291D01*
X114634755Y-82243988D01*
X114558012Y-82167245D01*
X114497709Y-82076995D01*
X114456174Y-81976721D01*
X114435000Y-81870270D01*
X114435000Y-81761730D01*
X114456174Y-81655279D01*
X114497709Y-81555005D01*
X114558012Y-81464755D01*
X114634755Y-81388012D01*
X114725005Y-81327709D01*
X114825279Y-81286174D01*
X114931730Y-81265000D01*
X115040270Y-81265000D01*
X115146721Y-81286174D01*
X115146721Y-81286174D01*
G37*
G36*
X111678228Y-80235703D02*
X111833100Y-80299853D01*
X111972481Y-80392985D01*
X112091015Y-80511519D01*
X112184147Y-80650900D01*
X112248297Y-80805772D01*
X112281000Y-80970184D01*
X112281000Y-81137816D01*
X112248297Y-81302228D01*
X112184147Y-81457100D01*
X112091015Y-81596481D01*
X111972481Y-81715015D01*
X111833100Y-81808147D01*
X111678228Y-81872297D01*
X111513816Y-81905000D01*
X111346184Y-81905000D01*
X111181772Y-81872297D01*
X111026900Y-81808147D01*
X110887519Y-81715015D01*
X110768985Y-81596481D01*
X110675853Y-81457100D01*
X110611703Y-81302228D01*
X110579000Y-81137816D01*
X110579000Y-80970184D01*
X110611703Y-80805772D01*
X110675853Y-80650900D01*
X110768985Y-80511519D01*
X110887519Y-80392985D01*
X111026900Y-80299853D01*
X111181772Y-80235703D01*
X111346184Y-80203000D01*
X111513816Y-80203000D01*
X111678228Y-80235703D01*
X111678228Y-80235703D01*
G37*
G36*
X116758228Y-80235703D02*
X116913100Y-80299853D01*
X117052481Y-80392985D01*
X117171015Y-80511519D01*
X117264147Y-80650900D01*
X117328297Y-80805772D01*
X117361000Y-80970184D01*
X117361000Y-81137816D01*
X117328297Y-81302228D01*
X117264147Y-81457100D01*
X117171015Y-81596481D01*
X117052481Y-81715015D01*
X116913100Y-81808147D01*
X116758228Y-81872297D01*
X116593816Y-81905000D01*
X116426184Y-81905000D01*
X116261772Y-81872297D01*
X116106900Y-81808147D01*
X115967519Y-81715015D01*
X115848985Y-81596481D01*
X115755853Y-81457100D01*
X115691703Y-81302228D01*
X115659000Y-81137816D01*
X115659000Y-80970184D01*
X115691703Y-80805772D01*
X115755853Y-80650900D01*
X115848985Y-80511519D01*
X115967519Y-80392985D01*
X116106900Y-80299853D01*
X116261772Y-80235703D01*
X116426184Y-80203000D01*
X116593816Y-80203000D01*
X116758228Y-80235703D01*
X116758228Y-80235703D01*
G37*
G36*
X119298228Y-80235703D02*
X119453100Y-80299853D01*
X119592481Y-80392985D01*
X119711015Y-80511519D01*
X119804147Y-80650900D01*
X119868297Y-80805772D01*
X119901000Y-80970184D01*
X119901000Y-81137816D01*
X119868297Y-81302228D01*
X119804147Y-81457100D01*
X119711015Y-81596481D01*
X119592481Y-81715015D01*
X119453100Y-81808147D01*
X119298228Y-81872297D01*
X119133816Y-81905000D01*
X118966184Y-81905000D01*
X118801772Y-81872297D01*
X118646900Y-81808147D01*
X118507519Y-81715015D01*
X118388985Y-81596481D01*
X118295853Y-81457100D01*
X118231703Y-81302228D01*
X118199000Y-81137816D01*
X118199000Y-80970184D01*
X118231703Y-80805772D01*
X118295853Y-80650900D01*
X118388985Y-80511519D01*
X118507519Y-80392985D01*
X118646900Y-80299853D01*
X118801772Y-80235703D01*
X118966184Y-80203000D01*
X119133816Y-80203000D01*
X119298228Y-80235703D01*
X119298228Y-80235703D01*
G37*
G36*
X80005881Y-80241310D02*
X80153841Y-80302598D01*
X80220869Y-80347385D01*
X80286996Y-80391569D01*
X80400238Y-80504811D01*
X80420293Y-80534826D01*
X80489209Y-80637966D01*
X80550497Y-80785926D01*
X80581739Y-80942993D01*
X80581739Y-81103143D01*
X80550497Y-81260210D01*
X80522537Y-81327710D01*
X80489210Y-81408168D01*
X80400238Y-81541325D01*
X80286996Y-81654567D01*
X80276515Y-81661570D01*
X80153841Y-81743538D01*
X80005881Y-81804826D01*
X79848814Y-81836068D01*
X79688664Y-81836068D01*
X79531597Y-81804826D01*
X79383637Y-81743538D01*
X79260963Y-81661570D01*
X79250482Y-81654567D01*
X79137240Y-81541325D01*
X79048268Y-81408168D01*
X79014941Y-81327710D01*
X78986981Y-81260210D01*
X78955739Y-81103143D01*
X78955739Y-80942993D01*
X78986981Y-80785926D01*
X79048269Y-80637966D01*
X79117185Y-80534826D01*
X79137240Y-80504811D01*
X79250482Y-80391569D01*
X79316609Y-80347385D01*
X79383637Y-80302598D01*
X79531597Y-80241310D01*
X79688664Y-80210068D01*
X79848814Y-80210068D01*
X80005881Y-80241310D01*
X80005881Y-80241310D01*
G37*
G36*
X158314403Y-80241310D02*
X158462363Y-80302598D01*
X158529391Y-80347385D01*
X158595518Y-80391569D01*
X158708760Y-80504811D01*
X158728815Y-80534826D01*
X158797731Y-80637966D01*
X158859019Y-80785926D01*
X158890261Y-80942993D01*
X158890261Y-81103143D01*
X158859019Y-81260210D01*
X158831059Y-81327710D01*
X158797732Y-81408168D01*
X158708760Y-81541325D01*
X158595518Y-81654567D01*
X158585037Y-81661570D01*
X158462363Y-81743538D01*
X158314403Y-81804826D01*
X158157336Y-81836068D01*
X157997186Y-81836068D01*
X157840119Y-81804826D01*
X157692159Y-81743538D01*
X157569485Y-81661570D01*
X157559004Y-81654567D01*
X157445762Y-81541325D01*
X157356790Y-81408168D01*
X157323463Y-81327710D01*
X157295503Y-81260210D01*
X157264261Y-81103143D01*
X157264261Y-80942993D01*
X157295503Y-80785926D01*
X157356791Y-80637966D01*
X157425707Y-80534826D01*
X157445762Y-80504811D01*
X157559004Y-80391569D01*
X157625131Y-80347385D01*
X157692159Y-80302598D01*
X157840119Y-80241310D01*
X157997186Y-80210068D01*
X158157336Y-80210068D01*
X158314403Y-80241310D01*
X158314403Y-80241310D01*
G37*
G36*
X82205585Y-78971310D02*
X82353545Y-79032598D01*
X82389288Y-79056481D01*
X82486700Y-79121569D01*
X82599942Y-79234811D01*
X82622216Y-79268147D01*
X82688913Y-79367966D01*
X82750201Y-79515926D01*
X82781443Y-79672993D01*
X82781443Y-79833143D01*
X82750201Y-79990210D01*
X82702797Y-80104651D01*
X82688914Y-80138168D01*
X82599942Y-80271325D01*
X82486700Y-80384567D01*
X82476219Y-80391570D01*
X82353545Y-80473538D01*
X82205585Y-80534826D01*
X82048518Y-80566068D01*
X81888368Y-80566068D01*
X81731301Y-80534826D01*
X81583341Y-80473538D01*
X81460667Y-80391570D01*
X81450186Y-80384567D01*
X81336944Y-80271325D01*
X81247972Y-80138168D01*
X81234089Y-80104651D01*
X81186685Y-79990210D01*
X81155443Y-79833143D01*
X81155443Y-79672993D01*
X81186685Y-79515926D01*
X81247973Y-79367966D01*
X81314670Y-79268147D01*
X81336944Y-79234811D01*
X81450186Y-79121569D01*
X81547598Y-79056481D01*
X81583341Y-79032598D01*
X81731301Y-78971310D01*
X81888368Y-78940068D01*
X82048518Y-78940068D01*
X82205585Y-78971310D01*
X82205585Y-78971310D01*
G37*
G36*
X156114699Y-78971310D02*
X156262659Y-79032598D01*
X156298402Y-79056481D01*
X156395814Y-79121569D01*
X156509056Y-79234811D01*
X156531330Y-79268147D01*
X156598027Y-79367966D01*
X156659315Y-79515926D01*
X156690557Y-79672993D01*
X156690557Y-79833143D01*
X156659315Y-79990210D01*
X156611911Y-80104651D01*
X156598028Y-80138168D01*
X156509056Y-80271325D01*
X156395814Y-80384567D01*
X156385333Y-80391570D01*
X156262659Y-80473538D01*
X156114699Y-80534826D01*
X155957632Y-80566068D01*
X155797482Y-80566068D01*
X155640415Y-80534826D01*
X155492455Y-80473538D01*
X155369781Y-80391570D01*
X155359300Y-80384567D01*
X155246058Y-80271325D01*
X155157086Y-80138168D01*
X155143203Y-80104651D01*
X155095799Y-79990210D01*
X155064557Y-79833143D01*
X155064557Y-79672993D01*
X155095799Y-79515926D01*
X155157087Y-79367966D01*
X155223784Y-79268147D01*
X155246058Y-79234811D01*
X155359300Y-79121569D01*
X155456712Y-79056481D01*
X155492455Y-79032598D01*
X155640415Y-78971310D01*
X155797482Y-78940068D01*
X155957632Y-78940068D01*
X156114699Y-78971310D01*
X156114699Y-78971310D01*
G37*
G36*
X102954721Y-78746174D02*
X103054995Y-78787709D01*
X103145245Y-78848012D01*
X103221988Y-78924755D01*
X103282291Y-79015005D01*
X103323826Y-79115279D01*
X103345000Y-79221730D01*
X103345000Y-79330270D01*
X103323826Y-79436721D01*
X103282291Y-79536995D01*
X103221988Y-79627245D01*
X103145245Y-79703988D01*
X103054995Y-79764291D01*
X102954721Y-79805826D01*
X102848270Y-79827000D01*
X102739730Y-79827000D01*
X102633279Y-79805826D01*
X102533005Y-79764291D01*
X102442755Y-79703988D01*
X102366012Y-79627245D01*
X102305709Y-79536995D01*
X102264174Y-79436721D01*
X102243000Y-79330270D01*
X102243000Y-79221730D01*
X102264174Y-79115279D01*
X102305709Y-79015005D01*
X102366012Y-78924755D01*
X102442755Y-78848012D01*
X102533005Y-78787709D01*
X102633279Y-78746174D01*
X102739730Y-78725000D01*
X102848270Y-78725000D01*
X102954721Y-78746174D01*
X102954721Y-78746174D01*
G37*
G36*
X124378228Y-77695703D02*
X124533100Y-77759853D01*
X124672481Y-77852985D01*
X124791015Y-77971519D01*
X124884147Y-78110900D01*
X124948297Y-78265772D01*
X124981000Y-78430184D01*
X124981000Y-78597816D01*
X124948297Y-78762228D01*
X124884147Y-78917100D01*
X124791015Y-79056481D01*
X124672481Y-79175015D01*
X124533100Y-79268147D01*
X124378228Y-79332297D01*
X124213816Y-79365000D01*
X124046184Y-79365000D01*
X123881772Y-79332297D01*
X123726900Y-79268147D01*
X123587519Y-79175015D01*
X123468985Y-79056481D01*
X123375853Y-78917100D01*
X123311703Y-78762228D01*
X123279000Y-78597816D01*
X123279000Y-78430184D01*
X123311703Y-78265772D01*
X123375853Y-78110900D01*
X123468985Y-77971519D01*
X123587519Y-77852985D01*
X123726900Y-77759853D01*
X123881772Y-77695703D01*
X124046184Y-77663000D01*
X124213816Y-77663000D01*
X124378228Y-77695703D01*
X124378228Y-77695703D01*
G37*
G36*
X119298228Y-77695703D02*
X119453100Y-77759853D01*
X119592481Y-77852985D01*
X119711015Y-77971519D01*
X119804147Y-78110900D01*
X119868297Y-78265772D01*
X119901000Y-78430184D01*
X119901000Y-78597816D01*
X119868297Y-78762228D01*
X119804147Y-78917100D01*
X119711015Y-79056481D01*
X119592481Y-79175015D01*
X119453100Y-79268147D01*
X119298228Y-79332297D01*
X119133816Y-79365000D01*
X118966184Y-79365000D01*
X118801772Y-79332297D01*
X118646900Y-79268147D01*
X118507519Y-79175015D01*
X118388985Y-79056481D01*
X118295853Y-78917100D01*
X118231703Y-78762228D01*
X118199000Y-78597816D01*
X118199000Y-78430184D01*
X118231703Y-78265772D01*
X118295853Y-78110900D01*
X118388985Y-77971519D01*
X118507519Y-77852985D01*
X118646900Y-77759853D01*
X118801772Y-77695703D01*
X118966184Y-77663000D01*
X119133816Y-77663000D01*
X119298228Y-77695703D01*
X119298228Y-77695703D01*
G37*
G36*
X116758228Y-77695703D02*
X116913100Y-77759853D01*
X117052481Y-77852985D01*
X117171015Y-77971519D01*
X117264147Y-78110900D01*
X117328297Y-78265772D01*
X117361000Y-78430184D01*
X117361000Y-78597816D01*
X117328297Y-78762228D01*
X117264147Y-78917100D01*
X117171015Y-79056481D01*
X117052481Y-79175015D01*
X116913100Y-79268147D01*
X116758228Y-79332297D01*
X116593816Y-79365000D01*
X116426184Y-79365000D01*
X116261772Y-79332297D01*
X116106900Y-79268147D01*
X115967519Y-79175015D01*
X115848985Y-79056481D01*
X115755853Y-78917100D01*
X115691703Y-78762228D01*
X115659000Y-78597816D01*
X115659000Y-78430184D01*
X115691703Y-78265772D01*
X115755853Y-78110900D01*
X115848985Y-77971519D01*
X115967519Y-77852985D01*
X116106900Y-77759853D01*
X116261772Y-77695703D01*
X116426184Y-77663000D01*
X116593816Y-77663000D01*
X116758228Y-77695703D01*
X116758228Y-77695703D01*
G37*
G36*
X126918228Y-77695703D02*
X127073100Y-77759853D01*
X127212481Y-77852985D01*
X127331015Y-77971519D01*
X127424147Y-78110900D01*
X127488297Y-78265772D01*
X127521000Y-78430184D01*
X127521000Y-78597816D01*
X127488297Y-78762228D01*
X127424147Y-78917100D01*
X127331015Y-79056481D01*
X127212481Y-79175015D01*
X127073100Y-79268147D01*
X126918228Y-79332297D01*
X126753816Y-79365000D01*
X126586184Y-79365000D01*
X126421772Y-79332297D01*
X126266900Y-79268147D01*
X126127519Y-79175015D01*
X126008985Y-79056481D01*
X125915853Y-78917100D01*
X125851703Y-78762228D01*
X125819000Y-78597816D01*
X125819000Y-78430184D01*
X125851703Y-78265772D01*
X125915853Y-78110900D01*
X126008985Y-77971519D01*
X126127519Y-77852985D01*
X126266900Y-77759853D01*
X126421772Y-77695703D01*
X126586184Y-77663000D01*
X126753816Y-77663000D01*
X126918228Y-77695703D01*
X126918228Y-77695703D01*
G37*
G36*
X84405290Y-77701310D02*
X84553250Y-77762598D01*
X84620278Y-77807385D01*
X84686405Y-77851569D01*
X84799647Y-77964811D01*
X84819702Y-77994826D01*
X84888618Y-78097966D01*
X84949906Y-78245926D01*
X84981148Y-78402993D01*
X84981148Y-78563143D01*
X84949906Y-78720210D01*
X84921946Y-78787710D01*
X84888619Y-78868168D01*
X84799647Y-79001325D01*
X84686405Y-79114567D01*
X84675924Y-79121570D01*
X84553250Y-79203538D01*
X84405290Y-79264826D01*
X84248223Y-79296068D01*
X84088073Y-79296068D01*
X83931006Y-79264826D01*
X83783046Y-79203538D01*
X83660372Y-79121570D01*
X83649891Y-79114567D01*
X83536649Y-79001325D01*
X83447677Y-78868168D01*
X83414350Y-78787710D01*
X83386390Y-78720210D01*
X83355148Y-78563143D01*
X83355148Y-78402993D01*
X83386390Y-78245926D01*
X83447678Y-78097966D01*
X83516594Y-77994826D01*
X83536649Y-77964811D01*
X83649891Y-77851569D01*
X83716018Y-77807385D01*
X83783046Y-77762598D01*
X83931006Y-77701310D01*
X84088073Y-77670068D01*
X84248223Y-77670068D01*
X84405290Y-77701310D01*
X84405290Y-77701310D01*
G37*
G36*
X86604994Y-76431310D02*
X86752954Y-76492598D01*
X86819982Y-76537385D01*
X86886109Y-76581569D01*
X86999351Y-76694811D01*
X87019406Y-76724826D01*
X87088322Y-76827966D01*
X87149610Y-76975926D01*
X87180852Y-77132993D01*
X87180852Y-77293143D01*
X87149610Y-77450210D01*
X87102206Y-77564651D01*
X87088323Y-77598168D01*
X86999351Y-77731325D01*
X86886109Y-77844567D01*
X86875628Y-77851570D01*
X86752954Y-77933538D01*
X86604994Y-77994826D01*
X86447927Y-78026068D01*
X86287777Y-78026068D01*
X86130710Y-77994826D01*
X85982750Y-77933538D01*
X85860076Y-77851570D01*
X85849595Y-77844567D01*
X85736353Y-77731325D01*
X85647381Y-77598168D01*
X85633498Y-77564651D01*
X85586094Y-77450210D01*
X85554852Y-77293143D01*
X85554852Y-77132993D01*
X85586094Y-76975926D01*
X85647382Y-76827966D01*
X85716298Y-76724826D01*
X85736353Y-76694811D01*
X85849595Y-76581569D01*
X85915722Y-76537385D01*
X85982750Y-76492598D01*
X86130710Y-76431310D01*
X86287777Y-76400068D01*
X86447927Y-76400068D01*
X86604994Y-76431310D01*
X86604994Y-76431310D01*
G37*
G36*
X151715290Y-76431310D02*
X151863250Y-76492598D01*
X151930278Y-76537385D01*
X151996405Y-76581569D01*
X152109647Y-76694811D01*
X152129702Y-76724826D01*
X152198618Y-76827966D01*
X152259906Y-76975926D01*
X152291148Y-77132993D01*
X152291148Y-77293143D01*
X152259906Y-77450210D01*
X152212502Y-77564651D01*
X152198619Y-77598168D01*
X152109647Y-77731325D01*
X151996405Y-77844567D01*
X151985924Y-77851570D01*
X151863250Y-77933538D01*
X151715290Y-77994826D01*
X151558223Y-78026068D01*
X151398073Y-78026068D01*
X151241006Y-77994826D01*
X151093046Y-77933538D01*
X150970372Y-77851570D01*
X150959891Y-77844567D01*
X150846649Y-77731325D01*
X150757677Y-77598168D01*
X150743794Y-77564651D01*
X150696390Y-77450210D01*
X150665148Y-77293143D01*
X150665148Y-77132993D01*
X150696390Y-76975926D01*
X150757678Y-76827966D01*
X150826594Y-76724826D01*
X150846649Y-76694811D01*
X150959891Y-76581569D01*
X151026018Y-76537385D01*
X151093046Y-76492598D01*
X151241006Y-76431310D01*
X151398073Y-76400068D01*
X151558223Y-76400068D01*
X151715290Y-76431310D01*
X151715290Y-76431310D01*
G37*
G36*
X88804699Y-75161310D02*
X88952659Y-75222598D01*
X89019687Y-75267385D01*
X89085814Y-75311569D01*
X89199056Y-75424811D01*
X89219111Y-75454826D01*
X89288027Y-75557966D01*
X89349315Y-75705926D01*
X89380557Y-75862993D01*
X89380557Y-76023143D01*
X89349315Y-76180210D01*
X89301911Y-76294651D01*
X89288028Y-76328168D01*
X89199056Y-76461325D01*
X89085814Y-76574567D01*
X89075333Y-76581570D01*
X88952659Y-76663538D01*
X88804699Y-76724826D01*
X88647632Y-76756068D01*
X88487482Y-76756068D01*
X88330415Y-76724826D01*
X88182455Y-76663538D01*
X88059781Y-76581570D01*
X88049300Y-76574567D01*
X87936058Y-76461325D01*
X87847086Y-76328168D01*
X87833203Y-76294651D01*
X87785799Y-76180210D01*
X87754557Y-76023143D01*
X87754557Y-75862993D01*
X87785799Y-75705926D01*
X87847087Y-75557966D01*
X87916003Y-75454826D01*
X87936058Y-75424811D01*
X88049300Y-75311569D01*
X88115427Y-75267385D01*
X88182455Y-75222598D01*
X88330415Y-75161310D01*
X88487482Y-75130068D01*
X88647632Y-75130068D01*
X88804699Y-75161310D01*
X88804699Y-75161310D01*
G37*
G36*
X149515585Y-75161310D02*
X149663545Y-75222598D01*
X149730573Y-75267385D01*
X149796700Y-75311569D01*
X149909942Y-75424811D01*
X149929997Y-75454826D01*
X149998913Y-75557966D01*
X150060201Y-75705926D01*
X150091443Y-75862993D01*
X150091443Y-76023143D01*
X150060201Y-76180210D01*
X150012797Y-76294651D01*
X149998914Y-76328168D01*
X149909942Y-76461325D01*
X149796700Y-76574567D01*
X149786219Y-76581570D01*
X149663545Y-76663538D01*
X149515585Y-76724826D01*
X149358518Y-76756068D01*
X149198368Y-76756068D01*
X149041301Y-76724826D01*
X148893341Y-76663538D01*
X148770667Y-76581570D01*
X148760186Y-76574567D01*
X148646944Y-76461325D01*
X148557972Y-76328168D01*
X148544089Y-76294651D01*
X148496685Y-76180210D01*
X148465443Y-76023143D01*
X148465443Y-75862993D01*
X148496685Y-75705926D01*
X148557973Y-75557966D01*
X148626889Y-75454826D01*
X148646944Y-75424811D01*
X148760186Y-75311569D01*
X148826313Y-75267385D01*
X148893341Y-75222598D01*
X149041301Y-75161310D01*
X149198368Y-75130068D01*
X149358518Y-75130068D01*
X149515585Y-75161310D01*
X149515585Y-75161310D01*
G37*
G36*
X131885000Y-75855000D02*
X129583000Y-75855000D01*
X129583000Y-73553000D01*
X131885000Y-73553000D01*
X131885000Y-75855000D01*
X131885000Y-75855000D01*
G37*
G36*
X85990789Y-74779789D02*
X84430211Y-75680789D01*
X83529211Y-74120211D01*
X85089789Y-73219211D01*
X85990789Y-74779789D01*
X85990789Y-74779789D01*
G37*
G36*
X91004403Y-73891310D02*
X91152363Y-73952598D01*
X91285519Y-74041570D01*
X91398759Y-74154810D01*
X91487731Y-74287966D01*
X91549019Y-74435926D01*
X91580261Y-74592993D01*
X91580261Y-74753143D01*
X91549019Y-74910210D01*
X91501615Y-75024651D01*
X91487732Y-75058168D01*
X91398760Y-75191325D01*
X91285518Y-75304567D01*
X91275037Y-75311570D01*
X91152363Y-75393538D01*
X91004403Y-75454826D01*
X90847336Y-75486068D01*
X90687186Y-75486068D01*
X90530119Y-75454826D01*
X90382159Y-75393538D01*
X90259485Y-75311570D01*
X90249004Y-75304567D01*
X90135762Y-75191325D01*
X90046790Y-75058168D01*
X90032907Y-75024651D01*
X89985503Y-74910210D01*
X89954261Y-74753143D01*
X89954261Y-74592993D01*
X89985503Y-74435926D01*
X90046791Y-74287966D01*
X90135763Y-74154810D01*
X90249003Y-74041570D01*
X90382159Y-73952598D01*
X90530119Y-73891310D01*
X90687186Y-73860068D01*
X90847336Y-73860068D01*
X91004403Y-73891310D01*
X91004403Y-73891310D01*
G37*
G36*
X147315881Y-73891310D02*
X147463841Y-73952598D01*
X147596997Y-74041570D01*
X147710237Y-74154810D01*
X147799209Y-74287966D01*
X147860497Y-74435926D01*
X147891739Y-74592993D01*
X147891739Y-74753143D01*
X147860497Y-74910210D01*
X147813093Y-75024651D01*
X147799210Y-75058168D01*
X147710238Y-75191325D01*
X147596996Y-75304567D01*
X147586515Y-75311570D01*
X147463841Y-75393538D01*
X147315881Y-75454826D01*
X147158814Y-75486068D01*
X146998664Y-75486068D01*
X146841597Y-75454826D01*
X146693637Y-75393538D01*
X146570963Y-75311570D01*
X146560482Y-75304567D01*
X146447240Y-75191325D01*
X146358268Y-75058168D01*
X146344385Y-75024651D01*
X146296981Y-74910210D01*
X146265739Y-74753143D01*
X146265739Y-74592993D01*
X146296981Y-74435926D01*
X146358269Y-74287966D01*
X146447241Y-74154810D01*
X146560481Y-74041570D01*
X146693637Y-73952598D01*
X146841597Y-73891310D01*
X146998664Y-73860068D01*
X147158814Y-73860068D01*
X147315881Y-73891310D01*
X147315881Y-73891310D01*
G37*
G36*
X87070147Y-72285518D02*
X87136332Y-72292037D01*
X87249558Y-72326384D01*
X87306172Y-72343557D01*
X87383851Y-72385078D01*
X87462696Y-72427222D01*
X87498434Y-72456552D01*
X87599891Y-72539814D01*
X87679589Y-72636928D01*
X87712483Y-72677009D01*
X87712484Y-72677011D01*
X87796148Y-72833533D01*
X87796148Y-72833534D01*
X87847668Y-73003373D01*
X87865064Y-73180000D01*
X87847668Y-73356627D01*
X87813321Y-73469853D01*
X87796148Y-73526467D01*
X87722053Y-73665087D01*
X87712483Y-73682991D01*
X87683153Y-73718729D01*
X87599891Y-73820186D01*
X87498434Y-73903448D01*
X87462696Y-73932778D01*
X87462694Y-73932779D01*
X87306172Y-74016443D01*
X87249558Y-74033616D01*
X87136332Y-74067963D01*
X87070148Y-74074481D01*
X87003965Y-74081000D01*
X86915445Y-74081000D01*
X86849262Y-74074481D01*
X86783078Y-74067963D01*
X86669852Y-74033616D01*
X86613238Y-74016443D01*
X86456716Y-73932779D01*
X86456714Y-73932778D01*
X86420976Y-73903448D01*
X86319519Y-73820186D01*
X86236257Y-73718729D01*
X86206927Y-73682991D01*
X86197357Y-73665087D01*
X86123262Y-73526467D01*
X86106089Y-73469853D01*
X86071742Y-73356627D01*
X86054346Y-73180000D01*
X86071742Y-73003373D01*
X86123262Y-72833534D01*
X86123262Y-72833533D01*
X86206926Y-72677011D01*
X86206927Y-72677009D01*
X86239821Y-72636928D01*
X86319519Y-72539814D01*
X86420976Y-72456552D01*
X86456714Y-72427222D01*
X86535559Y-72385078D01*
X86613238Y-72343557D01*
X86669852Y-72326384D01*
X86783078Y-72292037D01*
X86849263Y-72285518D01*
X86915445Y-72279000D01*
X87003965Y-72279000D01*
X87070147Y-72285518D01*
X87070147Y-72285518D01*
G37*
G36*
X150927283Y-71386283D02*
X150607119Y-71571130D01*
X150587201Y-71585403D01*
X150570450Y-71603288D01*
X150557510Y-71624097D01*
X150548878Y-71647031D01*
X150544887Y-71671208D01*
X150545688Y-71695699D01*
X150551253Y-71719563D01*
X150561366Y-71741883D01*
X150575639Y-71761801D01*
X150593524Y-71778552D01*
X150614333Y-71791492D01*
X150637267Y-71800124D01*
X150661444Y-71804115D01*
X150694003Y-71801981D01*
X150723882Y-71796038D01*
X150852119Y-71796038D01*
X150977890Y-71821055D01*
X151096361Y-71870127D01*
X151202992Y-71941376D01*
X151293662Y-72032046D01*
X151293664Y-72032049D01*
X151293665Y-72032050D01*
X151323580Y-72076821D01*
X151364911Y-72138677D01*
X151413983Y-72257148D01*
X151439000Y-72382919D01*
X151439000Y-72511157D01*
X151413983Y-72636928D01*
X151364911Y-72755399D01*
X151293662Y-72862030D01*
X151202992Y-72952700D01*
X151096361Y-73023949D01*
X150977890Y-73073021D01*
X150852119Y-73098038D01*
X150723881Y-73098038D01*
X150598110Y-73073021D01*
X150479639Y-73023949D01*
X150373008Y-72952700D01*
X150282338Y-72862030D01*
X150211089Y-72755399D01*
X150162017Y-72636928D01*
X150137000Y-72511157D01*
X150137000Y-72382919D01*
X150162017Y-72257148D01*
X150211091Y-72138673D01*
X150281917Y-72032675D01*
X150293469Y-72011064D01*
X150300582Y-71987615D01*
X150302984Y-71963228D01*
X150300582Y-71938842D01*
X150293469Y-71915393D01*
X150281918Y-71893782D01*
X150266373Y-71874840D01*
X150247431Y-71859295D01*
X150225820Y-71847743D01*
X150202371Y-71840630D01*
X150177984Y-71838228D01*
X150153598Y-71840630D01*
X150130149Y-71847743D01*
X150115484Y-71854975D01*
X149799717Y-72037283D01*
X149148717Y-70909717D01*
X150276283Y-70258717D01*
X150927283Y-71386283D01*
X150927283Y-71386283D01*
G37*
G36*
X138012821Y-71071313D02*
X138012824Y-71071314D01*
X138012825Y-71071314D01*
X138173239Y-71119975D01*
X138173241Y-71119976D01*
X138173244Y-71119977D01*
X138321078Y-71198995D01*
X138450659Y-71305341D01*
X138557005Y-71434922D01*
X138636023Y-71582756D01*
X138636024Y-71582759D01*
X138636025Y-71582761D01*
X138648564Y-71624097D01*
X138684687Y-71743179D01*
X138701117Y-71910000D01*
X138684687Y-72076821D01*
X138684686Y-72076824D01*
X138684686Y-72076825D01*
X138665925Y-72138673D01*
X138636023Y-72237244D01*
X138557005Y-72385078D01*
X138450659Y-72514659D01*
X138321078Y-72621005D01*
X138173244Y-72700023D01*
X138173241Y-72700024D01*
X138173239Y-72700025D01*
X138012825Y-72748686D01*
X138012824Y-72748686D01*
X138012821Y-72748687D01*
X137887804Y-72761000D01*
X137804196Y-72761000D01*
X137679179Y-72748687D01*
X137679176Y-72748686D01*
X137679175Y-72748686D01*
X137518761Y-72700025D01*
X137518759Y-72700024D01*
X137518756Y-72700023D01*
X137370922Y-72621005D01*
X137241341Y-72514659D01*
X137134995Y-72385078D01*
X137055977Y-72237244D01*
X137026076Y-72138673D01*
X137007314Y-72076825D01*
X137007314Y-72076824D01*
X137007313Y-72076821D01*
X136990883Y-71910000D01*
X137007313Y-71743179D01*
X137043436Y-71624097D01*
X137055975Y-71582761D01*
X137055976Y-71582759D01*
X137055977Y-71582756D01*
X137134995Y-71434922D01*
X137241341Y-71305341D01*
X137370922Y-71198995D01*
X137518756Y-71119977D01*
X137518759Y-71119976D01*
X137518761Y-71119975D01*
X137679175Y-71071314D01*
X137679176Y-71071314D01*
X137679179Y-71071313D01*
X137804196Y-71059000D01*
X137887804Y-71059000D01*
X138012821Y-71071313D01*
X138012821Y-71071313D01*
G37*
G36*
X130392821Y-71071313D02*
X130392824Y-71071314D01*
X130392825Y-71071314D01*
X130553239Y-71119975D01*
X130553241Y-71119976D01*
X130553244Y-71119977D01*
X130701078Y-71198995D01*
X130830659Y-71305341D01*
X130937005Y-71434922D01*
X131016023Y-71582756D01*
X131016024Y-71582759D01*
X131016025Y-71582761D01*
X131028564Y-71624097D01*
X131064687Y-71743179D01*
X131081117Y-71910000D01*
X131064687Y-72076821D01*
X131064686Y-72076824D01*
X131064686Y-72076825D01*
X131045925Y-72138673D01*
X131016023Y-72237244D01*
X130937005Y-72385078D01*
X130830659Y-72514659D01*
X130701078Y-72621005D01*
X130553244Y-72700023D01*
X130553241Y-72700024D01*
X130553239Y-72700025D01*
X130392825Y-72748686D01*
X130392824Y-72748686D01*
X130392821Y-72748687D01*
X130267804Y-72761000D01*
X130184196Y-72761000D01*
X130059179Y-72748687D01*
X130059176Y-72748686D01*
X130059175Y-72748686D01*
X129898761Y-72700025D01*
X129898759Y-72700024D01*
X129898756Y-72700023D01*
X129750922Y-72621005D01*
X129621341Y-72514659D01*
X129514995Y-72385078D01*
X129435977Y-72237244D01*
X129406076Y-72138673D01*
X129387314Y-72076825D01*
X129387314Y-72076824D01*
X129387313Y-72076821D01*
X129370883Y-71910000D01*
X129387313Y-71743179D01*
X129423436Y-71624097D01*
X129435975Y-71582761D01*
X129435976Y-71582759D01*
X129435977Y-71582756D01*
X129514995Y-71434922D01*
X129621341Y-71305341D01*
X129750922Y-71198995D01*
X129898756Y-71119977D01*
X129898759Y-71119976D01*
X129898761Y-71119975D01*
X130059175Y-71071314D01*
X130059176Y-71071314D01*
X130059179Y-71071313D01*
X130184196Y-71059000D01*
X130267804Y-71059000D01*
X130392821Y-71071313D01*
X130392821Y-71071313D01*
G37*
G36*
X106516821Y-69166313D02*
X106516824Y-69166314D01*
X106516825Y-69166314D01*
X106677239Y-69214975D01*
X106677241Y-69214976D01*
X106677244Y-69214977D01*
X106825078Y-69293995D01*
X106954659Y-69400341D01*
X107061005Y-69529922D01*
X107140023Y-69677756D01*
X107140024Y-69677759D01*
X107140025Y-69677761D01*
X107188686Y-69838175D01*
X107188687Y-69838179D01*
X107205117Y-70005000D01*
X107188687Y-70171821D01*
X107188686Y-70171824D01*
X107188686Y-70171825D01*
X107158602Y-70271000D01*
X107140023Y-70332244D01*
X107061005Y-70480078D01*
X106954659Y-70609659D01*
X106825078Y-70716005D01*
X106677244Y-70795023D01*
X106677241Y-70795024D01*
X106677239Y-70795025D01*
X106516825Y-70843686D01*
X106516824Y-70843686D01*
X106516821Y-70843687D01*
X106391804Y-70856000D01*
X106308196Y-70856000D01*
X106183179Y-70843687D01*
X106183176Y-70843686D01*
X106183175Y-70843686D01*
X106022761Y-70795025D01*
X106022759Y-70795024D01*
X106022756Y-70795023D01*
X105874922Y-70716005D01*
X105745341Y-70609659D01*
X105638995Y-70480078D01*
X105559977Y-70332244D01*
X105541399Y-70271000D01*
X105511314Y-70171825D01*
X105511314Y-70171824D01*
X105511313Y-70171821D01*
X105494883Y-70005000D01*
X105511313Y-69838179D01*
X105511314Y-69838175D01*
X105559975Y-69677761D01*
X105559976Y-69677759D01*
X105559977Y-69677756D01*
X105638995Y-69529922D01*
X105745341Y-69400341D01*
X105874922Y-69293995D01*
X106022756Y-69214977D01*
X106022759Y-69214976D01*
X106022761Y-69214975D01*
X106183175Y-69166314D01*
X106183176Y-69166314D01*
X106183179Y-69166313D01*
X106308196Y-69154000D01*
X106391804Y-69154000D01*
X106516821Y-69166313D01*
X106516821Y-69166313D01*
G37*
G36*
X98978228Y-69186703D02*
X99133100Y-69250853D01*
X99272481Y-69343985D01*
X99391015Y-69462519D01*
X99484147Y-69601900D01*
X99548297Y-69756772D01*
X99581000Y-69921184D01*
X99581000Y-70088816D01*
X99548297Y-70253228D01*
X99484147Y-70408100D01*
X99391015Y-70547481D01*
X99272481Y-70666015D01*
X99133100Y-70759147D01*
X98978228Y-70823297D01*
X98813816Y-70856000D01*
X98646184Y-70856000D01*
X98481772Y-70823297D01*
X98326900Y-70759147D01*
X98187519Y-70666015D01*
X98068985Y-70547481D01*
X97975853Y-70408100D01*
X97911703Y-70253228D01*
X97879000Y-70088816D01*
X97879000Y-69921184D01*
X97911703Y-69756772D01*
X97975853Y-69601900D01*
X98068985Y-69462519D01*
X98187519Y-69343985D01*
X98326900Y-69250853D01*
X98481772Y-69186703D01*
X98646184Y-69154000D01*
X98813816Y-69154000D01*
X98978228Y-69186703D01*
X98978228Y-69186703D01*
G37*
G36*
X94395442Y-68475518D02*
X94461627Y-68482037D01*
X94544199Y-68507085D01*
X94631467Y-68533557D01*
X94718311Y-68579977D01*
X94787991Y-68617222D01*
X94818584Y-68642329D01*
X94925186Y-68729814D01*
X95008448Y-68831271D01*
X95037778Y-68867009D01*
X95037779Y-68867011D01*
X95121443Y-69023533D01*
X95130340Y-69052862D01*
X95172963Y-69193373D01*
X95190359Y-69370000D01*
X95172963Y-69546627D01*
X95156196Y-69601900D01*
X95121443Y-69716467D01*
X95099899Y-69756772D01*
X95037778Y-69872991D01*
X95008448Y-69908729D01*
X94925186Y-70010186D01*
X94829375Y-70088815D01*
X94787991Y-70122778D01*
X94787989Y-70122779D01*
X94631467Y-70206443D01*
X94624069Y-70208687D01*
X94461627Y-70257963D01*
X94395443Y-70264481D01*
X94329260Y-70271000D01*
X94240740Y-70271000D01*
X94174557Y-70264481D01*
X94108373Y-70257963D01*
X93945931Y-70208687D01*
X93938533Y-70206443D01*
X93782011Y-70122779D01*
X93782009Y-70122778D01*
X93740625Y-70088815D01*
X93644814Y-70010186D01*
X93561552Y-69908729D01*
X93532222Y-69872991D01*
X93470101Y-69756772D01*
X93448557Y-69716467D01*
X93413804Y-69601900D01*
X93397037Y-69546627D01*
X93379641Y-69370000D01*
X93397037Y-69193373D01*
X93439660Y-69052862D01*
X93448557Y-69023533D01*
X93532221Y-68867011D01*
X93532222Y-68867009D01*
X93561552Y-68831271D01*
X93644814Y-68729814D01*
X93751416Y-68642329D01*
X93782009Y-68617222D01*
X93851689Y-68579977D01*
X93938533Y-68533557D01*
X94025801Y-68507085D01*
X94108373Y-68482037D01*
X94174558Y-68475518D01*
X94240740Y-68469000D01*
X94329260Y-68469000D01*
X94395442Y-68475518D01*
X94395442Y-68475518D01*
G37*
G36*
X90990690Y-66483961D02*
X91101188Y-66509724D01*
X91178636Y-66544816D01*
X91178642Y-66544819D01*
X91383641Y-66663175D01*
X91617362Y-66798113D01*
X91686476Y-66847640D01*
X91748456Y-66913816D01*
X91764039Y-66930454D01*
X91823952Y-67026802D01*
X91863921Y-67132995D01*
X91867924Y-67157244D01*
X91882403Y-67244939D01*
X91878690Y-67358341D01*
X91852926Y-67468839D01*
X91806100Y-67572187D01*
X91740010Y-67664415D01*
X91657198Y-67741976D01*
X91560846Y-67801893D01*
X91454656Y-67841859D01*
X91342710Y-67860342D01*
X91255264Y-67857479D01*
X91250442Y-67857321D01*
X91225991Y-67858924D01*
X91202321Y-67865266D01*
X91180344Y-67876104D01*
X91160904Y-67891021D01*
X91144747Y-67909445D01*
X91132495Y-67930666D01*
X91124618Y-67953870D01*
X91121420Y-67978165D01*
X91123023Y-68002616D01*
X91129365Y-68026286D01*
X91140199Y-68048255D01*
X91188953Y-68126657D01*
X91209406Y-68181000D01*
X91228921Y-68232848D01*
X91238161Y-68288819D01*
X91247403Y-68344792D01*
X91243690Y-68458194D01*
X91217926Y-68568692D01*
X91171100Y-68672040D01*
X91105010Y-68764268D01*
X91022198Y-68841829D01*
X90925846Y-68901746D01*
X90885879Y-68916788D01*
X90819655Y-68941713D01*
X90750923Y-68953060D01*
X90721502Y-68957918D01*
X90697835Y-68964259D01*
X90675858Y-68975096D01*
X90656417Y-68990014D01*
X90640260Y-69008437D01*
X90628008Y-69029658D01*
X90620131Y-69052862D01*
X90616933Y-69077157D01*
X90618536Y-69101608D01*
X90624878Y-69125278D01*
X90635715Y-69147255D01*
X90650633Y-69166696D01*
X90669056Y-69182853D01*
X90679366Y-69189500D01*
X90821687Y-69271669D01*
X90245687Y-70269331D01*
X90245686Y-70269331D01*
X89288096Y-69716466D01*
X88858313Y-69468331D01*
X89434313Y-68470669D01*
X89434314Y-68470669D01*
X89576641Y-68552842D01*
X89598953Y-68562951D01*
X89622817Y-68568516D01*
X89647308Y-68569317D01*
X89671485Y-68565326D01*
X89694419Y-68556694D01*
X89715228Y-68543754D01*
X89733113Y-68527003D01*
X89747386Y-68507085D01*
X89757499Y-68484765D01*
X89763064Y-68460901D01*
X89763865Y-68436410D01*
X89756122Y-68400555D01*
X89721079Y-68307446D01*
X89713137Y-68259344D01*
X89702596Y-68195502D01*
X89706310Y-68082102D01*
X89732073Y-67971604D01*
X89778900Y-67868255D01*
X89844989Y-67776028D01*
X89927801Y-67698467D01*
X90024153Y-67638550D01*
X90036296Y-67633980D01*
X90130343Y-67598583D01*
X90197385Y-67587514D01*
X90242290Y-67580100D01*
X90334558Y-67583122D01*
X90359008Y-67581520D01*
X90382678Y-67575178D01*
X90404655Y-67564340D01*
X90424095Y-67549423D01*
X90440252Y-67530999D01*
X90452505Y-67509778D01*
X90460381Y-67486574D01*
X90463580Y-67462280D01*
X90461978Y-67437828D01*
X90455636Y-67414158D01*
X90444799Y-67392186D01*
X90396046Y-67313786D01*
X90385117Y-67284748D01*
X90356079Y-67207596D01*
X90343762Y-67132993D01*
X90337596Y-67095649D01*
X90341310Y-66982249D01*
X90367073Y-66871751D01*
X90413900Y-66768402D01*
X90479989Y-66676175D01*
X90562801Y-66598614D01*
X90659153Y-66538697D01*
X90671296Y-66534127D01*
X90765343Y-66498730D01*
X90832385Y-66487661D01*
X90877290Y-66480247D01*
X90990690Y-66483961D01*
X90990690Y-66483961D01*
G37*
G36*
X138012821Y-68531313D02*
X138012824Y-68531314D01*
X138012825Y-68531314D01*
X138173239Y-68579975D01*
X138173241Y-68579976D01*
X138173244Y-68579977D01*
X138321078Y-68658995D01*
X138450659Y-68765341D01*
X138557005Y-68894922D01*
X138636023Y-69042756D01*
X138636024Y-69042759D01*
X138636025Y-69042761D01*
X138681713Y-69193375D01*
X138684687Y-69203179D01*
X138701117Y-69370000D01*
X138684687Y-69536821D01*
X138684686Y-69536824D01*
X138684686Y-69536825D01*
X138641934Y-69677761D01*
X138636023Y-69697244D01*
X138557005Y-69845078D01*
X138450659Y-69974659D01*
X138321078Y-70081005D01*
X138173244Y-70160023D01*
X138173241Y-70160024D01*
X138173239Y-70160025D01*
X138012825Y-70208686D01*
X138012824Y-70208686D01*
X138012821Y-70208687D01*
X137887804Y-70221000D01*
X137804196Y-70221000D01*
X137679179Y-70208687D01*
X137679176Y-70208686D01*
X137679175Y-70208686D01*
X137518761Y-70160025D01*
X137518759Y-70160024D01*
X137518756Y-70160023D01*
X137370922Y-70081005D01*
X137241341Y-69974659D01*
X137134995Y-69845078D01*
X137055977Y-69697244D01*
X137050067Y-69677761D01*
X137007314Y-69536825D01*
X137007314Y-69536824D01*
X137007313Y-69536821D01*
X136990883Y-69370000D01*
X137007313Y-69203179D01*
X137010287Y-69193375D01*
X137055975Y-69042761D01*
X137055976Y-69042759D01*
X137055977Y-69042756D01*
X137134995Y-68894922D01*
X137241341Y-68765341D01*
X137370922Y-68658995D01*
X137518756Y-68579977D01*
X137518759Y-68579976D01*
X137518761Y-68579975D01*
X137679175Y-68531314D01*
X137679176Y-68531314D01*
X137679179Y-68531313D01*
X137804196Y-68519000D01*
X137887804Y-68519000D01*
X138012821Y-68531313D01*
X138012821Y-68531313D01*
G37*
G36*
X130392821Y-68531313D02*
X130392824Y-68531314D01*
X130392825Y-68531314D01*
X130553239Y-68579975D01*
X130553241Y-68579976D01*
X130553244Y-68579977D01*
X130701078Y-68658995D01*
X130830659Y-68765341D01*
X130937005Y-68894922D01*
X131016023Y-69042756D01*
X131016024Y-69042759D01*
X131016025Y-69042761D01*
X131061713Y-69193375D01*
X131064687Y-69203179D01*
X131081117Y-69370000D01*
X131064687Y-69536821D01*
X131064686Y-69536824D01*
X131064686Y-69536825D01*
X131021934Y-69677761D01*
X131016023Y-69697244D01*
X130937005Y-69845078D01*
X130830659Y-69974659D01*
X130701078Y-70081005D01*
X130553244Y-70160023D01*
X130553241Y-70160024D01*
X130553239Y-70160025D01*
X130392825Y-70208686D01*
X130392824Y-70208686D01*
X130392821Y-70208687D01*
X130267804Y-70221000D01*
X130184196Y-70221000D01*
X130059179Y-70208687D01*
X130059176Y-70208686D01*
X130059175Y-70208686D01*
X129898761Y-70160025D01*
X129898759Y-70160024D01*
X129898756Y-70160023D01*
X129750922Y-70081005D01*
X129621341Y-69974659D01*
X129514995Y-69845078D01*
X129435977Y-69697244D01*
X129430067Y-69677761D01*
X129387314Y-69536825D01*
X129387314Y-69536824D01*
X129387313Y-69536821D01*
X129370883Y-69370000D01*
X129387313Y-69203179D01*
X129390287Y-69193375D01*
X129435975Y-69042761D01*
X129435976Y-69042759D01*
X129435977Y-69042756D01*
X129514995Y-68894922D01*
X129621341Y-68765341D01*
X129750922Y-68658995D01*
X129898756Y-68579977D01*
X129898759Y-68579976D01*
X129898761Y-68579975D01*
X130059175Y-68531314D01*
X130059176Y-68531314D01*
X130059179Y-68531313D01*
X130184196Y-68519000D01*
X130267804Y-68519000D01*
X130392821Y-68531313D01*
X130392821Y-68531313D01*
G37*
G36*
X96785789Y-66840506D02*
X95884789Y-68401084D01*
X94324211Y-67500084D01*
X95225211Y-65939506D01*
X96785789Y-66840506D01*
X96785789Y-66840506D01*
G37*
G36*
X143443567Y-65504959D02*
X143574072Y-65530918D01*
X143819939Y-65632759D01*
X144040464Y-65780110D01*
X144041215Y-65780612D01*
X144229388Y-65968785D01*
X144229390Y-65968788D01*
X144377241Y-66190061D01*
X144479082Y-66435928D01*
X144487898Y-66480248D01*
X144531000Y-66696937D01*
X144531000Y-66963063D01*
X144527183Y-66982253D01*
X144479082Y-67224072D01*
X144377241Y-67469939D01*
X144244441Y-67668687D01*
X144229388Y-67691215D01*
X144041215Y-67879388D01*
X144041212Y-67879390D01*
X143819939Y-68027241D01*
X143574072Y-68129082D01*
X143443567Y-68155041D01*
X143313063Y-68181000D01*
X143046937Y-68181000D01*
X142916433Y-68155041D01*
X142785928Y-68129082D01*
X142540061Y-68027241D01*
X142318788Y-67879390D01*
X142318785Y-67879388D01*
X142130612Y-67691215D01*
X142115559Y-67668687D01*
X141982759Y-67469939D01*
X141880918Y-67224072D01*
X141832817Y-66982253D01*
X141829000Y-66963063D01*
X141829000Y-66696937D01*
X141872102Y-66480248D01*
X141880918Y-66435928D01*
X141982759Y-66190061D01*
X142130610Y-65968788D01*
X142130612Y-65968785D01*
X142318785Y-65780612D01*
X142319536Y-65780110D01*
X142540061Y-65632759D01*
X142785928Y-65530918D01*
X142916433Y-65504959D01*
X143046937Y-65479000D01*
X143313063Y-65479000D01*
X143443567Y-65504959D01*
X143443567Y-65504959D01*
G37*
G36*
X148443567Y-65504959D02*
X148574072Y-65530918D01*
X148819939Y-65632759D01*
X149040464Y-65780110D01*
X149041215Y-65780612D01*
X149229388Y-65968785D01*
X149229390Y-65968788D01*
X149377241Y-66190061D01*
X149479082Y-66435928D01*
X149487898Y-66480248D01*
X149531000Y-66696937D01*
X149531000Y-66963063D01*
X149527183Y-66982253D01*
X149479082Y-67224072D01*
X149377241Y-67469939D01*
X149244441Y-67668687D01*
X149229388Y-67691215D01*
X149041215Y-67879388D01*
X149041212Y-67879390D01*
X148819939Y-68027241D01*
X148574072Y-68129082D01*
X148443567Y-68155041D01*
X148313063Y-68181000D01*
X148046937Y-68181000D01*
X147916433Y-68155041D01*
X147785928Y-68129082D01*
X147540061Y-68027241D01*
X147318788Y-67879390D01*
X147318785Y-67879388D01*
X147130612Y-67691215D01*
X147115559Y-67668687D01*
X146982759Y-67469939D01*
X146880918Y-67224072D01*
X146832817Y-66982253D01*
X146829000Y-66963063D01*
X146829000Y-66696937D01*
X146872102Y-66480248D01*
X146880918Y-66435928D01*
X146982759Y-66190061D01*
X147130610Y-65968788D01*
X147130612Y-65968785D01*
X147318785Y-65780612D01*
X147319536Y-65780110D01*
X147540061Y-65632759D01*
X147785928Y-65530918D01*
X147916433Y-65504959D01*
X148046937Y-65479000D01*
X148313063Y-65479000D01*
X148443567Y-65504959D01*
X148443567Y-65504959D01*
G37*
G36*
X130392821Y-65991313D02*
X130392824Y-65991314D01*
X130392825Y-65991314D01*
X130553239Y-66039975D01*
X130553241Y-66039976D01*
X130553244Y-66039977D01*
X130701078Y-66118995D01*
X130830659Y-66225341D01*
X130937005Y-66354922D01*
X131016023Y-66502756D01*
X131016024Y-66502759D01*
X131016025Y-66502761D01*
X131064686Y-66663175D01*
X131064687Y-66663179D01*
X131081117Y-66830000D01*
X131064687Y-66996821D01*
X131064686Y-66996824D01*
X131064686Y-66996825D01*
X131023380Y-67132993D01*
X131016023Y-67157244D01*
X130937005Y-67305078D01*
X130830659Y-67434659D01*
X130701078Y-67541005D01*
X130553244Y-67620023D01*
X130553241Y-67620024D01*
X130553239Y-67620025D01*
X130392825Y-67668686D01*
X130392824Y-67668686D01*
X130392821Y-67668687D01*
X130267804Y-67681000D01*
X130184196Y-67681000D01*
X130059179Y-67668687D01*
X130059176Y-67668686D01*
X130059175Y-67668686D01*
X129898761Y-67620025D01*
X129898759Y-67620024D01*
X129898756Y-67620023D01*
X129750922Y-67541005D01*
X129621341Y-67434659D01*
X129514995Y-67305078D01*
X129435977Y-67157244D01*
X129428621Y-67132993D01*
X129387314Y-66996825D01*
X129387314Y-66996824D01*
X129387313Y-66996821D01*
X129370883Y-66830000D01*
X129387313Y-66663179D01*
X129387314Y-66663175D01*
X129435975Y-66502761D01*
X129435976Y-66502759D01*
X129435977Y-66502756D01*
X129514995Y-66354922D01*
X129621341Y-66225341D01*
X129750922Y-66118995D01*
X129898756Y-66039977D01*
X129898759Y-66039976D01*
X129898761Y-66039975D01*
X130059175Y-65991314D01*
X130059176Y-65991314D01*
X130059179Y-65991313D01*
X130184196Y-65979000D01*
X130267804Y-65979000D01*
X130392821Y-65991313D01*
X130392821Y-65991313D01*
G37*
G36*
X98978228Y-66011703D02*
X99133100Y-66075853D01*
X99272481Y-66168985D01*
X99391015Y-66287519D01*
X99484147Y-66426900D01*
X99548297Y-66581772D01*
X99581000Y-66746184D01*
X99581000Y-66913816D01*
X99548297Y-67078228D01*
X99484147Y-67233100D01*
X99391015Y-67372481D01*
X99272481Y-67491015D01*
X99133100Y-67584147D01*
X98978228Y-67648297D01*
X98813816Y-67681000D01*
X98646184Y-67681000D01*
X98481772Y-67648297D01*
X98326900Y-67584147D01*
X98187519Y-67491015D01*
X98068985Y-67372481D01*
X97975853Y-67233100D01*
X97911703Y-67078228D01*
X97879000Y-66913816D01*
X97879000Y-66746184D01*
X97911703Y-66581772D01*
X97975853Y-66426900D01*
X98068985Y-66287519D01*
X98187519Y-66168985D01*
X98326900Y-66075853D01*
X98481772Y-66011703D01*
X98646184Y-65979000D01*
X98813816Y-65979000D01*
X98978228Y-66011703D01*
X98978228Y-66011703D01*
G37*
G36*
X106516821Y-65991313D02*
X106516824Y-65991314D01*
X106516825Y-65991314D01*
X106677239Y-66039975D01*
X106677241Y-66039976D01*
X106677244Y-66039977D01*
X106825078Y-66118995D01*
X106954659Y-66225341D01*
X107061005Y-66354922D01*
X107140023Y-66502756D01*
X107140024Y-66502759D01*
X107140025Y-66502761D01*
X107188686Y-66663175D01*
X107188687Y-66663179D01*
X107205117Y-66830000D01*
X107188687Y-66996821D01*
X107188686Y-66996824D01*
X107188686Y-66996825D01*
X107147380Y-67132993D01*
X107140023Y-67157244D01*
X107061005Y-67305078D01*
X106954659Y-67434659D01*
X106825078Y-67541005D01*
X106677244Y-67620023D01*
X106677241Y-67620024D01*
X106677239Y-67620025D01*
X106516825Y-67668686D01*
X106516824Y-67668686D01*
X106516821Y-67668687D01*
X106391804Y-67681000D01*
X106308196Y-67681000D01*
X106183179Y-67668687D01*
X106183176Y-67668686D01*
X106183175Y-67668686D01*
X106022761Y-67620025D01*
X106022759Y-67620024D01*
X106022756Y-67620023D01*
X105874922Y-67541005D01*
X105745341Y-67434659D01*
X105638995Y-67305078D01*
X105559977Y-67157244D01*
X105552621Y-67132993D01*
X105511314Y-66996825D01*
X105511314Y-66996824D01*
X105511313Y-66996821D01*
X105494883Y-66830000D01*
X105511313Y-66663179D01*
X105511314Y-66663175D01*
X105559975Y-66502761D01*
X105559976Y-66502759D01*
X105559977Y-66502756D01*
X105638995Y-66354922D01*
X105745341Y-66225341D01*
X105874922Y-66118995D01*
X106022756Y-66039977D01*
X106022759Y-66039976D01*
X106022761Y-66039975D01*
X106183175Y-65991314D01*
X106183176Y-65991314D01*
X106183179Y-65991313D01*
X106308196Y-65979000D01*
X106391804Y-65979000D01*
X106516821Y-65991313D01*
X106516821Y-65991313D01*
G37*
G36*
X138012821Y-65991313D02*
X138012824Y-65991314D01*
X138012825Y-65991314D01*
X138173239Y-66039975D01*
X138173241Y-66039976D01*
X138173244Y-66039977D01*
X138321078Y-66118995D01*
X138450659Y-66225341D01*
X138557005Y-66354922D01*
X138636023Y-66502756D01*
X138636024Y-66502759D01*
X138636025Y-66502761D01*
X138684686Y-66663175D01*
X138684687Y-66663179D01*
X138701117Y-66830000D01*
X138684687Y-66996821D01*
X138684686Y-66996824D01*
X138684686Y-66996825D01*
X138643380Y-67132993D01*
X138636023Y-67157244D01*
X138557005Y-67305078D01*
X138450659Y-67434659D01*
X138321078Y-67541005D01*
X138173244Y-67620023D01*
X138173241Y-67620024D01*
X138173239Y-67620025D01*
X138012825Y-67668686D01*
X138012824Y-67668686D01*
X138012821Y-67668687D01*
X137887804Y-67681000D01*
X137804196Y-67681000D01*
X137679179Y-67668687D01*
X137679176Y-67668686D01*
X137679175Y-67668686D01*
X137518761Y-67620025D01*
X137518759Y-67620024D01*
X137518756Y-67620023D01*
X137370922Y-67541005D01*
X137241341Y-67434659D01*
X137134995Y-67305078D01*
X137055977Y-67157244D01*
X137048621Y-67132993D01*
X137007314Y-66996825D01*
X137007314Y-66996824D01*
X137007313Y-66996821D01*
X136990883Y-66830000D01*
X137007313Y-66663179D01*
X137007314Y-66663175D01*
X137055975Y-66502761D01*
X137055976Y-66502759D01*
X137055977Y-66502756D01*
X137134995Y-66354922D01*
X137241341Y-66225341D01*
X137370922Y-66118995D01*
X137518756Y-66039977D01*
X137518759Y-66039976D01*
X137518761Y-66039975D01*
X137679175Y-65991314D01*
X137679176Y-65991314D01*
X137679179Y-65991313D01*
X137804196Y-65979000D01*
X137887804Y-65979000D01*
X138012821Y-65991313D01*
X138012821Y-65991313D01*
G37*
G36*
X138012821Y-63451313D02*
X138012824Y-63451314D01*
X138012825Y-63451314D01*
X138173239Y-63499975D01*
X138173241Y-63499976D01*
X138173244Y-63499977D01*
X138321078Y-63578995D01*
X138450659Y-63685341D01*
X138557005Y-63814922D01*
X138636023Y-63962756D01*
X138636024Y-63962759D01*
X138636025Y-63962761D01*
X138684686Y-64123175D01*
X138684687Y-64123179D01*
X138701117Y-64290000D01*
X138684687Y-64456821D01*
X138684686Y-64456824D01*
X138684686Y-64456825D01*
X138642308Y-64596528D01*
X138636023Y-64617244D01*
X138557005Y-64765078D01*
X138450659Y-64894659D01*
X138321078Y-65001005D01*
X138173244Y-65080023D01*
X138173241Y-65080024D01*
X138173239Y-65080025D01*
X138012825Y-65128686D01*
X138012824Y-65128686D01*
X138012821Y-65128687D01*
X137887804Y-65141000D01*
X137804196Y-65141000D01*
X137679179Y-65128687D01*
X137679176Y-65128686D01*
X137679175Y-65128686D01*
X137518761Y-65080025D01*
X137518759Y-65080024D01*
X137518756Y-65080023D01*
X137370922Y-65001005D01*
X137241341Y-64894659D01*
X137134995Y-64765078D01*
X137055977Y-64617244D01*
X137049693Y-64596528D01*
X137007314Y-64456825D01*
X137007314Y-64456824D01*
X137007313Y-64456821D01*
X136990883Y-64290000D01*
X137007313Y-64123179D01*
X137007314Y-64123175D01*
X137055975Y-63962761D01*
X137055976Y-63962759D01*
X137055977Y-63962756D01*
X137134995Y-63814922D01*
X137241341Y-63685341D01*
X137370922Y-63578995D01*
X137518756Y-63499977D01*
X137518759Y-63499976D01*
X137518761Y-63499975D01*
X137679175Y-63451314D01*
X137679176Y-63451314D01*
X137679179Y-63451313D01*
X137804196Y-63439000D01*
X137887804Y-63439000D01*
X138012821Y-63451313D01*
X138012821Y-63451313D01*
G37*
G36*
X131077000Y-65141000D02*
X129375000Y-65141000D01*
X129375000Y-63439000D01*
X131077000Y-63439000D01*
X131077000Y-65141000D01*
X131077000Y-65141000D01*
G37*
G36*
X95569943Y-63311443D02*
X95569943Y-63311444D01*
X95193905Y-63962761D01*
X94566443Y-65049557D01*
X92746057Y-63998557D01*
X92746057Y-63998556D01*
X93388713Y-62885444D01*
X93749557Y-62260443D01*
X95569943Y-63311443D01*
X95569943Y-63311443D01*
G37*
G36*
X124251635Y-62383411D02*
X124355635Y-62393654D01*
X124572600Y-62459470D01*
X124572602Y-62459471D01*
X124572605Y-62459472D01*
X124772556Y-62566347D01*
X124947818Y-62710182D01*
X125091653Y-62885444D01*
X125198528Y-63085395D01*
X125198529Y-63085398D01*
X125198530Y-63085400D01*
X125264346Y-63302365D01*
X125286569Y-63528000D01*
X125264346Y-63753635D01*
X125198530Y-63970600D01*
X125198528Y-63970605D01*
X125091653Y-64170556D01*
X124947818Y-64345818D01*
X124772556Y-64489653D01*
X124572605Y-64596528D01*
X124572602Y-64596529D01*
X124572600Y-64596530D01*
X124355635Y-64662346D01*
X124254180Y-64672338D01*
X124186545Y-64679000D01*
X124073455Y-64679000D01*
X124005820Y-64672338D01*
X123904365Y-64662346D01*
X123687400Y-64596530D01*
X123687398Y-64596529D01*
X123687395Y-64596528D01*
X123487444Y-64489653D01*
X123312182Y-64345818D01*
X123168347Y-64170556D01*
X123061472Y-63970605D01*
X123061470Y-63970600D01*
X122995654Y-63753635D01*
X122973431Y-63528000D01*
X122995654Y-63302365D01*
X123061470Y-63085400D01*
X123061471Y-63085398D01*
X123061472Y-63085395D01*
X123168347Y-62885444D01*
X123312182Y-62710182D01*
X123487444Y-62566347D01*
X123687395Y-62459472D01*
X123687398Y-62459471D01*
X123687400Y-62459470D01*
X123904365Y-62393654D01*
X124008365Y-62383411D01*
X124073455Y-62377000D01*
X124186545Y-62377000D01*
X124251635Y-62383411D01*
X124251635Y-62383411D01*
G37*
G36*
X115121000Y-64679000D02*
X112819000Y-64679000D01*
X112819000Y-62377000D01*
X115121000Y-62377000D01*
X115121000Y-64679000D01*
X115121000Y-64679000D01*
G37*
G36*
X98896821Y-62816313D02*
X98896824Y-62816314D01*
X98896825Y-62816314D01*
X99057239Y-62864975D01*
X99057241Y-62864976D01*
X99057244Y-62864977D01*
X99205078Y-62943995D01*
X99334659Y-63050341D01*
X99441005Y-63179922D01*
X99520023Y-63327756D01*
X99520024Y-63327759D01*
X99520025Y-63327761D01*
X99553769Y-63439000D01*
X99568687Y-63488179D01*
X99585117Y-63655000D01*
X99568687Y-63821821D01*
X99568686Y-63821824D01*
X99568686Y-63821825D01*
X99523556Y-63970600D01*
X99520023Y-63982244D01*
X99441005Y-64130078D01*
X99334659Y-64259659D01*
X99205078Y-64366005D01*
X99057244Y-64445023D01*
X99057241Y-64445024D01*
X99057239Y-64445025D01*
X98896825Y-64493686D01*
X98896824Y-64493686D01*
X98896821Y-64493687D01*
X98771804Y-64506000D01*
X98688196Y-64506000D01*
X98563179Y-64493687D01*
X98563176Y-64493686D01*
X98563175Y-64493686D01*
X98402761Y-64445025D01*
X98402759Y-64445024D01*
X98402756Y-64445023D01*
X98254922Y-64366005D01*
X98125341Y-64259659D01*
X98018995Y-64130078D01*
X97939977Y-63982244D01*
X97936445Y-63970600D01*
X97891314Y-63821825D01*
X97891314Y-63821824D01*
X97891313Y-63821821D01*
X97874883Y-63655000D01*
X97891313Y-63488179D01*
X97906231Y-63439000D01*
X97939975Y-63327761D01*
X97939976Y-63327759D01*
X97939977Y-63327756D01*
X98018995Y-63179922D01*
X98125341Y-63050341D01*
X98254922Y-62943995D01*
X98402756Y-62864977D01*
X98402759Y-62864976D01*
X98402761Y-62864975D01*
X98563175Y-62816314D01*
X98563176Y-62816314D01*
X98563179Y-62816313D01*
X98688196Y-62804000D01*
X98771804Y-62804000D01*
X98896821Y-62816313D01*
X98896821Y-62816313D01*
G37*
G36*
X106598228Y-62836703D02*
X106753100Y-62900853D01*
X106892481Y-62993985D01*
X107011015Y-63112519D01*
X107104147Y-63251900D01*
X107168297Y-63406772D01*
X107201000Y-63571184D01*
X107201000Y-63738816D01*
X107168297Y-63903228D01*
X107104147Y-64058100D01*
X107011015Y-64197481D01*
X106892481Y-64316015D01*
X106753100Y-64409147D01*
X106598228Y-64473297D01*
X106433816Y-64506000D01*
X106266184Y-64506000D01*
X106101772Y-64473297D01*
X105946900Y-64409147D01*
X105807519Y-64316015D01*
X105688985Y-64197481D01*
X105595853Y-64058100D01*
X105531703Y-63903228D01*
X105499000Y-63738816D01*
X105499000Y-63571184D01*
X105531703Y-63406772D01*
X105595853Y-63251900D01*
X105688985Y-63112519D01*
X105807519Y-62993985D01*
X105946900Y-62900853D01*
X106101772Y-62836703D01*
X106266184Y-62804000D01*
X106433816Y-62804000D01*
X106598228Y-62836703D01*
X106598228Y-62836703D01*
G37*
G36*
X95518482Y-60431817D02*
X95710991Y-60476704D01*
X95845926Y-60537843D01*
X95845929Y-60537845D01*
X96013575Y-60634635D01*
X96133994Y-60720926D01*
X96208193Y-60800150D01*
X96269119Y-60865200D01*
X96373503Y-61033063D01*
X96401488Y-61107418D01*
X96443134Y-61218068D01*
X96475332Y-61413096D01*
X96475332Y-61413099D01*
X96468864Y-61610664D01*
X96423977Y-61803172D01*
X96342396Y-61983224D01*
X96284826Y-62063563D01*
X96227255Y-62143903D01*
X96178394Y-62189665D01*
X96082982Y-62279028D01*
X95951996Y-62360480D01*
X95925430Y-62377000D01*
X95915118Y-62383412D01*
X95730115Y-62453042D01*
X95535083Y-62485241D01*
X95337518Y-62478773D01*
X95145009Y-62433886D01*
X95010075Y-62372747D01*
X94971168Y-62350284D01*
X94842418Y-62275951D01*
X94747880Y-62208205D01*
X94722008Y-62189665D01*
X94586881Y-62045391D01*
X94482497Y-61877527D01*
X94412867Y-61692524D01*
X94380668Y-61497492D01*
X94387136Y-61299927D01*
X94432023Y-61107418D01*
X94513605Y-60927366D01*
X94628744Y-60766689D01*
X94773018Y-60631562D01*
X94940882Y-60527178D01*
X95125885Y-60457548D01*
X95320917Y-60425349D01*
X95518482Y-60431817D01*
X95518482Y-60431817D01*
G37*
G36*
X96788482Y-58232113D02*
X96980991Y-58277000D01*
X97115926Y-58338139D01*
X97115929Y-58338141D01*
X97283575Y-58434931D01*
X97403994Y-58521222D01*
X97478193Y-58600446D01*
X97539119Y-58665496D01*
X97643503Y-58833359D01*
X97671488Y-58907714D01*
X97713134Y-59018364D01*
X97730934Y-59126184D01*
X97745332Y-59213395D01*
X97738864Y-59410960D01*
X97693977Y-59603468D01*
X97612396Y-59783520D01*
X97554826Y-59863858D01*
X97497255Y-59944199D01*
X97475957Y-59964146D01*
X97352982Y-60079324D01*
X97185118Y-60183708D01*
X97000115Y-60253338D01*
X96805083Y-60285537D01*
X96607518Y-60279069D01*
X96415009Y-60234182D01*
X96280075Y-60173043D01*
X96241168Y-60150580D01*
X96112418Y-60076247D01*
X96017880Y-60008501D01*
X95992008Y-59989961D01*
X95856881Y-59845687D01*
X95752497Y-59677823D01*
X95682867Y-59492820D01*
X95650668Y-59297788D01*
X95657136Y-59100223D01*
X95702023Y-58907714D01*
X95783605Y-58727662D01*
X95898744Y-58566985D01*
X96043018Y-58431858D01*
X96210882Y-58327474D01*
X96395885Y-58257844D01*
X96590917Y-58225645D01*
X96788482Y-58232113D01*
X96788482Y-58232113D01*
G37*
G36*
X140928228Y-58391703D02*
X141083100Y-58455853D01*
X141222481Y-58548985D01*
X141341015Y-58667519D01*
X141434147Y-58806900D01*
X141498297Y-58961772D01*
X141531000Y-59126184D01*
X141531000Y-59293816D01*
X141498297Y-59458228D01*
X141434147Y-59613100D01*
X141341015Y-59752481D01*
X141222481Y-59871015D01*
X141083100Y-59964147D01*
X140928228Y-60028297D01*
X140763816Y-60061000D01*
X140596184Y-60061000D01*
X140431772Y-60028297D01*
X140276900Y-59964147D01*
X140137519Y-59871015D01*
X140018985Y-59752481D01*
X139925853Y-59613100D01*
X139861703Y-59458228D01*
X139829000Y-59293816D01*
X139829000Y-59126184D01*
X139861703Y-58961772D01*
X139925853Y-58806900D01*
X140018985Y-58667519D01*
X140137519Y-58548985D01*
X140276900Y-58455853D01*
X140431772Y-58391703D01*
X140596184Y-58359000D01*
X140763816Y-58359000D01*
X140928228Y-58391703D01*
X140928228Y-58391703D01*
G37*
G36*
X144031000Y-60061000D02*
X142329000Y-60061000D01*
X142329000Y-58359000D01*
X144031000Y-58359000D01*
X144031000Y-60061000D01*
X144031000Y-60061000D01*
G37*
G36*
X110066721Y-57410174D02*
X110166995Y-57451709D01*
X110257245Y-57512012D01*
X110333988Y-57588755D01*
X110394291Y-57679005D01*
X110435826Y-57779279D01*
X110457000Y-57885730D01*
X110457000Y-57994270D01*
X110435826Y-58100721D01*
X110394291Y-58200995D01*
X110333988Y-58291245D01*
X110257245Y-58367988D01*
X110166995Y-58428291D01*
X110066721Y-58469826D01*
X109960270Y-58491000D01*
X109851730Y-58491000D01*
X109745279Y-58469826D01*
X109645005Y-58428291D01*
X109554755Y-58367988D01*
X109478012Y-58291245D01*
X109417709Y-58200995D01*
X109376174Y-58100721D01*
X109355000Y-57994270D01*
X109355000Y-57885730D01*
X109376174Y-57779279D01*
X109417709Y-57679005D01*
X109478012Y-57588755D01*
X109554755Y-57512012D01*
X109645005Y-57451709D01*
X109745279Y-57410174D01*
X109851730Y-57389000D01*
X109960270Y-57389000D01*
X110066721Y-57410174D01*
X110066721Y-57410174D01*
G37*
G36*
X94797552Y-56490331D02*
X94879625Y-56524327D01*
X94879626Y-56524328D01*
X94879629Y-56524329D01*
X94953496Y-56573686D01*
X94953500Y-56573689D01*
X95016311Y-56636500D01*
X95016313Y-56636503D01*
X95016314Y-56636504D01*
X95065671Y-56710371D01*
X95065672Y-56710374D01*
X95065673Y-56710375D01*
X95099669Y-56792448D01*
X95117000Y-56879579D01*
X95117000Y-56968421D01*
X95099669Y-57055552D01*
X95065673Y-57137625D01*
X95065671Y-57137629D01*
X95016314Y-57211496D01*
X95016311Y-57211500D01*
X94953500Y-57274311D01*
X94953497Y-57274313D01*
X94953496Y-57274314D01*
X94879629Y-57323671D01*
X94879626Y-57323672D01*
X94879625Y-57323673D01*
X94797552Y-57357669D01*
X94710421Y-57375000D01*
X94621579Y-57375000D01*
X94534448Y-57357669D01*
X94452375Y-57323673D01*
X94452374Y-57323672D01*
X94452371Y-57323671D01*
X94378504Y-57274314D01*
X94378503Y-57274313D01*
X94378500Y-57274311D01*
X94315689Y-57211500D01*
X94315686Y-57211496D01*
X94266329Y-57137629D01*
X94266327Y-57137625D01*
X94232331Y-57055552D01*
X94215000Y-56968421D01*
X94215000Y-56879579D01*
X94232331Y-56792448D01*
X94266327Y-56710375D01*
X94266328Y-56710374D01*
X94266329Y-56710371D01*
X94315686Y-56636504D01*
X94315687Y-56636503D01*
X94315689Y-56636500D01*
X94378500Y-56573689D01*
X94378504Y-56573686D01*
X94452371Y-56524329D01*
X94452374Y-56524328D01*
X94452375Y-56524327D01*
X94534448Y-56490331D01*
X94621579Y-56473000D01*
X94710421Y-56473000D01*
X94797552Y-56490331D01*
X94797552Y-56490331D01*
G37*
G36*
X140115443Y-53235519D02*
X140181627Y-53242037D01*
X140294853Y-53276384D01*
X140351467Y-53293557D01*
X140453774Y-53348242D01*
X140507991Y-53377222D01*
X140543729Y-53406552D01*
X140645186Y-53489814D01*
X140728448Y-53591271D01*
X140757778Y-53627009D01*
X140757779Y-53627011D01*
X140841443Y-53783533D01*
X140841443Y-53783534D01*
X140892963Y-53953373D01*
X140910359Y-54130000D01*
X140892963Y-54306627D01*
X140858616Y-54419853D01*
X140841443Y-54476467D01*
X140767348Y-54615087D01*
X140757778Y-54632991D01*
X140728448Y-54668729D01*
X140645186Y-54770186D01*
X140547358Y-54850470D01*
X140507991Y-54882778D01*
X140507989Y-54882779D01*
X140351467Y-54966443D01*
X140294853Y-54983616D01*
X140181627Y-55017963D01*
X140115442Y-55024482D01*
X140049260Y-55031000D01*
X139960740Y-55031000D01*
X139894558Y-55024482D01*
X139828373Y-55017963D01*
X139715147Y-54983616D01*
X139658533Y-54966443D01*
X139502011Y-54882779D01*
X139502009Y-54882778D01*
X139462642Y-54850470D01*
X139364814Y-54770186D01*
X139281552Y-54668729D01*
X139252222Y-54632991D01*
X139242652Y-54615087D01*
X139168557Y-54476467D01*
X139151384Y-54419853D01*
X139117037Y-54306627D01*
X139099641Y-54130000D01*
X139117037Y-53953373D01*
X139168557Y-53783534D01*
X139168557Y-53783533D01*
X139252221Y-53627011D01*
X139252222Y-53627009D01*
X139281552Y-53591271D01*
X139364814Y-53489814D01*
X139466271Y-53406552D01*
X139502009Y-53377222D01*
X139556226Y-53348242D01*
X139658533Y-53293557D01*
X139715147Y-53276384D01*
X139828373Y-53242037D01*
X139894557Y-53235519D01*
X139960740Y-53229000D01*
X140049260Y-53229000D01*
X140115443Y-53235519D01*
X140115443Y-53235519D01*
G37*
G36*
X98205443Y-53235519D02*
X98271627Y-53242037D01*
X98384853Y-53276384D01*
X98441467Y-53293557D01*
X98543774Y-53348242D01*
X98597991Y-53377222D01*
X98633729Y-53406552D01*
X98735186Y-53489814D01*
X98818448Y-53591271D01*
X98847778Y-53627009D01*
X98847779Y-53627011D01*
X98931443Y-53783533D01*
X98931443Y-53783534D01*
X98982963Y-53953373D01*
X99000359Y-54130000D01*
X98982963Y-54306627D01*
X98948616Y-54419853D01*
X98931443Y-54476467D01*
X98857348Y-54615087D01*
X98847778Y-54632991D01*
X98818448Y-54668729D01*
X98735186Y-54770186D01*
X98637358Y-54850470D01*
X98597991Y-54882778D01*
X98597989Y-54882779D01*
X98441467Y-54966443D01*
X98384853Y-54983616D01*
X98271627Y-55017963D01*
X98205442Y-55024482D01*
X98139260Y-55031000D01*
X98050740Y-55031000D01*
X97984558Y-55024482D01*
X97918373Y-55017963D01*
X97805147Y-54983616D01*
X97748533Y-54966443D01*
X97592011Y-54882779D01*
X97592009Y-54882778D01*
X97552642Y-54850470D01*
X97454814Y-54770186D01*
X97371552Y-54668729D01*
X97342222Y-54632991D01*
X97332652Y-54615087D01*
X97258557Y-54476467D01*
X97241384Y-54419853D01*
X97207037Y-54306627D01*
X97189641Y-54130000D01*
X97207037Y-53953373D01*
X97258557Y-53783534D01*
X97258557Y-53783533D01*
X97342221Y-53627011D01*
X97342222Y-53627009D01*
X97371552Y-53591271D01*
X97454814Y-53489814D01*
X97556271Y-53406552D01*
X97592009Y-53377222D01*
X97646226Y-53348242D01*
X97748533Y-53293557D01*
X97805147Y-53276384D01*
X97918373Y-53242037D01*
X97984557Y-53235519D01*
X98050740Y-53229000D01*
X98139260Y-53229000D01*
X98205443Y-53235519D01*
X98205443Y-53235519D01*
G37*
G36*
X137067142Y-53348242D02*
X137215102Y-53409530D01*
X137282130Y-53454317D01*
X137348257Y-53498501D01*
X137461499Y-53611743D01*
X137505683Y-53677870D01*
X137550470Y-53744898D01*
X137611758Y-53892858D01*
X137643000Y-54049925D01*
X137643000Y-54210075D01*
X137611758Y-54367142D01*
X137566474Y-54476466D01*
X137550471Y-54515100D01*
X137461499Y-54648257D01*
X137348257Y-54761499D01*
X137282130Y-54805683D01*
X137215102Y-54850470D01*
X137067142Y-54911758D01*
X136910075Y-54943000D01*
X136749925Y-54943000D01*
X136592858Y-54911758D01*
X136444898Y-54850470D01*
X136377870Y-54805683D01*
X136311743Y-54761499D01*
X136198501Y-54648257D01*
X136109529Y-54515100D01*
X136093526Y-54476466D01*
X136048242Y-54367142D01*
X136017000Y-54210075D01*
X136017000Y-54049925D01*
X136048242Y-53892858D01*
X136109530Y-53744898D01*
X136154317Y-53677870D01*
X136198501Y-53611743D01*
X136311743Y-53498501D01*
X136377870Y-53454317D01*
X136444898Y-53409530D01*
X136592858Y-53348242D01*
X136749925Y-53317000D01*
X136910075Y-53317000D01*
X137067142Y-53348242D01*
X137067142Y-53348242D01*
G37*
G36*
X101507142Y-53348242D02*
X101655102Y-53409530D01*
X101722130Y-53454317D01*
X101788257Y-53498501D01*
X101901499Y-53611743D01*
X101945683Y-53677870D01*
X101990470Y-53744898D01*
X102051758Y-53892858D01*
X102083000Y-54049925D01*
X102083000Y-54210075D01*
X102051758Y-54367142D01*
X102006474Y-54476466D01*
X101990471Y-54515100D01*
X101901499Y-54648257D01*
X101788257Y-54761499D01*
X101722130Y-54805683D01*
X101655102Y-54850470D01*
X101507142Y-54911758D01*
X101350075Y-54943000D01*
X101189925Y-54943000D01*
X101032858Y-54911758D01*
X100884898Y-54850470D01*
X100817870Y-54805683D01*
X100751743Y-54761499D01*
X100638501Y-54648257D01*
X100549529Y-54515100D01*
X100533526Y-54476466D01*
X100488242Y-54367142D01*
X100457000Y-54210075D01*
X100457000Y-54049925D01*
X100488242Y-53892858D01*
X100549530Y-53744898D01*
X100594317Y-53677870D01*
X100638501Y-53611743D01*
X100751743Y-53498501D01*
X100817870Y-53454317D01*
X100884898Y-53409530D01*
X101032858Y-53348242D01*
X101189925Y-53317000D01*
X101350075Y-53317000D01*
X101507142Y-53348242D01*
X101507142Y-53348242D01*
G37*
G36*
X140906000Y-52491000D02*
X139104000Y-52491000D01*
X139104000Y-50689000D01*
X140906000Y-50689000D01*
X140906000Y-52491000D01*
X140906000Y-52491000D01*
G37*
G36*
X98996000Y-52491000D02*
X97194000Y-52491000D01*
X97194000Y-50689000D01*
X98996000Y-50689000D01*
X98996000Y-52491000D01*
X98996000Y-52491000D01*
G37*
G36*
X101507142Y-50808242D02*
X101655102Y-50869530D01*
X101788258Y-50958502D01*
X101901498Y-51071742D01*
X101990470Y-51204898D01*
X102051758Y-51352858D01*
X102083000Y-51509925D01*
X102083000Y-51670075D01*
X102051758Y-51827142D01*
X102022296Y-51898269D01*
X101990471Y-51975100D01*
X101903679Y-52104995D01*
X101901498Y-52108258D01*
X101788258Y-52221498D01*
X101655102Y-52310470D01*
X101507142Y-52371758D01*
X101350075Y-52403000D01*
X101189925Y-52403000D01*
X101032858Y-52371758D01*
X100884898Y-52310470D01*
X100751742Y-52221498D01*
X100638502Y-52108258D01*
X100636322Y-52104995D01*
X100549529Y-51975100D01*
X100517704Y-51898269D01*
X100488242Y-51827142D01*
X100457000Y-51670075D01*
X100457000Y-51509925D01*
X100488242Y-51352858D01*
X100549530Y-51204898D01*
X100638502Y-51071742D01*
X100751742Y-50958502D01*
X100884898Y-50869530D01*
X101032858Y-50808242D01*
X101189925Y-50777000D01*
X101350075Y-50777000D01*
X101507142Y-50808242D01*
X101507142Y-50808242D01*
G37*
G36*
X137067142Y-50808242D02*
X137215102Y-50869530D01*
X137348258Y-50958502D01*
X137461498Y-51071742D01*
X137550470Y-51204898D01*
X137611758Y-51352858D01*
X137643000Y-51509925D01*
X137643000Y-51670075D01*
X137611758Y-51827142D01*
X137582296Y-51898269D01*
X137550471Y-51975100D01*
X137463679Y-52104995D01*
X137461498Y-52108258D01*
X137348258Y-52221498D01*
X137215102Y-52310470D01*
X137067142Y-52371758D01*
X136910075Y-52403000D01*
X136749925Y-52403000D01*
X136592858Y-52371758D01*
X136444898Y-52310470D01*
X136311742Y-52221498D01*
X136198502Y-52108258D01*
X136196322Y-52104995D01*
X136109529Y-51975100D01*
X136077704Y-51898269D01*
X136048242Y-51827142D01*
X136017000Y-51670075D01*
X136017000Y-51509925D01*
X136048242Y-51352858D01*
X136109530Y-51204898D01*
X136198502Y-51071742D01*
X136311742Y-50958502D01*
X136444898Y-50869530D01*
X136592858Y-50808242D01*
X136749925Y-50777000D01*
X136910075Y-50777000D01*
X137067142Y-50808242D01*
X137067142Y-50808242D01*
G37*
G36*
X118194721Y-51314174D02*
X118294995Y-51355709D01*
X118385245Y-51416012D01*
X118461988Y-51492755D01*
X118522291Y-51583005D01*
X118563826Y-51683279D01*
X118585000Y-51789730D01*
X118585000Y-51898270D01*
X118563826Y-52004721D01*
X118522291Y-52104995D01*
X118461988Y-52195245D01*
X118385245Y-52271988D01*
X118294995Y-52332291D01*
X118194721Y-52373826D01*
X118088270Y-52395000D01*
X117979730Y-52395000D01*
X117873279Y-52373826D01*
X117773005Y-52332291D01*
X117682755Y-52271988D01*
X117606012Y-52195245D01*
X117545709Y-52104995D01*
X117504174Y-52004721D01*
X117483000Y-51898270D01*
X117483000Y-51789730D01*
X117504174Y-51683279D01*
X117545709Y-51583005D01*
X117606012Y-51492755D01*
X117682755Y-51416012D01*
X117773005Y-51355709D01*
X117873279Y-51314174D01*
X117979730Y-51293000D01*
X118088270Y-51293000D01*
X118194721Y-51314174D01*
X118194721Y-51314174D01*
G37*
G36*
X101507142Y-48268242D02*
X101655102Y-48329530D01*
X101788258Y-48418502D01*
X101901498Y-48531742D01*
X101990470Y-48664898D01*
X102051758Y-48812858D01*
X102083000Y-48969925D01*
X102083000Y-49130075D01*
X102051758Y-49287142D01*
X101990470Y-49435102D01*
X101901498Y-49568258D01*
X101788258Y-49681498D01*
X101655102Y-49770470D01*
X101507142Y-49831758D01*
X101350075Y-49863000D01*
X101189925Y-49863000D01*
X101032858Y-49831758D01*
X100884898Y-49770470D01*
X100751742Y-49681498D01*
X100638502Y-49568258D01*
X100549530Y-49435102D01*
X100488242Y-49287142D01*
X100457000Y-49130075D01*
X100457000Y-48969925D01*
X100488242Y-48812858D01*
X100549530Y-48664898D01*
X100638502Y-48531742D01*
X100751742Y-48418502D01*
X100884898Y-48329530D01*
X101032858Y-48268242D01*
X101189925Y-48237000D01*
X101350075Y-48237000D01*
X101507142Y-48268242D01*
X101507142Y-48268242D01*
G37*
G36*
X137067142Y-48268242D02*
X137215102Y-48329530D01*
X137348258Y-48418502D01*
X137461498Y-48531742D01*
X137550470Y-48664898D01*
X137611758Y-48812858D01*
X137643000Y-48969925D01*
X137643000Y-49130075D01*
X137611758Y-49287142D01*
X137550470Y-49435102D01*
X137461498Y-49568258D01*
X137348258Y-49681498D01*
X137215102Y-49770470D01*
X137067142Y-49831758D01*
X136910075Y-49863000D01*
X136749925Y-49863000D01*
X136592858Y-49831758D01*
X136444898Y-49770470D01*
X136311742Y-49681498D01*
X136198502Y-49568258D01*
X136109530Y-49435102D01*
X136048242Y-49287142D01*
X136017000Y-49130075D01*
X136017000Y-48969925D01*
X136048242Y-48812858D01*
X136109530Y-48664898D01*
X136198502Y-48531742D01*
X136311742Y-48418502D01*
X136444898Y-48329530D01*
X136592858Y-48268242D01*
X136749925Y-48237000D01*
X136910075Y-48237000D01*
X137067142Y-48268242D01*
X137067142Y-48268242D01*
G37*
G36*
X137067142Y-45728242D02*
X137215102Y-45789530D01*
X137348258Y-45878502D01*
X137461498Y-45991742D01*
X137550470Y-46124898D01*
X137611758Y-46272858D01*
X137643000Y-46429925D01*
X137643000Y-46590075D01*
X137611758Y-46747142D01*
X137550470Y-46895102D01*
X137461498Y-47028258D01*
X137348258Y-47141498D01*
X137215102Y-47230470D01*
X137067142Y-47291758D01*
X136910075Y-47323000D01*
X136749925Y-47323000D01*
X136592858Y-47291758D01*
X136444898Y-47230470D01*
X136311742Y-47141498D01*
X136198502Y-47028258D01*
X136109530Y-46895102D01*
X136048242Y-46747142D01*
X136017000Y-46590075D01*
X136017000Y-46429925D01*
X136048242Y-46272858D01*
X136109530Y-46124898D01*
X136198502Y-45991742D01*
X136311742Y-45878502D01*
X136444898Y-45789530D01*
X136592858Y-45728242D01*
X136749925Y-45697000D01*
X136910075Y-45697000D01*
X137067142Y-45728242D01*
X137067142Y-45728242D01*
G37*
G36*
X101507142Y-43188242D02*
X101655102Y-43249530D01*
X101788258Y-43338502D01*
X101901498Y-43451742D01*
X101990470Y-43584898D01*
X102051758Y-43732858D01*
X102083000Y-43889925D01*
X102083000Y-44050075D01*
X102051758Y-44207142D01*
X101990470Y-44355102D01*
X101901498Y-44488258D01*
X101788258Y-44601498D01*
X101655102Y-44690470D01*
X101507142Y-44751758D01*
X101350075Y-44783000D01*
X101189925Y-44783000D01*
X101032858Y-44751758D01*
X100884898Y-44690470D01*
X100751742Y-44601498D01*
X100638502Y-44488258D01*
X100549530Y-44355102D01*
X100488242Y-44207142D01*
X100457000Y-44050075D01*
X100457000Y-43889925D01*
X100488242Y-43732858D01*
X100549530Y-43584898D01*
X100638502Y-43451742D01*
X100751742Y-43338502D01*
X100884898Y-43249530D01*
X101032858Y-43188242D01*
X101189925Y-43157000D01*
X101350075Y-43157000D01*
X101507142Y-43188242D01*
X101507142Y-43188242D01*
G37*
G36*
X137067142Y-43188242D02*
X137215102Y-43249530D01*
X137348258Y-43338502D01*
X137461498Y-43451742D01*
X137550470Y-43584898D01*
X137611758Y-43732858D01*
X137643000Y-43889925D01*
X137643000Y-44050075D01*
X137611758Y-44207142D01*
X137550470Y-44355102D01*
X137461498Y-44488258D01*
X137348258Y-44601498D01*
X137215102Y-44690470D01*
X137067142Y-44751758D01*
X136910075Y-44783000D01*
X136749925Y-44783000D01*
X136592858Y-44751758D01*
X136444898Y-44690470D01*
X136311742Y-44601498D01*
X136198502Y-44488258D01*
X136109530Y-44355102D01*
X136048242Y-44207142D01*
X136017000Y-44050075D01*
X136017000Y-43889925D01*
X136048242Y-43732858D01*
X136109530Y-43584898D01*
X136198502Y-43451742D01*
X136311742Y-43338502D01*
X136444898Y-43249530D01*
X136592858Y-43188242D01*
X136749925Y-43157000D01*
X136910075Y-43157000D01*
X137067142Y-43188242D01*
X137067142Y-43188242D01*
G37*
G36*
X137067142Y-40648242D02*
X137215102Y-40709530D01*
X137348258Y-40798502D01*
X137461498Y-40911742D01*
X137550470Y-41044898D01*
X137611758Y-41192858D01*
X137643000Y-41349925D01*
X137643000Y-41510075D01*
X137611758Y-41667142D01*
X137550470Y-41815102D01*
X137461498Y-41948258D01*
X137348258Y-42061498D01*
X137215102Y-42150470D01*
X137067142Y-42211758D01*
X136910075Y-42243000D01*
X136749925Y-42243000D01*
X136592858Y-42211758D01*
X136444898Y-42150470D01*
X136311742Y-42061498D01*
X136198502Y-41948258D01*
X136109530Y-41815102D01*
X136048242Y-41667142D01*
X136017000Y-41510075D01*
X136017000Y-41349925D01*
X136048242Y-41192858D01*
X136109530Y-41044898D01*
X136198502Y-40911742D01*
X136311742Y-40798502D01*
X136444898Y-40709530D01*
X136592858Y-40648242D01*
X136749925Y-40617000D01*
X136910075Y-40617000D01*
X137067142Y-40648242D01*
X137067142Y-40648242D01*
G37*
G36*
X101507142Y-40648242D02*
X101655102Y-40709530D01*
X101788258Y-40798502D01*
X101901498Y-40911742D01*
X101990470Y-41044898D01*
X102051758Y-41192858D01*
X102083000Y-41349925D01*
X102083000Y-41510075D01*
X102051758Y-41667142D01*
X101990470Y-41815102D01*
X101901498Y-41948258D01*
X101788258Y-42061498D01*
X101655102Y-42150470D01*
X101507142Y-42211758D01*
X101350075Y-42243000D01*
X101189925Y-42243000D01*
X101032858Y-42211758D01*
X100884898Y-42150470D01*
X100751742Y-42061498D01*
X100638502Y-41948258D01*
X100549530Y-41815102D01*
X100488242Y-41667142D01*
X100457000Y-41510075D01*
X100457000Y-41349925D01*
X100488242Y-41192858D01*
X100549530Y-41044898D01*
X100638502Y-40911742D01*
X100751742Y-40798502D01*
X100884898Y-40709530D01*
X101032858Y-40648242D01*
X101189925Y-40617000D01*
X101350075Y-40617000D01*
X101507142Y-40648242D01*
X101507142Y-40648242D01*
G37*
G36*
X137067142Y-38108242D02*
X137215102Y-38169530D01*
X137348258Y-38258502D01*
X137461498Y-38371742D01*
X137550470Y-38504898D01*
X137611758Y-38652858D01*
X137643000Y-38809925D01*
X137643000Y-38970075D01*
X137611758Y-39127142D01*
X137550470Y-39275102D01*
X137461498Y-39408258D01*
X137348258Y-39521498D01*
X137215102Y-39610470D01*
X137067142Y-39671758D01*
X136910075Y-39703000D01*
X136749925Y-39703000D01*
X136592858Y-39671758D01*
X136444898Y-39610470D01*
X136311742Y-39521498D01*
X136198502Y-39408258D01*
X136109530Y-39275102D01*
X136048242Y-39127142D01*
X136017000Y-38970075D01*
X136017000Y-38809925D01*
X136048242Y-38652858D01*
X136109530Y-38504898D01*
X136198502Y-38371742D01*
X136311742Y-38258502D01*
X136444898Y-38169530D01*
X136592858Y-38108242D01*
X136749925Y-38077000D01*
X136910075Y-38077000D01*
X137067142Y-38108242D01*
X137067142Y-38108242D01*
G37*
G36*
X101507142Y-38108242D02*
X101655102Y-38169530D01*
X101788258Y-38258502D01*
X101901498Y-38371742D01*
X101990470Y-38504898D01*
X102051758Y-38652858D01*
X102083000Y-38809925D01*
X102083000Y-38970075D01*
X102051758Y-39127142D01*
X101990470Y-39275102D01*
X101901498Y-39408258D01*
X101788258Y-39521498D01*
X101655102Y-39610470D01*
X101507142Y-39671758D01*
X101350075Y-39703000D01*
X101189925Y-39703000D01*
X101032858Y-39671758D01*
X100884898Y-39610470D01*
X100751742Y-39521498D01*
X100638502Y-39408258D01*
X100549530Y-39275102D01*
X100488242Y-39127142D01*
X100457000Y-38970075D01*
X100457000Y-38809925D01*
X100488242Y-38652858D01*
X100549530Y-38504898D01*
X100638502Y-38371742D01*
X100751742Y-38258502D01*
X100884898Y-38169530D01*
X101032858Y-38108242D01*
X101189925Y-38077000D01*
X101350075Y-38077000D01*
X101507142Y-38108242D01*
X101507142Y-38108242D01*
G37*
G36*
X137067142Y-35568242D02*
X137215102Y-35629530D01*
X137348258Y-35718502D01*
X137461498Y-35831742D01*
X137550470Y-35964898D01*
X137611758Y-36112858D01*
X137643000Y-36269925D01*
X137643000Y-36430075D01*
X137611758Y-36587142D01*
X137550470Y-36735102D01*
X137461498Y-36868258D01*
X137348258Y-36981498D01*
X137215102Y-37070470D01*
X137067142Y-37131758D01*
X136910075Y-37163000D01*
X136749925Y-37163000D01*
X136592858Y-37131758D01*
X136444898Y-37070470D01*
X136311742Y-36981498D01*
X136198502Y-36868258D01*
X136109530Y-36735102D01*
X136048242Y-36587142D01*
X136017000Y-36430075D01*
X136017000Y-36269925D01*
X136048242Y-36112858D01*
X136109530Y-35964898D01*
X136198502Y-35831742D01*
X136311742Y-35718502D01*
X136444898Y-35629530D01*
X136592858Y-35568242D01*
X136749925Y-35537000D01*
X136910075Y-35537000D01*
X137067142Y-35568242D01*
X137067142Y-35568242D01*
G37*
G36*
X101507142Y-35568242D02*
X101655102Y-35629530D01*
X101788258Y-35718502D01*
X101901498Y-35831742D01*
X101990470Y-35964898D01*
X102051758Y-36112858D01*
X102083000Y-36269925D01*
X102083000Y-36430075D01*
X102051758Y-36587142D01*
X101990470Y-36735102D01*
X101901498Y-36868258D01*
X101788258Y-36981498D01*
X101655102Y-37070470D01*
X101507142Y-37131758D01*
X101350075Y-37163000D01*
X101189925Y-37163000D01*
X101032858Y-37131758D01*
X100884898Y-37070470D01*
X100751742Y-36981498D01*
X100638502Y-36868258D01*
X100549530Y-36735102D01*
X100488242Y-36587142D01*
X100457000Y-36430075D01*
X100457000Y-36269925D01*
X100488242Y-36112858D01*
X100549530Y-35964898D01*
X100638502Y-35831742D01*
X100751742Y-35718502D01*
X100884898Y-35629530D01*
X101032858Y-35568242D01*
X101189925Y-35537000D01*
X101350075Y-35537000D01*
X101507142Y-35568242D01*
X101507142Y-35568242D01*
G37*
G36*
X112810442Y-31074018D02*
X112876627Y-31080537D01*
X112989853Y-31114884D01*
X113046467Y-31132057D01*
X113185087Y-31206152D01*
X113202991Y-31215722D01*
X113238729Y-31245052D01*
X113340186Y-31328314D01*
X113423448Y-31429771D01*
X113452778Y-31465509D01*
X113452779Y-31465511D01*
X113536443Y-31622033D01*
X113536443Y-31622034D01*
X113587963Y-31791873D01*
X113605359Y-31968500D01*
X113587963Y-32145127D01*
X113553616Y-32258353D01*
X113536443Y-32314967D01*
X113462348Y-32453587D01*
X113452778Y-32471491D01*
X113423448Y-32507229D01*
X113340186Y-32608686D01*
X113238729Y-32691948D01*
X113202991Y-32721278D01*
X113202989Y-32721279D01*
X113046467Y-32804943D01*
X112989853Y-32822116D01*
X112876627Y-32856463D01*
X112810442Y-32862982D01*
X112744260Y-32869500D01*
X112655740Y-32869500D01*
X112589558Y-32862982D01*
X112523373Y-32856463D01*
X112410147Y-32822116D01*
X112353533Y-32804943D01*
X112197011Y-32721279D01*
X112197009Y-32721278D01*
X112161271Y-32691948D01*
X112059814Y-32608686D01*
X111976552Y-32507229D01*
X111947222Y-32471491D01*
X111937652Y-32453587D01*
X111863557Y-32314967D01*
X111846384Y-32258353D01*
X111812037Y-32145127D01*
X111794641Y-31968500D01*
X111812037Y-31791873D01*
X111863557Y-31622034D01*
X111863557Y-31622033D01*
X111947221Y-31465511D01*
X111947222Y-31465509D01*
X111976552Y-31429771D01*
X112059814Y-31328314D01*
X112161271Y-31245052D01*
X112197009Y-31215722D01*
X112214913Y-31206152D01*
X112353533Y-31132057D01*
X112410147Y-31114884D01*
X112523373Y-31080537D01*
X112589558Y-31074018D01*
X112655740Y-31067500D01*
X112744260Y-31067500D01*
X112810442Y-31074018D01*
X112810442Y-31074018D01*
G37*
G36*
X126301000Y-32869500D02*
X124499000Y-32869500D01*
X124499000Y-31067500D01*
X126301000Y-31067500D01*
X126301000Y-32869500D01*
X126301000Y-32869500D01*
G37*
G36*
X122970442Y-31074018D02*
X123036627Y-31080537D01*
X123149853Y-31114884D01*
X123206467Y-31132057D01*
X123345087Y-31206152D01*
X123362991Y-31215722D01*
X123398729Y-31245052D01*
X123500186Y-31328314D01*
X123583448Y-31429771D01*
X123612778Y-31465509D01*
X123612779Y-31465511D01*
X123696443Y-31622033D01*
X123696443Y-31622034D01*
X123747963Y-31791873D01*
X123765359Y-31968500D01*
X123747963Y-32145127D01*
X123713616Y-32258353D01*
X123696443Y-32314967D01*
X123622348Y-32453587D01*
X123612778Y-32471491D01*
X123583448Y-32507229D01*
X123500186Y-32608686D01*
X123398729Y-32691948D01*
X123362991Y-32721278D01*
X123362989Y-32721279D01*
X123206467Y-32804943D01*
X123149853Y-32822116D01*
X123036627Y-32856463D01*
X122970442Y-32862982D01*
X122904260Y-32869500D01*
X122815740Y-32869500D01*
X122749558Y-32862982D01*
X122683373Y-32856463D01*
X122570147Y-32822116D01*
X122513533Y-32804943D01*
X122357011Y-32721279D01*
X122357009Y-32721278D01*
X122321271Y-32691948D01*
X122219814Y-32608686D01*
X122136552Y-32507229D01*
X122107222Y-32471491D01*
X122097652Y-32453587D01*
X122023557Y-32314967D01*
X122006384Y-32258353D01*
X121972037Y-32145127D01*
X121954641Y-31968500D01*
X121972037Y-31791873D01*
X122023557Y-31622034D01*
X122023557Y-31622033D01*
X122107221Y-31465511D01*
X122107222Y-31465509D01*
X122136552Y-31429771D01*
X122219814Y-31328314D01*
X122321271Y-31245052D01*
X122357009Y-31215722D01*
X122374913Y-31206152D01*
X122513533Y-31132057D01*
X122570147Y-31114884D01*
X122683373Y-31080537D01*
X122749558Y-31074018D01*
X122815740Y-31067500D01*
X122904260Y-31067500D01*
X122970442Y-31074018D01*
X122970442Y-31074018D01*
G37*
G36*
X120430442Y-31074018D02*
X120496627Y-31080537D01*
X120609853Y-31114884D01*
X120666467Y-31132057D01*
X120805087Y-31206152D01*
X120822991Y-31215722D01*
X120858729Y-31245052D01*
X120960186Y-31328314D01*
X121043448Y-31429771D01*
X121072778Y-31465509D01*
X121072779Y-31465511D01*
X121156443Y-31622033D01*
X121156443Y-31622034D01*
X121207963Y-31791873D01*
X121225359Y-31968500D01*
X121207963Y-32145127D01*
X121173616Y-32258353D01*
X121156443Y-32314967D01*
X121082348Y-32453587D01*
X121072778Y-32471491D01*
X121043448Y-32507229D01*
X120960186Y-32608686D01*
X120858729Y-32691948D01*
X120822991Y-32721278D01*
X120822989Y-32721279D01*
X120666467Y-32804943D01*
X120609853Y-32822116D01*
X120496627Y-32856463D01*
X120430442Y-32862982D01*
X120364260Y-32869500D01*
X120275740Y-32869500D01*
X120209558Y-32862982D01*
X120143373Y-32856463D01*
X120030147Y-32822116D01*
X119973533Y-32804943D01*
X119817011Y-32721279D01*
X119817009Y-32721278D01*
X119781271Y-32691948D01*
X119679814Y-32608686D01*
X119596552Y-32507229D01*
X119567222Y-32471491D01*
X119557652Y-32453587D01*
X119483557Y-32314967D01*
X119466384Y-32258353D01*
X119432037Y-32145127D01*
X119414641Y-31968500D01*
X119432037Y-31791873D01*
X119483557Y-31622034D01*
X119483557Y-31622033D01*
X119567221Y-31465511D01*
X119567222Y-31465509D01*
X119596552Y-31429771D01*
X119679814Y-31328314D01*
X119781271Y-31245052D01*
X119817009Y-31215722D01*
X119834913Y-31206152D01*
X119973533Y-31132057D01*
X120030147Y-31114884D01*
X120143373Y-31080537D01*
X120209558Y-31074018D01*
X120275740Y-31067500D01*
X120364260Y-31067500D01*
X120430442Y-31074018D01*
X120430442Y-31074018D01*
G37*
G36*
X117890442Y-31074018D02*
X117956627Y-31080537D01*
X118069853Y-31114884D01*
X118126467Y-31132057D01*
X118265087Y-31206152D01*
X118282991Y-31215722D01*
X118318729Y-31245052D01*
X118420186Y-31328314D01*
X118503448Y-31429771D01*
X118532778Y-31465509D01*
X118532779Y-31465511D01*
X118616443Y-31622033D01*
X118616443Y-31622034D01*
X118667963Y-31791873D01*
X118685359Y-31968500D01*
X118667963Y-32145127D01*
X118633616Y-32258353D01*
X118616443Y-32314967D01*
X118542348Y-32453587D01*
X118532778Y-32471491D01*
X118503448Y-32507229D01*
X118420186Y-32608686D01*
X118318729Y-32691948D01*
X118282991Y-32721278D01*
X118282989Y-32721279D01*
X118126467Y-32804943D01*
X118069853Y-32822116D01*
X117956627Y-32856463D01*
X117890442Y-32862982D01*
X117824260Y-32869500D01*
X117735740Y-32869500D01*
X117669558Y-32862982D01*
X117603373Y-32856463D01*
X117490147Y-32822116D01*
X117433533Y-32804943D01*
X117277011Y-32721279D01*
X117277009Y-32721278D01*
X117241271Y-32691948D01*
X117139814Y-32608686D01*
X117056552Y-32507229D01*
X117027222Y-32471491D01*
X117017652Y-32453587D01*
X116943557Y-32314967D01*
X116926384Y-32258353D01*
X116892037Y-32145127D01*
X116874641Y-31968500D01*
X116892037Y-31791873D01*
X116943557Y-31622034D01*
X116943557Y-31622033D01*
X117027221Y-31465511D01*
X117027222Y-31465509D01*
X117056552Y-31429771D01*
X117139814Y-31328314D01*
X117241271Y-31245052D01*
X117277009Y-31215722D01*
X117294913Y-31206152D01*
X117433533Y-31132057D01*
X117490147Y-31114884D01*
X117603373Y-31080537D01*
X117669558Y-31074018D01*
X117735740Y-31067500D01*
X117824260Y-31067500D01*
X117890442Y-31074018D01*
X117890442Y-31074018D01*
G37*
G36*
X115350442Y-31074018D02*
X115416627Y-31080537D01*
X115529853Y-31114884D01*
X115586467Y-31132057D01*
X115725087Y-31206152D01*
X115742991Y-31215722D01*
X115778729Y-31245052D01*
X115880186Y-31328314D01*
X115963448Y-31429771D01*
X115992778Y-31465509D01*
X115992779Y-31465511D01*
X116076443Y-31622033D01*
X116076443Y-31622034D01*
X116127963Y-31791873D01*
X116145359Y-31968500D01*
X116127963Y-32145127D01*
X116093616Y-32258353D01*
X116076443Y-32314967D01*
X116002348Y-32453587D01*
X115992778Y-32471491D01*
X115963448Y-32507229D01*
X115880186Y-32608686D01*
X115778729Y-32691948D01*
X115742991Y-32721278D01*
X115742989Y-32721279D01*
X115586467Y-32804943D01*
X115529853Y-32822116D01*
X115416627Y-32856463D01*
X115350442Y-32862982D01*
X115284260Y-32869500D01*
X115195740Y-32869500D01*
X115129558Y-32862982D01*
X115063373Y-32856463D01*
X114950147Y-32822116D01*
X114893533Y-32804943D01*
X114737011Y-32721279D01*
X114737009Y-32721278D01*
X114701271Y-32691948D01*
X114599814Y-32608686D01*
X114516552Y-32507229D01*
X114487222Y-32471491D01*
X114477652Y-32453587D01*
X114403557Y-32314967D01*
X114386384Y-32258353D01*
X114352037Y-32145127D01*
X114334641Y-31968500D01*
X114352037Y-31791873D01*
X114403557Y-31622034D01*
X114403557Y-31622033D01*
X114487221Y-31465511D01*
X114487222Y-31465509D01*
X114516552Y-31429771D01*
X114599814Y-31328314D01*
X114701271Y-31245052D01*
X114737009Y-31215722D01*
X114754913Y-31206152D01*
X114893533Y-31132057D01*
X114950147Y-31114884D01*
X115063373Y-31080537D01*
X115129558Y-31074018D01*
X115195740Y-31067500D01*
X115284260Y-31067500D01*
X115350442Y-31074018D01*
X115350442Y-31074018D01*
G37*
M02*
