G04 #@! TF.GenerationSoftware,KiCad,Pcbnew,5.0.2-bee76a0~70~ubuntu18.04.1*
G04 #@! TF.CreationDate,2019-01-29T21:25:52+01:00*
G04 #@! TF.ProjectId,Robot Propulsion V2,526f626f-7420-4507-926f-70756c73696f,rev?*
G04 #@! TF.SameCoordinates,Original*
G04 #@! TF.FileFunction,Legend,Top*
G04 #@! TF.FilePolarity,Positive*
%FSLAX46Y46*%
G04 Gerber Fmt 4.6, Leading zero omitted, Abs format (unit mm)*
G04 Created by KiCad (PCBNEW 5.0.2-bee76a0~70~ubuntu18.04.1) date mar. 29 janv. 2019 21:25:52 CET*
%MOMM*%
%LPD*%
G01*
G04 APERTURE LIST*
%ADD10C,0.200000*%
%ADD11C,0.150000*%
%ADD12C,0.120000*%
G04 APERTURE END LIST*
D10*
X107874000Y-66068000D02*
X108382000Y-66068000D01*
X107874000Y-73180000D02*
X107874000Y-66068000D01*
X128702000Y-73180000D02*
X107874000Y-73180000D01*
X128702000Y-66068000D02*
X128702000Y-73180000D01*
X108382000Y-66068000D02*
X128702000Y-66068000D01*
D11*
G04 #@! TO.C,U2*
X165294054Y-83723216D02*
X141131946Y-69773216D01*
X146261375Y-116728784D02*
X165311375Y-83733216D01*
X122064625Y-102758784D02*
X146261375Y-116728784D01*
X141114625Y-69763216D02*
X122064625Y-102758784D01*
X141486137Y-85501443D02*
G75*
G03X141486137Y-85501443I-3592103J0D01*
G01*
G04 #@! TO.C,U5*
X127940000Y-112804000D02*
X110160000Y-112804000D01*
X127940000Y-77244000D02*
X127940000Y-112804000D01*
X110160000Y-77244000D02*
X127940000Y-77244000D01*
X110160000Y-112804000D02*
X110160000Y-77244000D01*
X124130000Y-86134000D02*
X124130000Y-95024000D01*
X113970000Y-86134000D02*
X113970000Y-95024000D01*
X113970000Y-95024000D02*
X124130000Y-95024000D01*
X124130000Y-86134000D02*
X113970000Y-86134000D01*
X116510000Y-82324000D02*
X116510000Y-79784000D01*
X121590000Y-82324000D02*
X116510000Y-82324000D01*
X121590000Y-79784000D02*
X121590000Y-82324000D01*
X116510000Y-79784000D02*
X121590000Y-79784000D01*
X121590000Y-106454000D02*
X124130000Y-106454000D01*
X121590000Y-103914000D02*
X121590000Y-106454000D01*
X124130000Y-103914000D02*
X121590000Y-103914000D01*
X124130000Y-106454000D02*
X124130000Y-103914000D01*
X122860000Y-107724000D02*
X122860000Y-112804000D01*
X115240000Y-107724000D02*
X115240000Y-112804000D01*
X122860000Y-107724000D02*
X115240000Y-107724000D01*
X121590000Y-101374000D02*
X124130000Y-101374000D01*
X121590000Y-97564000D02*
X121590000Y-101374000D01*
X124130000Y-97564000D02*
X121590000Y-97564000D01*
X124130000Y-101374000D02*
X124130000Y-97564000D01*
X115240000Y-114074000D02*
X115240000Y-112804000D01*
X122860000Y-114074000D02*
X115240000Y-114074000D01*
X122860000Y-112804000D02*
X122860000Y-114074000D01*
G04 #@! TO.C,U1*
X91601946Y-116718784D02*
X115764054Y-102768784D01*
X72534625Y-83733216D02*
X91584625Y-116728784D01*
X96731375Y-69763216D02*
X72534625Y-83733216D01*
X115781375Y-102758784D02*
X96731375Y-69763216D01*
X107354069Y-92100557D02*
G75*
G03X107354069Y-92100557I-3592103J0D01*
G01*
D12*
G04 #@! TO.C,D1*
X132204000Y-77844000D02*
X129264000Y-77844000D01*
X132204000Y-78084000D02*
X129264000Y-78084000D01*
X132204000Y-77964000D02*
X129264000Y-77964000D01*
X130734000Y-83524000D02*
X130734000Y-82504000D01*
X130734000Y-76044000D02*
X130734000Y-77064000D01*
X132204000Y-82504000D02*
X132204000Y-77064000D01*
X129264000Y-82504000D02*
X132204000Y-82504000D01*
X129264000Y-77064000D02*
X129264000Y-82504000D01*
X132204000Y-77064000D02*
X129264000Y-77064000D01*
G04 #@! TO.C,Q1*
X92986407Y-67597219D02*
G75*
G03X88223334Y-66970148I-2511407J-672929D01*
G01*
X91147929Y-70781555D02*
G75*
G02X88223334Y-66970148I-672929J2511407D01*
G01*
X91177147Y-70753993D02*
X92977147Y-67636302D01*
G04 #@! TO.C,U4*
X136686000Y-62960000D02*
X135036000Y-62960000D01*
X136686000Y-73240000D02*
X136686000Y-62960000D01*
X131386000Y-73240000D02*
X136686000Y-73240000D01*
X131386000Y-62960000D02*
X131386000Y-73240000D01*
X133036000Y-62960000D02*
X131386000Y-62960000D01*
X135036000Y-62960000D02*
G75*
G02X133036000Y-62960000I-1000000J0D01*
G01*
D11*
G04 #@! TO.C,U3*
X100000000Y-33830000D02*
X100000000Y-61730000D01*
X138100000Y-33810000D02*
X100000000Y-33810000D01*
X138100000Y-61750000D02*
X138100000Y-33810000D01*
X100000000Y-61750000D02*
X138100000Y-61750000D01*
X118832102Y-56670000D02*
G75*
G03X118832102Y-56670000I-3592102J0D01*
G01*
D12*
G04 #@! TO.C,J3*
X73119148Y-96255739D02*
X74219000Y-95620739D01*
X73754148Y-97355591D02*
X73119148Y-96255739D01*
X82297203Y-107526739D02*
X82641077Y-107328203D01*
X81917203Y-106868559D02*
X82261077Y-106670024D01*
X90140857Y-102998203D02*
X84944704Y-105998203D01*
X89760857Y-102340024D02*
X90140857Y-102998203D01*
X84564704Y-105340024D02*
X89760857Y-102340024D01*
X81816077Y-105899261D02*
X84119704Y-104569261D01*
X81027203Y-105327034D02*
X81371077Y-105128499D01*
X80647203Y-104668855D02*
X80991077Y-104470319D01*
X88870857Y-100798499D02*
X83674704Y-103798499D01*
X88490857Y-100140319D02*
X88870857Y-100798499D01*
X83294704Y-103140319D02*
X88490857Y-100140319D01*
X80546077Y-103699557D02*
X82849704Y-102369557D01*
X79757203Y-103127330D02*
X80101077Y-102928794D01*
X79377203Y-102469150D02*
X79721077Y-102270615D01*
X87600857Y-98598794D02*
X82404704Y-101598794D01*
X87220857Y-97940615D02*
X87600857Y-98598794D01*
X82024704Y-100940615D02*
X87220857Y-97940615D01*
X79276077Y-101499852D02*
X81579704Y-100169852D01*
X78487203Y-100927625D02*
X78831077Y-100729090D01*
X78107203Y-100269446D02*
X78451077Y-100070910D01*
X86330857Y-96399090D02*
X81134704Y-99399090D01*
X85950857Y-95740910D02*
X86330857Y-96399090D01*
X80754704Y-98740910D02*
X85950857Y-95740910D01*
X78006077Y-99300148D02*
X80309704Y-97970148D01*
X77217203Y-98727921D02*
X77561077Y-98529385D01*
X76837203Y-98069741D02*
X77181077Y-97871206D01*
X85060857Y-94199385D02*
X79864704Y-97199385D01*
X84680857Y-93541206D02*
X85060857Y-94199385D01*
X79484704Y-96541206D02*
X84680857Y-93541206D01*
X76736077Y-97100443D02*
X79039704Y-95770443D01*
X76005288Y-96494681D02*
X76291077Y-96329681D01*
X75625288Y-95836501D02*
X75911077Y-95671501D01*
X78544704Y-94913078D02*
X83740857Y-91913078D01*
X78484704Y-94809155D02*
X83680857Y-91809155D01*
X78424704Y-94705232D02*
X83620857Y-91705232D01*
X78364704Y-94601309D02*
X83560857Y-91601309D01*
X78304704Y-94497386D02*
X83500857Y-91497386D01*
X78244704Y-94393463D02*
X83440857Y-91393463D01*
X83790857Y-91999681D02*
X78594704Y-94999681D01*
X83410857Y-91341501D02*
X83790857Y-91999681D01*
X78214704Y-94341501D02*
X83410857Y-91341501D01*
X77739704Y-93518777D02*
X75436077Y-94848777D01*
X85419704Y-106820927D02*
X77739704Y-93518777D01*
X83116077Y-108150927D02*
X85419704Y-106820927D01*
X75436077Y-94848777D02*
X83116077Y-108150927D01*
G04 #@! TO.C,J5*
X157106852Y-109712852D02*
X156007000Y-109077852D01*
X157741852Y-108613000D02*
X157106852Y-109712852D01*
X162278797Y-96128923D02*
X161934923Y-95930388D01*
X161898797Y-96787103D02*
X161554923Y-96588567D01*
X154435143Y-91600388D02*
X159631296Y-94600388D01*
X154055143Y-92258567D02*
X154435143Y-91600388D01*
X159251296Y-95258567D02*
X154055143Y-92258567D01*
X161109923Y-97359330D02*
X158806296Y-96029330D01*
X161008797Y-98328628D02*
X160664923Y-98130092D01*
X160628797Y-98986807D02*
X160284923Y-98788272D01*
X153165143Y-93800092D02*
X158361296Y-96800092D01*
X152785143Y-94458272D02*
X153165143Y-93800092D01*
X157981296Y-97458272D02*
X152785143Y-94458272D01*
X159839923Y-99559034D02*
X157536296Y-98229034D01*
X159738797Y-100528332D02*
X159394923Y-100329797D01*
X159358797Y-101186512D02*
X159014923Y-100987976D01*
X151895143Y-95999797D02*
X157091296Y-98999797D01*
X151515143Y-96657976D02*
X151895143Y-95999797D01*
X156711296Y-99657976D02*
X151515143Y-96657976D01*
X158569923Y-101758739D02*
X156266296Y-100428739D01*
X158468797Y-102728037D02*
X158124923Y-102529501D01*
X158088797Y-103386216D02*
X157744923Y-103187681D01*
X150625143Y-98199501D02*
X155821296Y-101199501D01*
X150245143Y-98857681D02*
X150625143Y-98199501D01*
X155441296Y-101857681D02*
X150245143Y-98857681D01*
X157299923Y-103958443D02*
X154996296Y-102628443D01*
X157198797Y-104927741D02*
X156854923Y-104729206D01*
X156818797Y-105585921D02*
X156474923Y-105387385D01*
X149355143Y-100399206D02*
X154551296Y-103399206D01*
X148975143Y-101057385D02*
X149355143Y-100399206D01*
X154171296Y-104057385D02*
X148975143Y-101057385D01*
X156029923Y-106158148D02*
X153726296Y-104828148D01*
X155870712Y-107093910D02*
X155584923Y-106928910D01*
X155490712Y-107752090D02*
X155204923Y-107587090D01*
X153231296Y-105685513D02*
X148035143Y-102685513D01*
X153171296Y-105789436D02*
X147975143Y-102789436D01*
X153111296Y-105893359D02*
X147915143Y-102893359D01*
X153051296Y-105997282D02*
X147855143Y-102997282D01*
X152991296Y-106101205D02*
X147795143Y-103101205D01*
X152931296Y-106205128D02*
X147735143Y-103205128D01*
X148085143Y-102598910D02*
X153281296Y-105598910D01*
X147705143Y-103257090D02*
X148085143Y-102598910D01*
X152901296Y-106257090D02*
X147705143Y-103257090D01*
X152426296Y-107079814D02*
X154729923Y-108409814D01*
X160106296Y-93777664D02*
X152426296Y-107079814D01*
X162409923Y-95107664D02*
X160106296Y-93777664D01*
X154729923Y-108409814D02*
X162409923Y-95107664D01*
G04 #@! TO.C,J7*
X126670000Y-30698500D02*
X126670000Y-31968500D01*
X125400000Y-30698500D02*
X126670000Y-30698500D01*
X112320000Y-33011429D02*
X112320000Y-33408500D01*
X113080000Y-33011429D02*
X113080000Y-33408500D01*
X112320000Y-42068500D02*
X112320000Y-36068500D01*
X113080000Y-42068500D02*
X112320000Y-42068500D01*
X113080000Y-36068500D02*
X113080000Y-42068500D01*
X113970000Y-33408500D02*
X113970000Y-36068500D01*
X114860000Y-33011429D02*
X114860000Y-33408500D01*
X115620000Y-33011429D02*
X115620000Y-33408500D01*
X114860000Y-42068500D02*
X114860000Y-36068500D01*
X115620000Y-42068500D02*
X114860000Y-42068500D01*
X115620000Y-36068500D02*
X115620000Y-42068500D01*
X116510000Y-33408500D02*
X116510000Y-36068500D01*
X117400000Y-33011429D02*
X117400000Y-33408500D01*
X118160000Y-33011429D02*
X118160000Y-33408500D01*
X117400000Y-42068500D02*
X117400000Y-36068500D01*
X118160000Y-42068500D02*
X117400000Y-42068500D01*
X118160000Y-36068500D02*
X118160000Y-42068500D01*
X119050000Y-33408500D02*
X119050000Y-36068500D01*
X119940000Y-33011429D02*
X119940000Y-33408500D01*
X120700000Y-33011429D02*
X120700000Y-33408500D01*
X119940000Y-42068500D02*
X119940000Y-36068500D01*
X120700000Y-42068500D02*
X119940000Y-42068500D01*
X120700000Y-36068500D02*
X120700000Y-42068500D01*
X121590000Y-33408500D02*
X121590000Y-36068500D01*
X122480000Y-33011429D02*
X122480000Y-33408500D01*
X123240000Y-33011429D02*
X123240000Y-33408500D01*
X122480000Y-42068500D02*
X122480000Y-36068500D01*
X123240000Y-42068500D02*
X122480000Y-42068500D01*
X123240000Y-36068500D02*
X123240000Y-42068500D01*
X124130000Y-33408500D02*
X124130000Y-36068500D01*
X125020000Y-33078500D02*
X125020000Y-33408500D01*
X125780000Y-33078500D02*
X125780000Y-33408500D01*
X125120000Y-36068500D02*
X125120000Y-42068500D01*
X125240000Y-36068500D02*
X125240000Y-42068500D01*
X125360000Y-36068500D02*
X125360000Y-42068500D01*
X125480000Y-36068500D02*
X125480000Y-42068500D01*
X125600000Y-36068500D02*
X125600000Y-42068500D01*
X125720000Y-36068500D02*
X125720000Y-42068500D01*
X125020000Y-42068500D02*
X125020000Y-36068500D01*
X125780000Y-42068500D02*
X125020000Y-42068500D01*
X125780000Y-36068500D02*
X125780000Y-42068500D01*
X126730000Y-36068500D02*
X126730000Y-33408500D01*
X111370000Y-36068500D02*
X126730000Y-36068500D01*
X111370000Y-33408500D02*
X111370000Y-36068500D01*
X126730000Y-33408500D02*
X111370000Y-33408500D01*
G04 #@! TO.C,C1*
X150586205Y-69307519D02*
X150239795Y-69507519D01*
X150313000Y-69234314D02*
X150513000Y-69580724D01*
X151773929Y-73414718D02*
X151133071Y-73784718D01*
X151898556Y-73296577D02*
X150968444Y-73833577D01*
X151988541Y-73198436D02*
X150838459Y-73862436D01*
X152058608Y-73111795D02*
X150728392Y-73879795D01*
X152117416Y-73031654D02*
X150629584Y-73890654D01*
X152167564Y-72956513D02*
X150539436Y-73896513D01*
X152210784Y-72885372D02*
X150456216Y-73898372D01*
X152248807Y-72817231D02*
X150378193Y-73897231D01*
X152282501Y-72751590D02*
X150304499Y-73893590D01*
X152312730Y-72687949D02*
X150234270Y-73887949D01*
X152339496Y-72626308D02*
X150167504Y-73880308D01*
X152362797Y-72566667D02*
X150104203Y-73870667D01*
X152383500Y-72508526D02*
X150043500Y-73859526D01*
X150466039Y-73569385D02*
X149984529Y-73847385D01*
X152402471Y-72451385D02*
X151920961Y-72729385D01*
X150446039Y-73534744D02*
X149928155Y-73833744D01*
X152418845Y-72395744D02*
X151900961Y-72694744D01*
X150426039Y-73500103D02*
X149873514Y-73819103D01*
X152433486Y-72341103D02*
X151880961Y-72660103D01*
X150406039Y-73465462D02*
X149820605Y-73803462D01*
X152446395Y-72287462D02*
X151860961Y-72625462D01*
X150386039Y-73430821D02*
X149769429Y-73786821D01*
X152457571Y-72234821D02*
X151840961Y-72590821D01*
X150366039Y-73396180D02*
X149719118Y-73769680D01*
X152467882Y-72182680D02*
X151820961Y-72556180D01*
X150346039Y-73361539D02*
X149671405Y-73751039D01*
X152475595Y-72132039D02*
X151800961Y-72521539D01*
X150326039Y-73326898D02*
X149624558Y-73731898D01*
X152482442Y-72081898D02*
X151780961Y-72486898D01*
X150306039Y-73292257D02*
X149578577Y-73712257D01*
X152488423Y-72032257D02*
X151760961Y-72452257D01*
X150286039Y-73257616D02*
X149534329Y-73691616D01*
X152492671Y-71983616D02*
X151740961Y-72417616D01*
X150266039Y-73222975D02*
X149490946Y-73670475D01*
X152496054Y-71935475D02*
X151720961Y-72382975D01*
X150246039Y-73188334D02*
X149449295Y-73648334D01*
X152497705Y-71888334D02*
X151700961Y-72348334D01*
X150226039Y-73153693D02*
X149407645Y-73626193D01*
X152499355Y-71841193D02*
X151680961Y-72313693D01*
X150206039Y-73119051D02*
X149367726Y-73603051D01*
X152499274Y-71795051D02*
X151660961Y-72279051D01*
X150186039Y-73084410D02*
X149328674Y-73579410D01*
X152498326Y-71749410D02*
X151640961Y-72244410D01*
X150166039Y-73049769D02*
X149290487Y-73555269D01*
X152496513Y-71704269D02*
X151620961Y-72209769D01*
X150146039Y-73015128D02*
X149254032Y-73530128D01*
X152492968Y-71660128D02*
X151600961Y-72175128D01*
X150126039Y-72980487D02*
X149217578Y-73504987D01*
X152489422Y-71615987D02*
X151580961Y-72140487D01*
X150106039Y-72945846D02*
X149181990Y-73479346D01*
X152485010Y-71572346D02*
X151560961Y-72105846D01*
X150086039Y-72911205D02*
X149147267Y-73453205D01*
X152479733Y-71529205D02*
X151540961Y-72071205D01*
X150066039Y-72876564D02*
X149113411Y-73426564D01*
X152473589Y-71486564D02*
X151520961Y-72036564D01*
X150046039Y-72841923D02*
X149081286Y-73398923D01*
X152465714Y-71444923D02*
X151500961Y-72001923D01*
X150025539Y-72806416D02*
X149048662Y-73370416D01*
X152457338Y-71402416D02*
X151480461Y-71966416D01*
X150005539Y-72771775D02*
X149016538Y-73342775D01*
X152449462Y-71360775D02*
X151460461Y-71931775D01*
X149985539Y-72737134D02*
X148986145Y-73314134D01*
X152439855Y-71320134D02*
X151440461Y-71897134D01*
X149965539Y-72702493D02*
X148956619Y-73284993D01*
X152429381Y-71279993D02*
X151420461Y-71862493D01*
X149945539Y-72667852D02*
X148927093Y-73255852D01*
X152418907Y-71239852D02*
X151400461Y-71827852D01*
X149925539Y-72633211D02*
X148899299Y-73225711D01*
X152406701Y-71200711D02*
X151380461Y-71793211D01*
X149905539Y-72598570D02*
X148871504Y-73195570D01*
X152394496Y-71161570D02*
X151360461Y-71758570D01*
X149885539Y-72563929D02*
X148844576Y-73164929D01*
X152381424Y-71122929D02*
X151340461Y-71723929D01*
X149865539Y-72529288D02*
X148817648Y-73134288D01*
X152368352Y-71084288D02*
X151320461Y-71689288D01*
X149845539Y-72494647D02*
X148792452Y-73102647D01*
X152353548Y-71046647D02*
X151300461Y-71654647D01*
X149825539Y-72460006D02*
X148767256Y-73071006D01*
X152338744Y-71009006D02*
X151280461Y-71620006D01*
X149805539Y-72425365D02*
X148742925Y-73038865D01*
X152323075Y-70971865D02*
X151260461Y-71585365D01*
X149785539Y-72390724D02*
X148719461Y-73006224D01*
X152306539Y-70935224D02*
X151240461Y-71550724D01*
X149765539Y-72356083D02*
X148696863Y-72973083D01*
X152289137Y-70899083D02*
X151220461Y-71516083D01*
X149745539Y-72321442D02*
X148674265Y-72939942D01*
X152271735Y-70862942D02*
X151200461Y-71481442D01*
X152253467Y-70827301D02*
X151180461Y-71446801D01*
X149725539Y-72286801D02*
X148652533Y-72906301D01*
X152234333Y-70792160D02*
X151160461Y-71412160D01*
X149705539Y-72252160D02*
X148631667Y-72872160D01*
X152214333Y-70757519D02*
X151140461Y-71377519D01*
X149685539Y-72217519D02*
X148611667Y-72837519D01*
X152533000Y-71797519D02*
G75*
G03X152533000Y-71797519I-2120000J0D01*
G01*
G04 #@! TO.C,C2*
X145115241Y-61364000D02*
X145115241Y-60734000D01*
X145430241Y-61049000D02*
X144800241Y-61049000D01*
X138689000Y-59612000D02*
X138689000Y-58808000D01*
X138729000Y-59843000D02*
X138729000Y-58577000D01*
X138769000Y-60012000D02*
X138769000Y-58408000D01*
X138809000Y-60150000D02*
X138809000Y-58270000D01*
X138849000Y-60269000D02*
X138849000Y-58151000D01*
X138889000Y-60375000D02*
X138889000Y-58045000D01*
X138929000Y-60472000D02*
X138929000Y-57948000D01*
X138969000Y-60560000D02*
X138969000Y-57860000D01*
X139009000Y-60642000D02*
X139009000Y-57778000D01*
X139049000Y-60719000D02*
X139049000Y-57701000D01*
X139089000Y-60791000D02*
X139089000Y-57629000D01*
X139129000Y-60860000D02*
X139129000Y-57560000D01*
X139169000Y-60924000D02*
X139169000Y-57496000D01*
X139209000Y-60986000D02*
X139209000Y-57434000D01*
X139249000Y-61044000D02*
X139249000Y-57376000D01*
X139289000Y-61100000D02*
X139289000Y-57320000D01*
X139329000Y-61154000D02*
X139329000Y-57266000D01*
X139369000Y-61205000D02*
X139369000Y-57215000D01*
X139409000Y-61254000D02*
X139409000Y-57166000D01*
X139449000Y-61302000D02*
X139449000Y-57118000D01*
X139489000Y-61347000D02*
X139489000Y-57073000D01*
X139529000Y-61392000D02*
X139529000Y-57028000D01*
X139569000Y-61434000D02*
X139569000Y-56986000D01*
X139609000Y-61475000D02*
X139609000Y-56945000D01*
X139649000Y-58170000D02*
X139649000Y-56905000D01*
X139649000Y-61515000D02*
X139649000Y-60250000D01*
X139689000Y-58170000D02*
X139689000Y-56867000D01*
X139689000Y-61553000D02*
X139689000Y-60250000D01*
X139729000Y-58170000D02*
X139729000Y-56830000D01*
X139729000Y-61590000D02*
X139729000Y-60250000D01*
X139769000Y-58170000D02*
X139769000Y-56794000D01*
X139769000Y-61626000D02*
X139769000Y-60250000D01*
X139809000Y-58170000D02*
X139809000Y-56760000D01*
X139809000Y-61660000D02*
X139809000Y-60250000D01*
X139849000Y-58170000D02*
X139849000Y-56726000D01*
X139849000Y-61694000D02*
X139849000Y-60250000D01*
X139889000Y-58170000D02*
X139889000Y-56694000D01*
X139889000Y-61726000D02*
X139889000Y-60250000D01*
X139929000Y-58170000D02*
X139929000Y-56662000D01*
X139929000Y-61758000D02*
X139929000Y-60250000D01*
X139969000Y-58170000D02*
X139969000Y-56632000D01*
X139969000Y-61788000D02*
X139969000Y-60250000D01*
X140009000Y-58170000D02*
X140009000Y-56603000D01*
X140009000Y-61817000D02*
X140009000Y-60250000D01*
X140049000Y-58170000D02*
X140049000Y-56574000D01*
X140049000Y-61846000D02*
X140049000Y-60250000D01*
X140089000Y-58170000D02*
X140089000Y-56546000D01*
X140089000Y-61874000D02*
X140089000Y-60250000D01*
X140129000Y-58170000D02*
X140129000Y-56520000D01*
X140129000Y-61900000D02*
X140129000Y-60250000D01*
X140169000Y-58170000D02*
X140169000Y-56494000D01*
X140169000Y-61926000D02*
X140169000Y-60250000D01*
X140209000Y-58170000D02*
X140209000Y-56468000D01*
X140209000Y-61952000D02*
X140209000Y-60250000D01*
X140249000Y-58170000D02*
X140249000Y-56444000D01*
X140249000Y-61976000D02*
X140249000Y-60250000D01*
X140289000Y-58170000D02*
X140289000Y-56420000D01*
X140289000Y-62000000D02*
X140289000Y-60250000D01*
X140329000Y-58170000D02*
X140329000Y-56398000D01*
X140329000Y-62022000D02*
X140329000Y-60250000D01*
X140369000Y-58170000D02*
X140369000Y-56376000D01*
X140369000Y-62044000D02*
X140369000Y-60250000D01*
X140409000Y-58170000D02*
X140409000Y-56354000D01*
X140409000Y-62066000D02*
X140409000Y-60250000D01*
X140449000Y-58170000D02*
X140449000Y-56334000D01*
X140449000Y-62086000D02*
X140449000Y-60250000D01*
X140489000Y-58170000D02*
X140489000Y-56314000D01*
X140489000Y-62106000D02*
X140489000Y-60250000D01*
X140529000Y-58170000D02*
X140529000Y-56294000D01*
X140529000Y-62126000D02*
X140529000Y-60250000D01*
X140569000Y-58170000D02*
X140569000Y-56276000D01*
X140569000Y-62144000D02*
X140569000Y-60250000D01*
X140609000Y-58170000D02*
X140609000Y-56258000D01*
X140609000Y-62162000D02*
X140609000Y-60250000D01*
X140649000Y-58170000D02*
X140649000Y-56240000D01*
X140649000Y-62180000D02*
X140649000Y-60250000D01*
X140689000Y-58170000D02*
X140689000Y-56224000D01*
X140689000Y-62196000D02*
X140689000Y-60250000D01*
X140729000Y-58170000D02*
X140729000Y-56208000D01*
X140729000Y-62212000D02*
X140729000Y-60250000D01*
X140769000Y-58170000D02*
X140769000Y-56192000D01*
X140769000Y-62228000D02*
X140769000Y-60250000D01*
X140809000Y-58170000D02*
X140809000Y-56177000D01*
X140809000Y-62243000D02*
X140809000Y-60250000D01*
X140849000Y-58170000D02*
X140849000Y-56163000D01*
X140849000Y-62257000D02*
X140849000Y-60250000D01*
X140889000Y-58170000D02*
X140889000Y-56149000D01*
X140889000Y-62271000D02*
X140889000Y-60250000D01*
X140929000Y-58170000D02*
X140929000Y-56136000D01*
X140929000Y-62284000D02*
X140929000Y-60250000D01*
X140969000Y-58170000D02*
X140969000Y-56124000D01*
X140969000Y-62296000D02*
X140969000Y-60250000D01*
X141009000Y-58170000D02*
X141009000Y-56112000D01*
X141009000Y-62308000D02*
X141009000Y-60250000D01*
X141049000Y-58170000D02*
X141049000Y-56100000D01*
X141049000Y-62320000D02*
X141049000Y-60250000D01*
X141089000Y-58170000D02*
X141089000Y-56089000D01*
X141089000Y-62331000D02*
X141089000Y-60250000D01*
X141129000Y-58170000D02*
X141129000Y-56079000D01*
X141129000Y-62341000D02*
X141129000Y-60250000D01*
X141169000Y-58170000D02*
X141169000Y-56069000D01*
X141169000Y-62351000D02*
X141169000Y-60250000D01*
X141209000Y-58170000D02*
X141209000Y-56060000D01*
X141209000Y-62360000D02*
X141209000Y-60250000D01*
X141250000Y-58170000D02*
X141250000Y-56051000D01*
X141250000Y-62369000D02*
X141250000Y-60250000D01*
X141290000Y-58170000D02*
X141290000Y-56043000D01*
X141290000Y-62377000D02*
X141290000Y-60250000D01*
X141330000Y-58170000D02*
X141330000Y-56035000D01*
X141330000Y-62385000D02*
X141330000Y-60250000D01*
X141370000Y-58170000D02*
X141370000Y-56028000D01*
X141370000Y-62392000D02*
X141370000Y-60250000D01*
X141410000Y-58170000D02*
X141410000Y-56021000D01*
X141410000Y-62399000D02*
X141410000Y-60250000D01*
X141450000Y-58170000D02*
X141450000Y-56015000D01*
X141450000Y-62405000D02*
X141450000Y-60250000D01*
X141490000Y-58170000D02*
X141490000Y-56009000D01*
X141490000Y-62411000D02*
X141490000Y-60250000D01*
X141530000Y-58170000D02*
X141530000Y-56004000D01*
X141530000Y-62416000D02*
X141530000Y-60250000D01*
X141570000Y-58170000D02*
X141570000Y-55999000D01*
X141570000Y-62421000D02*
X141570000Y-60250000D01*
X141610000Y-58170000D02*
X141610000Y-55995000D01*
X141610000Y-62425000D02*
X141610000Y-60250000D01*
X141650000Y-58170000D02*
X141650000Y-55992000D01*
X141650000Y-62428000D02*
X141650000Y-60250000D01*
X141690000Y-58170000D02*
X141690000Y-55988000D01*
X141690000Y-62432000D02*
X141690000Y-60250000D01*
X141730000Y-62434000D02*
X141730000Y-55986000D01*
X141770000Y-62437000D02*
X141770000Y-55983000D01*
X141810000Y-62438000D02*
X141810000Y-55982000D01*
X141850000Y-62440000D02*
X141850000Y-55980000D01*
X141890000Y-62440000D02*
X141890000Y-55980000D01*
X141930000Y-62440000D02*
X141930000Y-55980000D01*
X145200000Y-59210000D02*
G75*
G03X145200000Y-59210000I-3270000J0D01*
G01*
G04 #@! TO.C,D2*
X117110000Y-62058000D02*
X117110000Y-64998000D01*
X117350000Y-62058000D02*
X117350000Y-64998000D01*
X117230000Y-62058000D02*
X117230000Y-64998000D01*
X122790000Y-63528000D02*
X121770000Y-63528000D01*
X115310000Y-63528000D02*
X116330000Y-63528000D01*
X121770000Y-62058000D02*
X116330000Y-62058000D01*
X121770000Y-64998000D02*
X121770000Y-62058000D01*
X116330000Y-64998000D02*
X121770000Y-64998000D01*
X116330000Y-62058000D02*
X116330000Y-64998000D01*
G04 #@! TO.C,L1*
X149384970Y-68390000D02*
G75*
G02X141975030Y-68390000I-3704970J1560000D01*
G01*
X149384970Y-65270000D02*
G75*
G03X141975030Y-65270000I-3704970J-1560000D01*
G01*
G04 #@! TO.C,R1*
X105810000Y-71375000D02*
X105810000Y-71045000D01*
X99270000Y-71375000D02*
X105810000Y-71375000D01*
X99270000Y-71045000D02*
X99270000Y-71375000D01*
X105810000Y-68635000D02*
X105810000Y-68965000D01*
X99270000Y-68635000D02*
X105810000Y-68635000D01*
X99270000Y-68965000D02*
X99270000Y-68635000D01*
G04 #@! TO.C,R3*
X105810000Y-68200000D02*
X105810000Y-67870000D01*
X99270000Y-68200000D02*
X105810000Y-68200000D01*
X99270000Y-67870000D02*
X99270000Y-68200000D01*
X105810000Y-65460000D02*
X105810000Y-65790000D01*
X99270000Y-65460000D02*
X105810000Y-65460000D01*
X99270000Y-65790000D02*
X99270000Y-65460000D01*
G04 #@! TO.C,R4*
X99270000Y-62285000D02*
X99270000Y-62615000D01*
X105810000Y-62285000D02*
X99270000Y-62285000D01*
X105810000Y-62615000D02*
X105810000Y-62285000D01*
X99270000Y-65025000D02*
X99270000Y-64695000D01*
X105810000Y-65025000D02*
X99270000Y-65025000D01*
X105810000Y-64695000D02*
X105810000Y-65025000D01*
G04 #@! TO.C,Q2*
X93521597Y-58217282D02*
X94829295Y-58972282D01*
X91671097Y-61422442D02*
X92978795Y-62177442D01*
X91343795Y-65009346D02*
X96463795Y-56141245D01*
X95156097Y-55386245D02*
X99175321Y-57706745D01*
X90036097Y-64254346D02*
X94055321Y-66574846D01*
X94055321Y-66574846D02*
X99175321Y-57706745D01*
X90036097Y-64254346D02*
X95156097Y-55386245D01*
G04 #@! TO.C,J1*
X95068186Y-65353481D02*
X96220000Y-66018481D01*
X94403186Y-66505295D02*
X95068186Y-65353481D01*
X93768186Y-67605147D02*
X96071814Y-68935147D01*
X96071814Y-68935147D02*
X94771814Y-71186813D01*
X93768186Y-67605147D02*
X92468186Y-69856813D01*
X92468186Y-69856813D02*
X94771814Y-71186813D01*
G04 #@! TO.C,J2*
X96765000Y-50260000D02*
X98095000Y-50260000D01*
X96765000Y-51590000D02*
X96765000Y-50260000D01*
X96765000Y-52860000D02*
X99425000Y-52860000D01*
X99425000Y-52860000D02*
X99425000Y-55460000D01*
X96765000Y-52860000D02*
X96765000Y-55460000D01*
X96765000Y-55460000D02*
X99425000Y-55460000D01*
G04 #@! TO.C,J6*
X133715000Y-109950000D02*
X133715000Y-111280000D01*
X132385000Y-109950000D02*
X133715000Y-109950000D01*
X131115000Y-109950000D02*
X131115000Y-112610000D01*
X131115000Y-112610000D02*
X128515000Y-112610000D01*
X131115000Y-109950000D02*
X128515000Y-109950000D01*
X128515000Y-109950000D02*
X128515000Y-112610000D01*
G04 #@! TO.C,J8*
X138675000Y-50260000D02*
X140005000Y-50260000D01*
X138675000Y-51590000D02*
X138675000Y-50260000D01*
X138675000Y-52860000D02*
X141335000Y-52860000D01*
X141335000Y-52860000D02*
X141335000Y-55460000D01*
X138675000Y-52860000D02*
X138675000Y-55460000D01*
X138675000Y-55460000D02*
X141335000Y-55460000D01*
G04 #@! TO.C,J4*
X84273186Y-76266814D02*
X83608186Y-75115000D01*
X85425000Y-75601814D02*
X84273186Y-76266814D01*
X86524852Y-74966814D02*
X85194852Y-72663186D01*
X85194852Y-72663186D02*
X87446518Y-71363186D01*
X86524852Y-74966814D02*
X88776518Y-73666814D01*
X88776518Y-73666814D02*
X87446518Y-71363186D01*
G04 #@! TO.C,U2*
D11*
X147111980Y-85791681D02*
X146707218Y-86492749D01*
X146700838Y-86599037D01*
X146718268Y-86664086D01*
X146776937Y-86752945D01*
X146941895Y-86848183D01*
X147048183Y-86854562D01*
X147113232Y-86837133D01*
X147202090Y-86778464D01*
X147606852Y-86077395D01*
X147930387Y-86374160D02*
X147995435Y-86356730D01*
X148101723Y-86363110D01*
X148307920Y-86482157D01*
X148366589Y-86571016D01*
X148384019Y-86636064D01*
X148377639Y-86742353D01*
X148330020Y-86824831D01*
X148217352Y-86924740D01*
X147436766Y-87133897D01*
X147972877Y-87443421D01*
G04 #@! TO.C,U5*
X108342380Y-95785904D02*
X109151904Y-95785904D01*
X109247142Y-95738285D01*
X109294761Y-95690666D01*
X109342380Y-95595428D01*
X109342380Y-95404952D01*
X109294761Y-95309714D01*
X109247142Y-95262095D01*
X109151904Y-95214476D01*
X108342380Y-95214476D01*
X108342380Y-94262095D02*
X108342380Y-94738285D01*
X108818571Y-94785904D01*
X108770952Y-94738285D01*
X108723333Y-94643047D01*
X108723333Y-94404952D01*
X108770952Y-94309714D01*
X108818571Y-94262095D01*
X108913809Y-94214476D01*
X109151904Y-94214476D01*
X109247142Y-94262095D01*
X109294761Y-94309714D01*
X109342380Y-94404952D01*
X109342380Y-94643047D01*
X109294761Y-94738285D01*
X109247142Y-94785904D01*
X115033809Y-100826380D02*
X115605238Y-100826380D01*
X115319523Y-101826380D02*
X115319523Y-100826380D01*
X115843333Y-100826380D02*
X116462380Y-100826380D01*
X116129047Y-101207333D01*
X116271904Y-101207333D01*
X116367142Y-101254952D01*
X116414761Y-101302571D01*
X116462380Y-101397809D01*
X116462380Y-101635904D01*
X116414761Y-101731142D01*
X116367142Y-101778761D01*
X116271904Y-101826380D01*
X115986190Y-101826380D01*
X115890952Y-101778761D01*
X115843333Y-101731142D01*
X116890952Y-101731142D02*
X116938571Y-101778761D01*
X116890952Y-101826380D01*
X116843333Y-101778761D01*
X116890952Y-101731142D01*
X116890952Y-101826380D01*
X117890952Y-101826380D02*
X117319523Y-101826380D01*
X117605238Y-101826380D02*
X117605238Y-100826380D01*
X117510000Y-100969238D01*
X117414761Y-101064476D01*
X117319523Y-101112095D01*
X115033809Y-104636380D02*
X115605238Y-104636380D01*
X115319523Y-105636380D02*
X115319523Y-104636380D01*
X115843333Y-104636380D02*
X116462380Y-104636380D01*
X116129047Y-105017333D01*
X116271904Y-105017333D01*
X116367142Y-105064952D01*
X116414761Y-105112571D01*
X116462380Y-105207809D01*
X116462380Y-105445904D01*
X116414761Y-105541142D01*
X116367142Y-105588761D01*
X116271904Y-105636380D01*
X115986190Y-105636380D01*
X115890952Y-105588761D01*
X115843333Y-105541142D01*
X116890952Y-105541142D02*
X116938571Y-105588761D01*
X116890952Y-105636380D01*
X116843333Y-105588761D01*
X116890952Y-105541142D01*
X116890952Y-105636380D01*
X117319523Y-104731619D02*
X117367142Y-104684000D01*
X117462380Y-104636380D01*
X117700476Y-104636380D01*
X117795714Y-104684000D01*
X117843333Y-104731619D01*
X117890952Y-104826857D01*
X117890952Y-104922095D01*
X117843333Y-105064952D01*
X117271904Y-105636380D01*
X117890952Y-105636380D01*
G04 #@! TO.C,U1*
X97034361Y-99751814D02*
X97439123Y-100452882D01*
X97527981Y-100511551D01*
X97593030Y-100528981D01*
X97699318Y-100522601D01*
X97864276Y-100427363D01*
X97922945Y-100338505D01*
X97940374Y-100273456D01*
X97933995Y-100167168D01*
X97529233Y-99466100D01*
X98895258Y-99832125D02*
X98400387Y-100117839D01*
X98647822Y-99974982D02*
X98147822Y-99108957D01*
X98136772Y-99280294D01*
X98101913Y-99410391D01*
X98043244Y-99499250D01*
G04 #@! TO.C,D1*
X133656380Y-80522095D02*
X132656380Y-80522095D01*
X132656380Y-80284000D01*
X132704000Y-80141142D01*
X132799238Y-80045904D01*
X132894476Y-79998285D01*
X133084952Y-79950666D01*
X133227809Y-79950666D01*
X133418285Y-79998285D01*
X133513523Y-80045904D01*
X133608761Y-80141142D01*
X133656380Y-80284000D01*
X133656380Y-80522095D01*
X133656380Y-78998285D02*
X133656380Y-79569714D01*
X133656380Y-79284000D02*
X132656380Y-79284000D01*
X132799238Y-79379238D01*
X132894476Y-79474476D01*
X132942095Y-79569714D01*
X133286380Y-74965904D02*
X132286380Y-74965904D01*
X133286380Y-74394476D02*
X132714952Y-74823047D01*
X132286380Y-74394476D02*
X132857809Y-74965904D01*
G04 #@! TO.C,Q1*
X87818582Y-66846436D02*
X87729724Y-66905105D01*
X87599626Y-66939964D01*
X87404480Y-66992254D01*
X87315622Y-67050923D01*
X87268003Y-67133401D01*
X87498009Y-67211210D02*
X87409150Y-67269879D01*
X87279053Y-67304738D01*
X87090286Y-67250739D01*
X86801611Y-67084073D01*
X86660463Y-66947595D01*
X86625603Y-66817498D01*
X86631983Y-66711210D01*
X86727221Y-66546252D01*
X86816080Y-66487583D01*
X86946177Y-66452724D01*
X87134944Y-66506723D01*
X87423619Y-66673389D01*
X87564767Y-66809867D01*
X87599626Y-66939964D01*
X87593247Y-67046252D01*
X87498009Y-67211210D01*
X88188485Y-66015270D02*
X87902771Y-66510141D01*
X88045628Y-66262706D02*
X87179602Y-65762706D01*
X87255701Y-65916613D01*
X87290561Y-66046710D01*
X87284181Y-66152999D01*
G04 #@! TO.C,U4*
X133274095Y-61412380D02*
X133274095Y-62221904D01*
X133321714Y-62317142D01*
X133369333Y-62364761D01*
X133464571Y-62412380D01*
X133655047Y-62412380D01*
X133750285Y-62364761D01*
X133797904Y-62317142D01*
X133845523Y-62221904D01*
X133845523Y-61412380D01*
X134750285Y-61745714D02*
X134750285Y-62412380D01*
X134512190Y-61364761D02*
X134274095Y-62079047D01*
X134893142Y-62079047D01*
G04 #@! TO.C,U3*
X110882380Y-48541904D02*
X111691904Y-48541904D01*
X111787142Y-48494285D01*
X111834761Y-48446666D01*
X111882380Y-48351428D01*
X111882380Y-48160952D01*
X111834761Y-48065714D01*
X111787142Y-48018095D01*
X111691904Y-47970476D01*
X110882380Y-47970476D01*
X110882380Y-47589523D02*
X110882380Y-46970476D01*
X111263333Y-47303809D01*
X111263333Y-47160952D01*
X111310952Y-47065714D01*
X111358571Y-47018095D01*
X111453809Y-46970476D01*
X111691904Y-46970476D01*
X111787142Y-47018095D01*
X111834761Y-47065714D01*
X111882380Y-47160952D01*
X111882380Y-47446666D01*
X111834761Y-47541904D01*
X111787142Y-47589523D01*
G04 #@! TO.C,J3*
X76954036Y-92254627D02*
X77311179Y-92873217D01*
X77341368Y-93020744D01*
X77306508Y-93150842D01*
X77206600Y-93263510D01*
X77124121Y-93311129D01*
X77283950Y-92064151D02*
X77820061Y-91754627D01*
X77721862Y-92251208D01*
X77845580Y-92179780D01*
X77951868Y-92173400D01*
X78016917Y-92190830D01*
X78105776Y-92249499D01*
X78224823Y-92455695D01*
X78231203Y-92561983D01*
X78213773Y-92627032D01*
X78155104Y-92715891D01*
X77907668Y-92858748D01*
X77801380Y-92865128D01*
X77736331Y-92847698D01*
G04 #@! TO.C,J5*
X151694613Y-107110459D02*
X151337470Y-107729048D01*
X151224802Y-107828957D01*
X151094704Y-107863816D01*
X150947177Y-107833627D01*
X150864698Y-107786008D01*
X152519399Y-107586649D02*
X152107006Y-107348554D01*
X151827671Y-107737138D01*
X151892720Y-107719708D01*
X151999008Y-107726088D01*
X152205205Y-107845135D01*
X152263874Y-107933994D01*
X152281304Y-107999042D01*
X152274924Y-108105330D01*
X152155876Y-108311527D01*
X152067018Y-108370196D01*
X152001969Y-108387626D01*
X151895681Y-108381246D01*
X151689485Y-108262199D01*
X151630815Y-108173340D01*
X151613386Y-108108291D01*
G04 #@! TO.C,J7*
X127122380Y-36686833D02*
X127836666Y-36686833D01*
X127979523Y-36734452D01*
X128074761Y-36829690D01*
X128122380Y-36972547D01*
X128122380Y-37067785D01*
X127122380Y-36305880D02*
X127122380Y-35639214D01*
X128122380Y-36067785D01*
G04 #@! TO.C,C1*
X152834954Y-70206752D02*
X152769906Y-70189323D01*
X152657238Y-70089414D01*
X152609619Y-70006936D01*
X152579429Y-69859408D01*
X152614289Y-69729310D01*
X152672958Y-69640452D01*
X152814106Y-69503975D01*
X152937824Y-69432546D01*
X153126590Y-69378547D01*
X153232878Y-69372168D01*
X153362976Y-69407027D01*
X153475644Y-69506936D01*
X153523263Y-69589414D01*
X153553452Y-69736942D01*
X153536023Y-69801990D01*
X153228666Y-71079158D02*
X152942952Y-70584286D01*
X153085809Y-70831722D02*
X153951835Y-70331722D01*
X153780498Y-70320672D01*
X153650400Y-70285812D01*
X153561542Y-70227143D01*
G04 #@! TO.C,C2*
X141763333Y-63967142D02*
X141715714Y-64014761D01*
X141572857Y-64062380D01*
X141477619Y-64062380D01*
X141334761Y-64014761D01*
X141239523Y-63919523D01*
X141191904Y-63824285D01*
X141144285Y-63633809D01*
X141144285Y-63490952D01*
X141191904Y-63300476D01*
X141239523Y-63205238D01*
X141334761Y-63110000D01*
X141477619Y-63062380D01*
X141572857Y-63062380D01*
X141715714Y-63110000D01*
X141763333Y-63157619D01*
X142144285Y-63157619D02*
X142191904Y-63110000D01*
X142287142Y-63062380D01*
X142525238Y-63062380D01*
X142620476Y-63110000D01*
X142668095Y-63157619D01*
X142715714Y-63252857D01*
X142715714Y-63348095D01*
X142668095Y-63490952D01*
X142096666Y-64062380D01*
X142715714Y-64062380D01*
G04 #@! TO.C,D2*
X118311904Y-61510380D02*
X118311904Y-60510380D01*
X118550000Y-60510380D01*
X118692857Y-60558000D01*
X118788095Y-60653238D01*
X118835714Y-60748476D01*
X118883333Y-60938952D01*
X118883333Y-61081809D01*
X118835714Y-61272285D01*
X118788095Y-61367523D01*
X118692857Y-61462761D01*
X118550000Y-61510380D01*
X118311904Y-61510380D01*
X119264285Y-60605619D02*
X119311904Y-60558000D01*
X119407142Y-60510380D01*
X119645238Y-60510380D01*
X119740476Y-60558000D01*
X119788095Y-60605619D01*
X119835714Y-60700857D01*
X119835714Y-60796095D01*
X119788095Y-60938952D01*
X119216666Y-61510380D01*
X119835714Y-61510380D01*
X113708095Y-61880380D02*
X113708095Y-60880380D01*
X114279523Y-61880380D02*
X113850952Y-61308952D01*
X114279523Y-60880380D02*
X113708095Y-61451809D01*
G04 #@! TO.C,L1*
X145513333Y-62132380D02*
X145037142Y-62132380D01*
X145037142Y-61132380D01*
X146370476Y-62132380D02*
X145799047Y-62132380D01*
X146084761Y-62132380D02*
X146084761Y-61132380D01*
X145989523Y-61275238D01*
X145894285Y-61370476D01*
X145799047Y-61418095D01*
G04 #@! TO.C,R1*
X102373333Y-68087380D02*
X102040000Y-67611190D01*
X101801904Y-68087380D02*
X101801904Y-67087380D01*
X102182857Y-67087380D01*
X102278095Y-67135000D01*
X102325714Y-67182619D01*
X102373333Y-67277857D01*
X102373333Y-67420714D01*
X102325714Y-67515952D01*
X102278095Y-67563571D01*
X102182857Y-67611190D01*
X101801904Y-67611190D01*
X103325714Y-68087380D02*
X102754285Y-68087380D01*
X103040000Y-68087380D02*
X103040000Y-67087380D01*
X102944761Y-67230238D01*
X102849523Y-67325476D01*
X102754285Y-67373095D01*
G04 #@! TO.C,R3*
X102373333Y-64912380D02*
X102040000Y-64436190D01*
X101801904Y-64912380D02*
X101801904Y-63912380D01*
X102182857Y-63912380D01*
X102278095Y-63960000D01*
X102325714Y-64007619D01*
X102373333Y-64102857D01*
X102373333Y-64245714D01*
X102325714Y-64340952D01*
X102278095Y-64388571D01*
X102182857Y-64436190D01*
X101801904Y-64436190D01*
X102706666Y-63912380D02*
X103325714Y-63912380D01*
X102992380Y-64293333D01*
X103135238Y-64293333D01*
X103230476Y-64340952D01*
X103278095Y-64388571D01*
X103325714Y-64483809D01*
X103325714Y-64721904D01*
X103278095Y-64817142D01*
X103230476Y-64864761D01*
X103135238Y-64912380D01*
X102849523Y-64912380D01*
X102754285Y-64864761D01*
X102706666Y-64817142D01*
G04 #@! TO.C,R4*
X102373333Y-66477380D02*
X102040000Y-66001190D01*
X101801904Y-66477380D02*
X101801904Y-65477380D01*
X102182857Y-65477380D01*
X102278095Y-65525000D01*
X102325714Y-65572619D01*
X102373333Y-65667857D01*
X102373333Y-65810714D01*
X102325714Y-65905952D01*
X102278095Y-65953571D01*
X102182857Y-66001190D01*
X101801904Y-66001190D01*
X103230476Y-65810714D02*
X103230476Y-66477380D01*
X102992380Y-65429761D02*
X102754285Y-66144047D01*
X103373333Y-66144047D01*
G04 #@! TO.C,Q2*
X92156704Y-59676583D02*
X92067846Y-59735252D01*
X91937748Y-59770111D01*
X91742602Y-59822401D01*
X91653744Y-59881070D01*
X91606125Y-59963548D01*
X91836131Y-60041357D02*
X91747272Y-60100026D01*
X91617175Y-60134885D01*
X91428408Y-60080886D01*
X91139733Y-59914220D01*
X90998585Y-59777742D01*
X90963725Y-59647645D01*
X90970105Y-59541357D01*
X91065343Y-59376399D01*
X91154202Y-59317730D01*
X91284299Y-59282871D01*
X91473066Y-59336870D01*
X91761741Y-59503536D01*
X91902889Y-59640014D01*
X91937748Y-59770111D01*
X91931369Y-59876399D01*
X91836131Y-60041357D01*
X91457346Y-58887907D02*
X91439916Y-58822859D01*
X91446296Y-58716571D01*
X91565343Y-58510374D01*
X91654202Y-58451705D01*
X91719250Y-58434275D01*
X91825539Y-58440655D01*
X91908017Y-58488274D01*
X92007926Y-58600942D01*
X92217083Y-59381528D01*
X92526607Y-58845417D01*
G04 #@! TO.C,J1*
X96705134Y-64511537D02*
X96347991Y-65130126D01*
X96235323Y-65230035D01*
X96105225Y-65264894D01*
X95957698Y-65234705D01*
X95875219Y-65187086D01*
X97071159Y-65877562D02*
X96576288Y-65591848D01*
X96823723Y-65734705D02*
X97323723Y-64868680D01*
X97169816Y-64944779D01*
X97039719Y-64979638D01*
X96933430Y-64973258D01*
G04 #@! TO.C,J2*
X97761666Y-48712380D02*
X97761666Y-49426666D01*
X97714047Y-49569523D01*
X97618809Y-49664761D01*
X97475952Y-49712380D01*
X97380714Y-49712380D01*
X98190238Y-48807619D02*
X98237857Y-48760000D01*
X98333095Y-48712380D01*
X98571190Y-48712380D01*
X98666428Y-48760000D01*
X98714047Y-48807619D01*
X98761666Y-48902857D01*
X98761666Y-48998095D01*
X98714047Y-49140952D01*
X98142619Y-49712380D01*
X98761666Y-49712380D01*
G04 #@! TO.C,J6*
X134167380Y-111613333D02*
X134881666Y-111613333D01*
X135024523Y-111660952D01*
X135119761Y-111756190D01*
X135167380Y-111899047D01*
X135167380Y-111994285D01*
X134167380Y-110708571D02*
X134167380Y-110899047D01*
X134215000Y-110994285D01*
X134262619Y-111041904D01*
X134405476Y-111137142D01*
X134595952Y-111184761D01*
X134976904Y-111184761D01*
X135072142Y-111137142D01*
X135119761Y-111089523D01*
X135167380Y-110994285D01*
X135167380Y-110803809D01*
X135119761Y-110708571D01*
X135072142Y-110660952D01*
X134976904Y-110613333D01*
X134738809Y-110613333D01*
X134643571Y-110660952D01*
X134595952Y-110708571D01*
X134548333Y-110803809D01*
X134548333Y-110994285D01*
X134595952Y-111089523D01*
X134643571Y-111137142D01*
X134738809Y-111184761D01*
G04 #@! TO.C,J8*
X139671666Y-48712380D02*
X139671666Y-49426666D01*
X139624047Y-49569523D01*
X139528809Y-49664761D01*
X139385952Y-49712380D01*
X139290714Y-49712380D01*
X140290714Y-49140952D02*
X140195476Y-49093333D01*
X140147857Y-49045714D01*
X140100238Y-48950476D01*
X140100238Y-48902857D01*
X140147857Y-48807619D01*
X140195476Y-48760000D01*
X140290714Y-48712380D01*
X140481190Y-48712380D01*
X140576428Y-48760000D01*
X140624047Y-48807619D01*
X140671666Y-48902857D01*
X140671666Y-48950476D01*
X140624047Y-49045714D01*
X140576428Y-49093333D01*
X140481190Y-49140952D01*
X140290714Y-49140952D01*
X140195476Y-49188571D01*
X140147857Y-49236190D01*
X140100238Y-49331428D01*
X140100238Y-49521904D01*
X140147857Y-49617142D01*
X140195476Y-49664761D01*
X140290714Y-49712380D01*
X140481190Y-49712380D01*
X140576428Y-49664761D01*
X140624047Y-49617142D01*
X140671666Y-49521904D01*
X140671666Y-49331428D01*
X140624047Y-49236190D01*
X140576428Y-49188571D01*
X140481190Y-49140952D01*
G04 #@! TO.C,J4*
X83049746Y-75052515D02*
X82431156Y-75409658D01*
X82283629Y-75439847D01*
X82153531Y-75404987D01*
X82040863Y-75305079D01*
X81993244Y-75222600D01*
X83213452Y-76002728D02*
X82636101Y-76336062D01*
X83424318Y-75606056D02*
X82686681Y-75757002D01*
X82996205Y-76293113D01*
G04 #@! TD*
M02*
