G04 #@! TF.GenerationSoftware,KiCad,Pcbnew,5.0.2-bee76a0~70~ubuntu18.04.1*
G04 #@! TF.CreationDate,2019-01-29T21:25:52+01:00*
G04 #@! TF.ProjectId,Robot Propulsion V2,526f626f-7420-4507-926f-70756c73696f,rev?*
G04 #@! TF.SameCoordinates,Original*
G04 #@! TF.FileFunction,Copper,L1,Top*
G04 #@! TF.FilePolarity,Positive*
%FSLAX46Y46*%
G04 Gerber Fmt 4.6, Leading zero omitted, Abs format (unit mm)*
G04 Created by KiCad (PCBNEW 5.0.2-bee76a0~70~ubuntu18.04.1) date mar. 29 janv. 2019 21:25:52 CET*
%MOMM*%
%LPD*%
G01*
G04 APERTURE LIST*
G04 #@! TA.AperFunction,ComponentPad*
%ADD10C,1.524000*%
G04 #@! TD*
G04 #@! TA.AperFunction,ComponentPad*
%ADD11C,1.600000*%
G04 #@! TD*
G04 #@! TA.AperFunction,ComponentPad*
%ADD12C,1.900000*%
G04 #@! TD*
G04 #@! TA.AperFunction,ComponentPad*
%ADD13R,1.600000X1.600000*%
G04 #@! TD*
G04 #@! TA.AperFunction,ComponentPad*
%ADD14O,2.200000X2.200000*%
G04 #@! TD*
G04 #@! TA.AperFunction,ComponentPad*
%ADD15R,2.200000X2.200000*%
G04 #@! TD*
G04 #@! TA.AperFunction,ComponentPad*
%ADD16C,1.050000*%
G04 #@! TD*
G04 #@! TA.AperFunction,Conductor*
%ADD17C,0.100000*%
G04 #@! TD*
G04 #@! TA.AperFunction,Conductor*
%ADD18C,1.050000*%
G04 #@! TD*
G04 #@! TA.AperFunction,ComponentPad*
%ADD19O,1.600000X1.600000*%
G04 #@! TD*
G04 #@! TA.AperFunction,ComponentPad*
%ADD20C,1.700000*%
G04 #@! TD*
G04 #@! TA.AperFunction,Conductor*
%ADD21C,1.700000*%
G04 #@! TD*
G04 #@! TA.AperFunction,ComponentPad*
%ADD22O,1.700000X1.700000*%
G04 #@! TD*
G04 #@! TA.AperFunction,ComponentPad*
%ADD23R,1.700000X1.700000*%
G04 #@! TD*
G04 #@! TA.AperFunction,ComponentPad*
%ADD24C,1.200000*%
G04 #@! TD*
G04 #@! TA.AperFunction,ComponentPad*
%ADD25C,2.600000*%
G04 #@! TD*
G04 #@! TA.AperFunction,ComponentPad*
%ADD26C,1.905000*%
G04 #@! TD*
G04 #@! TA.AperFunction,Conductor*
%ADD27C,1.905000*%
G04 #@! TD*
G04 #@! TA.AperFunction,ViaPad*
%ADD28C,1.000000*%
G04 #@! TD*
G04 #@! TA.AperFunction,ViaPad*
%ADD29C,0.800000*%
G04 #@! TD*
G04 #@! TA.AperFunction,Conductor*
%ADD30C,0.500000*%
G04 #@! TD*
G04 #@! TA.AperFunction,Conductor*
%ADD31C,2.000000*%
G04 #@! TD*
G04 #@! TA.AperFunction,Conductor*
%ADD32C,1.000000*%
G04 #@! TD*
G04 APERTURE END LIST*
D10*
G04 #@! TO.P,U2,1*
G04 #@! TO.N,/INA_2*
X162476670Y-83563068D03*
G04 #@! TO.P,U2,2*
G04 #@! TO.N,Net-(U2-Pad2)*
X160276966Y-82293068D03*
G04 #@! TO.P,U2,3*
G04 #@! TO.N,/PWM_2*
X158077261Y-81023068D03*
G04 #@! TO.P,U2,4*
G04 #@! TO.N,/CS_2*
X155877557Y-79753068D03*
G04 #@! TO.P,U2,6*
G04 #@! TO.N,/INB_2*
X151478148Y-77213068D03*
G04 #@! TO.P,U2,7*
G04 #@! TO.N,/3V*
X149278443Y-75943068D03*
G04 #@! TO.P,U2,8*
G04 #@! TO.N,GND*
X147078739Y-74673068D03*
G04 #@! TO.P,U2,18*
G04 #@! TO.N,Net-(J6-Pad2)*
X129298739Y-105468932D03*
G04 #@! TO.P,U2,13*
G04 #@! TO.N,Net-(J5-Pad2)*
X140297261Y-111818932D03*
G04 #@! TO.P,U2,14*
X138097557Y-110548932D03*
G04 #@! TO.P,U2,15*
G04 #@! TO.N,Net-(J6-Pad1)*
X135897852Y-109278932D03*
G04 #@! TO.P,U2,16*
X133698148Y-108008932D03*
G04 #@! TO.P,U2,17*
G04 #@! TO.N,Net-(J6-Pad2)*
X131498443Y-106738932D03*
G04 #@! TO.P,U2,12*
G04 #@! TO.N,Net-(J5-Pad1)*
X142496966Y-113088932D03*
G04 #@! TO.P,U2,11*
X144696670Y-114358932D03*
G04 #@! TD*
D11*
G04 #@! TO.P,U5,27*
G04 #@! TO.N,/PWM_3*
X111430000Y-96294000D03*
G04 #@! TO.P,U5,36*
G04 #@! TO.N,/INB_1*
X113970000Y-101374000D03*
D12*
G04 #@! TO.P,U5,52*
G04 #@! TO.N,Net-(U5-Pad52)*
X119050000Y-105184000D03*
X119050000Y-101374000D03*
D11*
G04 #@! TO.P,U5,51*
G04 #@! TO.N,/CS_1*
X116510000Y-96294000D03*
G04 #@! TO.P,U5,50*
G04 #@! TO.N,Net-(U5-Pad50)*
X116510000Y-93754000D03*
G04 #@! TO.P,U5,49*
G04 #@! TO.N,/ENC_B_1*
X116510000Y-91214000D03*
G04 #@! TO.P,U5,48*
G04 #@! TO.N,/PWM_1*
X116510000Y-88674000D03*
G04 #@! TO.P,U5,47*
G04 #@! TO.N,/INA_1*
X116510000Y-86134000D03*
G04 #@! TO.P,U5,46*
G04 #@! TO.N,/ENC_A_1*
X116510000Y-83594000D03*
G04 #@! TO.P,U5,45*
G04 #@! TO.N,/INA_3*
X116510000Y-81054000D03*
G04 #@! TO.P,U5,44*
G04 #@! TO.N,/ENC_B_3*
X119050000Y-81054000D03*
G04 #@! TO.P,U5,43*
G04 #@! TO.N,/INB_2*
X119050000Y-83594000D03*
G04 #@! TO.P,U5,42*
G04 #@! TO.N,/ENC_B_2*
X119050000Y-86134000D03*
G04 #@! TO.P,U5,41*
G04 #@! TO.N,/PWM_2*
X119050000Y-88674000D03*
G04 #@! TO.P,U5,40*
G04 #@! TO.N,/ENC_A_2*
X119050000Y-91214000D03*
G04 #@! TO.P,U5,39*
G04 #@! TO.N,GND*
X119050000Y-93754000D03*
G04 #@! TO.P,U5,38*
G04 #@! TO.N,/CS_2*
X119050000Y-96294000D03*
D13*
G04 #@! TO.P,U5,1*
G04 #@! TO.N,GND*
X126670000Y-111534000D03*
D11*
G04 #@! TO.P,U5,2*
G04 #@! TO.N,Net-(U5-Pad2)*
X126670000Y-108994000D03*
G04 #@! TO.P,U5,3*
G04 #@! TO.N,/INA_2*
X126670000Y-106454000D03*
G04 #@! TO.P,U5,8*
G04 #@! TO.N,Net-(U5-Pad8)*
X126670000Y-93754000D03*
G04 #@! TO.P,U5,37*
G04 #@! TO.N,/CTRL_ALIM*
X113970000Y-98834000D03*
G04 #@! TO.P,U5,34*
G04 #@! TO.N,Net-(U5-Pad34)*
X113970000Y-108994000D03*
G04 #@! TO.P,U5,33*
G04 #@! TO.N,Net-(D2-Pad1)*
X111430000Y-111534000D03*
G04 #@! TO.P,U5,32*
G04 #@! TO.N,GND*
X111430000Y-108994000D03*
G04 #@! TO.P,U5,31*
G04 #@! TO.N,/3V*
X111430000Y-106454000D03*
G04 #@! TO.P,U5,21*
G04 #@! TO.N,/CS_3*
X111430000Y-81054000D03*
G04 #@! TO.P,U5,14*
G04 #@! TO.N,/ENC_A_3*
X126670000Y-78514000D03*
G04 #@! TO.P,U5,15*
G04 #@! TO.N,Net-(U5-Pad15)*
X124130000Y-78514000D03*
G04 #@! TO.P,U5,18*
G04 #@! TO.N,Net-(U5-Pad18)*
X116510000Y-78514000D03*
G04 #@! TO.P,U5,17*
G04 #@! TO.N,GND*
X119050000Y-78514000D03*
G04 #@! TO.P,U5,12*
G04 #@! TO.N,Net-(U5-Pad12)*
X126670000Y-83594000D03*
G04 #@! TO.P,U5,22*
G04 #@! TO.N,/INB_3*
X111430000Y-83594000D03*
G04 #@! TD*
D10*
G04 #@! TO.P,U1,1*
G04 #@! TO.N,/INA_1*
X93149330Y-114358932D03*
G04 #@! TO.P,U1,2*
G04 #@! TO.N,Net-(U1-Pad2)*
X95349034Y-113088932D03*
G04 #@! TO.P,U1,3*
G04 #@! TO.N,/PWM_1*
X97548739Y-111818932D03*
G04 #@! TO.P,U1,4*
G04 #@! TO.N,/CS_1*
X99748443Y-110548932D03*
G04 #@! TO.P,U1,6*
G04 #@! TO.N,/INB_1*
X104147852Y-108008932D03*
G04 #@! TO.P,U1,7*
G04 #@! TO.N,/3V*
X106347557Y-106738932D03*
G04 #@! TO.P,U1,8*
G04 #@! TO.N,GND*
X108547261Y-105468932D03*
G04 #@! TO.P,U1,18*
G04 #@! TO.N,Net-(J4-Pad2)*
X90767261Y-74673068D03*
G04 #@! TO.P,U1,13*
G04 #@! TO.N,Net-(J3-Pad2)*
X79768739Y-81023068D03*
G04 #@! TO.P,U1,14*
X81968443Y-79753068D03*
G04 #@! TO.P,U1,15*
G04 #@! TO.N,Net-(J4-Pad1)*
X84168148Y-78483068D03*
G04 #@! TO.P,U1,16*
X86367852Y-77213068D03*
G04 #@! TO.P,U1,17*
G04 #@! TO.N,Net-(J4-Pad2)*
X88567557Y-75943068D03*
G04 #@! TO.P,U1,12*
G04 #@! TO.N,Net-(J3-Pad1)*
X77569034Y-82293068D03*
G04 #@! TO.P,U1,11*
X75369330Y-83563068D03*
G04 #@! TD*
D14*
G04 #@! TO.P,D1,2*
G04 #@! TO.N,GND*
X130734000Y-84864000D03*
D15*
G04 #@! TO.P,D1,1*
G04 #@! TO.N,Net-(D1-Pad1)*
X130734000Y-74704000D03*
G04 #@! TD*
D16*
G04 #@! TO.P,Q1,1*
G04 #@! TO.N,GND*
X89840000Y-69370000D03*
D17*
G04 #@! TD*
G04 #@! TO.N,GND*
G04 #@! TO.C,Q1*
G36*
X90227019Y-70199663D02*
X88927981Y-69449663D01*
X89452981Y-68540337D01*
X90752019Y-69290337D01*
X90227019Y-70199663D01*
X90227019Y-70199663D01*
G37*
D16*
G04 #@! TO.P,Q1,3*
G04 #@! TO.N,Net-(J1-Pad2)*
X91110000Y-67170295D03*
D18*
G04 #@! TD*
G04 #@! TO.N,Net-(J1-Pad2)*
G04 #@! TO.C,Q1*
X90915144Y-67057795D02*
X91304856Y-67282795D01*
D16*
G04 #@! TO.P,Q1,2*
G04 #@! TO.N,Net-(Q1-Pad2)*
X90475000Y-68270148D03*
D18*
G04 #@! TD*
G04 #@! TO.N,Net-(Q1-Pad2)*
G04 #@! TO.C,Q1*
X90280144Y-68157648D02*
X90669856Y-68382648D01*
D19*
G04 #@! TO.P,U4,8*
G04 #@! TO.N,Net-(U4-Pad8)*
X137846000Y-64290000D03*
G04 #@! TO.P,U4,4*
G04 #@! TO.N,GND*
X130226000Y-71910000D03*
G04 #@! TO.P,U4,7*
G04 #@! TO.N,Net-(D1-Pad1)*
X137846000Y-66830000D03*
G04 #@! TO.P,U4,3*
G04 #@! TO.N,GND*
X130226000Y-69370000D03*
G04 #@! TO.P,U4,6*
G04 #@! TO.N,Net-(U4-Pad6)*
X137846000Y-69370000D03*
G04 #@! TO.P,U4,2*
G04 #@! TO.N,GND*
X130226000Y-66830000D03*
G04 #@! TO.P,U4,5*
G04 #@! TO.N,Net-(C1-Pad1)*
X137846000Y-71910000D03*
D13*
G04 #@! TO.P,U4,1*
G04 #@! TO.N,+5V*
X130226000Y-64290000D03*
G04 #@! TD*
D10*
G04 #@! TO.P,U3,1*
G04 #@! TO.N,/INA_3*
X101270000Y-36350000D03*
G04 #@! TO.P,U3,2*
G04 #@! TO.N,Net-(U3-Pad2)*
X101270000Y-38890000D03*
G04 #@! TO.P,U3,3*
G04 #@! TO.N,/PWM_3*
X101270000Y-41430000D03*
G04 #@! TO.P,U3,4*
G04 #@! TO.N,/CS_3*
X101270000Y-43970000D03*
G04 #@! TO.P,U3,6*
G04 #@! TO.N,/INB_3*
X101270000Y-49050000D03*
G04 #@! TO.P,U3,7*
G04 #@! TO.N,/3V*
X101270000Y-51590000D03*
G04 #@! TO.P,U3,8*
G04 #@! TO.N,GND*
X101270000Y-54130000D03*
G04 #@! TO.P,U3,18*
G04 #@! TO.N,Net-(J8-Pad2)*
X136830000Y-54130000D03*
G04 #@! TO.P,U3,13*
G04 #@! TO.N,Net-(J7-Pad2)*
X136830000Y-41430000D03*
G04 #@! TO.P,U3,14*
X136830000Y-43970000D03*
G04 #@! TO.P,U3,15*
G04 #@! TO.N,Net-(J8-Pad1)*
X136830000Y-46510000D03*
G04 #@! TO.P,U3,16*
X136830000Y-49050000D03*
G04 #@! TO.P,U3,17*
G04 #@! TO.N,Net-(J8-Pad2)*
X136830000Y-51590000D03*
G04 #@! TO.P,U3,12*
G04 #@! TO.N,Net-(J7-Pad1)*
X136830000Y-38890000D03*
G04 #@! TO.P,U3,11*
X136830000Y-36350000D03*
G04 #@! TD*
D20*
G04 #@! TO.P,J3,6*
G04 #@! TO.N,/ENC_B_1*
X81204000Y-107719114D03*
D21*
G04 #@! TD*
G04 #@! TO.N,/ENC_B_1*
G04 #@! TO.C,J3*
X81204000Y-107719114D02*
X81204000Y-107719114D01*
D20*
G04 #@! TO.P,J3,5*
G04 #@! TO.N,/ENC_A_1*
X79934000Y-105519409D03*
D21*
G04 #@! TD*
G04 #@! TO.N,/ENC_A_1*
G04 #@! TO.C,J3*
X79934000Y-105519409D02*
X79934000Y-105519409D01*
D20*
G04 #@! TO.P,J3,4*
G04 #@! TO.N,+5V*
X78664000Y-103319705D03*
D21*
G04 #@! TD*
G04 #@! TO.N,+5V*
G04 #@! TO.C,J3*
X78664000Y-103319705D02*
X78664000Y-103319705D01*
D20*
G04 #@! TO.P,J3,3*
G04 #@! TO.N,GND*
X77394000Y-101120000D03*
D21*
G04 #@! TD*
G04 #@! TO.N,GND*
G04 #@! TO.C,J3*
X77394000Y-101120000D02*
X77394000Y-101120000D01*
D20*
G04 #@! TO.P,J3,2*
G04 #@! TO.N,Net-(J3-Pad2)*
X76124000Y-98920296D03*
D21*
G04 #@! TD*
G04 #@! TO.N,Net-(J3-Pad2)*
G04 #@! TO.C,J3*
X76124000Y-98920296D02*
X76124000Y-98920296D01*
D20*
G04 #@! TO.P,J3,1*
G04 #@! TO.N,Net-(J3-Pad1)*
X74854000Y-96720591D03*
D17*
G04 #@! TD*
G04 #@! TO.N,Net-(J3-Pad1)*
G04 #@! TO.C,J3*
G36*
X74542878Y-97881713D02*
X73692878Y-96409469D01*
X75165122Y-95559469D01*
X76015122Y-97031713D01*
X74542878Y-97881713D01*
X74542878Y-97881713D01*
G37*
D20*
G04 #@! TO.P,J5,6*
G04 #@! TO.N,/ENC_B_2*
X162992000Y-96979477D03*
D21*
G04 #@! TD*
G04 #@! TO.N,/ENC_B_2*
G04 #@! TO.C,J5*
X162992000Y-96979477D02*
X162992000Y-96979477D01*
D20*
G04 #@! TO.P,J5,5*
G04 #@! TO.N,/ENC_A_2*
X161722000Y-99179182D03*
D21*
G04 #@! TD*
G04 #@! TO.N,/ENC_A_2*
G04 #@! TO.C,J5*
X161722000Y-99179182D02*
X161722000Y-99179182D01*
D20*
G04 #@! TO.P,J5,4*
G04 #@! TO.N,+5V*
X160452000Y-101378886D03*
D21*
G04 #@! TD*
G04 #@! TO.N,+5V*
G04 #@! TO.C,J5*
X160452000Y-101378886D02*
X160452000Y-101378886D01*
D20*
G04 #@! TO.P,J5,3*
G04 #@! TO.N,GND*
X159182000Y-103578591D03*
D21*
G04 #@! TD*
G04 #@! TO.N,GND*
G04 #@! TO.C,J5*
X159182000Y-103578591D02*
X159182000Y-103578591D01*
D20*
G04 #@! TO.P,J5,2*
G04 #@! TO.N,Net-(J5-Pad2)*
X157912000Y-105778295D03*
D21*
G04 #@! TD*
G04 #@! TO.N,Net-(J5-Pad2)*
G04 #@! TO.C,J5*
X157912000Y-105778295D02*
X157912000Y-105778295D01*
D20*
G04 #@! TO.P,J5,1*
G04 #@! TO.N,Net-(J5-Pad1)*
X156642000Y-107978000D03*
D17*
G04 #@! TD*
G04 #@! TO.N,Net-(J5-Pad1)*
G04 #@! TO.C,J5*
G36*
X157803122Y-107666878D02*
X156953122Y-109139122D01*
X155480878Y-108289122D01*
X156330878Y-106816878D01*
X157803122Y-107666878D01*
X157803122Y-107666878D01*
G37*
D22*
G04 #@! TO.P,J7,6*
G04 #@! TO.N,/ENC_B_3*
X112700000Y-31968500D03*
G04 #@! TO.P,J7,5*
G04 #@! TO.N,/ENC_A_3*
X115240000Y-31968500D03*
G04 #@! TO.P,J7,4*
G04 #@! TO.N,+5V*
X117780000Y-31968500D03*
G04 #@! TO.P,J7,3*
G04 #@! TO.N,GND*
X120320000Y-31968500D03*
G04 #@! TO.P,J7,2*
G04 #@! TO.N,Net-(J7-Pad2)*
X122860000Y-31968500D03*
D23*
G04 #@! TO.P,J7,1*
G04 #@! TO.N,Net-(J7-Pad1)*
X125400000Y-31968500D03*
G04 #@! TD*
D24*
G04 #@! TO.P,C1,2*
G04 #@! TO.N,GND*
X150788000Y-72447038D03*
G04 #@! TO.P,C1,1*
G04 #@! TO.N,Net-(C1-Pad1)*
X150038000Y-71148000D03*
D17*
G04 #@! TD*
G04 #@! TO.N,Net-(C1-Pad1)*
G04 #@! TO.C,C1*
G36*
X149218385Y-70928385D02*
X150257615Y-70328385D01*
X150857615Y-71367615D01*
X149818385Y-71967615D01*
X149218385Y-70928385D01*
X149218385Y-70928385D01*
G37*
D11*
G04 #@! TO.P,C2,2*
G04 #@! TO.N,GND*
X140680000Y-59210000D03*
D13*
G04 #@! TO.P,C2,1*
G04 #@! TO.N,+5V*
X143180000Y-59210000D03*
G04 #@! TD*
D14*
G04 #@! TO.P,D2,2*
G04 #@! TO.N,+5V*
X124130000Y-63528000D03*
D15*
G04 #@! TO.P,D2,1*
G04 #@! TO.N,Net-(D2-Pad1)*
X113970000Y-63528000D03*
G04 #@! TD*
D25*
G04 #@! TO.P,L1,2*
G04 #@! TO.N,+5V*
X148180000Y-66830000D03*
G04 #@! TO.P,L1,1*
G04 #@! TO.N,Net-(D1-Pad1)*
X143180000Y-66830000D03*
G04 #@! TD*
D19*
G04 #@! TO.P,R1,2*
G04 #@! TO.N,/CTRL_ALIM*
X106350000Y-70005000D03*
D11*
G04 #@! TO.P,R1,1*
G04 #@! TO.N,Net-(Q1-Pad2)*
X98730000Y-70005000D03*
G04 #@! TD*
D19*
G04 #@! TO.P,R3,2*
G04 #@! TO.N,GND*
X106350000Y-66830000D03*
D11*
G04 #@! TO.P,R3,1*
G04 #@! TO.N,Net-(Q1-Pad2)*
X98730000Y-66830000D03*
G04 #@! TD*
D19*
G04 #@! TO.P,R4,2*
G04 #@! TO.N,Net-(J1-Pad2)*
X98730000Y-63655000D03*
D11*
G04 #@! TO.P,R4,1*
G04 #@! TO.N,+BATT*
X106350000Y-63655000D03*
G04 #@! TD*
D26*
G04 #@! TO.P,Q2,3*
G04 #@! TO.N,+BATT*
X96698000Y-59255591D03*
D27*
G04 #@! TD*
G04 #@! TO.N,+BATT*
G04 #@! TO.C,Q2*
X96656864Y-59231841D02*
X96739136Y-59279341D01*
D26*
G04 #@! TO.P,Q2,2*
G04 #@! TO.N,Net-(J1-Pad2)*
X95428000Y-61455295D03*
D27*
G04 #@! TD*
G04 #@! TO.N,Net-(J1-Pad2)*
G04 #@! TO.C,Q2*
X95386864Y-61431545D02*
X95469136Y-61479045D01*
D26*
G04 #@! TO.P,Q2,1*
G04 #@! TO.N,Net-(C1-Pad1)*
X94158000Y-63655000D03*
D17*
G04 #@! TD*
G04 #@! TO.N,Net-(C1-Pad1)*
G04 #@! TO.C,Q2*
G36*
X94547775Y-64979889D02*
X92815725Y-63979889D01*
X93768225Y-62330111D01*
X95500275Y-63330111D01*
X94547775Y-64979889D01*
X94547775Y-64979889D01*
G37*
D20*
G04 #@! TO.P,J1,2*
G04 #@! TO.N,Net-(J1-Pad2)*
X94285000Y-69370000D03*
D21*
G04 #@! TD*
G04 #@! TO.N,Net-(J1-Pad2)*
G04 #@! TO.C,J1*
X94285000Y-69370000D02*
X94285000Y-69370000D01*
D20*
G04 #@! TO.P,J1,1*
G04 #@! TO.N,GND*
X95555000Y-67170295D03*
D17*
G04 #@! TD*
G04 #@! TO.N,GND*
G04 #@! TO.C,J1*
G36*
X94393878Y-67481417D02*
X95243878Y-66009173D01*
X96716122Y-66859173D01*
X95866122Y-68331417D01*
X94393878Y-67481417D01*
X94393878Y-67481417D01*
G37*
D22*
G04 #@! TO.P,J2,2*
G04 #@! TO.N,+BATT*
X98095000Y-54130000D03*
D23*
G04 #@! TO.P,J2,1*
G04 #@! TO.N,GND*
X98095000Y-51590000D03*
G04 #@! TD*
D22*
G04 #@! TO.P,J6,2*
G04 #@! TO.N,Net-(J6-Pad2)*
X129845000Y-111280000D03*
D23*
G04 #@! TO.P,J6,1*
G04 #@! TO.N,Net-(J6-Pad1)*
X132385000Y-111280000D03*
G04 #@! TD*
D22*
G04 #@! TO.P,J8,2*
G04 #@! TO.N,Net-(J8-Pad2)*
X140005000Y-54130000D03*
D23*
G04 #@! TO.P,J8,1*
G04 #@! TO.N,Net-(J8-Pad1)*
X140005000Y-51590000D03*
G04 #@! TD*
D20*
G04 #@! TO.P,J4,2*
G04 #@! TO.N,Net-(J4-Pad2)*
X86959705Y-73180000D03*
D21*
G04 #@! TD*
G04 #@! TO.N,Net-(J4-Pad2)*
G04 #@! TO.C,J4*
X86959705Y-73180000D02*
X86959705Y-73180000D01*
D20*
G04 #@! TO.P,J4,1*
G04 #@! TO.N,Net-(J4-Pad1)*
X84760000Y-74450000D03*
D17*
G04 #@! TD*
G04 #@! TO.N,Net-(J4-Pad1)*
G04 #@! TO.C,J4*
G36*
X85921122Y-74761122D02*
X84448878Y-75611122D01*
X83598878Y-74138878D01*
X85071122Y-73288878D01*
X85921122Y-74761122D01*
X85921122Y-74761122D01*
G37*
D28*
G04 #@! TO.N,Net-(C1-Pad1)*
X109906000Y-57940000D03*
D29*
X94666000Y-56924000D03*
D28*
G04 #@! TO.N,+5V*
X102794000Y-79276000D03*
G04 #@! TO.N,/INA_1*
X108890000Y-86896000D03*
G04 #@! TO.N,/PWM_1*
X108890000Y-88420000D03*
G04 #@! TO.N,/CS_1*
X109906000Y-94008000D03*
G04 #@! TO.N,/INB_1*
X108128000Y-101374000D03*
G04 #@! TO.N,/INB_2*
X123702000Y-83340000D03*
G04 #@! TO.N,/CS_2*
X133020000Y-96040000D03*
G04 #@! TO.N,/PWM_2*
X129210000Y-88420000D03*
G04 #@! TO.N,/CTRL_ALIM*
X114986000Y-81816000D03*
X114986000Y-97564000D03*
G04 #@! TO.N,/ENC_B_2*
X154610000Y-88420000D03*
G04 #@! TO.N,/ENC_A_2*
X153594000Y-91051182D03*
G04 #@! TO.N,/3V*
X118034000Y-51844000D03*
G04 #@! TD*
D30*
G04 #@! TO.N,GND*
X111430000Y-108740000D02*
X113335000Y-106835000D01*
X96825000Y-65900295D02*
X95555000Y-67170295D01*
X94352919Y-67170295D02*
X92742624Y-65560000D01*
X95555000Y-67170295D02*
X94352919Y-67170295D01*
X89332000Y-69370000D02*
X89840000Y-69370000D01*
X92742624Y-65560000D02*
X89840000Y-65560000D01*
X89840000Y-65560000D02*
X88570000Y-66830000D01*
X88570000Y-66830000D02*
X88570000Y-68608000D01*
X88570000Y-68608000D02*
X89332000Y-69370000D01*
X98730000Y-56670000D02*
X98730000Y-61115000D01*
X101270000Y-54130000D02*
X98730000Y-56670000D01*
X98730000Y-61115000D02*
X96825000Y-63020000D01*
X96825000Y-63020000D02*
X96825000Y-65900295D01*
X108547261Y-105468932D02*
X109848193Y-104168000D01*
X109848193Y-104168000D02*
X112446000Y-104168000D01*
X112446000Y-104168000D02*
X113462000Y-105184000D01*
X113462000Y-105184000D02*
X113462000Y-106708000D01*
X130734000Y-80292000D02*
X130734000Y-84864000D01*
X135306000Y-75720000D02*
X130734000Y-80292000D01*
X147078739Y-74673068D02*
X146031807Y-75720000D01*
X146031807Y-75720000D02*
X135306000Y-75720000D01*
G04 #@! TO.N,+BATT*
X98095000Y-54511000D02*
X98095000Y-54130000D01*
X96698000Y-59255591D02*
X96698000Y-55908000D01*
X96698000Y-55908000D02*
X98095000Y-54511000D01*
G04 #@! TO.N,Net-(C1-Pad1)*
X93355240Y-62852240D02*
X93355240Y-62725240D01*
X94158000Y-63655000D02*
X93355240Y-62852240D01*
X93355240Y-62725240D02*
X93142000Y-62512000D01*
X93142000Y-62512000D02*
X93142000Y-58956000D01*
X109906000Y-54384000D02*
X109906000Y-57940000D01*
X137846000Y-71910000D02*
X139116000Y-71910000D01*
X140386000Y-70640000D02*
X140386000Y-63528000D01*
X140386000Y-63528000D02*
X125654000Y-48796000D01*
X115494000Y-48796000D02*
X109906000Y-54384000D01*
X139116000Y-71910000D02*
X140386000Y-70640000D01*
X125654000Y-48796000D02*
X115494000Y-48796000D01*
X94666000Y-56924000D02*
X93142000Y-58448000D01*
X93142000Y-58448000D02*
X93142000Y-58956000D01*
G04 #@! TO.N,+5V*
X102199705Y-79784000D02*
X78664000Y-103319705D01*
X102286000Y-79784000D02*
X102794000Y-79276000D01*
X102199705Y-79784000D02*
X102286000Y-79784000D01*
G04 #@! TO.N,/INA_1*
X92380000Y-113589602D02*
X93149330Y-114358932D01*
X92380000Y-96040000D02*
X92380000Y-113589602D01*
X108890000Y-86896000D02*
X101524000Y-86896000D01*
X101524000Y-86896000D02*
X92380000Y-96040000D01*
G04 #@! TO.N,/PWM_1*
X97548739Y-111818932D02*
X97548739Y-111368739D01*
X97548739Y-111368739D02*
X97460000Y-111280000D01*
X97548739Y-111368739D02*
X97548739Y-104841261D01*
X97548739Y-104841261D02*
X97908453Y-104481547D01*
X97908453Y-104481547D02*
X108890000Y-93500000D01*
X108890000Y-93500000D02*
X108890000Y-88420000D01*
X108890000Y-88420000D02*
X108890000Y-88420000D01*
G04 #@! TO.N,/CS_1*
X99748443Y-105181557D02*
X99748443Y-110548932D01*
X99748443Y-104170443D02*
X99748443Y-105181557D01*
X109906000Y-94008000D02*
X99746000Y-104168000D01*
X99746000Y-104168000D02*
X99748443Y-104170443D01*
G04 #@! TO.N,/INB_1*
X104147852Y-107807852D02*
X104147852Y-108008932D01*
X104147852Y-108008932D02*
X104147852Y-105354148D01*
X104147852Y-105354148D02*
X108128000Y-101374000D01*
X108128000Y-101374000D02*
X108128000Y-101374000D01*
D31*
G04 #@! TO.N,Net-(J4-Pad2)*
X86959705Y-73180000D02*
X89499705Y-75720000D01*
X89720329Y-75720000D02*
X89499705Y-75720000D01*
X90767261Y-74673068D02*
X89720329Y-75720000D01*
G04 #@! TO.N,Net-(J3-Pad2)*
X76124000Y-98920296D02*
X76799704Y-98920296D01*
X81968443Y-93751557D02*
X81968443Y-93500000D01*
X76799704Y-98920296D02*
X81968443Y-93751557D01*
D32*
X80846369Y-81023068D02*
X81069437Y-80800000D01*
X79768739Y-81023068D02*
X80846369Y-81023068D01*
D31*
X81968443Y-79753068D02*
X81968443Y-80800000D01*
D32*
X81069437Y-80800000D02*
X81968443Y-80800000D01*
X81968443Y-83222772D02*
X81968443Y-83340000D01*
X79768739Y-81023068D02*
X81968443Y-83222772D01*
D31*
X81968443Y-80800000D02*
X81968443Y-83340000D01*
X81968443Y-83340000D02*
X81968443Y-93500000D01*
D32*
X80698443Y-81023068D02*
X81968443Y-79753068D01*
X79768739Y-81023068D02*
X80698443Y-81023068D01*
D31*
G04 #@! TO.N,Net-(J4-Pad1)*
X84760000Y-74450000D02*
X84760000Y-78260000D01*
X85320920Y-78260000D02*
X84760000Y-78260000D01*
X86367852Y-77213068D02*
X85320920Y-78260000D01*
G04 #@! TO.N,Net-(J3-Pad1)*
X77569034Y-94005557D02*
X74854000Y-96720591D01*
D32*
X75369330Y-83563068D02*
X77345966Y-83563068D01*
D31*
X77569034Y-82293068D02*
X77569034Y-83340000D01*
D32*
X77345966Y-83563068D02*
X77569034Y-83340000D01*
X76131329Y-84442295D02*
X77569034Y-85880000D01*
X76131329Y-84325067D02*
X76131329Y-84442295D01*
X75369330Y-83563068D02*
X76131329Y-84325067D01*
D31*
X77569034Y-83340000D02*
X77569034Y-85880000D01*
X77569034Y-85880000D02*
X77569034Y-94005557D01*
D32*
X76299034Y-83563068D02*
X77569034Y-82293068D01*
X75369330Y-83563068D02*
X76299034Y-83563068D01*
D31*
G04 #@! TO.N,Net-(J5-Pad1)*
X156642000Y-107978000D02*
X149022000Y-107978000D01*
X149022000Y-107978000D02*
X144696670Y-112303330D01*
X143965602Y-113088932D02*
X144696670Y-113820000D01*
X142496966Y-113088932D02*
X143965602Y-113088932D01*
X144696670Y-112303330D02*
X144696670Y-113820000D01*
X144696670Y-113820000D02*
X144696670Y-114358932D01*
X143911068Y-113088932D02*
X144696670Y-112303330D01*
X142496966Y-113088932D02*
X143911068Y-113088932D01*
X143426670Y-113088932D02*
X144696670Y-114358932D01*
X142496966Y-113088932D02*
X143426670Y-113088932D01*
G04 #@! TO.N,Net-(J6-Pad2)*
X129845000Y-106015193D02*
X129298739Y-105468932D01*
X129883260Y-105976933D02*
X129845000Y-106015193D01*
X130736444Y-105976933D02*
X129883260Y-105976933D01*
X131498443Y-106738932D02*
X130736444Y-105976933D01*
X130449069Y-107500931D02*
X129845000Y-108105000D01*
X130736444Y-107500931D02*
X130449069Y-107500931D01*
X131498443Y-106738932D02*
X130736444Y-107500931D01*
X129845000Y-111280000D02*
X129845000Y-108105000D01*
X129845000Y-108105000D02*
X129845000Y-106015193D01*
X129845000Y-108392375D02*
X129845000Y-111280000D01*
X131498443Y-106738932D02*
X129845000Y-108392375D01*
G04 #@! TO.N,Net-(J6-Pad1)*
X133698148Y-109966852D02*
X132385000Y-111280000D01*
X133698148Y-108008932D02*
X133698148Y-109966852D01*
X134968148Y-109278932D02*
X133698148Y-108008932D01*
X135897852Y-109278932D02*
X134968148Y-109278932D01*
X134386068Y-109278932D02*
X132385000Y-111280000D01*
X135897852Y-109278932D02*
X134386068Y-109278932D01*
G04 #@! TO.N,Net-(J5-Pad2)*
X138859556Y-111310931D02*
X138097557Y-110548932D01*
X139339069Y-111310931D02*
X138859556Y-111310931D01*
X145721704Y-104928296D02*
X139339069Y-111310931D01*
X157062001Y-104928296D02*
X145721704Y-104928296D01*
X157912000Y-105778295D02*
X157062001Y-104928296D01*
X139847070Y-111818932D02*
X139339069Y-111310931D01*
X140297261Y-111818932D02*
X139847070Y-111818932D01*
X139027261Y-110548932D02*
X140297261Y-111818932D01*
X138097557Y-110548932D02*
X139027261Y-110548932D01*
D30*
G04 #@! TO.N,/INB_2*
X151478148Y-77213068D02*
X151478148Y-79867852D01*
X151478148Y-79867852D02*
X141402000Y-89944000D01*
X141402000Y-89944000D02*
X134290000Y-89944000D01*
X134290000Y-89944000D02*
X131242000Y-86896000D01*
X126416000Y-86896000D02*
X125400000Y-85880000D01*
X131242000Y-86896000D02*
X126416000Y-86896000D01*
X123702000Y-84047106D02*
X123702000Y-84182000D01*
X123702000Y-83340000D02*
X123702000Y-84047106D01*
X125400000Y-85880000D02*
X123702000Y-84182000D01*
G04 #@! TO.N,/CS_2*
X155877557Y-79753068D02*
X139590625Y-96040000D01*
X133020000Y-96040000D02*
X139370000Y-96040000D01*
G04 #@! TO.N,/PWM_2*
X158077261Y-81023068D02*
X156926932Y-81023068D01*
X156926932Y-81023068D02*
X140640000Y-97310000D01*
X140640000Y-97310000D02*
X131750000Y-97310000D01*
X131750000Y-97310000D02*
X129210000Y-94770000D01*
X129210000Y-94770000D02*
X129210000Y-88420000D01*
X129210000Y-88420000D02*
X129210000Y-88420000D01*
G04 #@! TO.N,/INA_2*
X126670000Y-102136000D02*
X126670000Y-106454000D01*
X130226000Y-98580000D02*
X126670000Y-102136000D01*
X162476670Y-83563068D02*
X156418932Y-83563068D01*
X156418932Y-83563068D02*
X141402000Y-98580000D01*
X141402000Y-98580000D02*
X130226000Y-98580000D01*
G04 #@! TO.N,/INA_3*
X115710001Y-80254001D02*
X116510000Y-81054000D01*
X115220001Y-79764001D02*
X115710001Y-80254001D01*
X102540000Y-36350000D02*
X106350000Y-40160000D01*
X101270000Y-36350000D02*
X102540000Y-36350000D01*
X106350000Y-40160000D02*
X106350000Y-59464000D01*
X106350000Y-59464000D02*
X106297925Y-59464000D01*
X113208000Y-77752000D02*
X116510000Y-81054000D01*
X106480189Y-77752000D02*
X113208000Y-77752000D01*
X102794000Y-74065811D02*
X106480189Y-77752000D01*
X102794000Y-63020000D02*
X102794000Y-74065811D01*
X106350000Y-59464000D02*
X102794000Y-63020000D01*
G04 #@! TO.N,/PWM_3*
X113208000Y-94516000D02*
X111430000Y-96294000D01*
X112229999Y-95494001D02*
X111430000Y-96294000D01*
X101778000Y-63020000D02*
X101778000Y-71069887D01*
X102032000Y-41430000D02*
X105307962Y-44705962D01*
X105307962Y-44705962D02*
X105307962Y-59464000D01*
X105307962Y-59464000D02*
X104037962Y-60734000D01*
X104037962Y-60734000D02*
X104037962Y-60760038D01*
X101270000Y-41430000D02*
X102032000Y-41430000D01*
X104037962Y-60760038D02*
X101778000Y-63020000D01*
X106506226Y-78768000D02*
X101778000Y-74039774D01*
X109476113Y-78768000D02*
X106506226Y-78768000D01*
X101778000Y-74039774D02*
X101778000Y-71148000D01*
X113208000Y-94516000D02*
X113208000Y-80038000D01*
X109476113Y-78768000D02*
X111938000Y-78768000D01*
X113208000Y-80038000D02*
X111938000Y-78768000D01*
G04 #@! TO.N,/CS_3*
X101270000Y-43970000D02*
X104318000Y-47018000D01*
X104318000Y-47018000D02*
X104318000Y-59464000D01*
X104318000Y-59464000D02*
X101270000Y-62512000D01*
X101270000Y-62512000D02*
X101270000Y-62538037D01*
X101270000Y-62538037D02*
X100954010Y-62854027D01*
X100954010Y-62854027D02*
X100954010Y-71235859D01*
X110630001Y-80254001D02*
X111430000Y-81054000D01*
X110475990Y-80099990D02*
X110630001Y-80254001D01*
X106848254Y-80099990D02*
X110475990Y-80099990D01*
X100954010Y-74205746D02*
X106848254Y-80099990D01*
X100954010Y-71235859D02*
X100954010Y-74205746D01*
G04 #@! TO.N,/INB_3*
X109144000Y-83594000D02*
X111430000Y-83594000D01*
X100254000Y-62004000D02*
X100254000Y-74704000D01*
X103302000Y-58956000D02*
X100254000Y-62004000D01*
X101270000Y-49050000D02*
X103302000Y-51082000D01*
X100254000Y-74704000D02*
X109144000Y-83594000D01*
X103302000Y-51082000D02*
X103302000Y-58956000D01*
D31*
G04 #@! TO.N,Net-(J8-Pad2)*
X136830000Y-51590000D02*
X136830000Y-54130000D01*
X140005000Y-54130000D02*
X136830000Y-54130000D01*
G04 #@! TO.N,Net-(J7-Pad2)*
X122860000Y-31968500D02*
X122860000Y-34445000D01*
X122860000Y-34445000D02*
X129845000Y-41430000D01*
X136830000Y-43970000D02*
X136830000Y-41430000D01*
X136068001Y-43208001D02*
X134290000Y-41430000D01*
X136830000Y-43970000D02*
X136068001Y-43208001D01*
X129845000Y-41430000D02*
X134290000Y-41430000D01*
X134290000Y-41430000D02*
X136830000Y-41430000D01*
G04 #@! TO.N,Net-(J8-Pad1)*
X136830000Y-46510000D02*
X136830000Y-49050000D01*
X140005000Y-51590000D02*
X140005000Y-50240000D01*
X140005000Y-50240000D02*
X138100000Y-48335000D01*
X138100000Y-47780000D02*
X136830000Y-46510000D01*
X138100000Y-48335000D02*
X138100000Y-47780000D01*
G04 #@! TO.N,Net-(J7-Pad1)*
X136830000Y-38890000D02*
X136830000Y-36350000D01*
X129781500Y-36350000D02*
X125400000Y-31968500D01*
X136830000Y-38890000D02*
X134290000Y-36350000D01*
X136830000Y-36350000D02*
X134290000Y-36350000D01*
X134290000Y-36350000D02*
X129781500Y-36350000D01*
D30*
G04 #@! TO.N,/CTRL_ALIM*
X114986000Y-81816000D02*
X114986000Y-97564000D01*
X114986000Y-97564000D02*
X114986000Y-97564000D01*
X114986000Y-97564000D02*
X114986000Y-97564000D01*
G04 #@! TO.N,/ENC_B_2*
X162142001Y-96129478D02*
X162142001Y-95952001D01*
X162992000Y-96979477D02*
X162142001Y-96129478D01*
X162142001Y-95952001D02*
X154610000Y-88420000D01*
X154610000Y-88420000D02*
X154610000Y-88420000D01*
G04 #@! TO.N,/ENC_A_2*
X161722000Y-99179182D02*
X153594000Y-91051182D01*
X153594000Y-91051182D02*
X153594000Y-90960000D01*
G04 #@! TO.N,/ENC_A_3*
X126670000Y-77244000D02*
X126670000Y-78514000D01*
X125146000Y-75720000D02*
X126670000Y-77244000D01*
X106428113Y-75720000D02*
X125146000Y-75720000D01*
X104826000Y-74117887D02*
X106428113Y-75720000D01*
X104826000Y-63020000D02*
X104826000Y-74117887D01*
X115240000Y-35588000D02*
X108355962Y-42472038D01*
X115240000Y-31968500D02*
X115240000Y-35588000D01*
X108355962Y-59464000D02*
X106858000Y-60961962D01*
X108355962Y-42472038D02*
X108355962Y-59464000D01*
X106858000Y-60961962D02*
X106858000Y-60988000D01*
X106858000Y-60988000D02*
X104826000Y-63020000D01*
G04 #@! TO.N,/ENC_B_3*
X107366000Y-59464000D02*
X107366000Y-37302500D01*
X107366000Y-37302500D02*
X112700000Y-31968500D01*
X107366000Y-59464000D02*
X107339963Y-59464000D01*
X103810000Y-74091849D02*
X103810000Y-63020000D01*
X119050000Y-81054000D02*
X120181370Y-81054000D01*
X120181370Y-81054000D02*
X120955000Y-80280370D01*
X120955000Y-80280370D02*
X120955000Y-77625000D01*
X103810000Y-63020000D02*
X107366000Y-59464000D01*
X120066000Y-76736000D02*
X106454151Y-76736000D01*
X120955000Y-77625000D02*
X120066000Y-76736000D01*
X106454151Y-76736000D02*
X103810000Y-74091849D01*
G04 #@! TO.N,Net-(D2-Pad1)*
X116510000Y-109248000D02*
X114224000Y-111534000D01*
X116510000Y-101628000D02*
X116510000Y-109248000D01*
X121590000Y-96548000D02*
X116510000Y-101628000D01*
X124649998Y-80292000D02*
X121590000Y-83351998D01*
X128156002Y-80292000D02*
X124649998Y-80292000D01*
X114224000Y-111534000D02*
X111430000Y-111534000D01*
X121590000Y-83351998D02*
X121590000Y-96548000D01*
X115570000Y-63528000D02*
X118110000Y-60988000D01*
X113970000Y-63528000D02*
X115570000Y-63528000D01*
X134290000Y-65943998D02*
X134290000Y-74158002D01*
X134290000Y-74158002D02*
X128156002Y-80292000D01*
X118110000Y-60988000D02*
X129334002Y-60988000D01*
X129334002Y-60988000D02*
X134290000Y-65943998D01*
G04 #@! TO.N,/3V*
X107109556Y-107500931D02*
X107589069Y-107500931D01*
X106347557Y-106738932D02*
X107109556Y-107500931D01*
X107589069Y-107500931D02*
X107620000Y-107470000D01*
X107620000Y-107470000D02*
X110160000Y-107470000D01*
X110160000Y-107470000D02*
X111176000Y-106454000D01*
X149278443Y-75943068D02*
X149278443Y-75463557D01*
X149278443Y-75463557D02*
X149530000Y-75212000D01*
X149530000Y-75212000D02*
X149530000Y-74196000D01*
X149530000Y-74196000D02*
X148514000Y-73180000D01*
X148514000Y-73180000D02*
X148006000Y-72672000D01*
X148006000Y-72672000D02*
X145974000Y-72672000D01*
X145974000Y-72672000D02*
X143942000Y-72672000D01*
X143942000Y-72672000D02*
X142418000Y-74196000D01*
X142418000Y-74196000D02*
X137338000Y-74196000D01*
X137338000Y-74196000D02*
X136595999Y-73453999D01*
X136595999Y-73453999D02*
X135814000Y-72672000D01*
X135814000Y-72672000D02*
X135814000Y-66478036D01*
X135814000Y-66478036D02*
X135814000Y-63020000D01*
X135814000Y-63020000D02*
X124638000Y-51844000D01*
X124638000Y-51844000D02*
X124638000Y-51844000D01*
X124638000Y-51844000D02*
X118034000Y-51844000D01*
X118034000Y-51844000D02*
X118034000Y-51844000D01*
X118034000Y-51844000D02*
X118034000Y-51844000D01*
G04 #@! TD*
M02*
