%TF.GenerationSoftware,KiCad,Pcbnew,5.0.2-bee76a0~70~ubuntu18.04.1*%
%TF.CreationDate,2019-11-29T21:58:12+01:00*%
%TF.ProjectId,Robot-HMI,526f626f-742d-4484-9d49-2e6b69636164,rev?*%
%TF.SameCoordinates,Original*%
%TF.FileFunction,Copper,L1,Top*%
%TF.FilePolarity,Positive*%
%FSLAX46Y46*%
G04 Gerber Fmt 4.6, Leading zero omitted, Abs format (unit mm)*
G04 Created by KiCad (PCBNEW 5.0.2-bee76a0~70~ubuntu18.04.1) date ven. 29 nov. 2019 21:58:12 CET*
%MOMM*%
%LPD*%
G01*
G04 APERTURE LIST*
%ADD10C,1.500000*%
%ADD11R,1.500000X1.500000*%
%ADD12O,1.600000X1.600000*%
%ADD13R,1.600000X1.600000*%
%ADD14C,1.650000*%
%ADD15C,1.600000*%
%ADD16C,1.800000*%
%ADD17R,1.800000X1.800000*%
%ADD18C,1.740000*%
%ADD19C,0.150000*%
%ADD20C,2.000000*%
%ADD21C,0.800000*%
%ADD22C,0.254000*%
%ADD23C,0.400000*%
G04 APERTURE END LIST*
D10*
X76200000Y-53340000D03*
X78740000Y-53340000D03*
X81280000Y-53340000D03*
X83820000Y-53340000D03*
X86360000Y-53340000D03*
X88900000Y-53340000D03*
X88900000Y-68580000D03*
X86360000Y-68580000D03*
X83820000Y-68580000D03*
X81280000Y-68580000D03*
X78740000Y-68580000D03*
D11*
X76200000Y-68580000D03*
D12*
X132080000Y-82550000D03*
X104140000Y-74930000D03*
X129540000Y-82550000D03*
X106680000Y-74930000D03*
X127000000Y-82550000D03*
X109220000Y-74930000D03*
X124460000Y-82550000D03*
X111760000Y-74930000D03*
X121920000Y-82550000D03*
X114300000Y-74930000D03*
X119380000Y-82550000D03*
X116840000Y-74930000D03*
X116840000Y-82550000D03*
X119380000Y-74930000D03*
X114300000Y-82550000D03*
X121920000Y-74930000D03*
X111760000Y-82550000D03*
X124460000Y-74930000D03*
X109220000Y-82550000D03*
X127000000Y-74930000D03*
X106680000Y-82550000D03*
X129540000Y-74930000D03*
X104140000Y-82550000D03*
D13*
X132080000Y-74930000D03*
D14*
X129540000Y-97790000D03*
X132080000Y-97790000D03*
D15*
X90170000Y-104140000D03*
X90170000Y-101600000D03*
X90170000Y-99060000D03*
X90170000Y-96520000D03*
X90170000Y-93980000D03*
X90170000Y-91440000D03*
X90170000Y-88900000D03*
X90170000Y-86360000D03*
X90170000Y-83820000D03*
X90170000Y-81280000D03*
X90170000Y-78740000D03*
X90170000Y-76200000D03*
X74930000Y-76200000D03*
X74930000Y-78740000D03*
X74930000Y-81280000D03*
X74930000Y-83820000D03*
X74930000Y-86360000D03*
X74930000Y-88900000D03*
X74930000Y-91440000D03*
X74930000Y-93980000D03*
X74930000Y-96520000D03*
X74930000Y-99060000D03*
X74930000Y-101600000D03*
D13*
X74930000Y-104140000D03*
D16*
X50800000Y-66040000D03*
D17*
X53340000Y-66040000D03*
D16*
X69850000Y-77470000D03*
D17*
X67310000Y-77470000D03*
D16*
X83820000Y-77470000D03*
D17*
X81280000Y-77470000D03*
D18*
X53340000Y-85090000D03*
X55880000Y-85090000D03*
X58420000Y-85090000D03*
X60960000Y-85090000D03*
D19*
G36*
X64144505Y-84221204D02*
X64168773Y-84224804D01*
X64192572Y-84230765D01*
X64215671Y-84239030D01*
X64237850Y-84249520D01*
X64258893Y-84262132D01*
X64278599Y-84276747D01*
X64296777Y-84293223D01*
X64313253Y-84311401D01*
X64327868Y-84331107D01*
X64340480Y-84352150D01*
X64350970Y-84374329D01*
X64359235Y-84397428D01*
X64365196Y-84421227D01*
X64368796Y-84445495D01*
X64370000Y-84469999D01*
X64370000Y-85710001D01*
X64368796Y-85734505D01*
X64365196Y-85758773D01*
X64359235Y-85782572D01*
X64350970Y-85805671D01*
X64340480Y-85827850D01*
X64327868Y-85848893D01*
X64313253Y-85868599D01*
X64296777Y-85886777D01*
X64278599Y-85903253D01*
X64258893Y-85917868D01*
X64237850Y-85930480D01*
X64215671Y-85940970D01*
X64192572Y-85949235D01*
X64168773Y-85955196D01*
X64144505Y-85958796D01*
X64120001Y-85960000D01*
X62879999Y-85960000D01*
X62855495Y-85958796D01*
X62831227Y-85955196D01*
X62807428Y-85949235D01*
X62784329Y-85940970D01*
X62762150Y-85930480D01*
X62741107Y-85917868D01*
X62721401Y-85903253D01*
X62703223Y-85886777D01*
X62686747Y-85868599D01*
X62672132Y-85848893D01*
X62659520Y-85827850D01*
X62649030Y-85805671D01*
X62640765Y-85782572D01*
X62634804Y-85758773D01*
X62631204Y-85734505D01*
X62630000Y-85710001D01*
X62630000Y-84469999D01*
X62631204Y-84445495D01*
X62634804Y-84421227D01*
X62640765Y-84397428D01*
X62649030Y-84374329D01*
X62659520Y-84352150D01*
X62672132Y-84331107D01*
X62686747Y-84311401D01*
X62703223Y-84293223D01*
X62721401Y-84276747D01*
X62741107Y-84262132D01*
X62762150Y-84249520D01*
X62784329Y-84239030D01*
X62807428Y-84230765D01*
X62831227Y-84224804D01*
X62855495Y-84221204D01*
X62879999Y-84220000D01*
X64120001Y-84220000D01*
X64144505Y-84221204D01*
X64144505Y-84221204D01*
G37*
D18*
X63500000Y-85090000D03*
X53340000Y-74930000D03*
X55880000Y-74930000D03*
X58420000Y-74930000D03*
D19*
G36*
X61604505Y-74061204D02*
X61628773Y-74064804D01*
X61652572Y-74070765D01*
X61675671Y-74079030D01*
X61697850Y-74089520D01*
X61718893Y-74102132D01*
X61738599Y-74116747D01*
X61756777Y-74133223D01*
X61773253Y-74151401D01*
X61787868Y-74171107D01*
X61800480Y-74192150D01*
X61810970Y-74214329D01*
X61819235Y-74237428D01*
X61825196Y-74261227D01*
X61828796Y-74285495D01*
X61830000Y-74309999D01*
X61830000Y-75550001D01*
X61828796Y-75574505D01*
X61825196Y-75598773D01*
X61819235Y-75622572D01*
X61810970Y-75645671D01*
X61800480Y-75667850D01*
X61787868Y-75688893D01*
X61773253Y-75708599D01*
X61756777Y-75726777D01*
X61738599Y-75743253D01*
X61718893Y-75757868D01*
X61697850Y-75770480D01*
X61675671Y-75780970D01*
X61652572Y-75789235D01*
X61628773Y-75795196D01*
X61604505Y-75798796D01*
X61580001Y-75800000D01*
X60339999Y-75800000D01*
X60315495Y-75798796D01*
X60291227Y-75795196D01*
X60267428Y-75789235D01*
X60244329Y-75780970D01*
X60222150Y-75770480D01*
X60201107Y-75757868D01*
X60181401Y-75743253D01*
X60163223Y-75726777D01*
X60146747Y-75708599D01*
X60132132Y-75688893D01*
X60119520Y-75667850D01*
X60109030Y-75645671D01*
X60100765Y-75622572D01*
X60094804Y-75598773D01*
X60091204Y-75574505D01*
X60090000Y-75550001D01*
X60090000Y-74309999D01*
X60091204Y-74285495D01*
X60094804Y-74261227D01*
X60100765Y-74237428D01*
X60109030Y-74214329D01*
X60119520Y-74192150D01*
X60132132Y-74171107D01*
X60146747Y-74151401D01*
X60163223Y-74133223D01*
X60181401Y-74116747D01*
X60201107Y-74102132D01*
X60222150Y-74089520D01*
X60244329Y-74079030D01*
X60267428Y-74070765D01*
X60291227Y-74064804D01*
X60315495Y-74061204D01*
X60339999Y-74060000D01*
X61580001Y-74060000D01*
X61604505Y-74061204D01*
X61604505Y-74061204D01*
G37*
D18*
X60960000Y-74930000D03*
D12*
X72390000Y-101600000D03*
D15*
X72390000Y-93980000D03*
D12*
X73660000Y-72390000D03*
D15*
X66040000Y-72390000D03*
D12*
X92710000Y-101600000D03*
D15*
X92710000Y-93980000D03*
D12*
X69850000Y-81280000D03*
D15*
X69850000Y-88900000D03*
D12*
X107950000Y-101600000D03*
D15*
X107950000Y-93980000D03*
D12*
X82550000Y-81280000D03*
D15*
X82550000Y-88900000D03*
D12*
X104140000Y-86360000D03*
D15*
X111760000Y-86360000D03*
D12*
X86360000Y-88900000D03*
D15*
X86360000Y-81280000D03*
D12*
X92710000Y-81280000D03*
D15*
X92710000Y-88900000D03*
D12*
X96520000Y-81280000D03*
D15*
X96520000Y-88900000D03*
D12*
X100330000Y-81280000D03*
D15*
X100330000Y-88900000D03*
D14*
X132080000Y-59690000D03*
X129540000Y-59690000D03*
D20*
X67310000Y-91440000D03*
X62230000Y-91440000D03*
D16*
X62230000Y-104140000D03*
D20*
X67310000Y-104140000D03*
X80010000Y-104140000D03*
X85090000Y-104140000D03*
D16*
X85090000Y-91440000D03*
D20*
X80010000Y-91440000D03*
X97790000Y-104140000D03*
X102870000Y-104140000D03*
D16*
X102870000Y-91440000D03*
D20*
X97790000Y-91440000D03*
X50110000Y-91440000D03*
X54610000Y-91440000D03*
X50110000Y-97940000D03*
X54610000Y-97940000D03*
D15*
X59690000Y-80645000D03*
X64690000Y-80645000D03*
D16*
X98806000Y-78359000D03*
X97282000Y-76835000D03*
X95758000Y-78359000D03*
D19*
G36*
X94474108Y-75937167D02*
X94517791Y-75943647D01*
X94560628Y-75954377D01*
X94602208Y-75969254D01*
X94642129Y-75988135D01*
X94680007Y-76010839D01*
X94715477Y-76037145D01*
X94748198Y-76066802D01*
X94777855Y-76099523D01*
X94804161Y-76134993D01*
X94826865Y-76172871D01*
X94845746Y-76212792D01*
X94860623Y-76254372D01*
X94871353Y-76297209D01*
X94877833Y-76340892D01*
X94880000Y-76385000D01*
X94880000Y-77285000D01*
X94877833Y-77329108D01*
X94871353Y-77372791D01*
X94860623Y-77415628D01*
X94845746Y-77457208D01*
X94826865Y-77497129D01*
X94804161Y-77535007D01*
X94777855Y-77570477D01*
X94748198Y-77603198D01*
X94715477Y-77632855D01*
X94680007Y-77659161D01*
X94642129Y-77681865D01*
X94602208Y-77700746D01*
X94560628Y-77715623D01*
X94517791Y-77726353D01*
X94474108Y-77732833D01*
X94430000Y-77735000D01*
X93530000Y-77735000D01*
X93485892Y-77732833D01*
X93442209Y-77726353D01*
X93399372Y-77715623D01*
X93357792Y-77700746D01*
X93317871Y-77681865D01*
X93279993Y-77659161D01*
X93244523Y-77632855D01*
X93211802Y-77603198D01*
X93182145Y-77570477D01*
X93155839Y-77535007D01*
X93133135Y-77497129D01*
X93114254Y-77457208D01*
X93099377Y-77415628D01*
X93088647Y-77372791D01*
X93082167Y-77329108D01*
X93080000Y-77285000D01*
X93080000Y-76385000D01*
X93082167Y-76340892D01*
X93088647Y-76297209D01*
X93099377Y-76254372D01*
X93114254Y-76212792D01*
X93133135Y-76172871D01*
X93155839Y-76134993D01*
X93182145Y-76099523D01*
X93211802Y-76066802D01*
X93244523Y-76037145D01*
X93279993Y-76010839D01*
X93317871Y-75988135D01*
X93357792Y-75969254D01*
X93399372Y-75954377D01*
X93442209Y-75943647D01*
X93485892Y-75937167D01*
X93530000Y-75935000D01*
X94430000Y-75935000D01*
X94474108Y-75937167D01*
X94474108Y-75937167D01*
G37*
D16*
X93980000Y-76835000D03*
D15*
X78740000Y-88900000D03*
D12*
X78740000Y-81280000D03*
D15*
X105410000Y-88900000D03*
X110410000Y-88900000D03*
D21*
X97790000Y-99060000D03*
X78740000Y-99060000D03*
X118745000Y-78105000D03*
X123825000Y-76835000D03*
X87630000Y-65405000D03*
X130810000Y-78740000D03*
X96520000Y-83820000D03*
D22*
X97790000Y-99060000D02*
X97790000Y-91440000D01*
X107950000Y-101600000D02*
X107950000Y-104140000D01*
X107950000Y-104140000D02*
X106045000Y-106045000D01*
X82550000Y-104140000D02*
X84455000Y-106045000D01*
X82550000Y-96520000D02*
X82550000Y-104140000D01*
X74930000Y-88900000D02*
X82550000Y-96520000D01*
X106045000Y-106045000D02*
X84455000Y-106045000D01*
D23*
X119380000Y-82550000D02*
X117475000Y-84455000D01*
X106045000Y-84455000D02*
X104140000Y-86360000D01*
X117475000Y-84455000D02*
X106045000Y-84455000D01*
X58420000Y-74930000D02*
X58420000Y-73025000D01*
X59055000Y-72390000D02*
X66040000Y-72390000D01*
X58420000Y-73025000D02*
X59055000Y-72390000D01*
X102599670Y-86360000D02*
X103008630Y-86360000D01*
X103008630Y-86360000D02*
X104140000Y-86360000D01*
X98425000Y-82185330D02*
X102599670Y-86360000D01*
X98425000Y-81026000D02*
X98425000Y-81280000D01*
X95758000Y-78359000D02*
X98425000Y-81026000D01*
X98425000Y-81280000D02*
X98425000Y-82185330D01*
X68580000Y-74930000D02*
X66040000Y-72390000D01*
X94615000Y-74930000D02*
X68580000Y-74930000D01*
X95758000Y-78359000D02*
X95758000Y-76073000D01*
X95758000Y-76073000D02*
X94615000Y-74930000D01*
D22*
X78740000Y-81280000D02*
X74930000Y-81280000D01*
X53340000Y-85090000D02*
X53340000Y-83820000D01*
X53340000Y-83820000D02*
X53975000Y-83185000D01*
X74930000Y-78740000D02*
X74130001Y-79539999D01*
X74130001Y-79539999D02*
X70485000Y-83185000D01*
X53975000Y-83185000D02*
X70485000Y-83185000D01*
X77558999Y-97878999D02*
X78340001Y-98660001D01*
X78340001Y-98660001D02*
X78740000Y-99060000D01*
X56085214Y-97878999D02*
X77558999Y-97878999D01*
X56024213Y-97940000D02*
X56085214Y-97878999D01*
X54610000Y-97940000D02*
X56024213Y-97940000D01*
X91440000Y-95250000D02*
X85090000Y-95250000D01*
X92710000Y-93980000D02*
X91440000Y-95250000D01*
X85090000Y-104140000D02*
X85090000Y-95250000D01*
X85090000Y-95250000D02*
X85090000Y-91440000D01*
X85560001Y-82079999D02*
X85560001Y-82385001D01*
X86360000Y-81280000D02*
X85560001Y-82079999D01*
X85560001Y-82385001D02*
X88265000Y-85090000D01*
X88265000Y-85090000D02*
X92710000Y-85090000D01*
X92710000Y-85090000D02*
X95161001Y-87541001D01*
X129540000Y-60856726D02*
X133985000Y-65301726D01*
X129540000Y-59690000D02*
X129540000Y-60856726D01*
X133985000Y-65301726D02*
X133985000Y-84455000D01*
X130898999Y-87541001D02*
X95161001Y-87541001D01*
X133985000Y-84455000D02*
X130898999Y-87541001D01*
X122555000Y-80645000D02*
X124460000Y-82550000D01*
X103505000Y-80645000D02*
X122555000Y-80645000D01*
X96520000Y-73660000D02*
X103505000Y-80645000D01*
X80276000Y-73660000D02*
X96520000Y-73660000D01*
X76200000Y-68580000D02*
X76200000Y-69584000D01*
X76200000Y-69584000D02*
X80276000Y-73660000D01*
X126958283Y-79968283D02*
X129540000Y-82550000D01*
X103546717Y-79968283D02*
X126958283Y-79968283D01*
X96603434Y-73025000D02*
X103546717Y-79968283D01*
X82124340Y-73025000D02*
X96603434Y-73025000D01*
X78740000Y-68580000D02*
X78740000Y-69640660D01*
X78740000Y-69640660D02*
X82124340Y-73025000D01*
X96686868Y-72390000D02*
X85090000Y-72390000D01*
X103671868Y-79375000D02*
X96686868Y-72390000D01*
X128270000Y-83820000D02*
X130175000Y-83820000D01*
X127000000Y-82550000D02*
X128270000Y-83820000D01*
X130175000Y-83820000D02*
X130810000Y-83185000D01*
X130810000Y-83185000D02*
X130810000Y-82072118D01*
X85090000Y-72390000D02*
X81280000Y-68580000D01*
X130810000Y-82072118D02*
X128112882Y-79375000D01*
X128112882Y-79375000D02*
X103671868Y-79375000D01*
X86995000Y-71755000D02*
X96770302Y-71755000D01*
X83820000Y-68580000D02*
X86995000Y-71755000D01*
X96770302Y-71755000D02*
X103120302Y-78105000D01*
X103120302Y-78105000D02*
X118745000Y-78105000D01*
X114935000Y-76835000D02*
X116840000Y-74930000D01*
X103287170Y-76835000D02*
X114935000Y-76835000D01*
X96937170Y-70485000D02*
X103287170Y-76835000D01*
X88900000Y-68580000D02*
X90805000Y-70485000D01*
X90805000Y-70485000D02*
X96937170Y-70485000D01*
X86360000Y-53340000D02*
X85610001Y-52590001D01*
X85610001Y-52590001D02*
X85090000Y-52070000D01*
X82550000Y-55245000D02*
X82550000Y-52705000D01*
X82550000Y-52705000D02*
X83185000Y-52070000D01*
X83185000Y-52070000D02*
X85090000Y-52070000D01*
X82550000Y-55245000D02*
X82550000Y-62230000D01*
X82550000Y-62230000D02*
X87630000Y-67310000D01*
X87630000Y-67310000D02*
X87630000Y-69850000D01*
X87630000Y-69850000D02*
X88900000Y-71120000D01*
X88900000Y-71120000D02*
X93345000Y-71120000D01*
X96853736Y-71120000D02*
X103203736Y-77470000D01*
X93345000Y-71120000D02*
X96853736Y-71120000D01*
X118580001Y-75729999D02*
X116840000Y-77470000D01*
X119380000Y-74930000D02*
X118580001Y-75729999D01*
X103203736Y-77470000D02*
X116840000Y-77470000D01*
X83820000Y-53340000D02*
X102870000Y-72390000D01*
X104775000Y-73025000D02*
X106680000Y-74930000D01*
X104775000Y-73025000D02*
X103505000Y-73025000D01*
X103505000Y-73025000D02*
X102870000Y-72390000D01*
X127635000Y-76835000D02*
X129540000Y-74930000D01*
X123825000Y-76835000D02*
X127635000Y-76835000D01*
X94615000Y-65405000D02*
X104140000Y-74930000D01*
X87630000Y-65405000D02*
X94615000Y-65405000D01*
X132080000Y-77470000D02*
X130810000Y-78740000D01*
X132080000Y-74930000D02*
X132080000Y-77470000D01*
X90170000Y-83820000D02*
X96520000Y-83820000D01*
X58420000Y-86320365D02*
X61634635Y-89535000D01*
X58420000Y-85090000D02*
X58420000Y-86320365D01*
X68737118Y-89535000D02*
X71277118Y-92075000D01*
X61634635Y-89535000D02*
X68737118Y-89535000D01*
X73025000Y-92075000D02*
X74930000Y-93980000D01*
X71277118Y-92075000D02*
X73025000Y-92075000D01*
X55880000Y-85090000D02*
X55880000Y-88900000D01*
X55880000Y-88900000D02*
X62230000Y-95250000D01*
X62230000Y-95250000D02*
X75565000Y-95250000D01*
X75565000Y-95250000D02*
X76835000Y-93980000D01*
X76835000Y-93345000D02*
X74930000Y-91440000D01*
X76835000Y-93980000D02*
X76835000Y-93345000D01*
X112891370Y-86360000D02*
X111760000Y-86360000D01*
X118110000Y-81280000D02*
X119857882Y-81280000D01*
X116840000Y-82550000D02*
X118110000Y-81280000D01*
X119857882Y-81280000D02*
X120650000Y-82072118D01*
X120650000Y-82072118D02*
X120650000Y-83027882D01*
X120650000Y-83027882D02*
X117317882Y-86360000D01*
X117317882Y-86360000D02*
X112891370Y-86360000D01*
X129540000Y-97790000D02*
X129540000Y-92710000D01*
X129540000Y-92710000D02*
X125730000Y-88900000D01*
X113619750Y-88900000D02*
X112349750Y-90170000D01*
X125730000Y-88900000D02*
X113619750Y-88900000D01*
X79236370Y-88900000D02*
X78105000Y-88900000D01*
X97127119Y-90058999D02*
X97027119Y-90158999D01*
X98452881Y-90058999D02*
X97127119Y-90058999D01*
X98552881Y-90158999D02*
X98452881Y-90058999D01*
X112338749Y-90158999D02*
X98552881Y-90158999D01*
X112349750Y-90170000D02*
X112338749Y-90158999D01*
X97027119Y-90158999D02*
X81280000Y-90158999D01*
X80021001Y-88900000D02*
X81280000Y-90158999D01*
X78740000Y-88900000D02*
X80021001Y-88900000D01*
M02*
