M48
;DRILL file {KiCad 5.0.2-bee76a0~70~ubuntu18.04.1} date ven. 29 nov. 2019 22:05:07 CET
;FORMAT={-:-/ absolute / metric / decimal}
FMAT,2
METRIC,TZ
T1C0.400
T2C0.800
T3C0.900
T4C1.000
T5C1.090
T6C1.100
T7C1.200
%
G90
G05
T1
X78.74Y-99.06
X87.63Y-65.405
X96.52Y-83.82
X97.79Y-99.06
X118.745Y-78.105
X123.825Y-76.835
X130.81Y-78.74
T2
X100.33Y-81.28
X100.33Y-88.9
X72.39Y-93.98
X72.39Y-101.6
X78.74Y-81.28
X78.74Y-88.9
X104.14Y-74.93
X104.14Y-82.55
X106.68Y-74.93
X106.68Y-82.55
X109.22Y-74.93
X109.22Y-82.55
X111.76Y-74.93
X111.76Y-82.55
X114.3Y-74.93
X114.3Y-82.55
X116.84Y-74.93
X116.84Y-82.55
X119.38Y-74.93
X119.38Y-82.55
X121.92Y-74.93
X121.92Y-82.55
X124.46Y-74.93
X124.46Y-82.55
X127.Y-74.93
X127.Y-82.55
X129.54Y-74.93
X129.54Y-82.55
X132.08Y-74.93
X132.08Y-82.55
X59.69Y-80.645
X64.69Y-80.645
X107.95Y-93.98
X107.95Y-101.6
X105.41Y-88.9
X110.41Y-88.9
X104.14Y-86.36
X111.76Y-86.36
X69.85Y-81.28
X69.85Y-88.9
X96.52Y-81.28
X96.52Y-88.9
X86.36Y-81.28
X86.36Y-88.9
X92.71Y-93.98
X92.71Y-101.6
X92.71Y-81.28
X92.71Y-88.9
X82.55Y-81.28
X82.55Y-88.9
X66.04Y-72.39
X73.66Y-72.39
T3
X50.8Y-66.04
X53.34Y-66.04
X81.28Y-77.47
X83.82Y-77.47
X93.98Y-76.835
X95.758Y-78.359
X97.282Y-76.835
X98.806Y-78.359
X67.31Y-77.47
X69.85Y-77.47
T4
X85.09Y-91.44
X102.87Y-91.44
X76.2Y-53.34
X76.2Y-68.58
X78.74Y-53.34
X78.74Y-68.58
X81.28Y-53.34
X81.28Y-68.58
X83.82Y-53.34
X83.82Y-68.58
X86.36Y-53.34
X86.36Y-68.58
X88.9Y-53.34
X88.9Y-68.58
X62.23Y-104.14
T5
X53.34Y-85.09
X55.88Y-85.09
X58.42Y-85.09
X60.96Y-85.09
X63.5Y-85.09
X53.34Y-74.93
X55.88Y-74.93
X58.42Y-74.93
X60.96Y-74.93
T6
X50.11Y-91.44
X50.11Y-97.94
X54.61Y-91.44
X54.61Y-97.94
X129.54Y-59.69
X132.08Y-59.69
X74.93Y-76.2
X74.93Y-78.74
X74.93Y-81.28
X74.93Y-83.82
X74.93Y-86.36
X74.93Y-88.9
X74.93Y-91.44
X74.93Y-93.98
X74.93Y-96.52
X74.93Y-99.06
X74.93Y-101.6
X74.93Y-104.14
X90.17Y-76.2
X90.17Y-78.74
X90.17Y-81.28
X90.17Y-83.82
X90.17Y-86.36
X90.17Y-88.9
X90.17Y-91.44
X90.17Y-93.98
X90.17Y-96.52
X90.17Y-99.06
X90.17Y-101.6
X90.17Y-104.14
X129.54Y-97.79
X132.08Y-97.79
T7
X80.01Y-91.44
X80.01Y-104.14
X85.09Y-104.14
X97.79Y-91.44
X97.79Y-104.14
X102.87Y-104.14
X62.23Y-91.44
X67.31Y-91.44
X67.31Y-104.14
T0
M30
